<?xml version="1.0" encoding="utf-8"?>
<!-- Generator: Adobe Illustrator 16.0.0, SVG Export Plug-In . SVG Version: 6.00 Build 0)  -->
<!DOCTYPE svg PUBLIC "-//W3C//DTD SVG 1.1//EN" "http://www.w3.org/Graphics/SVG/1.1/DTD/svg11.dtd">
<svg version="1.1" id="Layer_1" xmlns="http://www.w3.org/2000/svg" xmlns:xlink="http://www.w3.org/1999/xlink" x="0px" y="0px"
	 width="50px" height="50px" viewBox="0 0 50 50" enable-background="new 0 0 50 50" xml:space="preserve">
<path fill="#AF5231" d="M9.319,2.024L2.024,9.189v32.322l7.24,6.464H41.02l6.957-6.441V9.168l-7.012-7.144H9.319z M25.324,32.146
	c-3.815,0-6.919-3.104-6.919-6.919c0-3.814,3.104-6.918,6.919-6.918c3.816,0,6.921,3.104,6.921,6.918
	C32.245,29.043,29.141,32.146,25.324,32.146z"/>
<g>
	<path fill="#E76D3B" d="M40.965,2.024l7.012,7.144v32.365l-6.957,6.441H9.264l-7.24-6.464V9.189l7.295-7.165H40.965 M25.324,32.146
		c3.816,0,6.921-3.104,6.921-6.919c0-3.814-3.104-6.918-6.921-6.918c-3.815,0-6.919,3.104-6.919,6.918
		C18.405,29.043,21.509,32.146,25.324,32.146 M41.805,0.024H8.501L0.024,8.351v34.057l8.477,7.568h33.301l8.175-7.568V8.351
		L41.805,0.024L41.805,0.024z M25.324,30.146c-2.718,0-4.919-2.203-4.919-4.919c0-2.717,2.201-4.918,4.919-4.918
		c2.718,0,4.921,2.2,4.921,4.918C30.245,27.943,28.042,30.146,25.324,30.146L25.324,30.146z"/>
</g>
</svg>
