<?xml version="1.0" encoding="utf-8"?>
<!-- Generator: Adobe Illustrator 16.0.0, SVG Export Plug-In . SVG Version: 6.00 Build 0)  -->
<!DOCTYPE svg PUBLIC "-//W3C//DTD SVG 1.1//EN" "http://www.w3.org/Graphics/SVG/1.1/DTD/svg11.dtd">
<svg version="1.1" id="Layer_1" xmlns="http://www.w3.org/2000/svg" xmlns:xlink="http://www.w3.org/1999/xlink" x="0px" y="0px"
	 width="60.84px" height="50px" viewBox="0 0 60.84 50" enable-background="new 0 0 60.84 50" xml:space="preserve">
<path fill="#7E8EA5" d="M58.839,25c0-9.026-4.319-17.535-11.585-22.889H13.585C6.319,7.464,2.001,15.973,2.001,25
	c0,9.025,4.318,17.536,11.584,22.889h33.668C54.52,42.535,58.839,34.025,58.839,25z M30.419,42.657
	c-3.311,0-6.004-2.694-6.004-6.007s2.693-6.006,6.004-6.006c3.312,0,6.006,2.693,6.006,6.006S33.73,42.657,30.419,42.657z"/>
<path fill="#A2BADE" d="M47.254,2.111C54.52,7.465,58.839,15.974,58.839,25c0,9.025-4.319,17.535-11.585,22.889H13.585
	C6.319,42.536,2.001,34.025,2.001,25c0-9.027,4.318-17.536,11.584-22.889H47.254 M30.419,42.657c3.312,0,6.006-2.694,6.006-6.007
	s-2.694-6.006-6.006-6.006c-3.311,0-6.004,2.693-6.004,6.006S27.108,42.657,30.419,42.657 M47.898,0.111H12.94
	C5.117,5.615,0.001,14.707,0.001,25S5.117,44.385,12.94,49.889h34.958C55.721,44.385,60.838,35.293,60.838,25
	S55.723,5.615,47.898,0.111L47.898,0.111z M30.419,40.657c-2.211,0-4.004-1.794-4.004-4.007s1.793-4.006,4.004-4.006
	c2.213,0,4.006,1.793,4.006,4.006S32.632,40.657,30.419,40.657L30.419,40.657z"/>
</svg>
