<?xml version="1.0" encoding="utf-8"?>
<!-- Generator: Adobe Illustrator 16.0.0, SVG Export Plug-In . SVG Version: 6.00 Build 0)  -->
<!DOCTYPE svg PUBLIC "-//W3C//DTD SVG 1.1//EN" "http://www.w3.org/Graphics/SVG/1.1/DTD/svg11.dtd">
<svg version="1.1" id="Layer_1" xmlns="http://www.w3.org/2000/svg" xmlns:xlink="http://www.w3.org/1999/xlink" x="0px" y="0px"
	 width="50px" height="50px" viewBox="0 0 50 50" enable-background="new 0 0 50 50" xml:space="preserve">
<path fill="#BCB148" d="M2,5.029C7.764,7.307,11.795,15.339,11.795,25c0,9.662-4.031,17.691-9.795,19.971V48h46v-3.029
	C42.236,42.693,38.205,34.662,38.205,25S42.236,7.307,48,5.029V2H2V5.029z"/>
<path fill="#E2DA5F" d="M48,2v3.029C42.236,7.307,38.205,15.338,38.205,25S42.236,42.691,48,44.971V48H2v-3.029
	C7.764,42.693,11.795,34.662,11.795,25c0-9.661-4.031-17.691-9.795-19.971V2H48 M50,0H0v6.516C5.516,7.607,9.795,15.465,9.795,25
	c0,9.536-4.279,17.393-9.795,18.484V50h50v-6.516c-5.516-1.092-9.795-8.948-9.795-18.484S44.484,7.607,50,6.516V0L50,0z"/>
</svg>
