<?xml version="1.0" encoding="utf-8"?>
<!-- Generator: Adobe Illustrator 16.0.0, SVG Export Plug-In . SVG Version: 6.00 Build 0)  -->
<!DOCTYPE svg PUBLIC "-//W3C//DTD SVG 1.1//EN" "http://www.w3.org/Graphics/SVG/1.1/DTD/svg11.dtd">
<svg version="1.1" id="Layer_1" xmlns="http://www.w3.org/2000/svg" xmlns:xlink="http://www.w3.org/1999/xlink" x="0px" y="0px"
	 width="58.631px" height="50px" viewBox="71 71 58.631 50" enable-background="new 71 71 58.631 50" xml:space="preserve">
<path fill="#AAAAAA" d="M100.735,74.94L74.513,119h51.654L100.735,74.94z M100.313,110.155c-3.317,0-6.017-2.699-6.017-6.017
	s2.699-6.017,6.017-6.017s6.017,2.699,6.017,6.017S103.631,110.155,100.313,110.155z"/>
<path fill="#D1D1D1" d="M100.735,74.94L126.167,119H74.513L100.735,74.94 M100.313,110.155c3.317,0,6.017-2.699,6.017-6.017
	s-2.699-6.017-6.017-6.017s-6.017,2.699-6.017,6.017S96.996,110.155,100.313,110.155 M100.762,70.985L70.996,121h58.635
	L100.762,70.985L100.762,70.985z M100.313,108.155c-2.219,0-4.017-1.799-4.017-4.017c0-2.219,1.799-4.017,4.017-4.017
	c2.219,0,4.017,1.799,4.017,4.017S102.532,108.155,100.313,108.155L100.313,108.155z"/>
</svg>
