<?xml version="1.0" encoding="UTF-8"?>
<svg id="Layer_1" data-name="Layer 1" xmlns="http://www.w3.org/2000/svg" version="1.1" viewBox="0 0 48 48">
  <defs>
    <style>
      .cls-1 {
        fill: #c5eaf4;
      }

      .cls-1, .cls-2, .cls-3, .cls-4, .cls-5, .cls-6, .cls-7 {
        stroke-width: 0px;
      }

      .cls-2 {
        fill: #e0fbfb;
      }

      .cls-3 {
        fill: #4cb5bc;
      }

      .cls-4 {
        fill: #6dcbd0;
      }

      .cls-5 {
        fill: #96dadf;
      }

      .cls-6 {
        fill: #3fa3ad;
      }

      .cls-7 {
        fill: #fff;
      }
    </style>
  </defs>
  <g>
    <polygon class="cls-4" points="12.8 17.2 7.1 33.7 23 36.1 12.8 17.2"/>
    <polygon class="cls-4" points="22.2 3.8 7 12.7 12.4 14.5 22.2 3.8"/>
    <polygon class="cls-1" points="34.4 14.6 24.4 3.7 14.3 14.6 34.4 14.6"/>
    <polygon class="cls-2" points="41.8 12.7 26.5 3.8 36.3 14.5 41.8 12.7"/>
    <polygon class="cls-3" points="6.1 13.9 6.1 32 11.7 15.8 6.1 13.9"/>
    <polygon class="cls-1" points="25.7 36.1 41.6 33.7 36 17.2 25.7 36.1"/>
    <polygon class="cls-3" points="23.6 44.4 23.6 37.7 7.9 35.3 23.6 44.4"/>
    <polygon class="cls-2" points="37.1 15.8 42.6 32 42.6 13.9 37.1 15.8"/>
    <polygon class="cls-4" points="25.1 44.4 40.9 35.3 25.1 37.7 25.1 44.4"/>
    <polygon class="cls-5" points="13.8 16.1 24.4 35.5 34.9 16.1 13.8 16.1"/>
  </g>
  <path class="cls-6" d="M43.4,11.9L25.1,1.3c-.2-.1-.5-.2-.7-.2s-.5,0-.7.2L5.4,11.9c-.5.3-.7.8-.7,1.3v21.1c0,.5.3,1,.7,1.3l18.3,10.6c.2.1.5.2.7.2s.5,0,.7-.2l18.2-10.6c.5-.3.7-.8.7-1.3V13.2c0-.5-.3-1-.7-1.3ZM6.1,13.9l5.5,1.9-5.5,16.2V13.9h0ZM13.8,16.1h21l-10.5,19.4-10.5-19.4ZM23,36.1l-15.9-2.4,5.6-16.5,10.2,18.9ZM14.3,14.6L24.4,3.7l10.1,10.9H14.3ZM36.3,14.5L26.5,3.8l15.3,8.8-5.4,1.9ZM12.4,14.5l-5.4-1.9L22.2,3.8l-9.8,10.7ZM23.6,37.7v6.7l-15.8-9.1,15.8,2.4ZM36,17.2l5.6,16.5-15.9,2.4,10.3-18.9ZM37.1,15.8l5.6-1.9v18.1s-5.6-16.2-5.6-16.2ZM25.1,44.4v-6.7l15.7-2.4-15.7,9.1Z"/>
  <path class="cls-7" d="M24.4,1.1c.3,0,.5,0,.7.2l18.3,10.6c.5.3.7.8.7,1.3v21.1c0,.5-.3,1-.8,1.3l-18.2,10.6c-.2.1-.5.2-.7.2s-.5,0-.7-.2l-18.3-10.6c-.5-.3-.7-.8-.7-1.3V13.2c0-.5.3-1,.7-1.3L23.6,1.3c.2-.1.5-.2.7-.2M24.4,0c-.5,0-1,.1-1.4.4L4.7,11c-.9.5-1.4,1.5-1.4,2.5v21.1c0,1,.5,2,1.4,2.5l18.3,10.6c.4.3.9.4,1.4.4s1-.1,1.4-.4l18.2-10.6c.9-.5,1.4-1.4,1.4-2.5V13.5c0-1-.5-2-1.4-2.5L25.8.5c-.4-.3-.9-.4-1.4-.4h0Z"/>
</svg>