<?xml version="1.0" encoding="utf-8"?>
<!-- Generator: Adobe Illustrator 16.0.0, SVG Export Plug-In . SVG Version: 6.00 Build 0)  -->
<!DOCTYPE svg PUBLIC "-//W3C//DTD SVG 1.1//EN" "http://www.w3.org/Graphics/SVG/1.1/DTD/svg11.dtd">
<svg version="1.1" id="Layer_1" xmlns="http://www.w3.org/2000/svg" xmlns:xlink="http://www.w3.org/1999/xlink" x="0px" y="0px"
	 width="16px" height="16px" viewBox="0 0 16 16" enable-background="new 0 0 16 16" xml:space="preserve">
<path fill="#96dadf" d="M8.178,15.468c-0.082,0-0.164-0.023-0.234-0.07c-0.261-0.175-1.019-0.634-2.381-1.14
	c-1.165-0.432-2.059-0.906-2.641-1.823C2.36,11.551,2.11,10.271,2.11,8.285V1.301c0-0.215,0.184-0.39,0.41-0.39
	c0.674-0.004,3.073-0.058,5.574-0.564c0.056-0.011,0.114-0.011,0.17,0c2.501,0.507,4.898,0.56,5.575,0.564
	c0.226,0,0.408,0.175,0.408,0.39v6.984c0,4.041-1.018,5.07-3.452,5.973c-1.362,0.506-2.118,0.965-2.381,1.14
	C8.343,15.444,8.26,15.468,8.178,15.468z M2.721,1.364C2.635,1.365,2.565,1.435,2.565,1.521v6.764c0,3.944,1.011,4.751,3.156,5.546
	c1.218,0.451,1.975,0.873,2.335,1.097c0.075,0.048,0.17,0.048,0.245,0c0.36-0.224,1.117-0.646,2.335-1.097
	c2.145-0.795,3.156-1.602,3.156-5.546V1.521c0-0.086-0.069-0.156-0.156-0.158C12.76,1.35,10.532,1.267,8.209,0.8
	c-0.021-0.004-0.041-0.004-0.061,0C5.824,1.267,3.597,1.35,2.721,1.364z M2.521,1.366C2.521,1.366,2.521,1.366,2.521,1.366
	C2.521,1.366,2.521,1.366,2.521,1.366z"/>
<path d="M8.178,15.805c-0.085,0-0.171-0.023-0.244-0.072c-0.274-0.183-1.064-0.663-2.488-1.19c-1.217-0.45-2.151-0.947-2.759-1.904
	c-0.586-0.924-0.848-2.26-0.848-4.335V1.006c0-0.225,0.192-0.408,0.428-0.408c0.704-0.004,3.209-0.06,5.823-0.59
	c0.058-0.011,0.119-0.011,0.177,0c2.612,0.53,5.117,0.585,5.824,0.59c0.235,0,0.427,0.183,0.427,0.408v7.296
	c0,4.222-1.062,5.297-3.605,6.24c-1.425,0.527-2.215,1.008-2.488,1.19C8.351,15.781,8.264,15.805,8.178,15.805z M2.217,1.015
	L2.217,1.015L2.217,1.015z"/>
</svg>
