<?xml version="1.0" encoding="utf-8"?>
<!-- Generator: Adobe Illustrator 16.0.0, SVG Export Plug-In . SVG Version: 6.00 Build 0)  -->
<!DOCTYPE svg PUBLIC "-//W3C//DTD SVG 1.1//EN" "http://www.w3.org/Graphics/SVG/1.1/DTD/svg11.dtd">
<svg version="1.1" id="Layer_1" xmlns="http://www.w3.org/2000/svg" xmlns:xlink="http://www.w3.org/1999/xlink" x="0px" y="0px"
	 width="283.465px" height="283.465px" viewBox="0 0 283.465 283.465" enable-background="new 0 0 283.465 283.465"
	 xml:space="preserve">
<g>
	<path d="M142.478,279.054c-2.246,0-4.459-0.595-6.402-1.717l-107.844-62.36c-3.939-2.279-6.386-6.521-6.386-11.072V79.185
		c0-4.55,2.447-8.793,6.386-11.071L136.076,5.755c1.943-1.125,4.157-1.719,6.402-1.719c2.245,0,4.459,0.594,6.403,1.717
		L256.7,68.115c3.941,2.281,6.391,6.528,6.386,11.083l-0.138,124.721c-0.004,4.541-2.449,8.776-6.381,11.054l-107.681,62.36
		C146.944,278.459,144.726,279.054,142.478,279.054z M150.811,256.775l68.423-39.625l-68.423,10.473V256.775z M133.984,256.689
		v-29.222l-68.48-10.375L133.984,256.689z M157.824,209.528l81.109-12.415l-28.806-83.954L157.824,209.528z M126.887,209.376
		l-52.22-96.216l-28.801,83.939L126.887,209.376z M142.397,202.679l55.333-101.952H87.064L142.397,202.679z M246.163,166.343
		l0.085-76.875l-23.679,8.116L246.163,166.343z M38.671,166.22l23.58-68.719l-23.58-8.084V166.22z M192.707,83.901L142.47,29.249
		L92.116,83.901H192.707z M214.374,82.607l21.205-7.271L176.03,40.896L214.374,82.607z M70.492,82.539L108.8,40.962L49.403,75.308
		L70.492,82.539z"/>
	<path fill="#FFFFFF" d="M142.478,8.074c1.513,0,3.026,0.392,4.384,1.175l107.815,62.36c2.707,1.566,4.375,4.458,4.37,7.586
		l-0.137,124.72c-0.003,3.12-1.667,6.001-4.365,7.564l-107.682,62.36c-1.355,0.784-2.872,1.178-4.386,1.178
		c-1.513,0-3.026-0.39-4.381-1.175L30.254,211.48c-2.706-1.563-4.372-4.45-4.372-7.576V79.185c0-3.125,1.666-6.013,4.372-7.577
		L138.097,9.249C139.452,8.465,140.965,8.074,142.478,8.074 M82.909,87.938h118.991l-59.426-64.649L82.909,87.938 M213.187,87.283
		l32.087-11.002l-90.102-52.114L213.187,87.283 M71.676,87.212l58.067-63.023L39.708,76.251L71.676,87.212 M34.635,190.422
		l32.746-95.43L34.635,83.765V190.422 M250.175,190.467l0.116-106.653l-32.849,11.263L250.175,190.467 M142.397,211.142
		l62.117-114.452H80.28L142.397,211.142 M134.305,214.582L73.832,103.157l-33.355,97.208L134.305,214.582 M150.397,214.749
		l93.924-14.377l-33.36-97.215L150.397,214.749 M138.02,263.688v-39.69l-93.013-14.094L138.02,263.688 M146.772,263.776
		l92.996-53.854l-92.996,14.234V263.776 M142.478,0c-2.954,0-5.866,0.781-8.423,2.26L26.212,64.619
		c-5.183,2.998-8.403,8.579-8.403,14.566v124.719c0,5.988,3.22,11.57,8.403,14.567l107.843,62.359
		c2.557,1.479,5.469,2.26,8.423,2.26c2.957,0,5.873-0.784,8.432-2.265l107.681-62.361c5.172-2.995,8.388-8.563,8.394-14.541
		l0.137-124.72c0.006-5.995-3.212-11.583-8.4-14.583L150.901,2.261C148.345,0.781,145.433,0,142.478,0L142.478,0z M101.325,79.864
		l41.142-44.654l41.047,44.654H101.325L101.325,79.864z M215.561,77.934l-18.67-20.31l28.996,16.77L215.561,77.934L215.561,77.934z
		 M59.099,74.366l28.758-16.63L69.31,77.866L59.099,74.366L59.099,74.366z M42.708,142.019V95.068l14.414,4.943L42.708,142.019
		L42.708,142.019z M227.7,100.094l14.505-4.974l-0.052,47.097L227.7,100.094L227.7,100.094z M93.847,104.763h97.101l-48.55,89.454
		L93.847,104.763L93.847,104.763z M51.252,193.832l24.25-70.67l43.964,81.006L51.252,193.832L51.252,193.832z M165.25,204.307
		l44.042-81.145l24.256,70.691L165.25,204.307L165.25,204.307z M129.947,249.693l-43.95-25.414l43.95,6.658V249.693L129.947,249.693
		z M154.846,231.087l43.856-6.71l-43.856,25.396V231.087L154.846,231.087z"/>
</g>
<polygon fill="#FFAD84" points="73.832,103.157 40.476,200.365 134.305,214.582 "/>
<polygon fill="#FFAD84" points="129.743,24.189 39.708,76.251 71.676,87.212 "/>
<polygon fill="#FFEADD" points="201.899,87.938 142.473,23.288 82.909,87.938 "/>
<polygon fill="#FFF4ED" points="245.273,76.28 155.169,24.167 213.186,87.282 "/>
<polygon fill="#E2845C" points="34.635,83.766 34.635,190.423 67.38,94.992 "/>
<polygon fill="#FFEADD" points="150.397,214.749 244.32,200.372 210.961,103.157 "/>
<polygon fill="#E2845C" points="138.02,263.688 138.02,223.997 45.007,209.903 "/>
<polygon fill="#FFF4ED" points="217.442,95.077 250.172,190.465 250.291,83.814 "/>
<polygon fill="#FFAD84" points="146.772,263.776 239.767,209.923 146.772,224.156 "/>
<polygon fill="#FFCCAF" points="80.28,96.689 142.396,211.142 204.514,96.689 "/>
<path fill="#D1774A" d="M254.678,71.609L146.862,9.249c-1.358-0.784-2.871-1.175-4.384-1.175c-1.513,0-3.026,0.392-4.381,1.175
	L30.254,71.608c-2.706,1.564-4.372,4.452-4.372,7.577v124.719c0,3.126,1.666,6.013,4.372,7.576l107.843,62.362
	c1.355,0.785,2.868,1.175,4.381,1.175c1.514,0,3.031-0.394,4.386-1.178l107.682-62.36c2.698-1.563,4.362-4.444,4.365-7.564
	l0.137-124.72C259.053,76.067,257.385,73.175,254.678,71.609z M34.635,83.765L67.38,94.992l-32.746,95.43V83.765z M80.28,96.689
	h124.234l-62.117,114.452L80.28,96.689z M134.305,214.582l-93.829-14.217l33.355-97.208L134.305,214.582z M82.909,87.938
	l59.564-64.649l59.426,64.649H82.909z M213.187,87.283l-58.015-63.116l90.102,52.114L213.187,87.283z M71.676,87.212l-31.969-10.96
	l90.036-52.062L71.676,87.212z M138.02,223.997v39.69l-93.013-53.784L138.02,223.997z M210.961,103.157l33.36,97.215l-93.924,14.377
	L210.961,103.157z M217.442,95.077l32.849-11.263l-0.116,106.653L217.442,95.077z M146.772,263.776v-39.619l92.996-14.234
	L146.772,263.776z"/>
</svg>
