<?xml version="1.0" encoding="utf-8"?>
<!-- Generator: Adobe Illustrator 16.0.0, SVG Export Plug-In . SVG Version: 6.00 Build 0)  -->
<!DOCTYPE svg PUBLIC "-//W3C//DTD SVG 1.1//EN" "http://www.w3.org/Graphics/SVG/1.1/DTD/svg11.dtd">
<svg version="1.1" xmlns="http://www.w3.org/2000/svg" xmlns:xlink="http://www.w3.org/1999/xlink" x="0px" y="0px"
	 width="505.485px" height="249.587px" viewBox="0 0 505.485 249.587" enable-background="new 0 0 505.485 249.587"
	 xml:space="preserve">
<g id="Green" display="none">
	<g display="inline">
		<path fill="#6AB082" d="M194.125,13.169v57.364v6.435v5.302c0,38.844,9.58,48.412,32.685,56.974
			c13.713,5.08,21.374,9.742,24.026,11.508c0.209,0.138,1.667,0.268,1.907,0.315v-27.178L209.05,98.51V47.649l43.693-25.011V5.932
			c-26.234,5.067-50.194,5.586-56.817,5.628C194.931,11.56,194.125,12.28,194.125,13.169"/>
		<path fill="#DCFFDE" d="M310.488,13.169v57.364v6.435v5.302c0,38.844-9.438,48.412-32.197,56.974
			c-13.509,5.08-21.056,9.742-23.668,11.508c-0.206,0.138-1.642,0.268-1.88,0.315v-27.178l45.013-25.379V47.649l-45.013-25.011
			V5.932c25.845,5.067,49.447,5.586,55.972,5.628C309.694,11.56,310.488,12.28,310.488,13.169"/>
		<path fill="#FFFFFF" d="M252.743,153.597c-0.816,0-1.632-0.23-2.328-0.694c-2.604-1.731-10.116-6.299-23.651-11.313
			c-11.559-4.283-20.442-9.001-26.223-18.103c-5.574-8.774-8.059-21.482-8.059-41.204V12.921c0-2.137,1.824-3.876,4.067-3.876
			c6.693-0.042,30.509-0.57,55.354-5.604c0.55-0.111,1.132-0.112,1.684,0c24.836,5.033,48.645,5.562,55.36,5.604
			c2.24,0.004,4.061,1.742,4.061,3.876v69.361c0,40.128-10.108,50.349-34.284,59.307c-13.534,5.015-21.047,9.582-23.649,11.312
			C254.377,153.364,253.56,153.596,252.743,153.597 M198.548,13.544c-0.857,0.014-1.545,0.711-1.545,1.569v67.169
			c0,39.171,10.034,47.176,31.332,55.067c12.093,4.482,19.613,8.67,23.192,10.896c0.746,0.465,1.686,0.465,2.433,0
			c3.578-2.226,11.098-6.414,23.192-10.896c21.299-7.891,31.333-15.897,31.333-55.067V15.113c0-0.858-0.688-1.555-1.545-1.569
			c-8.698-0.136-30.818-0.962-53.893-5.599c-0.2-0.04-0.408-0.04-0.608,0C229.366,12.582,207.247,13.408,198.548,13.544
			 M196.566,13.566h-0.003H196.566z"/>
		<path fill="#6B8A6B" d="M252.743,156.954c-0.853,0-1.705-0.242-2.433-0.726c-2.719-1.809-10.568-6.58-24.708-11.819
			c-12.076-4.474-21.356-9.401-27.395-18.911c-5.823-9.167-8.42-22.443-8.42-43.047V9.99c0-2.232,1.906-4.049,4.249-4.049
			c6.993-0.044,31.873-0.595,57.828-5.855c0.575-0.115,1.183-0.116,1.759,0.001c25.946,5.257,50.819,5.81,57.836,5.854
			c2.34,0.005,4.241,1.82,4.241,4.049v72.461c0,41.922-10.559,52.601-35.816,61.958c-14.14,5.239-21.988,10.011-24.706,11.818
			C254.449,156.712,253.597,156.953,252.743,156.954 M196.011,10.051c-1.113,0.019-2.001,0.927-2.001,2.041v70.393
			c0,41.275,10.573,49.709,33.015,58.025c12.255,4.541,20.053,8.797,23.987,11.201c1.064,0.651,2.399,0.651,3.464,0
			c3.933-2.403,11.73-6.66,23.987-11.201c22.442-8.316,33.016-16.751,33.016-58.025v-70.05c0-1.302-1.041-2.366-2.343-2.39
			c-9.66-0.178-32.571-1.131-56.393-5.952C228.639,8.971,205.467,9.889,196.011,10.051 M193.55,10.082h-0.003H193.55z"/>
		<path d="M252.748,123.819c-0.823,0-1.637-0.218-2.349-0.63l-39.562-22.877c-1.446-0.836-2.344-2.392-2.344-4.062V50.496
			c0-1.67,0.898-3.226,2.344-4.062l39.562-22.877c0.712-0.412,1.525-0.63,2.349-0.63c0.824,0,1.636,0.218,2.35,0.63l39.554,22.877
			c1.446,0.837,2.345,2.396,2.343,4.067l-0.051,45.754c-0.001,1.666-0.897,3.22-2.34,4.055L255.1,123.187
			C254.387,123.601,253.573,123.819,252.748,123.819 M255.805,115.646l25.102-14.537l-25.102,3.843V115.646z M249.632,115.615
			v-10.721l-25.123-3.806L249.632,115.615z M258.379,98.313l29.755-4.554l-10.567-30.8L258.379,98.313z M247.027,98.257
			l-19.157-35.298l-10.566,30.794L247.027,98.257z M252.719,95.8l20.299-37.402H232.42L252.719,95.8z M290.786,82.47l0.031-28.202
			l-8.687,2.978L290.786,82.47z M214.666,82.425l8.651-25.21l-8.651-2.966V82.425z M271.176,52.226l-18.431-20.049l-18.472,20.049
			H271.176z M279.124,51.751l7.778-2.667l-21.845-12.635L279.124,51.751z M226.34,51.726l14.053-15.252l-21.79,12.6L226.34,51.726z"
			/>
		<path fill="#FFFFFF" d="M252.748,24.408c0.556,0,1.11,0.144,1.608,0.431l39.554,22.878c0.993,0.574,1.604,1.635,1.603,2.782
			l-0.05,45.755c-0.001,1.144-0.611,2.201-1.602,2.775l-39.504,22.877c-0.498,0.288-1.053,0.432-1.609,0.432
			c-0.555,0-1.109-0.143-1.606-0.431L211.578,99.03c-0.993-0.574-1.604-1.633-1.604-2.78V50.496c0-1.147,0.611-2.206,1.604-2.78
			l39.563-22.877C251.639,24.552,252.193,24.408,252.748,24.408 M230.894,53.707h43.654L252.747,29.99L230.894,53.707
			 M278.688,53.466l11.771-4.036l-33.056-19.118L278.688,53.466 M226.774,53.441l21.302-23.121l-33.03,19.099L226.774,53.441
			 M213.185,91.304l12.013-35.009l-12.013-4.119V91.304 M292.258,91.32l0.043-39.126l-12.052,4.132L292.258,91.32 M252.719,98.905
			l22.788-41.988h-45.576L252.719,98.905 M249.75,100.167L227.565,59.29l-12.237,35.662L249.75,100.167 M255.653,100.228
			l34.457-5.274L277.872,59.29L255.653,100.228 M251.113,118.182v-14.561l-34.123-5.17L251.113,118.182 M254.324,118.215
			l34.115-19.757l-34.115,5.222V118.215 M252.748,21.446c-1.083,0-2.151,0.287-3.09,0.829l-39.563,22.877
			c-1.901,1.1-3.083,3.147-3.083,5.344V96.25c0,2.197,1.182,4.244,3.083,5.344l39.563,22.877c0.938,0.543,2.007,0.829,3.09,0.829
			c1.085,0,2.155-0.287,3.094-0.831l39.504-22.877c1.896-1.098,3.076-3.143,3.079-5.335l0.049-45.754
			c0.004-2.199-1.178-4.249-3.081-5.35l-39.554-22.878C254.9,21.733,253.832,21.446,252.748,21.446 M237.651,50.745l15.093-16.382
			l15.059,16.382H237.651z M279.56,50.036l-6.85-7.45l10.637,6.152L279.56,50.036z M222.16,48.727l10.55-6.1l-6.804,7.385
			L222.16,48.727z M216.147,73.547V56.323l5.288,1.813L216.147,73.547z M284.013,58.166l5.321-1.824l-0.019,17.277L284.013,58.166z
			 M234.908,59.879h35.621l-17.811,32.817L234.908,59.879z M219.282,92.555l8.896-25.926l16.129,29.718L219.282,92.555z
			 M261.103,96.398l16.156-29.769l8.899,25.934L261.103,96.398z M248.151,113.048l-16.123-9.323l16.123,2.443V113.048z
			 M257.286,106.223l16.088-2.462l-16.088,9.316V106.223z"/>
		<polygon fill="#8DD294" points="227.565,59.29 215.328,94.952 249.75,100.167 		"/>
		<polygon fill="#8DD294" points="248.076,30.32 215.046,49.419 226.774,53.44 		"/>
		<polygon fill="#DCFFDE" points="274.548,53.707 252.747,29.99 230.895,53.707 		"/>
		<polygon fill="#EFFFEC" points="290.46,49.43 257.404,30.312 278.688,53.466 		"/>
		<polygon fill="#6AB082" points="213.185,52.176 213.185,91.304 225.198,56.295 		"/>
		<polygon fill="#DCFFDE" points="255.653,100.229 290.109,94.955 277.872,59.291 		"/>
		<polygon fill="#6AB082" points="251.113,118.182 251.113,103.621 216.99,98.451 		"/>
		<polygon fill="#EFFFEC" points="280.25,56.325 292.257,91.32 292.301,52.193 		"/>
		<polygon fill="#8DD294" points="254.324,118.215 288.439,98.458 254.324,103.679 		"/>
		<polygon fill="#A2FF9E" points="229.931,56.917 252.719,98.905 275.507,56.917 		"/>
		<path fill="#6B8A6B" d="M293.91,47.716l-39.554-22.877c-0.498-0.288-1.054-0.432-1.608-0.432s-1.109,0.144-1.606,0.432
			l-39.564,22.877c-0.992,0.574-1.603,1.633-1.603,2.78V96.25c0,1.147,0.611,2.206,1.603,2.78l39.564,22.877
			c0.497,0.287,1.052,0.431,1.606,0.431c0.556,0,1.111-0.144,1.609-0.432l39.504-22.877c0.99-0.574,1.601-1.631,1.602-2.775
			l0.05-45.755C295.515,49.352,294.903,48.291,293.91,47.716 M213.185,52.176l12.013,4.119l-12.013,35.009V52.176z M229.93,56.917
			h45.577l-22.788,41.988L229.93,56.917z M249.75,100.167l-34.422-5.216l12.237-35.661L249.75,100.167z M230.894,53.707
			l21.853-23.718l21.801,23.718H230.894z M278.688,53.466l-21.284-23.154L290.46,49.43L278.688,53.466z M226.774,53.441
			l-11.728-4.022l33.03-19.099L226.774,53.441z M251.113,103.621v14.561L216.99,98.45L251.113,103.621z M277.872,59.29
			l12.238,35.664l-34.457,5.274L277.872,59.29z M280.249,56.325l12.052-4.131l-0.043,39.126L280.249,56.325z M254.324,118.215
			V103.68l34.115-5.222L254.324,118.215z"/>
	</g>
	<g display="inline">
		<path fill="#6B8A6B" d="M-0.144,237.094c0-1.765,1.561-3.122,3.46-3.122c1.968,0,3.597,1.357,3.597,3.122
			c0,2.985,2.375,5.836,6.922,5.836c4.343,0,7.125-2.444,7.125-6.107c0-2.919-0.678-5.429-4.818-8.144l-1.832-1.086
			c-4.479-2.511-5.7-3.325-6.99-4.14c-4.343-2.918-7.057-6.311-7.057-11.4c0-7.533,6.243-12.012,13.436-12.012
			c7.533,0,13.437,4.411,13.437,11.604c0,1.765-1.561,3.122-3.529,3.122s-3.529-1.357-3.529-3.122c0-3.122-2.036-5.36-6.379-5.36
			c-4.411,0-6.379,2.916-6.379,5.7c0,1.492,0,3.528,3.665,6.106c1.086,0.882,3.936,2.647,8.619,5.293
			c5.226,3.055,8.415,7.736,8.415,13.438c0,7.871-6.922,12.351-14.183,12.351C5.082,249.173-0.144,243.269-0.144,237.094z"/>
		<path fill="#6B8A6B" d="M74.841,203.163v42.82c0,1.765-1.561,3.189-3.528,3.189c-1.9,0-3.461-1.425-3.461-3.189v-20.087H53.533
			v20.087c0,1.765-1.561,3.189-3.46,3.189c-1.968,0-3.597-1.425-3.597-3.189v-42.82c0-1.765,1.629-3.122,3.597-3.122
			c1.9,0,3.46,1.357,3.46,3.122v16.489h14.319v-16.489c0-1.765,1.561-3.122,3.461-3.122
			C73.281,200.041,74.841,201.398,74.841,203.163z"/>
		<path fill="#6B8A6B" d="M144.667,245.644c0,1.766-1.561,3.122-3.529,3.122h-18.933c-1.9,0-3.461-1.356-3.461-3.122v-42.142
			c0-1.696,1.561-3.054,3.461-3.054h18.729c1.968,0,3.529,1.357,3.529,3.054c0,1.765-1.561,3.189-3.529,3.189h-15.133v12.961h13.232
			c1.968,0,3.529,1.426,3.529,3.19c0,1.697-1.561,3.054-3.529,3.054h-13.232v16.558h15.336
			C143.106,242.454,144.667,243.812,144.667,245.644z"/>
		<path fill="#6B8A6B" d="M209.337,248.766c-1.968,0-3.598-1.356-3.598-3.122v-42.142c0-1.696,1.629-3.054,3.598-3.054h9.772
			c7.871,0,14.25,6.175,14.25,13.844v20.562c0,7.668-6.379,13.912-14.25,13.912H209.337z M212.797,242.454h6.312
			c4.003,0,7.193-3.393,7.193-7.601v-20.562c0-4.207-3.19-7.601-7.193-7.601h-6.312V242.454z"/>
		<path fill="#6B8A6B" d="M283.984,245.983v-28.367l-8.549,17.373c-0.612,1.018-1.766,1.766-3.191,1.766
			c-1.356,0-2.511-0.612-3.122-1.697l-8.482-17.372v28.298c0,1.765-1.561,3.189-3.528,3.189c-1.9,0-3.461-1.425-3.461-3.189v-42.82
			c0-1.765,1.561-3.122,3.461-3.122c1.356,0,2.646,0.747,3.121,1.765l12.011,24.77c4.005-8.008,8.144-16.762,12.079-24.77
			c0.543-1.018,1.766-1.765,3.19-1.765c2.104,0,3.461,1.63,3.461,3.122v42.82c0,1.765-1.562,3.189-3.461,3.189
			C285.545,249.173,283.984,247.748,283.984,245.983z"/>
		<path fill="#6B8A6B" d="M341.528,245.169c0.407,1.832-1.086,4.004-3.527,4.004c-1.495,0-2.782-0.882-3.259-2.24l-2.851-9.093
			h-13.706c-0.951,3.121-1.765,6.039-2.715,9.093c-0.407,1.289-1.834,2.24-3.395,2.24c-2.035,0-4.07-1.968-3.324-4.072v0.068
			l12.894-42.889c0.474-1.288,1.899-2.239,3.462-2.239c1.491,0,2.85,0.951,3.324,2.239l13.029,42.889H341.528z M330.06,231.597
			l-4.953-18.729l-5.091,18.729H330.06z"/>
		<path fill="#6B8A6B" d="M389.098,248.766c-1.971,0-3.598-1.356-3.598-3.122v-42.142c0-1.696,1.627-3.054,3.598-3.054h9.771
			c7.871,0,14.251,6.175,14.251,13.844v20.562c0,7.668-6.38,13.912-14.251,13.912H389.098z M392.558,242.454h6.311
			c4.004,0,7.193-3.393,7.193-7.601v-20.562c0-4.207-3.189-7.601-7.193-7.601h-6.311V242.454z"/>
		<path fill="#6B8A6B" d="M459.195,245.644c0,1.766-1.559,3.122-3.528,3.122h-18.935c-1.899,0-3.46-1.356-3.46-3.122v-42.142
			c0-1.696,1.561-3.054,3.46-3.054h18.731c1.967,0,3.528,1.357,3.528,3.054c0,1.765-1.562,3.189-3.528,3.189H440.33v12.961h13.232
			c1.969,0,3.53,1.426,3.53,3.19c0,1.697-1.562,3.054-3.53,3.054H440.33v16.558h15.337
			C457.636,242.454,459.195,243.812,459.195,245.644z"/>
		<path fill="#6B8A6B" d="M498.69,247.409l-15.607-31.354l0.611,29.928c0,1.765-1.562,3.189-3.529,3.189
			c-1.901,0-3.53-1.425-3.53-3.189v-42.82c0-1.765,1.766-3.122,3.53-3.122c1.289,0,2.577,0.814,3.121,1.765l15.608,31.216
			l-0.61-29.858c0-1.765,1.561-3.122,3.528-3.122c1.967,0,3.529,1.357,3.529,3.122v42.82c0,1.493-1.154,2.714-2.717,3.122
			l0.138-0.068c-0.408,0.136-0.611,0.136-0.95,0.136C500.59,249.173,499.233,248.427,498.69,247.409z"/>
		<path fill="#6B8A6B" d="M93.299,203.163c0-1.765,1.561-3.122,3.46-3.122c1.968,0,3.529,1.357,3.529,3.122v42.82
			c0,1.765-1.561,3.189-3.529,3.189c-1.9,0-3.46-1.425-3.46-3.189V203.163z"/>
		<path fill="#6B8A6B" d="M360.052,203.163c0-1.765,1.561-3.122,3.46-3.122c1.97,0,3.53,1.357,3.53,3.122v42.82
			c0,1.765-1.561,3.189-3.53,3.189c-1.899,0-3.46-1.425-3.46-3.189V203.163z"/>
		<path fill="#6B8A6B" d="M169.164,242.454h15.607c1.967,0,3.529,1.425,3.529,3.189c0,1.766-1.562,3.122-3.529,3.122h-19.136
			c-1.968,0-3.529-1.356-3.529-3.122v-42.48c0-1.765,1.561-3.122,3.461-3.122c1.841,0,3.413,1.193,3.596,2.791V242.454z"/>
	</g>
</g>
<g id="Blue" display="none">
	<g display="inline">
		<path fill="#7388CE" d="M194.125,13.169v57.364v6.435v5.302c0,38.844,9.58,48.412,32.685,56.974
			c13.713,5.08,21.374,9.742,24.026,11.508c0.209,0.138,1.667,0.268,1.907,0.315v-27.178L209.05,98.51V47.649l43.693-25.011V5.932
			c-26.234,5.067-50.194,5.586-56.817,5.628C194.931,11.56,194.125,12.28,194.125,13.169"/>
		<path fill="#DBDEFF" d="M310.488,13.169v57.364v6.435v5.302c0,38.844-9.438,48.412-32.197,56.974
			c-13.509,5.08-21.056,9.742-23.668,11.508c-0.206,0.138-1.642,0.268-1.88,0.315v-27.178l45.013-25.379V47.649l-45.013-25.011
			V5.932c25.845,5.067,49.447,5.586,55.972,5.628C309.694,11.56,310.488,12.28,310.488,13.169"/>
		<path fill="#FFFFFF" d="M252.743,153.597c-0.816,0-1.632-0.23-2.328-0.694c-2.604-1.731-10.116-6.299-23.651-11.313
			c-11.559-4.283-20.442-9.001-26.223-18.103c-5.574-8.774-8.059-21.482-8.059-41.204V12.921c0-2.137,1.824-3.876,4.067-3.876
			c6.693-0.042,30.509-0.57,55.354-5.604c0.55-0.111,1.132-0.112,1.684,0c24.836,5.033,48.645,5.562,55.36,5.604
			c2.24,0.004,4.061,1.742,4.061,3.876v69.361c0,40.128-10.108,50.349-34.284,59.307c-13.534,5.015-21.047,9.582-23.649,11.312
			C254.377,153.364,253.56,153.596,252.743,153.597 M198.548,13.544c-0.857,0.014-1.545,0.711-1.545,1.569v67.169
			c0,39.171,10.034,47.176,31.332,55.067c12.093,4.482,19.613,8.67,23.192,10.896c0.746,0.465,1.686,0.465,2.433,0
			c3.578-2.226,11.098-6.414,23.192-10.896c21.299-7.891,31.333-15.897,31.333-55.067V15.113c0-0.858-0.688-1.555-1.545-1.569
			c-8.698-0.136-30.818-0.962-53.893-5.599c-0.2-0.04-0.408-0.04-0.608,0C229.366,12.582,207.247,13.408,198.548,13.544
			 M196.566,13.566h-0.003H196.566z"/>
		<path fill="#5C6CA7" d="M252.743,156.954c-0.853,0-1.705-0.242-2.433-0.726c-2.719-1.809-10.568-6.58-24.708-11.819
			c-12.076-4.474-21.356-9.401-27.395-18.911c-5.823-9.167-8.42-22.443-8.42-43.047V9.99c0-2.232,1.906-4.049,4.249-4.049
			c6.993-0.044,31.873-0.595,57.828-5.855c0.575-0.115,1.183-0.116,1.759,0.001c25.946,5.257,50.819,5.81,57.836,5.854
			c2.34,0.005,4.241,1.82,4.241,4.049v72.461c0,41.922-10.559,52.601-35.816,61.958c-14.14,5.239-21.988,10.011-24.706,11.818
			C254.449,156.712,253.597,156.953,252.743,156.954 M196.011,10.051c-1.113,0.019-2.001,0.927-2.001,2.041v70.393
			c0,41.275,10.573,49.709,33.015,58.025c12.255,4.541,20.053,8.797,23.987,11.201c1.064,0.651,2.399,0.651,3.464,0
			c3.933-2.403,11.73-6.66,23.987-11.201c22.442-8.316,33.016-16.751,33.016-58.025v-70.05c0-1.302-1.041-2.366-2.343-2.39
			c-9.66-0.178-32.571-1.131-56.393-5.952C228.639,8.971,205.467,9.889,196.011,10.051 M193.55,10.082h-0.003H193.55z"/>
		<path d="M252.748,123.819c-0.823,0-1.637-0.218-2.349-0.63l-39.562-22.877c-1.446-0.836-2.344-2.392-2.344-4.062V50.496
			c0-1.67,0.898-3.226,2.344-4.062l39.562-22.877c0.712-0.412,1.525-0.63,2.349-0.63c0.824,0,1.636,0.218,2.35,0.63l39.554,22.877
			c1.446,0.837,2.345,2.396,2.343,4.067l-0.051,45.754c-0.001,1.666-0.897,3.22-2.34,4.055L255.1,123.187
			C254.387,123.601,253.573,123.819,252.748,123.819 M255.805,115.646l25.102-14.537l-25.102,3.843V115.646z M249.632,115.615
			v-10.721l-25.123-3.806L249.632,115.615z M258.379,98.313l29.755-4.554l-10.567-30.8L258.379,98.313z M247.027,98.257
			l-19.157-35.298l-10.566,30.794L247.027,98.257z M252.719,95.8l20.299-37.402H232.42L252.719,95.8z M290.786,82.47l0.031-28.202
			l-8.687,2.978L290.786,82.47z M214.666,82.425l8.651-25.21l-8.651-2.966V82.425z M271.176,52.226l-18.431-20.049l-18.472,20.049
			H271.176z M279.124,51.751l7.778-2.667l-21.845-12.635L279.124,51.751z M226.34,51.726l14.053-15.252l-21.79,12.6L226.34,51.726z"
			/>
		<path fill="#FFFFFF" d="M252.748,24.408c0.556,0,1.11,0.144,1.608,0.431l39.554,22.878c0.993,0.574,1.604,1.635,1.603,2.782
			l-0.05,45.755c-0.001,1.144-0.611,2.201-1.602,2.775l-39.504,22.877c-0.498,0.288-1.053,0.432-1.609,0.432
			c-0.555,0-1.109-0.143-1.606-0.431L211.578,99.03c-0.993-0.574-1.604-1.633-1.604-2.78V50.496c0-1.147,0.611-2.206,1.604-2.78
			l39.563-22.877C251.639,24.552,252.193,24.408,252.748,24.408 M230.894,53.707h43.654L252.747,29.99L230.894,53.707
			 M278.688,53.466l11.771-4.036l-33.056-19.118L278.688,53.466 M226.774,53.441l21.302-23.121l-33.03,19.099L226.774,53.441
			 M213.185,91.304l12.013-35.009l-12.013-4.119V91.304 M292.258,91.32l0.043-39.126l-12.052,4.132L292.258,91.32 M252.719,98.905
			l22.788-41.988h-45.576L252.719,98.905 M249.75,100.167L227.565,59.29l-12.237,35.662L249.75,100.167 M255.653,100.228
			l34.457-5.274L277.872,59.29L255.653,100.228 M251.113,118.182v-14.561l-34.123-5.17L251.113,118.182 M254.324,118.215
			l34.115-19.757l-34.115,5.222V118.215 M252.748,21.446c-1.083,0-2.151,0.287-3.09,0.829l-39.563,22.877
			c-1.901,1.1-3.083,3.147-3.083,5.344V96.25c0,2.197,1.182,4.244,3.083,5.344l39.563,22.877c0.938,0.543,2.007,0.829,3.09,0.829
			c1.085,0,2.155-0.287,3.094-0.831l39.504-22.877c1.896-1.098,3.076-3.143,3.079-5.335l0.049-45.754
			c0.004-2.199-1.178-4.249-3.081-5.35l-39.554-22.878C254.9,21.733,253.832,21.446,252.748,21.446 M237.651,50.745l15.093-16.382
			l15.059,16.382H237.651z M279.56,50.036l-6.85-7.45l10.637,6.152L279.56,50.036z M222.16,48.727l10.55-6.1l-6.804,7.385
			L222.16,48.727z M216.147,73.547V56.323l5.288,1.813L216.147,73.547z M284.013,58.166l5.321-1.824l-0.019,17.277L284.013,58.166z
			 M234.908,59.879h35.621l-17.811,32.817L234.908,59.879z M219.282,92.555l8.896-25.926l16.129,29.718L219.282,92.555z
			 M261.103,96.398l16.156-29.769l8.899,25.934L261.103,96.398z M248.151,113.048l-16.123-9.323l16.123,2.443V113.048z
			 M257.286,106.223l16.088-2.462l-16.088,9.316V106.223z"/>
		<polygon fill="#A2ADFF" points="227.565,59.29 215.328,94.952 249.75,100.167 		"/>
		<polygon fill="#A2ADFF" points="248.076,30.32 215.046,49.419 226.774,53.44 		"/>
		<polygon fill="#DBDEFF" points="274.548,53.707 252.747,29.99 230.895,53.707 		"/>
		<polygon fill="#ECEFFF" points="290.46,49.43 257.404,30.312 278.688,53.466 		"/>
		<polygon fill="#7388CE" points="213.185,52.176 213.185,91.304 225.198,56.295 		"/>
		<polygon fill="#DBDEFF" points="255.653,100.229 290.109,94.955 277.872,59.291 		"/>
		<polygon fill="#7388CE" points="251.113,118.182 251.113,103.621 216.99,98.451 		"/>
		<polygon fill="#ECEFFF" points="280.25,56.325 292.257,91.32 292.301,52.193 		"/>
		<polygon fill="#A2ADFF" points="254.324,118.215 288.439,98.458 254.324,103.679 		"/>
		<polygon fill="#C0C9FF" points="229.931,56.917 252.719,98.905 275.507,56.917 		"/>
		<path fill="#5C6CA7" d="M293.91,47.716l-39.554-22.877c-0.498-0.288-1.054-0.432-1.608-0.432s-1.109,0.144-1.606,0.432
			l-39.564,22.877c-0.992,0.574-1.603,1.633-1.603,2.78V96.25c0,1.147,0.611,2.206,1.603,2.78l39.564,22.877
			c0.497,0.287,1.052,0.431,1.606,0.431c0.556,0,1.111-0.144,1.609-0.432l39.504-22.877c0.99-0.574,1.601-1.631,1.602-2.775
			l0.05-45.755C295.515,49.352,294.903,48.291,293.91,47.716 M213.185,52.176l12.013,4.119l-12.013,35.009V52.176z M229.93,56.917
			h45.577l-22.788,41.988L229.93,56.917z M249.75,100.167l-34.422-5.216l12.237-35.661L249.75,100.167z M230.894,53.707
			l21.853-23.718l21.801,23.718H230.894z M278.688,53.466l-21.284-23.154L290.46,49.43L278.688,53.466z M226.774,53.441
			l-11.728-4.022l33.03-19.099L226.774,53.441z M251.113,103.621v14.561L216.99,98.45L251.113,103.621z M277.872,59.29
			l12.238,35.664l-34.457,5.274L277.872,59.29z M280.249,56.325l12.052-4.131l-0.043,39.126L280.249,56.325z M254.324,118.215
			V103.68l34.115-5.222L254.324,118.215z"/>
	</g>
	<g display="inline">
		<path fill="#5C6CA7" d="M-0.144,237.094c0-1.765,1.561-3.122,3.46-3.122c1.968,0,3.597,1.357,3.597,3.122
			c0,2.985,2.375,5.836,6.922,5.836c4.343,0,7.125-2.444,7.125-6.107c0-2.919-0.678-5.429-4.818-8.144l-1.832-1.086
			c-4.479-2.511-5.7-3.325-6.99-4.14c-4.343-2.918-7.057-6.311-7.057-11.4c0-7.533,6.243-12.012,13.436-12.012
			c7.533,0,13.437,4.411,13.437,11.604c0,1.765-1.561,3.122-3.529,3.122s-3.529-1.357-3.529-3.122c0-3.122-2.036-5.36-6.379-5.36
			c-4.411,0-6.379,2.916-6.379,5.7c0,1.492,0,3.528,3.665,6.106c1.086,0.882,3.936,2.647,8.619,5.293
			c5.226,3.055,8.415,7.736,8.415,13.438c0,7.871-6.922,12.351-14.183,12.351C5.082,249.173-0.144,243.269-0.144,237.094z"/>
		<path fill="#5C6CA7" d="M74.841,203.163v42.82c0,1.765-1.561,3.189-3.528,3.189c-1.9,0-3.461-1.425-3.461-3.189v-20.087H53.533
			v20.087c0,1.765-1.561,3.189-3.46,3.189c-1.968,0-3.597-1.425-3.597-3.189v-42.82c0-1.765,1.629-3.122,3.597-3.122
			c1.9,0,3.46,1.357,3.46,3.122v16.489h14.319v-16.489c0-1.765,1.561-3.122,3.461-3.122
			C73.281,200.041,74.841,201.398,74.841,203.163z"/>
		<path fill="#5C6CA7" d="M144.667,245.644c0,1.766-1.561,3.122-3.529,3.122h-18.933c-1.9,0-3.461-1.356-3.461-3.122v-42.142
			c0-1.696,1.561-3.054,3.461-3.054h18.729c1.968,0,3.529,1.357,3.529,3.054c0,1.765-1.561,3.189-3.529,3.189h-15.133v12.961h13.232
			c1.968,0,3.529,1.426,3.529,3.19c0,1.697-1.561,3.054-3.529,3.054h-13.232v16.558h15.336
			C143.106,242.454,144.667,243.812,144.667,245.644z"/>
		<path fill="#5C6CA7" d="M209.337,248.766c-1.968,0-3.598-1.356-3.598-3.122v-42.142c0-1.696,1.629-3.054,3.598-3.054h9.772
			c7.871,0,14.25,6.175,14.25,13.844v20.562c0,7.668-6.379,13.912-14.25,13.912H209.337z M212.797,242.454h6.312
			c4.003,0,7.193-3.393,7.193-7.601v-20.562c0-4.207-3.19-7.601-7.193-7.601h-6.312V242.454z"/>
		<path fill="#5C6CA7" d="M283.984,245.983v-28.367l-8.549,17.373c-0.612,1.018-1.766,1.766-3.191,1.766
			c-1.356,0-2.511-0.612-3.122-1.697l-8.482-17.372v28.298c0,1.765-1.561,3.189-3.528,3.189c-1.9,0-3.461-1.425-3.461-3.189v-42.82
			c0-1.765,1.561-3.122,3.461-3.122c1.356,0,2.646,0.747,3.121,1.765l12.011,24.77c4.005-8.008,8.144-16.762,12.079-24.77
			c0.543-1.018,1.766-1.765,3.19-1.765c2.104,0,3.461,1.63,3.461,3.122v42.82c0,1.765-1.562,3.189-3.461,3.189
			C285.545,249.173,283.984,247.748,283.984,245.983z"/>
		<path fill="#5C6CA7" d="M341.528,245.169c0.407,1.832-1.086,4.004-3.527,4.004c-1.495,0-2.782-0.882-3.259-2.24l-2.851-9.093
			h-13.706c-0.951,3.121-1.765,6.039-2.715,9.093c-0.407,1.289-1.834,2.24-3.395,2.24c-2.035,0-4.07-1.968-3.324-4.072v0.068
			l12.894-42.889c0.474-1.288,1.899-2.239,3.462-2.239c1.491,0,2.85,0.951,3.324,2.239l13.029,42.889H341.528z M330.06,231.597
			l-4.953-18.729l-5.091,18.729H330.06z"/>
		<path fill="#5C6CA7" d="M389.098,248.766c-1.971,0-3.598-1.356-3.598-3.122v-42.142c0-1.696,1.627-3.054,3.598-3.054h9.771
			c7.871,0,14.251,6.175,14.251,13.844v20.562c0,7.668-6.38,13.912-14.251,13.912H389.098z M392.558,242.454h6.311
			c4.004,0,7.193-3.393,7.193-7.601v-20.562c0-4.207-3.189-7.601-7.193-7.601h-6.311V242.454z"/>
		<path fill="#5C6CA7" d="M459.195,245.644c0,1.766-1.559,3.122-3.528,3.122h-18.935c-1.899,0-3.46-1.356-3.46-3.122v-42.142
			c0-1.696,1.561-3.054,3.46-3.054h18.731c1.967,0,3.528,1.357,3.528,3.054c0,1.765-1.562,3.189-3.528,3.189H440.33v12.961h13.232
			c1.969,0,3.53,1.426,3.53,3.19c0,1.697-1.562,3.054-3.53,3.054H440.33v16.558h15.337
			C457.636,242.454,459.195,243.812,459.195,245.644z"/>
		<path fill="#5C6CA7" d="M498.69,247.409l-15.607-31.354l0.611,29.928c0,1.765-1.562,3.189-3.529,3.189
			c-1.901,0-3.53-1.425-3.53-3.189v-42.82c0-1.765,1.766-3.122,3.53-3.122c1.289,0,2.577,0.814,3.121,1.765l15.608,31.216
			l-0.61-29.858c0-1.765,1.561-3.122,3.528-3.122c1.967,0,3.529,1.357,3.529,3.122v42.82c0,1.493-1.154,2.714-2.717,3.122
			l0.138-0.068c-0.408,0.136-0.611,0.136-0.95,0.136C500.59,249.173,499.233,248.427,498.69,247.409z"/>
		<path fill="#5C6CA7" d="M93.299,203.163c0-1.765,1.561-3.122,3.46-3.122c1.968,0,3.529,1.357,3.529,3.122v42.82
			c0,1.765-1.561,3.189-3.529,3.189c-1.9,0-3.46-1.425-3.46-3.189V203.163z"/>
		<path fill="#5C6CA7" d="M360.052,203.163c0-1.765,1.561-3.122,3.46-3.122c1.97,0,3.53,1.357,3.53,3.122v42.82
			c0,1.765-1.561,3.189-3.53,3.189c-1.899,0-3.46-1.425-3.46-3.189V203.163z"/>
		<path fill="#5C6CA7" d="M169.164,242.454h15.607c1.967,0,3.529,1.425,3.529,3.189c0,1.766-1.562,3.122-3.529,3.122h-19.136
			c-1.968,0-3.529-1.356-3.529-3.122v-42.48c0-1.765,1.561-3.122,3.461-3.122c1.841,0,3.413,1.193,3.596,2.791V242.454z"/>
	</g>
</g>
<g id="Red" display="none">
	<g display="inline">
		<path fill="#E2456B" d="M194.125,13.169v57.364v6.435v5.302c0,38.844,9.58,48.412,32.685,56.974
			c13.713,5.08,21.374,9.742,24.026,11.508c0.209,0.138,1.667,0.268,1.907,0.315v-27.178L209.05,98.51V47.649l43.693-25.011V5.932
			c-26.234,5.067-50.194,5.586-56.817,5.628C194.931,11.56,194.125,12.28,194.125,13.169"/>
		<path fill="#FFCFE3" d="M310.488,13.169v57.364v6.435v5.302c0,38.844-9.438,48.412-32.197,56.974
			c-13.509,5.08-21.056,9.742-23.668,11.508c-0.206,0.138-1.642,0.268-1.88,0.315v-27.178l45.013-25.379V47.649l-45.013-25.011
			V5.932c25.845,5.067,49.447,5.586,55.972,5.628C309.694,11.56,310.488,12.28,310.488,13.169"/>
		<path fill="#FFFFFF" d="M252.743,153.597c-0.816,0-1.632-0.23-2.328-0.694c-2.604-1.731-10.116-6.299-23.651-11.313
			c-11.559-4.283-20.442-9.001-26.223-18.103c-5.574-8.774-8.059-21.482-8.059-41.204V12.921c0-2.137,1.824-3.876,4.067-3.876
			c6.693-0.042,30.509-0.57,55.354-5.604c0.55-0.111,1.132-0.112,1.684,0c24.836,5.033,48.645,5.562,55.36,5.604
			c2.24,0.004,4.061,1.742,4.061,3.876v69.361c0,40.128-10.108,50.349-34.284,59.307c-13.534,5.015-21.047,9.582-23.649,11.312
			C254.377,153.364,253.56,153.596,252.743,153.597 M198.548,13.544c-0.857,0.014-1.545,0.711-1.545,1.569v67.169
			c0,39.171,10.034,47.176,31.332,55.067c12.093,4.482,19.613,8.67,23.192,10.896c0.746,0.465,1.686,0.465,2.433,0
			c3.578-2.226,11.098-6.414,23.192-10.896c21.299-7.891,31.333-15.897,31.333-55.067V15.113c0-0.858-0.688-1.555-1.545-1.569
			c-8.698-0.136-30.818-0.962-53.893-5.599c-0.2-0.04-0.408-0.04-0.608,0C229.366,12.582,207.247,13.408,198.548,13.544
			 M196.566,13.566h-0.003H196.566z"/>
		<path fill="#D42758" d="M252.743,156.954c-0.853,0-1.705-0.242-2.433-0.726c-2.719-1.809-10.568-6.58-24.708-11.819
			c-12.076-4.474-21.356-9.401-27.395-18.911c-5.823-9.167-8.42-22.443-8.42-43.047V9.99c0-2.232,1.906-4.049,4.249-4.049
			c6.993-0.044,31.873-0.595,57.828-5.855c0.575-0.115,1.183-0.116,1.759,0.001c25.946,5.257,50.819,5.81,57.836,5.854
			c2.34,0.005,4.241,1.82,4.241,4.049v72.461c0,41.922-10.559,52.601-35.816,61.958c-14.14,5.239-21.988,10.011-24.706,11.818
			C254.449,156.712,253.597,156.953,252.743,156.954 M196.011,10.051c-1.113,0.019-2.001,0.927-2.001,2.041v70.393
			c0,41.275,10.573,49.709,33.015,58.025c12.255,4.541,20.053,8.797,23.987,11.201c1.064,0.651,2.399,0.651,3.464,0
			c3.933-2.403,11.73-6.66,23.987-11.201c22.442-8.316,33.016-16.751,33.016-58.025v-70.05c0-1.302-1.041-2.366-2.343-2.39
			c-9.66-0.178-32.571-1.131-56.393-5.952C228.639,8.971,205.467,9.889,196.011,10.051 M193.55,10.082h-0.003H193.55z"/>
		<path d="M252.748,123.819c-0.823,0-1.637-0.218-2.349-0.63l-39.562-22.877c-1.446-0.836-2.344-2.392-2.344-4.062V50.496
			c0-1.67,0.898-3.226,2.344-4.062l39.562-22.877c0.712-0.412,1.525-0.63,2.349-0.63c0.824,0,1.636,0.218,2.35,0.63l39.554,22.877
			c1.446,0.837,2.345,2.396,2.343,4.067l-0.051,45.754c-0.001,1.666-0.897,3.22-2.34,4.055L255.1,123.187
			C254.387,123.601,253.573,123.819,252.748,123.819 M255.805,115.646l25.102-14.537l-25.102,3.843V115.646z M249.632,115.615
			v-10.721l-25.123-3.806L249.632,115.615z M258.379,98.313l29.755-4.554l-10.567-30.8L258.379,98.313z M247.027,98.257
			l-19.157-35.298l-10.566,30.794L247.027,98.257z M252.719,95.8l20.299-37.402H232.42L252.719,95.8z M290.786,82.47l0.031-28.202
			l-8.687,2.978L290.786,82.47z M214.666,82.425l8.651-25.21l-8.651-2.966V82.425z M271.176,52.226l-18.431-20.049l-18.472,20.049
			H271.176z M279.124,51.751l7.778-2.667l-21.845-12.635L279.124,51.751z M226.34,51.726l14.053-15.252l-21.79,12.6L226.34,51.726z"
			/>
		<path fill="#FFFFFF" d="M252.748,24.408c0.556,0,1.11,0.144,1.608,0.431l39.554,22.878c0.993,0.574,1.604,1.635,1.603,2.782
			l-0.05,45.755c-0.001,1.144-0.611,2.201-1.602,2.775l-39.504,22.877c-0.498,0.288-1.053,0.432-1.609,0.432
			c-0.555,0-1.109-0.143-1.606-0.431L211.578,99.03c-0.993-0.574-1.604-1.633-1.604-2.78V50.496c0-1.147,0.611-2.206,1.604-2.78
			l39.563-22.877C251.639,24.552,252.193,24.408,252.748,24.408 M230.894,53.707h43.654L252.747,29.99L230.894,53.707
			 M278.688,53.466l11.771-4.036l-33.056-19.118L278.688,53.466 M226.774,53.441l21.302-23.121l-33.03,19.099L226.774,53.441
			 M213.185,91.304l12.013-35.009l-12.013-4.119V91.304 M292.258,91.32l0.043-39.126l-12.052,4.132L292.258,91.32 M252.719,98.905
			l22.788-41.988h-45.576L252.719,98.905 M249.75,100.167L227.565,59.29l-12.237,35.662L249.75,100.167 M255.653,100.228
			l34.457-5.274L277.872,59.29L255.653,100.228 M251.113,118.182v-14.561l-34.123-5.17L251.113,118.182 M254.324,118.215
			l34.115-19.757l-34.115,5.222V118.215 M252.748,21.446c-1.083,0-2.151,0.287-3.09,0.829l-39.563,22.877
			c-1.901,1.1-3.083,3.147-3.083,5.344V96.25c0,2.197,1.182,4.244,3.083,5.344l39.563,22.877c0.938,0.543,2.007,0.829,3.09,0.829
			c1.085,0,2.155-0.287,3.094-0.831l39.504-22.877c1.896-1.098,3.076-3.143,3.079-5.335l0.049-45.754
			c0.004-2.199-1.178-4.249-3.081-5.35l-39.554-22.878C254.9,21.733,253.832,21.446,252.748,21.446 M237.651,50.745l15.093-16.382
			l15.059,16.382H237.651z M279.56,50.036l-6.85-7.45l10.637,6.152L279.56,50.036z M222.16,48.727l10.55-6.1l-6.804,7.385
			L222.16,48.727z M216.147,73.547V56.323l5.288,1.813L216.147,73.547z M284.013,58.166l5.321-1.824l-0.019,17.277L284.013,58.166z
			 M234.908,59.879h35.621l-17.811,32.817L234.908,59.879z M219.282,92.555l8.896-25.926l16.129,29.718L219.282,92.555z
			 M261.103,96.398l16.156-29.769l8.899,25.934L261.103,96.398z M248.151,113.048l-16.123-9.323l16.123,2.443V113.048z
			 M257.286,106.223l16.088-2.462l-16.088,9.316V106.223z"/>
		<polygon fill="#FF517B" points="227.565,59.29 215.328,94.952 249.75,100.167 		"/>
		<polygon fill="#FF517B" points="248.076,30.32 215.046,49.419 226.774,53.44 		"/>
		<polygon fill="#FFCFE3" points="274.548,53.707 252.747,29.99 230.895,53.707 		"/>
		<polygon fill="#FFE2EF" points="290.46,49.43 257.404,30.312 278.688,53.466 		"/>
		<polygon fill="#E2456B" points="213.185,52.176 213.185,91.304 225.198,56.295 		"/>
		<polygon fill="#FFCFE3" points="255.653,100.229 290.109,94.955 277.872,59.291 		"/>
		<polygon fill="#E2456B" points="251.113,118.182 251.113,103.621 216.99,98.451 		"/>
		<polygon fill="#FFE2EF" points="280.25,56.325 292.257,91.32 292.301,52.193 		"/>
		<polygon fill="#FF517B" points="254.324,118.215 288.439,98.458 254.324,103.679 		"/>
		<polygon fill="#FF819B" points="229.931,56.917 252.719,98.905 275.507,56.917 		"/>
		<path fill="#D42758" d="M293.91,47.716l-39.554-22.877c-0.498-0.288-1.054-0.432-1.608-0.432s-1.109,0.144-1.606,0.432
			l-39.564,22.877c-0.992,0.574-1.603,1.633-1.603,2.78V96.25c0,1.147,0.611,2.206,1.603,2.78l39.564,22.877
			c0.497,0.287,1.052,0.431,1.606,0.431c0.556,0,1.111-0.144,1.609-0.432l39.504-22.877c0.99-0.574,1.601-1.631,1.602-2.775
			l0.05-45.755C295.515,49.352,294.903,48.291,293.91,47.716 M213.185,52.176l12.013,4.119l-12.013,35.009V52.176z M229.93,56.917
			h45.577l-22.788,41.988L229.93,56.917z M249.75,100.167l-34.422-5.216l12.237-35.661L249.75,100.167z M230.894,53.707
			l21.853-23.718l21.801,23.718H230.894z M278.688,53.466l-21.284-23.154L290.46,49.43L278.688,53.466z M226.774,53.441
			l-11.728-4.022l33.03-19.099L226.774,53.441z M251.113,103.621v14.561L216.99,98.45L251.113,103.621z M277.872,59.29
			l12.238,35.664l-34.457,5.274L277.872,59.29z M280.249,56.325l12.052-4.131l-0.043,39.126L280.249,56.325z M254.324,118.215
			V103.68l34.115-5.222L254.324,118.215z"/>
	</g>
	<g display="inline">
		<path fill="#D42758" d="M-0.144,237.094c0-1.765,1.561-3.122,3.46-3.122c1.968,0,3.597,1.357,3.597,3.122
			c0,2.985,2.375,5.836,6.922,5.836c4.343,0,7.125-2.444,7.125-6.107c0-2.919-0.678-5.429-4.818-8.144l-1.832-1.086
			c-4.479-2.511-5.7-3.325-6.99-4.14c-4.343-2.918-7.057-6.311-7.057-11.4c0-7.533,6.243-12.012,13.436-12.012
			c7.533,0,13.437,4.411,13.437,11.604c0,1.765-1.561,3.122-3.529,3.122s-3.529-1.357-3.529-3.122c0-3.122-2.036-5.36-6.379-5.36
			c-4.411,0-6.379,2.916-6.379,5.7c0,1.492,0,3.528,3.665,6.106c1.086,0.882,3.936,2.647,8.619,5.293
			c5.226,3.055,8.415,7.736,8.415,13.438c0,7.871-6.922,12.351-14.183,12.351C5.082,249.173-0.144,243.269-0.144,237.094z"/>
		<path fill="#D42758" d="M74.841,203.163v42.82c0,1.765-1.561,3.189-3.528,3.189c-1.9,0-3.461-1.425-3.461-3.189v-20.087H53.533
			v20.087c0,1.765-1.561,3.189-3.46,3.189c-1.968,0-3.597-1.425-3.597-3.189v-42.82c0-1.765,1.629-3.122,3.597-3.122
			c1.9,0,3.46,1.357,3.46,3.122v16.489h14.319v-16.489c0-1.765,1.561-3.122,3.461-3.122
			C73.281,200.041,74.841,201.398,74.841,203.163z"/>
		<path fill="#D42758" d="M144.667,245.644c0,1.766-1.561,3.122-3.529,3.122h-18.933c-1.9,0-3.461-1.356-3.461-3.122v-42.142
			c0-1.696,1.561-3.054,3.461-3.054h18.729c1.968,0,3.529,1.357,3.529,3.054c0,1.765-1.561,3.189-3.529,3.189h-15.133v12.961h13.232
			c1.968,0,3.529,1.426,3.529,3.19c0,1.697-1.561,3.054-3.529,3.054h-13.232v16.558h15.336
			C143.106,242.454,144.667,243.812,144.667,245.644z"/>
		<path fill="#D42758" d="M209.337,248.766c-1.968,0-3.598-1.356-3.598-3.122v-42.142c0-1.696,1.629-3.054,3.598-3.054h9.772
			c7.871,0,14.25,6.175,14.25,13.844v20.562c0,7.668-6.379,13.912-14.25,13.912H209.337z M212.797,242.454h6.312
			c4.003,0,7.193-3.393,7.193-7.601v-20.562c0-4.207-3.19-7.601-7.193-7.601h-6.312V242.454z"/>
		<path fill="#D42758" d="M283.984,245.983v-28.367l-8.549,17.373c-0.612,1.018-1.766,1.766-3.191,1.766
			c-1.356,0-2.511-0.612-3.122-1.697l-8.482-17.372v28.298c0,1.765-1.561,3.189-3.528,3.189c-1.9,0-3.461-1.425-3.461-3.189v-42.82
			c0-1.765,1.561-3.122,3.461-3.122c1.356,0,2.646,0.747,3.121,1.765l12.011,24.77c4.005-8.008,8.144-16.762,12.079-24.77
			c0.543-1.018,1.766-1.765,3.19-1.765c2.104,0,3.461,1.63,3.461,3.122v42.82c0,1.765-1.562,3.189-3.461,3.189
			C285.545,249.173,283.984,247.748,283.984,245.983z"/>
		<path fill="#D42758" d="M341.528,245.169c0.407,1.832-1.086,4.004-3.527,4.004c-1.495,0-2.782-0.882-3.259-2.24l-2.851-9.093
			h-13.706c-0.951,3.121-1.765,6.039-2.715,9.093c-0.407,1.289-1.834,2.24-3.395,2.24c-2.035,0-4.07-1.968-3.324-4.072v0.068
			l12.894-42.889c0.474-1.288,1.899-2.239,3.462-2.239c1.491,0,2.85,0.951,3.324,2.239l13.029,42.889H341.528z M330.06,231.597
			l-4.953-18.729l-5.091,18.729H330.06z"/>
		<path fill="#D42758" d="M389.098,248.766c-1.971,0-3.598-1.356-3.598-3.122v-42.142c0-1.696,1.627-3.054,3.598-3.054h9.771
			c7.871,0,14.251,6.175,14.251,13.844v20.562c0,7.668-6.38,13.912-14.251,13.912H389.098z M392.558,242.454h6.311
			c4.004,0,7.193-3.393,7.193-7.601v-20.562c0-4.207-3.189-7.601-7.193-7.601h-6.311V242.454z"/>
		<path fill="#D42758" d="M459.195,245.644c0,1.766-1.559,3.122-3.528,3.122h-18.935c-1.899,0-3.46-1.356-3.46-3.122v-42.142
			c0-1.696,1.561-3.054,3.46-3.054h18.731c1.967,0,3.528,1.357,3.528,3.054c0,1.765-1.562,3.189-3.528,3.189H440.33v12.961h13.232
			c1.969,0,3.53,1.426,3.53,3.19c0,1.697-1.562,3.054-3.53,3.054H440.33v16.558h15.337
			C457.636,242.454,459.195,243.812,459.195,245.644z"/>
		<path fill="#D42758" d="M498.69,247.409l-15.607-31.354l0.611,29.928c0,1.765-1.562,3.189-3.529,3.189
			c-1.901,0-3.53-1.425-3.53-3.189v-42.82c0-1.765,1.766-3.122,3.53-3.122c1.289,0,2.577,0.814,3.121,1.765l15.608,31.216
			l-0.61-29.858c0-1.765,1.561-3.122,3.528-3.122c1.967,0,3.529,1.357,3.529,3.122v42.82c0,1.493-1.154,2.714-2.717,3.122
			l0.138-0.068c-0.408,0.136-0.611,0.136-0.95,0.136C500.59,249.173,499.233,248.427,498.69,247.409z"/>
		<path fill="#D42758" d="M93.299,203.163c0-1.765,1.561-3.122,3.46-3.122c1.968,0,3.529,1.357,3.529,3.122v42.82
			c0,1.765-1.561,3.189-3.529,3.189c-1.9,0-3.46-1.425-3.46-3.189V203.163z"/>
		<path fill="#D42758" d="M360.052,203.163c0-1.765,1.561-3.122,3.46-3.122c1.97,0,3.53,1.357,3.53,3.122v42.82
			c0,1.765-1.561,3.189-3.53,3.189c-1.899,0-3.46-1.425-3.46-3.189V203.163z"/>
		<path fill="#D42758" d="M169.164,242.454h15.607c1.967,0,3.529,1.425,3.529,3.189c0,1.766-1.562,3.122-3.529,3.122h-19.136
			c-1.968,0-3.529-1.356-3.529-3.122v-42.48c0-1.765,1.561-3.122,3.461-3.122c1.841,0,3.413,1.193,3.596,2.791V242.454z"/>
	</g>
</g>
<g id="Orange" display="none">
	<g display="inline">
		<path fill="#E2845C" d="M194.125,13.169v57.364v6.435v5.302c0,38.844,9.58,48.412,32.685,56.974
			c13.713,5.08,21.374,9.742,24.026,11.508c0.209,0.138,1.667,0.268,1.907,0.315v-27.178L209.05,98.51V47.649l43.693-25.011V5.932
			c-26.234,5.067-50.194,5.586-56.817,5.628C194.931,11.56,194.125,12.28,194.125,13.169"/>
		<path fill="#FFEADD" d="M310.488,13.169v57.364v6.435v5.302c0,38.844-9.438,48.412-32.197,56.974
			c-13.509,5.08-21.056,9.742-23.668,11.508c-0.206,0.138-1.642,0.268-1.88,0.315v-27.178l45.013-25.379V47.649l-45.013-25.011
			V5.932c25.845,5.067,49.447,5.586,55.972,5.628C309.694,11.56,310.488,12.28,310.488,13.169"/>
		<path fill="#FFFFFF" d="M252.743,153.597c-0.816,0-1.632-0.23-2.328-0.694c-2.604-1.731-10.116-6.299-23.651-11.313
			c-11.559-4.283-20.442-9.001-26.223-18.103c-5.574-8.774-8.059-21.482-8.059-41.204V12.921c0-2.137,1.824-3.876,4.067-3.876
			c6.693-0.042,30.509-0.57,55.354-5.604c0.55-0.111,1.132-0.112,1.684,0c24.836,5.033,48.645,5.562,55.36,5.604
			c2.24,0.004,4.061,1.742,4.061,3.876v69.361c0,40.128-10.108,50.349-34.284,59.307c-13.534,5.015-21.047,9.582-23.649,11.312
			C254.377,153.364,253.56,153.596,252.743,153.597 M198.548,13.544c-0.857,0.014-1.545,0.711-1.545,1.569v67.169
			c0,39.171,10.034,47.176,31.332,55.067c12.093,4.482,19.613,8.67,23.192,10.896c0.746,0.465,1.686,0.465,2.433,0
			c3.578-2.226,11.098-6.414,23.192-10.896c21.299-7.891,31.333-15.897,31.333-55.067V15.113c0-0.858-0.688-1.555-1.545-1.569
			c-8.698-0.136-30.818-0.962-53.893-5.599c-0.2-0.04-0.408-0.04-0.608,0C229.366,12.582,207.247,13.408,198.548,13.544
			 M196.566,13.566h-0.003H196.566z"/>
		<path fill="#D1774A" d="M252.743,156.954c-0.853,0-1.705-0.242-2.433-0.726c-2.719-1.809-10.568-6.58-24.708-11.819
			c-12.076-4.474-21.356-9.401-27.395-18.911c-5.823-9.167-8.42-22.443-8.42-43.047V9.99c0-2.232,1.906-4.049,4.249-4.049
			c6.993-0.044,31.873-0.595,57.828-5.855c0.575-0.115,1.183-0.116,1.759,0.001c25.946,5.257,50.819,5.81,57.836,5.854
			c2.34,0.005,4.241,1.82,4.241,4.049v72.461c0,41.922-10.559,52.601-35.816,61.958c-14.14,5.239-21.988,10.011-24.706,11.818
			C254.449,156.712,253.597,156.953,252.743,156.954 M196.011,10.051c-1.113,0.019-2.001,0.927-2.001,2.041v70.393
			c0,41.275,10.573,49.709,33.015,58.025c12.255,4.541,20.053,8.797,23.987,11.201c1.064,0.651,2.399,0.651,3.464,0
			c3.933-2.403,11.73-6.66,23.987-11.201c22.442-8.316,33.016-16.751,33.016-58.025v-70.05c0-1.302-1.041-2.366-2.343-2.39
			c-9.66-0.178-32.571-1.131-56.393-5.952C228.639,8.971,205.467,9.889,196.011,10.051 M193.55,10.082h-0.003H193.55z"/>
		<path d="M252.748,123.819c-0.823,0-1.637-0.218-2.349-0.63l-39.562-22.877c-1.446-0.836-2.344-2.392-2.344-4.062V50.496
			c0-1.67,0.898-3.226,2.344-4.062l39.562-22.877c0.712-0.412,1.525-0.63,2.349-0.63c0.824,0,1.636,0.218,2.35,0.63l39.554,22.877
			c1.446,0.837,2.345,2.396,2.343,4.067l-0.051,45.754c-0.001,1.666-0.897,3.22-2.34,4.055L255.1,123.187
			C254.387,123.601,253.573,123.819,252.748,123.819 M255.805,115.646l25.102-14.537l-25.102,3.843V115.646z M249.632,115.615
			v-10.721l-25.123-3.806L249.632,115.615z M258.379,98.313l29.755-4.554l-10.567-30.8L258.379,98.313z M247.027,98.257
			l-19.157-35.298l-10.566,30.794L247.027,98.257z M252.719,95.8l20.299-37.402H232.42L252.719,95.8z M290.786,82.47l0.031-28.202
			l-8.687,2.978L290.786,82.47z M214.666,82.425l8.651-25.21l-8.651-2.966V82.425z M271.176,52.226l-18.431-20.049l-18.472,20.049
			H271.176z M279.124,51.751l7.778-2.667l-21.845-12.635L279.124,51.751z M226.34,51.726l14.053-15.252l-21.79,12.6L226.34,51.726z"
			/>
		<path fill="#FFFFFF" d="M252.748,24.408c0.556,0,1.11,0.144,1.608,0.431l39.554,22.878c0.993,0.574,1.604,1.635,1.603,2.782
			l-0.05,45.755c-0.001,1.144-0.611,2.201-1.602,2.775l-39.504,22.877c-0.498,0.288-1.053,0.432-1.609,0.432
			c-0.555,0-1.109-0.143-1.606-0.431L211.578,99.03c-0.993-0.574-1.604-1.633-1.604-2.78V50.496c0-1.147,0.611-2.206,1.604-2.78
			l39.563-22.877C251.639,24.552,252.193,24.408,252.748,24.408 M230.894,53.707h43.654L252.747,29.99L230.894,53.707
			 M278.688,53.466l11.771-4.036l-33.056-19.118L278.688,53.466 M226.774,53.441l21.302-23.121l-33.03,19.099L226.774,53.441
			 M213.185,91.304l12.013-35.009l-12.013-4.119V91.304 M292.258,91.32l0.043-39.126l-12.052,4.132L292.258,91.32 M252.719,98.905
			l22.788-41.988h-45.576L252.719,98.905 M249.75,100.167L227.565,59.29l-12.237,35.662L249.75,100.167 M255.653,100.228
			l34.457-5.274L277.872,59.29L255.653,100.228 M251.113,118.182v-14.561l-34.123-5.17L251.113,118.182 M254.324,118.215
			l34.115-19.757l-34.115,5.222V118.215 M252.748,21.446c-1.083,0-2.151,0.287-3.09,0.829l-39.563,22.877
			c-1.901,1.1-3.083,3.147-3.083,5.344V96.25c0,2.197,1.182,4.244,3.083,5.344l39.563,22.877c0.938,0.543,2.007,0.829,3.09,0.829
			c1.085,0,2.155-0.287,3.094-0.831l39.504-22.877c1.896-1.098,3.076-3.143,3.079-5.335l0.049-45.754
			c0.004-2.199-1.178-4.249-3.081-5.35l-39.554-22.878C254.9,21.733,253.832,21.446,252.748,21.446 M237.651,50.745l15.093-16.382
			l15.059,16.382H237.651z M279.56,50.036l-6.85-7.45l10.637,6.152L279.56,50.036z M222.16,48.727l10.55-6.1l-6.804,7.385
			L222.16,48.727z M216.147,73.547V56.323l5.288,1.813L216.147,73.547z M284.013,58.166l5.321-1.824l-0.019,17.277L284.013,58.166z
			 M234.908,59.879h35.621l-17.811,32.817L234.908,59.879z M219.282,92.555l8.896-25.926l16.129,29.718L219.282,92.555z
			 M261.103,96.398l16.156-29.769l8.899,25.934L261.103,96.398z M248.151,113.048l-16.123-9.323l16.123,2.443V113.048z
			 M257.286,106.223l16.088-2.462l-16.088,9.316V106.223z"/>
		<polygon fill="#FFAD84" points="227.565,59.29 215.328,94.952 249.75,100.167 		"/>
		<polygon fill="#FFAD84" points="248.076,30.32 215.046,49.419 226.774,53.44 		"/>
		<polygon fill="#FFEADD" points="274.548,53.707 252.747,29.99 230.895,53.707 		"/>
		<polygon fill="#FFF4ED" points="290.46,49.43 257.404,30.312 278.688,53.466 		"/>
		<polygon fill="#E2845C" points="213.185,52.176 213.185,91.304 225.198,56.295 		"/>
		<polygon fill="#FFEADD" points="255.653,100.229 290.109,94.955 277.872,59.291 		"/>
		<polygon fill="#E2845C" points="251.113,118.182 251.113,103.621 216.99,98.451 		"/>
		<polygon fill="#FFF4ED" points="280.25,56.325 292.257,91.32 292.301,52.193 		"/>
		<polygon fill="#FFAD84" points="254.324,118.215 288.439,98.458 254.324,103.679 		"/>
		<polygon fill="#FFCCAF" points="229.931,56.917 252.719,98.905 275.507,56.917 		"/>
		<path fill="#D1774A" d="M293.91,47.716l-39.554-22.877c-0.498-0.288-1.054-0.432-1.608-0.432s-1.109,0.144-1.606,0.432
			l-39.564,22.877c-0.992,0.574-1.603,1.633-1.603,2.78V96.25c0,1.147,0.611,2.206,1.603,2.78l39.564,22.877
			c0.497,0.287,1.052,0.431,1.606,0.431c0.556,0,1.111-0.144,1.609-0.432l39.504-22.877c0.99-0.574,1.601-1.631,1.602-2.775
			l0.05-45.755C295.515,49.352,294.903,48.291,293.91,47.716 M213.185,52.176l12.013,4.119l-12.013,35.009V52.176z M229.93,56.917
			h45.577l-22.788,41.988L229.93,56.917z M249.75,100.167l-34.422-5.216l12.237-35.661L249.75,100.167z M230.894,53.707
			l21.853-23.718l21.801,23.718H230.894z M278.688,53.466l-21.284-23.154L290.46,49.43L278.688,53.466z M226.774,53.441
			l-11.728-4.022l33.03-19.099L226.774,53.441z M251.113,103.621v14.561L216.99,98.45L251.113,103.621z M277.872,59.29
			l12.238,35.664l-34.457,5.274L277.872,59.29z M280.249,56.325l12.052-4.131l-0.043,39.126L280.249,56.325z M254.324,118.215
			V103.68l34.115-5.222L254.324,118.215z"/>
	</g>
	<g display="inline">
		<path fill="#D1774A" d="M-0.144,237.094c0-1.765,1.561-3.122,3.46-3.122c1.968,0,3.597,1.357,3.597,3.122
			c0,2.985,2.375,5.836,6.922,5.836c4.343,0,7.125-2.444,7.125-6.107c0-2.919-0.678-5.429-4.818-8.144l-1.832-1.086
			c-4.479-2.511-5.7-3.325-6.99-4.14c-4.343-2.918-7.057-6.311-7.057-11.4c0-7.533,6.243-12.012,13.436-12.012
			c7.533,0,13.437,4.411,13.437,11.604c0,1.765-1.561,3.122-3.529,3.122s-3.529-1.357-3.529-3.122c0-3.122-2.036-5.36-6.379-5.36
			c-4.411,0-6.379,2.916-6.379,5.7c0,1.492,0,3.528,3.665,6.106c1.086,0.882,3.936,2.647,8.619,5.293
			c5.226,3.055,8.415,7.736,8.415,13.438c0,7.871-6.922,12.351-14.183,12.351C5.082,249.173-0.144,243.269-0.144,237.094z"/>
		<path fill="#D1774A" d="M74.841,203.163v42.82c0,1.765-1.561,3.189-3.528,3.189c-1.9,0-3.461-1.425-3.461-3.189v-20.087H53.533
			v20.087c0,1.765-1.561,3.189-3.46,3.189c-1.968,0-3.597-1.425-3.597-3.189v-42.82c0-1.765,1.629-3.122,3.597-3.122
			c1.9,0,3.46,1.357,3.46,3.122v16.489h14.319v-16.489c0-1.765,1.561-3.122,3.461-3.122
			C73.281,200.041,74.841,201.398,74.841,203.163z"/>
		<path fill="#D1774A" d="M144.667,245.644c0,1.766-1.561,3.122-3.529,3.122h-18.933c-1.9,0-3.461-1.356-3.461-3.122v-42.142
			c0-1.696,1.561-3.054,3.461-3.054h18.729c1.968,0,3.529,1.357,3.529,3.054c0,1.765-1.561,3.189-3.529,3.189h-15.133v12.961h13.232
			c1.968,0,3.529,1.426,3.529,3.19c0,1.697-1.561,3.054-3.529,3.054h-13.232v16.558h15.336
			C143.106,242.454,144.667,243.812,144.667,245.644z"/>
		<path fill="#D1774A" d="M209.337,248.766c-1.968,0-3.598-1.356-3.598-3.122v-42.142c0-1.696,1.629-3.054,3.598-3.054h9.772
			c7.871,0,14.25,6.175,14.25,13.844v20.562c0,7.668-6.379,13.912-14.25,13.912H209.337z M212.797,242.454h6.312
			c4.003,0,7.193-3.393,7.193-7.601v-20.562c0-4.207-3.19-7.601-7.193-7.601h-6.312V242.454z"/>
		<path fill="#D1774A" d="M283.984,245.983v-28.367l-8.549,17.373c-0.612,1.018-1.766,1.766-3.191,1.766
			c-1.356,0-2.511-0.612-3.122-1.697l-8.482-17.372v28.298c0,1.765-1.561,3.189-3.528,3.189c-1.9,0-3.461-1.425-3.461-3.189v-42.82
			c0-1.765,1.561-3.122,3.461-3.122c1.356,0,2.646,0.747,3.121,1.765l12.011,24.77c4.005-8.008,8.144-16.762,12.079-24.77
			c0.543-1.018,1.766-1.765,3.19-1.765c2.104,0,3.461,1.63,3.461,3.122v42.82c0,1.765-1.562,3.189-3.461,3.189
			C285.545,249.173,283.984,247.748,283.984,245.983z"/>
		<path fill="#D1774A" d="M341.528,245.169c0.407,1.832-1.086,4.004-3.527,4.004c-1.495,0-2.782-0.882-3.259-2.24l-2.851-9.093
			h-13.706c-0.951,3.121-1.765,6.039-2.715,9.093c-0.407,1.289-1.834,2.24-3.395,2.24c-2.035,0-4.07-1.968-3.324-4.072v0.068
			l12.894-42.889c0.474-1.288,1.899-2.239,3.462-2.239c1.491,0,2.85,0.951,3.324,2.239l13.029,42.889H341.528z M330.06,231.597
			l-4.953-18.729l-5.091,18.729H330.06z"/>
		<path fill="#D1774A" d="M389.098,248.766c-1.971,0-3.598-1.356-3.598-3.122v-42.142c0-1.696,1.627-3.054,3.598-3.054h9.771
			c7.871,0,14.251,6.175,14.251,13.844v20.562c0,7.668-6.38,13.912-14.251,13.912H389.098z M392.558,242.454h6.311
			c4.004,0,7.193-3.393,7.193-7.601v-20.562c0-4.207-3.189-7.601-7.193-7.601h-6.311V242.454z"/>
		<path fill="#D1774A" d="M459.195,245.644c0,1.766-1.559,3.122-3.528,3.122h-18.935c-1.899,0-3.46-1.356-3.46-3.122v-42.142
			c0-1.696,1.561-3.054,3.46-3.054h18.731c1.967,0,3.528,1.357,3.528,3.054c0,1.765-1.562,3.189-3.528,3.189H440.33v12.961h13.232
			c1.969,0,3.53,1.426,3.53,3.19c0,1.697-1.562,3.054-3.53,3.054H440.33v16.558h15.337
			C457.636,242.454,459.195,243.812,459.195,245.644z"/>
		<path fill="#D1774A" d="M498.69,247.409l-15.607-31.354l0.611,29.928c0,1.765-1.562,3.189-3.529,3.189
			c-1.901,0-3.53-1.425-3.53-3.189v-42.82c0-1.765,1.766-3.122,3.53-3.122c1.289,0,2.577,0.814,3.121,1.765l15.608,31.216
			l-0.61-29.858c0-1.765,1.561-3.122,3.528-3.122c1.967,0,3.529,1.357,3.529,3.122v42.82c0,1.493-1.154,2.714-2.717,3.122
			l0.138-0.068c-0.408,0.136-0.611,0.136-0.95,0.136C500.59,249.173,499.233,248.427,498.69,247.409z"/>
		<path fill="#D1774A" d="M93.299,203.163c0-1.765,1.561-3.122,3.46-3.122c1.968,0,3.529,1.357,3.529,3.122v42.82
			c0,1.765-1.561,3.189-3.529,3.189c-1.9,0-3.46-1.425-3.46-3.189V203.163z"/>
		<path fill="#D1774A" d="M360.052,203.163c0-1.765,1.561-3.122,3.46-3.122c1.97,0,3.53,1.357,3.53,3.122v42.82
			c0,1.765-1.561,3.189-3.53,3.189c-1.899,0-3.46-1.425-3.46-3.189V203.163z"/>
		<path fill="#D1774A" d="M169.164,242.454h15.607c1.967,0,3.529,1.425,3.529,3.189c0,1.766-1.562,3.122-3.529,3.122h-19.136
			c-1.968,0-3.529-1.356-3.529-3.122v-42.48c0-1.765,1.561-3.122,3.461-3.122c1.841,0,3.413,1.193,3.596,2.791V242.454z"/>
	</g>
</g>
<g id="Cyan">
	<g>
		<path fill="#4CB5BC" d="M194.125,13.169v57.364v6.435v5.302c0,38.844,9.58,48.412,32.685,56.974
			c13.713,5.08,21.374,9.742,24.026,11.508c0.209,0.138,1.667,0.268,1.907,0.315v-27.178L209.05,98.51V47.649l43.693-25.011V5.932
			c-26.234,5.067-50.194,5.586-56.817,5.628C194.931,11.56,194.125,12.28,194.125,13.169"/>
		<path fill="#C5EAF4" d="M310.488,13.169v57.364v6.435v5.302c0,38.844-9.438,48.412-32.197,56.974
			c-13.509,5.08-21.056,9.742-23.668,11.508c-0.206,0.138-1.642,0.268-1.88,0.315v-27.178l45.013-25.379V47.649l-45.013-25.011
			V5.932c25.845,5.067,49.447,5.586,55.972,5.628C309.694,11.56,310.488,12.28,310.488,13.169"/>
		<path fill="#FFFFFF" d="M252.743,153.597c-0.816,0-1.632-0.23-2.328-0.694c-2.604-1.731-10.116-6.299-23.651-11.313
			c-11.559-4.283-20.442-9.001-26.223-18.103c-5.574-8.774-8.059-21.482-8.059-41.204V12.921c0-2.137,1.824-3.876,4.067-3.876
			c6.693-0.042,30.509-0.57,55.354-5.604c0.55-0.111,1.132-0.112,1.684,0c24.836,5.033,48.645,5.562,55.36,5.604
			c2.24,0.004,4.061,1.742,4.061,3.876v69.361c0,40.128-10.108,50.349-34.284,59.307c-13.534,5.015-21.047,9.582-23.649,11.312
			C254.377,153.364,253.56,153.596,252.743,153.597 M198.548,13.544c-0.857,0.014-1.545,0.711-1.545,1.569v67.169
			c0,39.171,10.034,47.176,31.332,55.067c12.093,4.482,19.613,8.67,23.192,10.896c0.746,0.465,1.686,0.465,2.433,0
			c3.578-2.226,11.098-6.414,23.192-10.896c21.299-7.891,31.333-15.897,31.333-55.067V15.113c0-0.858-0.688-1.555-1.545-1.569
			c-8.698-0.136-30.818-0.962-53.893-5.599c-0.2-0.04-0.408-0.04-0.608,0C229.366,12.582,207.247,13.408,198.548,13.544
			 M196.566,13.566h-0.003H196.566z"/>
		<path fill="#3FA3AD" d="M252.743,156.954c-0.853,0-1.705-0.242-2.433-0.726c-2.719-1.809-10.568-6.58-24.708-11.819
			c-12.076-4.474-21.356-9.401-27.395-18.911c-5.823-9.167-8.42-22.443-8.42-43.047V9.99c0-2.232,1.906-4.049,4.249-4.049
			c6.993-0.044,31.873-0.595,57.828-5.855c0.575-0.115,1.183-0.116,1.759,0.001c25.946,5.257,50.819,5.81,57.836,5.854
			c2.34,0.005,4.241,1.82,4.241,4.049v72.461c0,41.922-10.559,52.601-35.816,61.958c-14.14,5.239-21.988,10.011-24.706,11.818
			C254.449,156.712,253.597,156.953,252.743,156.954 M196.011,10.051c-1.113,0.019-2.001,0.927-2.001,2.041v70.393
			c0,41.275,10.573,49.709,33.015,58.025c12.255,4.541,20.053,8.797,23.987,11.201c1.064,0.651,2.399,0.651,3.464,0
			c3.933-2.403,11.73-6.66,23.987-11.201c22.442-8.316,33.016-16.751,33.016-58.025v-70.05c0-1.302-1.041-2.366-2.343-2.39
			c-9.66-0.178-32.571-1.131-56.393-5.952C228.639,8.971,205.467,9.889,196.011,10.051 M193.55,10.082h-0.003H193.55z"/>
		<path d="M252.748,123.819c-0.823,0-1.637-0.218-2.349-0.63l-39.562-22.877c-1.446-0.836-2.344-2.392-2.344-4.062V50.496
			c0-1.67,0.898-3.226,2.344-4.062l39.562-22.877c0.712-0.412,1.525-0.63,2.349-0.63c0.824,0,1.636,0.218,2.35,0.63l39.554,22.877
			c1.446,0.837,2.345,2.396,2.343,4.067l-0.051,45.754c-0.001,1.666-0.897,3.22-2.34,4.055L255.1,123.187
			C254.387,123.601,253.573,123.819,252.748,123.819 M255.805,115.646l25.102-14.537l-25.102,3.843V115.646z M249.632,115.615
			v-10.721l-25.123-3.806L249.632,115.615z M258.379,98.313l29.755-4.554l-10.567-30.8L258.379,98.313z M247.027,98.257
			l-19.157-35.298l-10.566,30.794L247.027,98.257z M252.719,95.8l20.299-37.402H232.42L252.719,95.8z M290.786,82.47l0.031-28.202
			l-8.687,2.978L290.786,82.47z M214.666,82.425l8.651-25.21l-8.651-2.966V82.425z M271.176,52.226l-18.431-20.049l-18.472,20.049
			H271.176z M279.124,51.751l7.778-2.667l-21.845-12.635L279.124,51.751z M226.34,51.726l14.053-15.252l-21.79,12.6L226.34,51.726z"
			/>
		<path fill="#FFFFFF" d="M252.748,24.408c0.556,0,1.11,0.144,1.608,0.431l39.554,22.878c0.993,0.574,1.604,1.635,1.603,2.782
			l-0.05,45.755c-0.001,1.144-0.611,2.201-1.602,2.775l-39.504,22.877c-0.498,0.288-1.053,0.432-1.609,0.432
			c-0.555,0-1.109-0.143-1.606-0.431L211.578,99.03c-0.993-0.574-1.604-1.633-1.604-2.78V50.496c0-1.147,0.611-2.206,1.604-2.78
			l39.563-22.877C251.639,24.552,252.193,24.408,252.748,24.408 M230.894,53.707h43.654L252.747,29.99L230.894,53.707
			 M278.688,53.466l11.771-4.036l-33.056-19.118L278.688,53.466 M226.774,53.441l21.302-23.121l-33.03,19.099L226.774,53.441
			 M213.185,91.304l12.013-35.009l-12.013-4.119V91.304 M292.258,91.32l0.043-39.126l-12.052,4.132L292.258,91.32 M252.719,98.905
			l22.788-41.988h-45.576L252.719,98.905 M249.75,100.167L227.565,59.29l-12.237,35.662L249.75,100.167 M255.653,100.228
			l34.457-5.274L277.872,59.29L255.653,100.228 M251.113,118.182v-14.561l-34.123-5.17L251.113,118.182 M254.324,118.215
			l34.115-19.757l-34.115,5.222V118.215 M252.748,21.446c-1.083,0-2.151,0.287-3.09,0.829l-39.563,22.877
			c-1.901,1.1-3.083,3.147-3.083,5.344V96.25c0,2.197,1.182,4.244,3.083,5.344l39.563,22.877c0.938,0.543,2.007,0.829,3.09,0.829
			c1.085,0,2.155-0.287,3.094-0.831l39.504-22.877c1.896-1.098,3.076-3.143,3.079-5.335l0.049-45.754
			c0.004-2.199-1.178-4.249-3.081-5.35l-39.554-22.878C254.9,21.733,253.832,21.446,252.748,21.446 M237.651,50.745l15.093-16.382
			l15.059,16.382H237.651z M279.56,50.036l-6.85-7.45l10.637,6.152L279.56,50.036z M222.16,48.727l10.55-6.1l-6.804,7.385
			L222.16,48.727z M216.147,73.547V56.323l5.288,1.813L216.147,73.547z M284.013,58.166l5.321-1.824l-0.019,17.277L284.013,58.166z
			 M234.908,59.879h35.621l-17.811,32.817L234.908,59.879z M219.282,92.555l8.896-25.926l16.129,29.718L219.282,92.555z
			 M261.103,96.398l16.156-29.769l8.899,25.934L261.103,96.398z M248.151,113.048l-16.123-9.323l16.123,2.443V113.048z
			 M257.286,106.223l16.088-2.462l-16.088,9.316V106.223z"/>
		<polygon fill="#6DCBD0" points="227.565,59.29 215.328,94.952 249.75,100.167 		"/>
		<polygon fill="#6DCBD0" points="248.076,30.32 215.046,49.419 226.774,53.44 		"/>
		<polygon fill="#C5EAF4" points="274.548,53.707 252.747,29.99 230.895,53.707 		"/>
		<polygon fill="#E0FBFB" points="290.46,49.43 257.404,30.312 278.688,53.466 		"/>
		<polygon fill="#4CB5BC" points="213.185,52.176 213.185,91.304 225.198,56.295 		"/>
		<polygon fill="#C5EAF4" points="255.653,100.229 290.109,94.955 277.872,59.291 		"/>
		<polygon fill="#4CB5BC" points="251.113,118.182 251.113,103.621 216.99,98.451 		"/>
		<polygon fill="#E0FBFB" points="280.25,56.325 292.257,91.32 292.301,52.193 		"/>
		<polygon fill="#6DCBD0" points="254.324,118.215 288.439,98.458 254.324,103.679 		"/>
		<polygon fill="#96DADF" points="229.931,56.917 252.719,98.905 275.507,56.917 		"/>
		<path fill="#3FA3AD" d="M293.91,47.716l-39.554-22.877c-0.498-0.288-1.054-0.432-1.608-0.432s-1.109,0.144-1.606,0.432
			l-39.564,22.877c-0.992,0.574-1.603,1.633-1.603,2.78V96.25c0,1.147,0.611,2.206,1.603,2.78l39.564,22.877
			c0.497,0.287,1.052,0.431,1.606,0.431c0.556,0,1.111-0.144,1.609-0.432l39.504-22.877c0.99-0.574,1.601-1.631,1.602-2.775
			l0.05-45.755C295.515,49.352,294.903,48.291,293.91,47.716 M213.185,52.176l12.013,4.119l-12.013,35.009V52.176z M229.93,56.917
			h45.577l-22.788,41.988L229.93,56.917z M249.75,100.167l-34.422-5.216l12.237-35.661L249.75,100.167z M230.894,53.707
			l21.853-23.718l21.801,23.718H230.894z M278.688,53.466l-21.284-23.154L290.46,49.43L278.688,53.466z M226.774,53.441
			l-11.728-4.022l33.03-19.099L226.774,53.441z M251.113,103.621v14.561L216.99,98.45L251.113,103.621z M277.872,59.29
			l12.238,35.664l-34.457,5.274L277.872,59.29z M280.249,56.325l12.052-4.131l-0.043,39.126L280.249,56.325z M254.324,118.215
			V103.68l34.115-5.222L254.324,118.215z"/>
	</g>
	<g>
		<path fill="#3FA3AD" d="M-0.144,237.094c0-1.765,1.561-3.122,3.46-3.122c1.968,0,3.597,1.357,3.597,3.122
			c0,2.985,2.375,5.836,6.922,5.836c4.343,0,7.125-2.444,7.125-6.107c0-2.919-0.678-5.429-4.818-8.144l-1.832-1.086
			c-4.479-2.511-5.7-3.325-6.99-4.14c-4.343-2.918-7.057-6.311-7.057-11.4c0-7.533,6.243-12.012,13.436-12.012
			c7.533,0,13.437,4.411,13.437,11.604c0,1.765-1.561,3.122-3.529,3.122s-3.529-1.357-3.529-3.122c0-3.122-2.036-5.36-6.379-5.36
			c-4.411,0-6.379,2.916-6.379,5.7c0,1.492,0,3.528,3.665,6.106c1.086,0.882,3.936,2.647,8.619,5.293
			c5.226,3.055,8.415,7.736,8.415,13.438c0,7.871-6.922,12.351-14.183,12.351C5.082,249.173-0.144,243.269-0.144,237.094z"/>
		<path fill="#3FA3AD" d="M74.841,203.163v42.82c0,1.765-1.561,3.189-3.528,3.189c-1.9,0-3.461-1.425-3.461-3.189v-20.087H53.533
			v20.087c0,1.765-1.561,3.189-3.46,3.189c-1.968,0-3.597-1.425-3.597-3.189v-42.82c0-1.765,1.629-3.122,3.597-3.122
			c1.9,0,3.46,1.357,3.46,3.122v16.489h14.319v-16.489c0-1.765,1.561-3.122,3.461-3.122
			C73.281,200.041,74.841,201.398,74.841,203.163z"/>
		<path fill="#3FA3AD" d="M144.667,245.644c0,1.766-1.561,3.122-3.529,3.122h-18.933c-1.9,0-3.461-1.356-3.461-3.122v-42.142
			c0-1.696,1.561-3.054,3.461-3.054h18.729c1.968,0,3.529,1.357,3.529,3.054c0,1.765-1.561,3.189-3.529,3.189h-15.133v12.961h13.232
			c1.968,0,3.529,1.426,3.529,3.19c0,1.697-1.561,3.054-3.529,3.054h-13.232v16.558h15.336
			C143.106,242.454,144.667,243.812,144.667,245.644z"/>
		<path fill="#3FA3AD" d="M209.337,248.766c-1.968,0-3.598-1.356-3.598-3.122v-42.142c0-1.696,1.629-3.054,3.598-3.054h9.772
			c7.871,0,14.25,6.175,14.25,13.844v20.562c0,7.668-6.379,13.912-14.25,13.912H209.337z M212.797,242.454h6.312
			c4.003,0,7.193-3.393,7.193-7.601v-20.562c0-4.207-3.19-7.601-7.193-7.601h-6.312V242.454z"/>
		<path fill="#3FA3AD" d="M283.984,245.983v-28.367l-8.549,17.373c-0.612,1.018-1.766,1.766-3.191,1.766
			c-1.356,0-2.511-0.612-3.122-1.697l-8.482-17.372v28.298c0,1.765-1.561,3.189-3.528,3.189c-1.9,0-3.461-1.425-3.461-3.189v-42.82
			c0-1.765,1.561-3.122,3.461-3.122c1.356,0,2.646,0.747,3.121,1.765l12.011,24.77c4.005-8.008,8.144-16.762,12.079-24.77
			c0.543-1.018,1.766-1.765,3.19-1.765c2.104,0,3.461,1.63,3.461,3.122v42.82c0,1.765-1.562,3.189-3.461,3.189
			C285.545,249.173,283.984,247.748,283.984,245.983z"/>
		<path fill="#3FA3AD" d="M341.528,245.169c0.407,1.832-1.086,4.004-3.527,4.004c-1.495,0-2.782-0.882-3.259-2.24l-2.851-9.093
			h-13.706c-0.951,3.121-1.765,6.039-2.715,9.093c-0.407,1.289-1.834,2.24-3.395,2.24c-2.035,0-4.07-1.968-3.324-4.072v0.068
			l12.894-42.889c0.474-1.288,1.899-2.239,3.462-2.239c1.491,0,2.85,0.951,3.324,2.239l13.029,42.889H341.528z M330.06,231.597
			l-4.953-18.729l-5.091,18.729H330.06z"/>
		<path fill="#3FA3AD" d="M389.098,248.766c-1.971,0-3.598-1.356-3.598-3.122v-42.142c0-1.696,1.627-3.054,3.598-3.054h9.771
			c7.871,0,14.251,6.175,14.251,13.844v20.562c0,7.668-6.38,13.912-14.251,13.912H389.098z M392.558,242.454h6.311
			c4.004,0,7.193-3.393,7.193-7.601v-20.562c0-4.207-3.189-7.601-7.193-7.601h-6.311V242.454z"/>
		<path fill="#3FA3AD" d="M459.195,245.644c0,1.766-1.559,3.122-3.528,3.122h-18.935c-1.899,0-3.46-1.356-3.46-3.122v-42.142
			c0-1.696,1.561-3.054,3.46-3.054h18.731c1.967,0,3.528,1.357,3.528,3.054c0,1.765-1.562,3.189-3.528,3.189H440.33v12.961h13.232
			c1.969,0,3.53,1.426,3.53,3.19c0,1.697-1.562,3.054-3.53,3.054H440.33v16.558h15.337
			C457.636,242.454,459.195,243.812,459.195,245.644z"/>
		<path fill="#3FA3AD" d="M498.69,247.409l-15.607-31.354l0.611,29.928c0,1.765-1.562,3.189-3.529,3.189
			c-1.901,0-3.53-1.425-3.53-3.189v-42.82c0-1.765,1.766-3.122,3.53-3.122c1.289,0,2.577,0.814,3.121,1.765l15.608,31.216
			l-0.61-29.858c0-1.765,1.561-3.122,3.528-3.122c1.967,0,3.529,1.357,3.529,3.122v42.82c0,1.493-1.154,2.714-2.717,3.122
			l0.138-0.068c-0.408,0.136-0.611,0.136-0.95,0.136C500.59,249.173,499.233,248.427,498.69,247.409z"/>
		<path fill="#3FA3AD" d="M93.299,203.163c0-1.765,1.561-3.122,3.46-3.122c1.968,0,3.529,1.357,3.529,3.122v42.82
			c0,1.765-1.561,3.189-3.529,3.189c-1.9,0-3.46-1.425-3.46-3.189V203.163z"/>
		<path fill="#3FA3AD" d="M360.052,203.163c0-1.765,1.561-3.122,3.46-3.122c1.97,0,3.53,1.357,3.53,3.122v42.82
			c0,1.765-1.561,3.189-3.53,3.189c-1.899,0-3.46-1.425-3.46-3.189V203.163z"/>
		<path fill="#3FA3AD" d="M169.164,242.454h15.607c1.967,0,3.529,1.425,3.529,3.189c0,1.766-1.562,3.122-3.529,3.122h-19.136
			c-1.968,0-3.529-1.356-3.529-3.122v-42.48c0-1.765,1.561-3.122,3.461-3.122c1.841,0,3.413,1.193,3.596,2.791V242.454z"/>
	</g>
</g>
<g id="Yellow" display="none">
	<g display="inline">
		<path fill="#DDA71A" d="M194.125,13.169v57.364v6.435v5.302c0,38.844,9.58,48.412,32.685,56.974
			c13.713,5.08,21.374,9.742,24.026,11.508c0.209,0.138,1.667,0.268,1.907,0.315v-27.178L209.05,98.51V47.649l43.693-25.011V5.932
			c-26.234,5.067-50.194,5.586-56.817,5.628C194.931,11.56,194.125,12.28,194.125,13.169"/>
		<path fill="#FFE7AD" d="M310.488,13.169v57.364v6.435v5.302c0,38.844-9.438,48.412-32.197,56.974
			c-13.509,5.08-21.056,9.742-23.668,11.508c-0.206,0.138-1.642,0.268-1.88,0.315v-27.178l45.013-25.379V47.649l-45.013-25.011
			V5.932c25.845,5.067,49.447,5.586,55.972,5.628C309.694,11.56,310.488,12.28,310.488,13.169"/>
		<path fill="#FFFFFF" d="M252.743,153.597c-0.816,0-1.632-0.23-2.328-0.694c-2.604-1.731-10.116-6.299-23.651-11.313
			c-11.559-4.283-20.442-9.001-26.223-18.103c-5.574-8.774-8.059-21.482-8.059-41.204V12.921c0-2.137,1.824-3.876,4.067-3.876
			c6.693-0.042,30.509-0.57,55.354-5.604c0.55-0.111,1.132-0.112,1.684,0c24.836,5.033,48.645,5.562,55.36,5.604
			c2.24,0.004,4.061,1.742,4.061,3.876v69.361c0,40.128-10.108,50.349-34.284,59.307c-13.534,5.015-21.047,9.582-23.649,11.312
			C254.377,153.364,253.56,153.596,252.743,153.597 M198.548,13.544c-0.857,0.014-1.545,0.711-1.545,1.569v67.169
			c0,39.171,10.034,47.176,31.332,55.067c12.093,4.482,19.613,8.67,23.192,10.896c0.746,0.465,1.686,0.465,2.433,0
			c3.578-2.226,11.098-6.414,23.192-10.896c21.299-7.891,31.333-15.897,31.333-55.067V15.113c0-0.858-0.688-1.555-1.545-1.569
			c-8.698-0.136-30.818-0.962-53.893-5.599c-0.2-0.04-0.408-0.04-0.608,0C229.366,12.582,207.247,13.408,198.548,13.544
			 M196.566,13.566h-0.003H196.566z"/>
		<path fill="#BD8B00" d="M252.743,156.954c-0.853,0-1.705-0.242-2.433-0.726c-2.719-1.809-10.568-6.58-24.708-11.819
			c-12.076-4.474-21.356-9.401-27.395-18.911c-5.823-9.167-8.42-22.443-8.42-43.047V9.99c0-2.232,1.906-4.049,4.249-4.049
			c6.993-0.044,31.873-0.595,57.828-5.855c0.575-0.115,1.183-0.116,1.759,0.001c25.946,5.257,50.819,5.81,57.836,5.854
			c2.34,0.005,4.241,1.82,4.241,4.049v72.461c0,41.922-10.559,52.601-35.816,61.958c-14.14,5.239-21.988,10.011-24.706,11.818
			C254.449,156.712,253.597,156.953,252.743,156.954 M196.011,10.051c-1.113,0.019-2.001,0.927-2.001,2.041v70.393
			c0,41.275,10.573,49.709,33.015,58.025c12.255,4.541,20.053,8.797,23.987,11.201c1.064,0.651,2.399,0.651,3.464,0
			c3.933-2.403,11.73-6.66,23.987-11.201c22.442-8.316,33.016-16.751,33.016-58.025v-70.05c0-1.302-1.041-2.366-2.343-2.39
			c-9.66-0.178-32.571-1.131-56.393-5.952C228.639,8.971,205.467,9.889,196.011,10.051 M193.55,10.082h-0.003H193.55z"/>
		<path d="M252.748,123.819c-0.823,0-1.637-0.218-2.349-0.63l-39.562-22.877c-1.446-0.836-2.344-2.392-2.344-4.062V50.496
			c0-1.67,0.898-3.226,2.344-4.062l39.562-22.877c0.712-0.412,1.525-0.63,2.349-0.63c0.824,0,1.636,0.218,2.35,0.63l39.554,22.877
			c1.446,0.837,2.345,2.396,2.343,4.067l-0.051,45.754c-0.001,1.666-0.897,3.22-2.34,4.055L255.1,123.187
			C254.387,123.601,253.573,123.819,252.748,123.819 M255.805,115.646l25.102-14.537l-25.102,3.843V115.646z M249.632,115.615
			v-10.721l-25.123-3.806L249.632,115.615z M258.379,98.313l29.755-4.554l-10.567-30.8L258.379,98.313z M247.027,98.257
			l-19.157-35.298l-10.566,30.794L247.027,98.257z M252.719,95.8l20.299-37.402H232.42L252.719,95.8z M290.786,82.47l0.031-28.202
			l-8.687,2.978L290.786,82.47z M214.666,82.425l8.651-25.21l-8.651-2.966V82.425z M271.176,52.226l-18.431-20.049l-18.472,20.049
			H271.176z M279.124,51.751l7.778-2.667l-21.845-12.635L279.124,51.751z M226.34,51.726l14.053-15.252l-21.79,12.6L226.34,51.726z"
			/>
		<path fill="#FFFFFF" d="M252.748,24.408c0.556,0,1.11,0.144,1.608,0.431l39.554,22.878c0.993,0.574,1.604,1.635,1.603,2.782
			l-0.05,45.755c-0.001,1.144-0.611,2.201-1.602,2.775l-39.504,22.877c-0.498,0.288-1.053,0.432-1.609,0.432
			c-0.555,0-1.109-0.143-1.606-0.431L211.578,99.03c-0.993-0.574-1.604-1.633-1.604-2.78V50.496c0-1.147,0.611-2.206,1.604-2.78
			l39.563-22.877C251.639,24.552,252.193,24.408,252.748,24.408 M230.894,53.707h43.654L252.747,29.99L230.894,53.707
			 M278.688,53.466l11.771-4.036l-33.056-19.118L278.688,53.466 M226.774,53.441l21.302-23.121l-33.03,19.099L226.774,53.441
			 M213.185,91.304l12.013-35.009l-12.013-4.119V91.304 M292.258,91.32l0.043-39.126l-12.052,4.132L292.258,91.32 M252.719,98.905
			l22.788-41.988h-45.576L252.719,98.905 M249.75,100.167L227.565,59.29l-12.237,35.662L249.75,100.167 M255.653,100.228
			l34.457-5.274L277.872,59.29L255.653,100.228 M251.113,118.182v-14.561l-34.123-5.17L251.113,118.182 M254.324,118.215
			l34.115-19.757l-34.115,5.222V118.215 M252.748,21.446c-1.083,0-2.151,0.287-3.09,0.829l-39.563,22.877
			c-1.901,1.1-3.083,3.147-3.083,5.344V96.25c0,2.197,1.182,4.244,3.083,5.344l39.563,22.877c0.938,0.543,2.007,0.829,3.09,0.829
			c1.085,0,2.155-0.287,3.094-0.831l39.504-22.877c1.896-1.098,3.076-3.143,3.079-5.335l0.049-45.754
			c0.004-2.199-1.178-4.249-3.081-5.35l-39.554-22.878C254.9,21.733,253.832,21.446,252.748,21.446 M237.651,50.745l15.093-16.382
			l15.059,16.382H237.651z M279.56,50.036l-6.85-7.45l10.637,6.152L279.56,50.036z M222.16,48.727l10.55-6.1l-6.804,7.385
			L222.16,48.727z M216.147,73.547V56.323l5.288,1.813L216.147,73.547z M284.013,58.166l5.321-1.824l-0.019,17.277L284.013,58.166z
			 M234.908,59.879h35.621l-17.811,32.817L234.908,59.879z M219.282,92.555l8.896-25.926l16.129,29.718L219.282,92.555z
			 M261.103,96.398l16.156-29.769l8.899,25.934L261.103,96.398z M248.151,113.048l-16.123-9.323l16.123,2.443V113.048z
			 M257.286,106.223l16.088-2.462l-16.088,9.316V106.223z"/>
		<polygon fill="#FFC44A" points="227.565,59.29 215.328,94.952 249.75,100.167 		"/>
		<polygon fill="#FFC44A" points="248.076,30.32 215.046,49.419 226.774,53.44 		"/>
		<polygon fill="#FFE7AD" points="274.548,53.707 252.747,29.99 230.895,53.707 		"/>
		<polygon fill="#FFF4E0" points="290.46,49.43 257.404,30.312 278.688,53.466 		"/>
		<polygon fill="#DDA71A" points="213.185,52.176 213.185,91.304 225.198,56.295 		"/>
		<polygon fill="#FFE7AD" points="255.653,100.229 290.109,94.955 277.872,59.291 		"/>
		<polygon fill="#DDA71A" points="251.113,118.182 251.113,103.621 216.99,98.451 		"/>
		<polygon fill="#FFF4E0" points="280.25,56.325 292.257,91.32 292.301,52.193 		"/>
		<polygon fill="#FFC44A" points="254.324,118.215 288.439,98.458 254.324,103.679 		"/>
		<polygon fill="#FFDB65" points="229.931,56.917 252.719,98.905 275.507,56.917 		"/>
		<path fill="#BD8B00" d="M293.91,47.716l-39.554-22.877c-0.498-0.288-1.054-0.432-1.608-0.432s-1.109,0.144-1.606,0.432
			l-39.564,22.877c-0.992,0.574-1.603,1.633-1.603,2.78V96.25c0,1.147,0.611,2.206,1.603,2.78l39.564,22.877
			c0.497,0.287,1.052,0.431,1.606,0.431c0.556,0,1.111-0.144,1.609-0.432l39.504-22.877c0.99-0.574,1.601-1.631,1.602-2.775
			l0.05-45.755C295.515,49.352,294.903,48.291,293.91,47.716 M213.185,52.176l12.013,4.119l-12.013,35.009V52.176z M229.93,56.917
			h45.577l-22.788,41.988L229.93,56.917z M249.75,100.167l-34.422-5.216l12.237-35.661L249.75,100.167z M230.894,53.707
			l21.853-23.718l21.801,23.718H230.894z M278.688,53.466l-21.284-23.154L290.46,49.43L278.688,53.466z M226.774,53.441
			l-11.728-4.022l33.03-19.099L226.774,53.441z M251.113,103.621v14.561L216.99,98.45L251.113,103.621z M277.872,59.29
			l12.238,35.664l-34.457,5.274L277.872,59.29z M280.249,56.325l12.052-4.131l-0.043,39.126L280.249,56.325z M254.324,118.215
			V103.68l34.115-5.222L254.324,118.215z"/>
	</g>
	<g display="inline">
		<path fill="#BD8B00" d="M-0.144,237.094c0-1.765,1.561-3.122,3.46-3.122c1.968,0,3.597,1.357,3.597,3.122
			c0,2.985,2.375,5.836,6.922,5.836c4.343,0,7.125-2.444,7.125-6.107c0-2.919-0.678-5.429-4.818-8.144l-1.832-1.086
			c-4.479-2.511-5.7-3.325-6.99-4.14c-4.343-2.918-7.057-6.311-7.057-11.4c0-7.533,6.243-12.012,13.436-12.012
			c7.533,0,13.437,4.411,13.437,11.604c0,1.765-1.561,3.122-3.529,3.122s-3.529-1.357-3.529-3.122c0-3.122-2.036-5.36-6.379-5.36
			c-4.411,0-6.379,2.916-6.379,5.7c0,1.492,0,3.528,3.665,6.106c1.086,0.882,3.936,2.647,8.619,5.293
			c5.226,3.055,8.415,7.736,8.415,13.438c0,7.871-6.922,12.351-14.183,12.351C5.082,249.173-0.144,243.269-0.144,237.094z"/>
		<path fill="#BD8B00" d="M74.841,203.163v42.82c0,1.765-1.561,3.189-3.528,3.189c-1.9,0-3.461-1.425-3.461-3.189v-20.087H53.533
			v20.087c0,1.765-1.561,3.189-3.46,3.189c-1.968,0-3.597-1.425-3.597-3.189v-42.82c0-1.765,1.629-3.122,3.597-3.122
			c1.9,0,3.46,1.357,3.46,3.122v16.489h14.319v-16.489c0-1.765,1.561-3.122,3.461-3.122
			C73.281,200.041,74.841,201.398,74.841,203.163z"/>
		<path fill="#BD8B00" d="M144.667,245.644c0,1.766-1.561,3.122-3.529,3.122h-18.933c-1.9,0-3.461-1.356-3.461-3.122v-42.142
			c0-1.696,1.561-3.054,3.461-3.054h18.729c1.968,0,3.529,1.357,3.529,3.054c0,1.765-1.561,3.189-3.529,3.189h-15.133v12.961h13.232
			c1.968,0,3.529,1.426,3.529,3.19c0,1.697-1.561,3.054-3.529,3.054h-13.232v16.558h15.336
			C143.106,242.454,144.667,243.812,144.667,245.644z"/>
		<path fill="#BD8B00" d="M209.337,248.766c-1.968,0-3.598-1.356-3.598-3.122v-42.142c0-1.696,1.629-3.054,3.598-3.054h9.772
			c7.871,0,14.25,6.175,14.25,13.844v20.562c0,7.668-6.379,13.912-14.25,13.912H209.337z M212.797,242.454h6.312
			c4.003,0,7.193-3.393,7.193-7.601v-20.562c0-4.207-3.19-7.601-7.193-7.601h-6.312V242.454z"/>
		<path fill="#BD8B00" d="M283.984,245.983v-28.367l-8.549,17.373c-0.612,1.018-1.766,1.766-3.191,1.766
			c-1.356,0-2.511-0.612-3.122-1.697l-8.482-17.372v28.298c0,1.765-1.561,3.189-3.528,3.189c-1.9,0-3.461-1.425-3.461-3.189v-42.82
			c0-1.765,1.561-3.122,3.461-3.122c1.356,0,2.646,0.747,3.121,1.765l12.011,24.77c4.005-8.008,8.144-16.762,12.079-24.77
			c0.543-1.018,1.766-1.765,3.19-1.765c2.104,0,3.461,1.63,3.461,3.122v42.82c0,1.765-1.562,3.189-3.461,3.189
			C285.545,249.173,283.984,247.748,283.984,245.983z"/>
		<path fill="#BD8B00" d="M341.528,245.169c0.407,1.832-1.086,4.004-3.527,4.004c-1.495,0-2.782-0.882-3.259-2.24l-2.851-9.093
			h-13.706c-0.951,3.121-1.765,6.039-2.715,9.093c-0.407,1.289-1.834,2.24-3.395,2.24c-2.035,0-4.07-1.968-3.324-4.072v0.068
			l12.894-42.889c0.474-1.288,1.899-2.239,3.462-2.239c1.491,0,2.85,0.951,3.324,2.239l13.029,42.889H341.528z M330.06,231.597
			l-4.953-18.729l-5.091,18.729H330.06z"/>
		<path fill="#BD8B00" d="M389.098,248.766c-1.971,0-3.598-1.356-3.598-3.122v-42.142c0-1.696,1.627-3.054,3.598-3.054h9.771
			c7.871,0,14.251,6.175,14.251,13.844v20.562c0,7.668-6.38,13.912-14.251,13.912H389.098z M392.558,242.454h6.311
			c4.004,0,7.193-3.393,7.193-7.601v-20.562c0-4.207-3.189-7.601-7.193-7.601h-6.311V242.454z"/>
		<path fill="#BD8B00" d="M459.195,245.644c0,1.766-1.559,3.122-3.528,3.122h-18.935c-1.899,0-3.46-1.356-3.46-3.122v-42.142
			c0-1.696,1.561-3.054,3.46-3.054h18.731c1.967,0,3.528,1.357,3.528,3.054c0,1.765-1.562,3.189-3.528,3.189H440.33v12.961h13.232
			c1.969,0,3.53,1.426,3.53,3.19c0,1.697-1.562,3.054-3.53,3.054H440.33v16.558h15.337
			C457.636,242.454,459.195,243.812,459.195,245.644z"/>
		<path fill="#BD8B00" d="M498.69,247.409l-15.607-31.354l0.611,29.928c0,1.765-1.562,3.189-3.529,3.189
			c-1.901,0-3.53-1.425-3.53-3.189v-42.82c0-1.765,1.766-3.122,3.53-3.122c1.289,0,2.577,0.814,3.121,1.765l15.608,31.216
			l-0.61-29.858c0-1.765,1.561-3.122,3.528-3.122c1.967,0,3.529,1.357,3.529,3.122v42.82c0,1.493-1.154,2.714-2.717,3.122
			l0.138-0.068c-0.408,0.136-0.611,0.136-0.95,0.136C500.59,249.173,499.233,248.427,498.69,247.409z"/>
		<path fill="#BD8B00" d="M93.299,203.163c0-1.765,1.561-3.122,3.46-3.122c1.968,0,3.529,1.357,3.529,3.122v42.82
			c0,1.765-1.561,3.189-3.529,3.189c-1.9,0-3.46-1.425-3.46-3.189V203.163z"/>
		<path fill="#BD8B00" d="M360.052,203.163c0-1.765,1.561-3.122,3.46-3.122c1.97,0,3.53,1.357,3.53,3.122v42.82
			c0,1.765-1.561,3.189-3.53,3.189c-1.899,0-3.46-1.425-3.46-3.189V203.163z"/>
		<path fill="#BD8B00" d="M169.164,242.454h15.607c1.967,0,3.529,1.425,3.529,3.189c0,1.766-1.562,3.122-3.529,3.122h-19.136
			c-1.968,0-3.529-1.356-3.529-3.122v-42.48c0-1.765,1.561-3.122,3.461-3.122c1.841,0,3.413,1.193,3.596,2.791V242.454z"/>
	</g>
</g>
</svg>
