<?xml version="1.0" encoding="utf-8"?>
<!-- Generator: Adobe Illustrator 16.0.0, SVG Export Plug-In . SVG Version: 6.00 Build 0)  -->
<!DOCTYPE svg PUBLIC "-//W3C//DTD SVG 1.1//EN" "http://www.w3.org/Graphics/SVG/1.1/DTD/svg11.dtd">
<svg version="1.1" id="Layer_1" xmlns="http://www.w3.org/2000/svg" xmlns:xlink="http://www.w3.org/1999/xlink" x="0px" y="0px"
	 width="595.276px" height="283.465px" viewBox="0 0 595.276 283.465" enable-background="new 0 0 595.276 283.465"
	 xml:space="preserve">
<g>
	<path fill="#4CB5BC" d="M248.847,21.215v57.364v6.435v5.302c0,38.844,9.58,48.412,32.685,56.974
		c13.713,5.08,21.374,9.742,24.026,11.508c0.209,0.138,1.667,0.268,1.907,0.315v-27.178l-43.693-25.379V55.695l43.693-25.011V13.978
		c-26.234,5.067-50.194,5.586-56.817,5.628C249.653,19.605,248.847,20.326,248.847,21.215"/>
	<path fill="#C5EAF4" d="M365.21,21.215v57.364v6.435v5.302c0,38.844-9.438,48.412-32.197,56.974
		c-13.509,5.08-21.056,9.742-23.668,11.508c-0.206,0.138-1.642,0.268-1.88,0.315v-27.178l45.013-25.379V55.695l-45.013-25.011
		V13.978c25.845,5.067,49.447,5.586,55.972,5.628C364.416,19.605,365.21,20.326,365.21,21.215"/>
	<path fill="#FFFFFF" d="M307.465,161.643c-0.816,0-1.632-0.23-2.328-0.694c-2.604-1.731-10.116-6.299-23.651-11.313
		c-11.559-4.283-20.442-9.001-26.223-18.103c-5.574-8.774-8.059-21.482-8.059-41.204V20.967c0-2.137,1.824-3.876,4.067-3.876
		c6.693-0.042,30.509-0.57,55.354-5.604c0.55-0.111,1.132-0.112,1.684,0c24.836,5.033,48.645,5.562,55.36,5.604
		c2.24,0.004,4.061,1.742,4.061,3.876v69.361c0,40.128-10.108,50.349-34.284,59.307c-13.534,5.015-21.047,9.582-23.649,11.312
		C309.099,161.41,308.281,161.642,307.465,161.643 M253.27,21.59c-0.857,0.014-1.545,0.711-1.545,1.569v67.169
		c0,39.171,10.034,47.176,31.332,55.067c12.093,4.482,19.613,8.67,23.192,10.896c0.746,0.465,1.686,0.465,2.433,0
		c3.578-2.226,11.098-6.414,23.192-10.896c21.299-7.891,31.333-15.897,31.333-55.067V23.159c0-0.858-0.688-1.555-1.545-1.569
		c-8.698-0.136-30.818-0.962-53.893-5.599c-0.2-0.04-0.408-0.04-0.608,0C284.087,20.627,261.969,21.454,253.27,21.59
		 M251.288,21.612h-0.003H251.288z"/>
	<path fill="#3FA3AD" d="M307.465,165c-0.853,0-1.705-0.242-2.433-0.726c-2.719-1.809-10.568-6.58-24.708-11.819
		c-12.076-4.474-21.356-9.401-27.395-18.911c-5.823-9.167-8.42-22.443-8.42-43.047V18.036c0-2.232,1.906-4.049,4.249-4.049
		c6.993-0.044,31.873-0.595,57.828-5.855c0.575-0.115,1.183-0.116,1.759,0.001c25.946,5.257,50.819,5.81,57.836,5.854
		c2.34,0.005,4.241,1.82,4.241,4.049v72.461c0,41.922-10.559,52.601-35.816,61.958c-14.14,5.239-21.988,10.011-24.706,11.818
		C309.171,164.758,308.318,164.999,307.465,165 M250.732,18.097c-1.113,0.019-2.001,0.927-2.001,2.041v70.393
		c0,41.275,10.573,49.709,33.015,58.025c12.255,4.541,20.053,8.797,23.987,11.201c1.064,0.651,2.399,0.651,3.464,0
		c3.933-2.403,11.73-6.66,23.987-11.201c22.442-8.316,33.016-16.751,33.016-58.025v-70.05c0-1.302-1.041-2.366-2.343-2.39
		c-9.66-0.178-32.571-1.131-56.393-5.952C283.36,17.017,260.188,17.935,250.732,18.097 M248.271,18.127h-0.003H248.271z"/>
	<path d="M307.47,131.865c-0.823,0-1.637-0.218-2.349-0.63l-39.562-22.877c-1.446-0.836-2.344-2.392-2.344-4.062V58.542
		c0-1.67,0.898-3.226,2.344-4.062l39.562-22.877c0.712-0.412,1.525-0.63,2.349-0.63c0.824,0,1.636,0.218,2.35,0.63l39.554,22.877
		c1.446,0.837,2.345,2.396,2.343,4.067l-0.051,45.754c-0.001,1.666-0.897,3.22-2.34,4.055l-39.504,22.877
		C309.108,131.647,308.295,131.865,307.47,131.865 M310.526,123.692l25.102-14.537l-25.102,3.843V123.692z M304.354,123.661V112.94
		l-25.123-3.806L304.354,123.661z M313.101,106.359l29.755-4.554l-10.567-30.8L313.101,106.359z M301.749,106.303l-19.157-35.298
		l-10.566,30.794L301.749,106.303z M307.44,103.846l20.299-37.402h-40.598L307.44,103.846z M345.508,90.516l0.031-28.202
		l-8.687,2.978L345.508,90.516z M269.388,90.471l8.651-25.21l-8.651-2.966V90.471z M325.897,60.272l-18.431-20.049l-18.472,20.049
		H325.897z M333.846,59.797l7.778-2.667l-21.845-12.635L333.846,59.797z M281.062,59.772l14.053-15.252l-21.79,12.6L281.062,59.772z
		"/>
	<path fill="#FFFFFF" d="M307.47,32.454c0.556,0,1.11,0.144,1.608,0.431l39.554,22.878c0.993,0.574,1.604,1.635,1.603,2.782
		l-0.05,45.755c-0.001,1.144-0.611,2.201-1.602,2.775l-39.504,22.877c-0.498,0.288-1.053,0.432-1.609,0.432
		c-0.555,0-1.109-0.143-1.606-0.431L266.3,107.076c-0.993-0.574-1.604-1.633-1.604-2.78V58.542c0-1.147,0.611-2.206,1.604-2.78
		l39.563-22.877C306.36,32.598,306.915,32.454,307.47,32.454 M285.616,61.753h43.654l-21.801-23.717L285.616,61.753 M333.41,61.512
		l11.771-4.036l-33.056-19.118L333.41,61.512 M281.496,61.487l21.302-23.121l-33.03,19.099L281.496,61.487 M267.907,99.35
		l12.013-35.009l-12.013-4.119V99.35 M346.979,99.366l0.043-39.126l-12.052,4.132L346.979,99.366 M307.44,106.951l22.788-41.988
		h-45.576L307.44,106.951 M304.472,108.213l-22.185-40.877l-12.237,35.662L304.472,108.213 M310.375,108.274L344.832,103
		l-12.238-35.664L310.375,108.274 M305.835,126.228v-14.561l-34.123-5.17L305.835,126.228 M309.046,126.261l34.115-19.757
		l-34.115,5.222V126.261 M307.47,29.492c-1.083,0-2.151,0.287-3.09,0.829l-39.563,22.877c-1.901,1.1-3.083,3.147-3.083,5.344v45.754
		c0,2.197,1.182,4.244,3.083,5.344l39.563,22.877c0.938,0.543,2.007,0.829,3.09,0.829c1.085,0,2.155-0.287,3.094-0.831
		l39.504-22.877c1.896-1.098,3.076-3.143,3.079-5.335l0.049-45.754c0.004-2.199-1.178-4.249-3.081-5.35l-39.554-22.878
		C309.622,29.779,308.554,29.492,307.47,29.492 M292.373,58.791l15.093-16.382l15.059,16.382H292.373z M334.281,58.082l-6.85-7.45
		l10.637,6.152L334.281,58.082z M276.882,56.773l10.55-6.1l-6.804,7.385L276.882,56.773z M270.869,81.593V64.369l5.288,1.813
		L270.869,81.593z M338.734,66.212l5.321-1.824l-0.019,17.277L338.734,66.212z M289.63,67.925h35.621l-17.811,32.817L289.63,67.925z
		 M274.004,100.601l8.896-25.926l16.129,29.718L274.004,100.601z M315.824,104.444l16.156-29.769l8.899,25.934L315.824,104.444z
		 M302.873,121.094l-16.123-9.323l16.123,2.443V121.094z M312.008,114.269l16.088-2.462l-16.088,9.316V114.269z"/>
	<polygon fill="#6DCBD0" points="282.287,67.336 270.05,102.998 304.472,108.213 	"/>
	<polygon fill="#6DCBD0" points="302.798,38.366 269.768,57.465 281.496,61.486 	"/>
	<polygon fill="#C5EAF4" points="329.27,61.753 307.469,38.036 285.617,61.753 	"/>
	<polygon fill="#E0FBFB" points="345.182,57.476 312.126,38.358 333.41,61.512 	"/>
	<polygon fill="#4CB5BC" points="267.907,60.222 267.907,99.35 279.92,64.341 	"/>
	<polygon fill="#C5EAF4" points="310.375,108.274 344.831,103 332.594,67.336 	"/>
	<polygon fill="#4CB5BC" points="305.835,126.228 305.835,111.667 271.712,106.497 	"/>
	<polygon fill="#E0FBFB" points="334.972,64.371 346.979,99.366 347.022,60.239 	"/>
	<polygon fill="#6DCBD0" points="309.046,126.261 343.161,106.504 309.046,111.725 	"/>
	<polygon fill="#96DADF" points="284.652,64.963 307.44,106.951 330.229,64.963 	"/>
	<path fill="#3FA3AD" d="M348.632,55.762l-39.554-22.877c-0.498-0.288-1.054-0.432-1.608-0.432s-1.109,0.144-1.606,0.432
		l-39.564,22.877c-0.992,0.574-1.603,1.633-1.603,2.78v45.754c0,1.147,0.611,2.206,1.603,2.78l39.564,22.877
		c0.497,0.287,1.052,0.431,1.606,0.431c0.556,0,1.111-0.144,1.609-0.432l39.504-22.877c0.99-0.574,1.601-1.631,1.602-2.775
		l0.05-45.755C350.236,57.398,349.625,56.337,348.632,55.762 M267.907,60.222l12.013,4.119L267.907,99.35V60.222z M284.652,64.963
		h45.577l-22.788,41.988L284.652,64.963z M304.472,108.213l-34.422-5.216l12.237-35.661L304.472,108.213z M285.616,61.753
		l21.853-23.718l21.801,23.718H285.616z M333.41,61.512l-21.284-23.154l33.056,19.118L333.41,61.512z M281.496,61.487l-11.728-4.022
		l33.03-19.099L281.496,61.487z M305.835,111.667v14.561l-34.123-19.732L305.835,111.667z M332.594,67.336L344.832,103
		l-34.457,5.274L332.594,67.336z M334.971,64.371l12.052-4.131l-0.043,39.126L334.971,64.371z M309.046,126.261v-14.535
		l34.115-5.222L309.046,126.261z"/>
	<path fill="#3FA3AD" d="M48.072,211.186v43.7c0,1.801-1.593,3.255-3.602,3.255c-1.938,0-3.531-1.454-3.531-3.255v-20.499H26.326
		v20.499c0,1.801-1.593,3.255-3.532,3.255c-2.009,0-3.671-1.454-3.671-3.255v-43.7c0-1.801,1.662-3.186,3.671-3.186
		c1.939,0,3.532,1.385,3.532,3.186v16.829h14.613v-16.829c0-1.801,1.593-3.186,3.531-3.186
		C46.479,208,48.072,209.385,48.072,211.186"/>
	<path fill="#3FA3AD" d="M102.228,254.056c0.415,1.87-1.109,4.086-3.602,4.086c-1.523,0-2.839-0.9-3.324-2.286l-2.908-9.28h-13.99
		c-0.969,3.188-1.801,6.164-2.77,9.28c-0.416,1.315-1.87,2.286-3.464,2.286c-2.077,0-4.154-2.009-3.393-4.156v0.07l13.159-43.771
		c0.484-1.314,1.939-2.285,3.532-2.285c1.523,0,2.909,0.971,3.393,2.285l13.297,43.771H102.228z M90.522,240.204l-5.055-19.113
		l-5.195,19.113H90.522z"/>
	<path fill="#3FA3AD" d="M151.326,253.985c0.416,1.87-0.97,4.156-3.463,4.156c-1.455,0-2.909-0.831-3.462-2.147l-6.51-21.331
		c-0.07,0.069-0.971,0.208-8.035,0.208v20.084c0,1.732-1.592,3.187-3.6,3.187c-1.94,0-3.601-1.454-3.601-3.187v-43.423
		c0-1.731,1.661-3.116,3.601-3.116h11.427c7.548,0,13.712,5.888,13.712,13.229c0,4.917-2.77,9.21-6.925,11.564l6.786,20.707
		L151.326,253.985z M137.683,228.5c3.601,0,6.509-3.047,6.509-6.855c0-3.81-2.908-6.857-6.509-6.857h-7.827V228.5H137.683z"/>
	<path fill="#3FA3AD" d="M204.233,254.886v-28.947l-8.727,17.729c-0.623,1.039-1.8,1.801-3.254,1.801
		c-1.386,0-2.563-0.624-3.186-1.731l-8.657-17.729v28.879c0,1.802-1.593,3.255-3.601,3.255c-1.939,0-3.532-1.453-3.532-3.255
		v-43.699c0-1.802,1.593-3.187,3.532-3.187c1.385,0,2.701,0.762,3.186,1.801l12.258,25.278c4.086-8.172,8.311-17.105,12.327-25.278
		c0.554-1.039,1.801-1.801,3.256-1.801c2.147,0,3.531,1.662,3.531,3.187v43.699c0,1.802-1.592,3.255-3.531,3.255
		C205.826,258.141,204.233,256.688,204.233,254.886"/>
	<path fill="#3FA3AD" d="M262.75,254.124c0,1.802-1.593,3.187-3.601,3.187H239.62c-2.009,0-3.602-1.385-3.602-3.187v-42.938
		c0-1.801,1.593-3.187,3.602-3.187c2.007,0,3.601,1.386,3.601,3.187v39.683h15.928C261.156,250.869,262.75,252.323,262.75,254.124"
		/>
	<path fill="#3FA3AD" d="M309.771,254.54c0,1.802-1.593,3.187-3.602,3.187h-19.322c-1.938,0-3.531-1.385-3.531-3.187v-43.008
		c0-1.73,1.593-3.116,3.531-3.116h19.115c2.008,0,3.601,1.386,3.601,3.116c0,1.801-1.593,3.255-3.601,3.255h-15.444v13.229h13.505
		c2.008,0,3.602,1.455,3.602,3.255c0,1.73-1.594,3.117-3.602,3.117h-13.505v16.897h15.651
		C308.179,251.285,309.771,252.67,309.771,254.54"/>
	<path fill="#3FA3AD" d="M327.637,245.813c0-1.801,1.593-3.186,3.532-3.186c2.009,0,3.671,1.385,3.671,3.186
		c0,3.048,2.424,5.956,7.063,5.956c4.433,0,7.272-2.493,7.272-6.232c0-2.979-0.693-5.54-4.918-8.311l-1.87-1.108
		c-4.57-2.562-5.817-3.394-7.133-4.225c-4.433-2.978-7.203-6.439-7.203-11.635c0-7.688,6.372-12.258,13.713-12.258
		c7.687,0,13.713,4.501,13.713,11.842c0,1.801-1.594,3.186-3.602,3.186c-2.01,0-3.601-1.385-3.601-3.186
		c0-3.185-2.078-5.47-6.511-5.47c-4.501,0-6.51,2.977-6.51,5.816c0,1.523,0,3.603,3.74,6.232c1.107,0.9,4.017,2.702,8.795,5.403
		c5.332,3.115,8.588,7.894,8.588,13.712c0,8.033-7.064,12.604-14.475,12.604C332.969,258.141,327.637,252.116,327.637,245.813"/>
	<path fill="#3FA3AD" d="M375.281,245.813c0-1.801,1.593-3.186,3.532-3.186c2.008,0,3.67,1.385,3.67,3.186
		c0,3.048,2.425,5.956,7.064,5.956c4.433,0,7.271-2.493,7.271-6.232c0-2.979-0.692-5.54-4.917-8.311l-1.87-1.108
		c-4.57-2.562-5.817-3.394-7.134-4.225c-4.432-2.978-7.202-6.439-7.202-11.635c0-7.688,6.372-12.258,13.713-12.258
		c7.687,0,13.713,4.501,13.713,11.842c0,1.801-1.594,3.186-3.602,3.186c-2.01,0-3.602-1.385-3.602-3.186
		c0-3.185-2.077-5.47-6.51-5.47c-4.501,0-6.511,2.977-6.511,5.816c0,1.523,0,3.603,3.74,6.232c1.108,0.9,4.017,2.702,8.795,5.403
		c5.333,3.115,8.589,7.894,8.589,13.712c0,8.033-7.064,12.604-14.475,12.604C380.613,258.141,375.281,252.116,375.281,245.813"/>
	<path fill="#3FA3AD" d="M480.82,258.141c-1.316,0-2.632-0.831-3.394-2.077l-10.804-22.992l-4.294,4.847v16.968
		c0,1.801-1.593,3.255-3.602,3.255c-2.008,0-3.67-1.454-3.67-3.255v-43.7c0-1.801,1.662-3.186,3.67-3.186
		c2.009,0,3.602,1.385,3.602,3.186v17.037c5.194-6.371,10.388-12.812,15.583-19.113c0.623-0.693,1.801-1.109,2.839-1.109
		c2.632,0,4.433,3.118,2.771,5.195l-11.704,14.266l12.188,26.11C484.837,255.441,483.452,258.141,480.82,258.141"/>
	<path fill="#3FA3AD" d="M530.75,254.54c0,1.802-1.593,3.187-3.601,3.187h-19.322c-1.939,0-3.532-1.385-3.532-3.187v-43.008
		c0-1.73,1.593-3.116,3.532-3.116h19.114c2.009,0,3.602,1.386,3.602,3.116c0,1.801-1.593,3.255-3.602,3.255h-15.444v13.229h13.506
		c2.008,0,3.601,1.455,3.601,3.255c0,1.73-1.593,3.117-3.601,3.117h-13.506v16.897h15.652
		C529.157,251.285,530.75,252.67,530.75,254.54"/>
	<path fill="#3FA3AD" d="M577.495,212.502l-11.22,24.726v17.659c0,1.801-1.523,3.255-3.531,3.255c-2.009,0-3.602-1.454-3.602-3.255
		v-17.592l-11.149-24.793c-0.693-1.938,0.761-4.502,3.255-4.502c1.454,0,2.7,0.763,3.255,1.87l8.241,19.253l8.241-19.253
		c0.554-1.107,1.731-1.87,3.255-1.87C576.525,208,578.465,210.285,577.495,212.502"/>
</g>
</svg>
