<?xml version="1.0" encoding="utf-8"?>
<!-- Generator: Adobe Illustrator 16.0.0, SVG Export Plug-In . SVG Version: 6.00 Build 0)  -->
<!DOCTYPE svg PUBLIC "-//W3C//DTD SVG 1.1//EN" "http://www.w3.org/Graphics/SVG/1.1/DTD/svg11.dtd">
<svg version="1.1" xmlns="http://www.w3.org/2000/svg" xmlns:xlink="http://www.w3.org/1999/xlink" x="0px" y="0px" width="596px"
	 height="283.465px" viewBox="0 0 596 283.465" enable-background="new 0 0 596 283.465" xml:space="preserve">
<g id="Green" display="none">
	<g display="inline">
		<path fill="#6AB082" d="M239.208,21.215v57.364v6.435v5.302c0,38.844,9.58,48.412,32.685,56.974
			c13.713,5.08,21.374,9.742,24.026,11.508c0.209,0.138,1.667,0.268,1.907,0.315v-27.178l-43.693-25.379V55.695l43.693-25.011
			V13.978c-26.234,5.067-50.194,5.586-56.817,5.628C240.015,19.605,239.208,20.326,239.208,21.215"/>
		<path fill="#DCFFDE" d="M355.572,21.215v57.364v6.435v5.302c0,38.844-9.438,48.412-32.197,56.974
			c-13.509,5.08-21.056,9.742-23.668,11.508c-0.206,0.138-1.642,0.268-1.88,0.315v-27.178l45.013-25.379V55.695l-45.013-25.011
			V13.978c25.845,5.067,49.447,5.586,55.972,5.628C354.778,19.605,355.572,20.326,355.572,21.215"/>
		<path fill="#FFFFFF" d="M297.827,161.643c-0.816,0-1.632-0.23-2.328-0.694c-2.604-1.731-10.116-6.299-23.651-11.313
			c-11.559-4.283-20.442-9.001-26.223-18.103c-5.574-8.774-8.059-21.482-8.059-41.204V20.967c0-2.137,1.824-3.876,4.067-3.876
			c6.693-0.042,30.509-0.57,55.354-5.604c0.55-0.111,1.132-0.112,1.684,0c24.836,5.033,48.645,5.562,55.36,5.604
			c2.24,0.004,4.061,1.742,4.061,3.876v69.361c0,40.128-10.108,50.349-34.284,59.307c-13.534,5.015-21.047,9.582-23.649,11.312
			C299.46,161.41,298.643,161.642,297.827,161.643 M243.631,21.59c-0.857,0.014-1.545,0.711-1.545,1.569v67.169
			c0,39.171,10.034,47.176,31.332,55.067c12.093,4.482,19.613,8.67,23.192,10.896c0.746,0.465,1.686,0.465,2.433,0
			c3.578-2.226,11.098-6.414,23.192-10.896c21.299-7.891,31.333-15.897,31.333-55.067V23.159c0-0.858-0.688-1.555-1.545-1.569
			c-8.698-0.136-30.818-0.962-53.893-5.599c-0.2-0.04-0.408-0.04-0.608,0C274.449,20.627,252.331,21.454,243.631,21.59
			 M241.649,21.612h-0.003H241.649z"/>
		<path fill="#6B8A6B" d="M297.827,165c-0.853,0-1.705-0.242-2.433-0.726c-2.719-1.809-10.568-6.58-24.708-11.819
			c-12.076-4.474-21.356-9.401-27.395-18.911c-5.823-9.167-8.42-22.443-8.42-43.047V18.036c0-2.232,1.906-4.049,4.249-4.049
			c6.993-0.044,31.873-0.595,57.828-5.855c0.575-0.115,1.183-0.116,1.759,0.001c25.946,5.257,50.819,5.81,57.836,5.854
			c2.34,0.005,4.241,1.82,4.241,4.049v72.461c0,41.922-10.559,52.601-35.816,61.958c-14.14,5.239-21.988,10.011-24.706,11.818
			C299.533,164.758,298.68,164.999,297.827,165 M241.094,18.097c-1.113,0.019-2.001,0.927-2.001,2.041v70.393
			c0,41.275,10.573,49.709,33.015,58.025c12.255,4.541,20.053,8.797,23.987,11.201c1.064,0.651,2.399,0.651,3.464,0
			c3.933-2.403,11.73-6.66,23.987-11.201c22.442-8.316,33.016-16.751,33.016-58.025v-70.05c0-1.302-1.041-2.366-2.343-2.39
			c-9.66-0.178-32.571-1.131-56.393-5.952C273.722,17.017,250.55,17.935,241.094,18.097 M238.633,18.127h-0.003H238.633z"/>
		<path d="M297.832,131.865c-0.823,0-1.637-0.218-2.349-0.63l-39.562-22.877c-1.446-0.836-2.344-2.392-2.344-4.062V58.542
			c0-1.67,0.898-3.226,2.344-4.062l39.562-22.877c0.712-0.412,1.525-0.63,2.349-0.63c0.824,0,1.636,0.218,2.35,0.63l39.554,22.877
			c1.446,0.837,2.345,2.396,2.343,4.067l-0.051,45.754c-0.001,1.666-0.897,3.22-2.34,4.055l-39.504,22.877
			C299.47,131.647,298.657,131.865,297.832,131.865 M300.888,123.692l25.102-14.537l-25.102,3.843V123.692z M294.715,123.661V112.94
			l-25.123-3.806L294.715,123.661z M303.462,106.359l29.755-4.554l-10.567-30.8L303.462,106.359z M292.111,106.303l-19.157-35.298
			l-10.566,30.794L292.111,106.303z M297.802,103.846l20.299-37.402h-40.598L297.802,103.846z M335.87,90.516l0.031-28.202
			l-8.687,2.978L335.87,90.516z M259.75,90.471l8.651-25.21l-8.651-2.966V90.471z M316.259,60.272l-18.431-20.049l-18.472,20.049
			H316.259z M324.208,59.797l7.778-2.667l-21.845-12.635L324.208,59.797z M271.423,59.772l14.053-15.252l-21.79,12.6L271.423,59.772
			z"/>
		<path fill="#FFFFFF" d="M297.832,32.454c0.556,0,1.11,0.144,1.608,0.431l39.554,22.878c0.993,0.574,1.604,1.635,1.603,2.782
			l-0.05,45.755c-0.001,1.144-0.611,2.201-1.602,2.775l-39.504,22.877c-0.498,0.288-1.053,0.432-1.609,0.432
			c-0.555,0-1.109-0.143-1.606-0.431l-39.563-22.877c-0.993-0.574-1.604-1.633-1.604-2.78V58.542c0-1.147,0.611-2.206,1.604-2.78
			l39.563-22.877C296.722,32.598,297.277,32.454,297.832,32.454 M275.978,61.753h43.654l-21.801-23.717L275.978,61.753
			 M323.772,61.512l11.771-4.036l-33.056-19.118L323.772,61.512 M271.857,61.487l21.302-23.121l-33.03,19.099L271.857,61.487
			 M258.269,99.35l12.013-35.009l-12.013-4.119V99.35 M337.341,99.366l0.043-39.126l-12.052,4.132L337.341,99.366 M297.802,106.951
			l22.788-41.988h-45.576L297.802,106.951 M294.833,108.213l-22.185-40.877l-12.237,35.662L294.833,108.213 M300.737,108.274
			L335.194,103l-12.238-35.664L300.737,108.274 M296.197,126.228v-14.561l-34.123-5.17L296.197,126.228 M299.408,126.261
			l34.115-19.757l-34.115,5.222V126.261 M297.832,29.492c-1.083,0-2.151,0.287-3.09,0.829l-39.563,22.877
			c-1.901,1.1-3.083,3.147-3.083,5.344v45.754c0,2.197,1.182,4.244,3.083,5.344l39.563,22.877c0.938,0.543,2.007,0.829,3.09,0.829
			c1.085,0,2.155-0.287,3.094-0.831l39.504-22.877c1.896-1.098,3.076-3.143,3.079-5.335l0.049-45.754
			c0.004-2.199-1.178-4.249-3.081-5.35l-39.554-22.878C299.984,29.779,298.916,29.492,297.832,29.492 M282.735,58.791l15.093-16.382
			l15.059,16.382H282.735z M324.643,58.082l-6.85-7.45l10.637,6.152L324.643,58.082z M267.244,56.773l10.55-6.1l-6.804,7.385
			L267.244,56.773z M261.23,81.593V64.369l5.288,1.813L261.23,81.593z M329.096,66.212l5.321-1.824l-0.019,17.277L329.096,66.212z
			 M279.992,67.925h35.621l-17.811,32.817L279.992,67.925z M264.366,100.601l8.896-25.926l16.129,29.718L264.366,100.601z
			 M306.186,104.444l16.156-29.769l8.899,25.934L306.186,104.444z M293.235,121.094l-16.123-9.323l16.123,2.443V121.094z
			 M302.37,114.269l16.088-2.462l-16.088,9.316V114.269z"/>
		<polygon fill="#8DD294" points="272.648,67.336 260.412,102.998 294.833,108.213 		"/>
		<polygon fill="#8DD294" points="293.16,38.366 260.13,57.465 271.858,61.486 		"/>
		<polygon fill="#DCFFDE" points="319.631,61.753 297.831,38.036 275.979,61.753 		"/>
		<polygon fill="#EFFFEC" points="335.543,57.476 302.488,38.358 323.772,61.512 		"/>
		<polygon fill="#6AB082" points="258.269,60.222 258.269,99.35 270.282,64.341 		"/>
		<polygon fill="#DCFFDE" points="300.737,108.274 335.193,103 322.956,67.336 		"/>
		<polygon fill="#6AB082" points="296.197,126.228 296.197,111.667 262.074,106.497 		"/>
		<polygon fill="#EFFFEC" points="325.333,64.371 337.34,99.366 337.384,60.239 		"/>
		<polygon fill="#8DD294" points="299.408,126.261 333.523,106.504 299.408,111.725 		"/>
		<polygon fill="#A2FF9E" points="275.014,64.963 297.802,106.951 320.59,64.963 		"/>
		<path fill="#6B8A6B" d="M338.994,55.762L299.44,32.885c-0.498-0.288-1.054-0.432-1.608-0.432s-1.109,0.144-1.606,0.432
			l-39.564,22.877c-0.992,0.574-1.603,1.633-1.603,2.78v45.754c0,1.147,0.611,2.206,1.603,2.78l39.564,22.877
			c0.497,0.287,1.052,0.431,1.606,0.431c0.556,0,1.111-0.144,1.609-0.432l39.504-22.877c0.99-0.574,1.601-1.631,1.602-2.775
			l0.05-45.755C340.598,57.398,339.987,56.337,338.994,55.762 M258.269,60.222l12.013,4.119L258.269,99.35V60.222z M275.014,64.963
			h45.577l-22.788,41.988L275.014,64.963z M294.833,108.213l-34.422-5.216l12.237-35.661L294.833,108.213z M275.978,61.753
			l21.853-23.718l21.801,23.718H275.978z M323.772,61.512l-21.284-23.154l33.056,19.118L323.772,61.512z M271.858,61.487
			l-11.728-4.022l33.03-19.099L271.858,61.487z M296.197,111.667v14.561l-34.123-19.732L296.197,111.667z M322.956,67.336
			L335.194,103l-34.457,5.274L322.956,67.336z M325.333,64.371l12.052-4.131l-0.043,39.126L325.333,64.371z M299.408,126.261
			v-14.535l34.115-5.222L299.408,126.261z"/>
	</g>
	<g display="inline">
		<path fill="#6B8A6B" d="M17.868,245.352c0-1.795,1.587-3.174,3.519-3.174c2.001,0,3.657,1.379,3.657,3.174
			c0,3.035,2.415,5.934,7.038,5.934c4.416,0,7.245-2.484,7.245-6.21c0-2.967-0.69-5.521-4.899-8.28l-1.863-1.104
			c-4.554-2.553-5.796-3.381-7.107-4.209c-4.416-2.967-7.176-6.418-7.176-11.592c0-7.66,6.348-12.213,13.662-12.213
			c7.659,0,13.662,4.484,13.662,11.799c0,1.793-1.587,3.174-3.588,3.174s-3.588-1.381-3.588-3.174c0-3.174-2.07-5.451-6.486-5.451
			c-4.485,0-6.486,2.967-6.486,5.796c0,1.519,0,3.588,3.726,6.21c1.104,0.896,4.002,2.691,8.763,5.382
			c5.313,3.104,8.556,7.866,8.556,13.662c0,8.004-7.038,12.558-14.421,12.558C23.181,257.633,17.868,251.631,17.868,245.352z"/>
		<path fill="#6B8A6B" d="M95.216,210.852v43.539c0,1.793-1.587,3.242-3.588,3.242c-1.932,0-3.519-1.449-3.519-3.242v-20.424H73.55
			v20.424c0,1.793-1.587,3.242-3.519,3.242c-2.001,0-3.657-1.449-3.657-3.242v-43.539c0-1.795,1.656-3.174,3.657-3.174
			c1.932,0,3.519,1.379,3.519,3.174v16.767h14.559v-16.767c0-1.795,1.587-3.174,3.519-3.174
			C93.629,207.678,95.216,209.057,95.216,210.852z"/>
		<path fill="#6B8A6B" d="M186.847,254.045c0,1.795-1.587,3.174-3.588,3.174h-19.251c-1.933,0-3.52-1.379-3.52-3.174v-42.849
			c0-1.726,1.587-3.104,3.52-3.104h19.044c2.001,0,3.588,1.379,3.588,3.104c0,1.794-1.587,3.243-3.588,3.243h-15.387v13.179h13.455
			c2.001,0,3.588,1.448,3.588,3.243c0,1.725-1.587,3.105-3.588,3.105h-13.455v16.836h15.594
			C185.26,250.803,186.847,252.182,186.847,254.045z"/>
		<path fill="#6B8A6B" d="M232.318,253.631c0,1.795-1.588,3.174-3.589,3.174h-19.458c-2.001,0-3.588-1.379-3.588-3.174v-42.779
			c0-1.795,1.587-3.174,3.588-3.174s3.589,1.379,3.589,3.174v39.537h15.869C230.73,250.389,232.318,251.838,232.318,253.631z"/>
		<path fill="#6B8A6B" d="M127.956,207.678c-2.001,0-3.588,1.379-3.588,3.174v4.07v35.467v4.07c0,1.795,1.588,3.174,3.589,3.174
			s3.588-1.379,3.588-3.174v-4.07v-35.467v-4.07C131.545,209.057,129.957,207.678,127.956,207.678z"/>
		<path fill="#6B8A6B" d="M420.167,207.678c-2.001,0-3.588,1.379-3.588,3.174v4.07v35.467v4.07c0,1.795,1.588,3.174,3.589,3.174
			s3.588-1.379,3.588-3.174v-4.07v-35.467v-4.07C423.756,209.057,422.168,207.678,420.167,207.678z"/>
		<path fill="#6B8A6B" d="M254.811,257.219c-2.001,0-3.657-1.379-3.657-3.174v-42.849c0-1.726,1.656-3.104,3.657-3.104h9.937
			c8.004,0,14.489,6.278,14.489,14.075v20.907c0,7.797-6.485,14.145-14.489,14.145H254.811z M258.331,250.803h6.417
			c4.07,0,7.313-3.451,7.313-7.729v-20.907c0-4.278-3.243-7.728-7.313-7.728h-6.417V250.803z"/>
		<path fill="#6B8A6B" d="M331.815,254.391v-28.842l-8.694,17.664c-0.621,1.034-1.794,1.793-3.243,1.793
			c-1.38,0-2.553-0.621-3.174-1.725l-8.625-17.664v28.773c0,1.793-1.587,3.242-3.588,3.242c-1.932,0-3.519-1.449-3.519-3.242
			v-43.539c0-1.795,1.587-3.174,3.519-3.174c1.38,0,2.691,0.758,3.174,1.793l12.213,25.186c4.071-8.143,8.28-17.043,12.282-25.186
			c0.552-1.035,1.794-1.793,3.243-1.793c2.139,0,3.52,1.655,3.52,3.174v43.539c0,1.793-1.588,3.242-3.52,3.242
			C333.402,257.633,331.815,256.184,331.815,254.391z"/>
		<path fill="#6B8A6B" d="M391.43,253.562c0.414,1.863-1.104,4.07-3.588,4.07c-1.519,0-2.829-0.896-3.312-2.276l-2.897-9.246
			h-13.938c-0.966,3.174-1.794,6.142-2.76,9.246c-0.414,1.312-1.863,2.276-3.45,2.276c-2.07,0-4.14-2-3.381-4.14v0.069l13.11-43.608
			c0.482-1.312,1.932-2.276,3.519-2.276c1.518,0,2.898,0.965,3.381,2.276l13.248,43.608H391.43z M379.769,239.762l-5.037-19.043
			l-5.175,19.043H379.769z"/>
		<path fill="#6B8A6B" d="M456.358,257.219c-2.001,0-3.657-1.379-3.657-3.174v-42.849c0-1.726,1.656-3.104,3.657-3.104h9.937
			c8.004,0,14.489,6.278,14.489,14.075v20.907c0,7.797-6.485,14.145-14.489,14.145H456.358z M459.877,250.803h6.417
			c4.07,0,7.313-3.451,7.313-7.729v-20.907c0-4.278-3.243-7.728-7.313-7.728h-6.417V250.803z"/>
		<path fill="#6B8A6B" d="M528.738,254.045c0,1.795-1.587,3.174-3.588,3.174h-19.251c-1.933,0-3.52-1.379-3.52-3.174v-42.849
			c0-1.726,1.587-3.104,3.52-3.104h19.044c2.001,0,3.588,1.379,3.588,3.104c0,1.794-1.587,3.243-3.588,3.243h-15.387v13.179h13.455
			c2.001,0,3.588,1.448,3.588,3.243c0,1.725-1.587,3.105-3.588,3.105h-13.455v16.836h15.594
			C527.151,250.803,528.738,252.182,528.738,254.045z"/>
		<path fill="#6B8A6B" d="M570,255.84l-15.87-31.879l0.621,30.43c0,1.793-1.588,3.242-3.589,3.242c-1.932,0-3.588-1.449-3.588-3.242
			v-43.539c0-1.795,1.794-3.174,3.588-3.174c1.312,0,2.622,0.827,3.175,1.793l15.87,31.74l-0.621-30.359
			c0-1.795,1.587-3.174,3.588-3.174s3.588,1.379,3.588,3.174v43.539c0,1.518-1.173,2.76-2.76,3.174l0.138-0.069
			c-0.414,0.138-0.621,0.138-0.966,0.138C571.932,257.633,570.552,256.874,570,255.84z"/>
	</g>
</g>
<g id="Blue" display="none">
	<g display="inline">
		<path fill="#7388CE" d="M239.208,21.215v57.364v6.435v5.302c0,38.844,9.58,48.412,32.685,56.974
			c13.713,5.08,21.374,9.742,24.026,11.508c0.209,0.138,1.667,0.268,1.907,0.315v-27.178l-43.693-25.379V55.695l43.693-25.011
			V13.978c-26.234,5.067-50.194,5.586-56.817,5.628C240.015,19.605,239.208,20.326,239.208,21.215"/>
		<path fill="#DBDEFF" d="M355.572,21.215v57.364v6.435v5.302c0,38.844-9.438,48.412-32.197,56.974
			c-13.509,5.08-21.056,9.742-23.668,11.508c-0.206,0.138-1.642,0.268-1.88,0.315v-27.178l45.013-25.379V55.695l-45.013-25.011
			V13.978c25.845,5.067,49.447,5.586,55.972,5.628C354.778,19.605,355.572,20.326,355.572,21.215"/>
		<path fill="#FFFFFF" d="M297.827,161.643c-0.816,0-1.632-0.23-2.328-0.694c-2.604-1.731-10.116-6.299-23.651-11.313
			c-11.559-4.283-20.442-9.001-26.223-18.103c-5.574-8.774-8.059-21.482-8.059-41.204V20.967c0-2.137,1.824-3.876,4.067-3.876
			c6.693-0.042,30.509-0.57,55.354-5.604c0.55-0.111,1.132-0.112,1.684,0c24.836,5.033,48.645,5.562,55.36,5.604
			c2.24,0.004,4.061,1.742,4.061,3.876v69.361c0,40.128-10.108,50.349-34.284,59.307c-13.534,5.015-21.047,9.582-23.649,11.312
			C299.46,161.41,298.643,161.642,297.827,161.643 M243.631,21.59c-0.857,0.014-1.545,0.711-1.545,1.569v67.169
			c0,39.171,10.034,47.176,31.332,55.067c12.093,4.482,19.613,8.67,23.192,10.896c0.746,0.465,1.686,0.465,2.433,0
			c3.578-2.226,11.098-6.414,23.192-10.896c21.299-7.891,31.333-15.897,31.333-55.067V23.159c0-0.858-0.688-1.555-1.545-1.569
			c-8.698-0.136-30.818-0.962-53.893-5.599c-0.2-0.04-0.408-0.04-0.608,0C274.449,20.627,252.331,21.454,243.631,21.59
			 M241.649,21.612h-0.003H241.649z"/>
		<path fill="#5C6CA7" d="M297.827,165c-0.853,0-1.705-0.242-2.433-0.726c-2.719-1.809-10.568-6.58-24.708-11.819
			c-12.076-4.474-21.356-9.401-27.395-18.911c-5.823-9.167-8.42-22.443-8.42-43.047V18.036c0-2.232,1.906-4.049,4.249-4.049
			c6.993-0.044,31.873-0.595,57.828-5.855c0.575-0.115,1.183-0.116,1.759,0.001c25.946,5.257,50.819,5.81,57.836,5.854
			c2.34,0.005,4.241,1.82,4.241,4.049v72.461c0,41.922-10.559,52.601-35.816,61.958c-14.14,5.239-21.988,10.011-24.706,11.818
			C299.533,164.758,298.68,164.999,297.827,165 M241.094,18.097c-1.113,0.019-2.001,0.927-2.001,2.041v70.393
			c0,41.275,10.573,49.709,33.015,58.025c12.255,4.541,20.053,8.797,23.987,11.201c1.064,0.651,2.399,0.651,3.464,0
			c3.933-2.403,11.73-6.66,23.987-11.201c22.442-8.316,33.016-16.751,33.016-58.025v-70.05c0-1.302-1.041-2.366-2.343-2.39
			c-9.66-0.178-32.571-1.131-56.393-5.952C273.722,17.017,250.55,17.935,241.094,18.097 M238.633,18.127h-0.003H238.633z"/>
		<path d="M297.832,131.865c-0.823,0-1.637-0.218-2.349-0.63l-39.562-22.877c-1.446-0.836-2.344-2.392-2.344-4.062V58.542
			c0-1.67,0.898-3.226,2.344-4.062l39.562-22.877c0.712-0.412,1.525-0.63,2.349-0.63c0.824,0,1.636,0.218,2.35,0.63l39.554,22.877
			c1.446,0.837,2.345,2.396,2.343,4.067l-0.051,45.754c-0.001,1.666-0.897,3.22-2.34,4.055l-39.504,22.877
			C299.47,131.647,298.657,131.865,297.832,131.865 M300.888,123.692l25.102-14.537l-25.102,3.843V123.692z M294.715,123.661V112.94
			l-25.123-3.806L294.715,123.661z M303.462,106.359l29.755-4.554l-10.567-30.8L303.462,106.359z M292.111,106.303l-19.157-35.298
			l-10.566,30.794L292.111,106.303z M297.802,103.846l20.299-37.402h-40.598L297.802,103.846z M335.87,90.516l0.031-28.202
			l-8.687,2.978L335.87,90.516z M259.75,90.471l8.651-25.21l-8.651-2.966V90.471z M316.259,60.272l-18.431-20.049l-18.472,20.049
			H316.259z M324.208,59.797l7.778-2.667l-21.845-12.635L324.208,59.797z M271.423,59.772l14.053-15.252l-21.79,12.6L271.423,59.772
			z"/>
		<path fill="#FFFFFF" d="M297.832,32.454c0.556,0,1.11,0.144,1.608,0.431l39.554,22.878c0.993,0.574,1.604,1.635,1.603,2.782
			l-0.05,45.755c-0.001,1.144-0.611,2.201-1.602,2.775l-39.504,22.877c-0.498,0.288-1.053,0.432-1.609,0.432
			c-0.555,0-1.109-0.143-1.606-0.431l-39.563-22.877c-0.993-0.574-1.604-1.633-1.604-2.78V58.542c0-1.147,0.611-2.206,1.604-2.78
			l39.563-22.877C296.722,32.598,297.277,32.454,297.832,32.454 M275.978,61.753h43.654l-21.801-23.717L275.978,61.753
			 M323.772,61.512l11.771-4.036l-33.056-19.118L323.772,61.512 M271.857,61.487l21.302-23.121l-33.03,19.099L271.857,61.487
			 M258.269,99.35l12.013-35.009l-12.013-4.119V99.35 M337.341,99.366l0.043-39.126l-12.052,4.132L337.341,99.366 M297.802,106.951
			l22.788-41.988h-45.576L297.802,106.951 M294.833,108.213l-22.185-40.877l-12.237,35.662L294.833,108.213 M300.737,108.274
			L335.194,103l-12.238-35.664L300.737,108.274 M296.197,126.228v-14.561l-34.123-5.17L296.197,126.228 M299.408,126.261
			l34.115-19.757l-34.115,5.222V126.261 M297.832,29.492c-1.083,0-2.151,0.287-3.09,0.829l-39.563,22.877
			c-1.901,1.1-3.083,3.147-3.083,5.344v45.754c0,2.197,1.182,4.244,3.083,5.344l39.563,22.877c0.938,0.543,2.007,0.829,3.09,0.829
			c1.085,0,2.155-0.287,3.094-0.831l39.504-22.877c1.896-1.098,3.076-3.143,3.079-5.335l0.049-45.754
			c0.004-2.199-1.178-4.249-3.081-5.35l-39.554-22.878C299.984,29.779,298.916,29.492,297.832,29.492 M282.735,58.791l15.093-16.382
			l15.059,16.382H282.735z M324.643,58.082l-6.85-7.45l10.637,6.152L324.643,58.082z M267.244,56.773l10.55-6.1l-6.804,7.385
			L267.244,56.773z M261.23,81.593V64.369l5.288,1.813L261.23,81.593z M329.096,66.212l5.321-1.824l-0.019,17.277L329.096,66.212z
			 M279.992,67.925h35.621l-17.811,32.817L279.992,67.925z M264.366,100.601l8.896-25.926l16.129,29.718L264.366,100.601z
			 M306.186,104.444l16.156-29.769l8.899,25.934L306.186,104.444z M293.235,121.094l-16.123-9.323l16.123,2.443V121.094z
			 M302.37,114.269l16.088-2.462l-16.088,9.316V114.269z"/>
		<polygon fill="#A2ADFF" points="272.648,67.336 260.412,102.998 294.833,108.213 		"/>
		<polygon fill="#A2ADFF" points="293.16,38.366 260.13,57.465 271.858,61.486 		"/>
		<polygon fill="#DBDEFF" points="319.631,61.753 297.831,38.036 275.979,61.753 		"/>
		<polygon fill="#ECEFFF" points="335.543,57.476 302.488,38.358 323.772,61.512 		"/>
		<polygon fill="#7388CE" points="258.269,60.222 258.269,99.35 270.282,64.341 		"/>
		<polygon fill="#DBDEFF" points="300.737,108.274 335.193,103 322.956,67.336 		"/>
		<polygon fill="#7388CE" points="296.197,126.228 296.197,111.667 262.074,106.497 		"/>
		<polygon fill="#ECEFFF" points="325.333,64.371 337.34,99.366 337.384,60.239 		"/>
		<polygon fill="#A2ADFF" points="299.408,126.261 333.523,106.504 299.408,111.725 		"/>
		<polygon fill="#C0C9FF" points="275.014,64.963 297.802,106.951 320.59,64.963 		"/>
		<path fill="#5C6CA7" d="M338.994,55.762L299.44,32.885c-0.498-0.288-1.054-0.432-1.608-0.432s-1.109,0.144-1.606,0.432
			l-39.564,22.877c-0.992,0.574-1.603,1.633-1.603,2.78v45.754c0,1.147,0.611,2.206,1.603,2.78l39.564,22.877
			c0.497,0.287,1.052,0.431,1.606,0.431c0.556,0,1.111-0.144,1.609-0.432l39.504-22.877c0.99-0.574,1.601-1.631,1.602-2.775
			l0.05-45.755C340.598,57.398,339.987,56.337,338.994,55.762 M258.269,60.222l12.013,4.119L258.269,99.35V60.222z M275.014,64.963
			h45.577l-22.788,41.988L275.014,64.963z M294.833,108.213l-34.422-5.216l12.237-35.661L294.833,108.213z M275.978,61.753
			l21.853-23.718l21.801,23.718H275.978z M323.772,61.512l-21.284-23.154l33.056,19.118L323.772,61.512z M271.858,61.487
			l-11.728-4.022l33.03-19.099L271.858,61.487z M296.197,111.667v14.561l-34.123-19.732L296.197,111.667z M322.956,67.336
			L335.194,103l-34.457,5.274L322.956,67.336z M325.333,64.371l12.052-4.131l-0.043,39.126L325.333,64.371z M299.408,126.261
			v-14.535l34.115-5.222L299.408,126.261z"/>
	</g>
	<g display="inline">
		<path fill="#5C6CA7" d="M17.868,245.352c0-1.795,1.587-3.174,3.519-3.174c2.001,0,3.657,1.379,3.657,3.174
			c0,3.035,2.415,5.934,7.038,5.934c4.416,0,7.245-2.484,7.245-6.21c0-2.967-0.69-5.521-4.899-8.28l-1.863-1.104
			c-4.554-2.553-5.796-3.381-7.107-4.209c-4.416-2.967-7.176-6.418-7.176-11.592c0-7.66,6.348-12.213,13.662-12.213
			c7.659,0,13.662,4.484,13.662,11.799c0,1.793-1.587,3.174-3.588,3.174s-3.588-1.381-3.588-3.174c0-3.174-2.07-5.451-6.486-5.451
			c-4.485,0-6.486,2.967-6.486,5.796c0,1.519,0,3.588,3.726,6.21c1.104,0.896,4.002,2.691,8.763,5.382
			c5.313,3.104,8.556,7.866,8.556,13.662c0,8.004-7.038,12.558-14.421,12.558C23.181,257.633,17.868,251.631,17.868,245.352z"/>
		<path fill="#5C6CA7" d="M95.216,210.852v43.539c0,1.793-1.587,3.242-3.588,3.242c-1.932,0-3.519-1.449-3.519-3.242v-20.424H73.55
			v20.424c0,1.793-1.587,3.242-3.519,3.242c-2.001,0-3.657-1.449-3.657-3.242v-43.539c0-1.795,1.656-3.174,3.657-3.174
			c1.932,0,3.519,1.379,3.519,3.174v16.767h14.559v-16.767c0-1.795,1.587-3.174,3.519-3.174
			C93.629,207.678,95.216,209.057,95.216,210.852z"/>
		<path fill="#5C6CA7" d="M186.847,254.045c0,1.795-1.587,3.174-3.588,3.174h-19.251c-1.933,0-3.52-1.379-3.52-3.174v-42.849
			c0-1.726,1.587-3.104,3.52-3.104h19.044c2.001,0,3.588,1.379,3.588,3.104c0,1.794-1.587,3.243-3.588,3.243h-15.387v13.179h13.455
			c2.001,0,3.588,1.448,3.588,3.243c0,1.725-1.587,3.105-3.588,3.105h-13.455v16.836h15.594
			C185.26,250.803,186.847,252.182,186.847,254.045z"/>
		<path fill="#5C6CA7" d="M232.318,253.631c0,1.795-1.588,3.174-3.589,3.174h-19.458c-2.001,0-3.588-1.379-3.588-3.174v-42.779
			c0-1.795,1.587-3.174,3.588-3.174s3.589,1.379,3.589,3.174v39.537h15.869C230.73,250.389,232.318,251.838,232.318,253.631z"/>
		<path fill="#5C6CA7" d="M127.956,207.678c-2.001,0-3.588,1.379-3.588,3.174v4.07v35.467v4.07c0,1.795,1.588,3.174,3.589,3.174
			s3.588-1.379,3.588-3.174v-4.07v-35.467v-4.07C131.545,209.057,129.957,207.678,127.956,207.678z"/>
		<path fill="#5C6CA7" d="M420.167,207.678c-2.001,0-3.588,1.379-3.588,3.174v4.07v35.467v4.07c0,1.795,1.588,3.174,3.589,3.174
			s3.588-1.379,3.588-3.174v-4.07v-35.467v-4.07C423.756,209.057,422.168,207.678,420.167,207.678z"/>
		<path fill="#5C6CA7" d="M254.811,257.219c-2.001,0-3.657-1.379-3.657-3.174v-42.849c0-1.726,1.656-3.104,3.657-3.104h9.937
			c8.004,0,14.489,6.278,14.489,14.075v20.907c0,7.797-6.485,14.145-14.489,14.145H254.811z M258.331,250.803h6.417
			c4.07,0,7.313-3.451,7.313-7.729v-20.907c0-4.278-3.243-7.728-7.313-7.728h-6.417V250.803z"/>
		<path fill="#5C6CA7" d="M331.815,254.391v-28.842l-8.694,17.664c-0.621,1.034-1.794,1.793-3.243,1.793
			c-1.38,0-2.553-0.621-3.174-1.725l-8.625-17.664v28.773c0,1.793-1.587,3.242-3.588,3.242c-1.932,0-3.519-1.449-3.519-3.242
			v-43.539c0-1.795,1.587-3.174,3.519-3.174c1.38,0,2.691,0.758,3.174,1.793l12.213,25.186c4.071-8.143,8.28-17.043,12.282-25.186
			c0.552-1.035,1.794-1.793,3.243-1.793c2.139,0,3.52,1.655,3.52,3.174v43.539c0,1.793-1.588,3.242-3.52,3.242
			C333.402,257.633,331.815,256.184,331.815,254.391z"/>
		<path fill="#5C6CA7" d="M391.43,253.562c0.414,1.863-1.104,4.07-3.588,4.07c-1.519,0-2.829-0.896-3.312-2.276l-2.897-9.246
			h-13.938c-0.966,3.174-1.794,6.142-2.76,9.246c-0.414,1.312-1.863,2.276-3.45,2.276c-2.07,0-4.14-2-3.381-4.14v0.069l13.11-43.608
			c0.482-1.312,1.932-2.276,3.519-2.276c1.518,0,2.898,0.965,3.381,2.276l13.248,43.608H391.43z M379.769,239.762l-5.037-19.043
			l-5.175,19.043H379.769z"/>
		<path fill="#5C6CA7" d="M456.358,257.219c-2.001,0-3.657-1.379-3.657-3.174v-42.849c0-1.726,1.656-3.104,3.657-3.104h9.937
			c8.004,0,14.489,6.278,14.489,14.075v20.907c0,7.797-6.485,14.145-14.489,14.145H456.358z M459.877,250.803h6.417
			c4.07,0,7.313-3.451,7.313-7.729v-20.907c0-4.278-3.243-7.728-7.313-7.728h-6.417V250.803z"/>
		<path fill="#5C6CA7" d="M528.738,254.045c0,1.795-1.587,3.174-3.588,3.174h-19.251c-1.933,0-3.52-1.379-3.52-3.174v-42.849
			c0-1.726,1.587-3.104,3.52-3.104h19.044c2.001,0,3.588,1.379,3.588,3.104c0,1.794-1.587,3.243-3.588,3.243h-15.387v13.179h13.455
			c2.001,0,3.588,1.448,3.588,3.243c0,1.725-1.587,3.105-3.588,3.105h-13.455v16.836h15.594
			C527.151,250.803,528.738,252.182,528.738,254.045z"/>
		<path fill="#5C6CA7" d="M570,255.84l-15.87-31.879l0.621,30.43c0,1.793-1.588,3.242-3.589,3.242c-1.932,0-3.588-1.449-3.588-3.242
			v-43.539c0-1.795,1.794-3.174,3.588-3.174c1.312,0,2.622,0.827,3.175,1.793l15.87,31.74l-0.621-30.359
			c0-1.795,1.587-3.174,3.588-3.174s3.588,1.379,3.588,3.174v43.539c0,1.518-1.173,2.76-2.76,3.174l0.138-0.069
			c-0.414,0.138-0.621,0.138-0.966,0.138C571.932,257.633,570.552,256.874,570,255.84z"/>
	</g>
</g>
<g id="Red" display="none">
	<g display="inline">
		<path fill="#E2456B" d="M239.208,21.215v57.364v6.435v5.302c0,38.844,9.58,48.412,32.685,56.974
			c13.713,5.08,21.374,9.742,24.026,11.508c0.209,0.138,1.667,0.268,1.907,0.315v-27.178l-43.693-25.379V55.695l43.693-25.011
			V13.978c-26.234,5.067-50.194,5.586-56.817,5.628C240.015,19.605,239.208,20.326,239.208,21.215"/>
		<path fill="#FFCFE3" d="M355.572,21.215v57.364v6.435v5.302c0,38.844-9.438,48.412-32.197,56.974
			c-13.509,5.08-21.056,9.742-23.668,11.508c-0.206,0.138-1.642,0.268-1.88,0.315v-27.178l45.013-25.379V55.695l-45.013-25.011
			V13.978c25.845,5.067,49.447,5.586,55.972,5.628C354.778,19.605,355.572,20.326,355.572,21.215"/>
		<path fill="#FFFFFF" d="M297.827,161.643c-0.816,0-1.632-0.23-2.328-0.694c-2.604-1.731-10.116-6.299-23.651-11.313
			c-11.559-4.283-20.442-9.001-26.223-18.103c-5.574-8.774-8.059-21.482-8.059-41.204V20.967c0-2.137,1.824-3.876,4.067-3.876
			c6.693-0.042,30.509-0.57,55.354-5.604c0.55-0.111,1.132-0.112,1.684,0c24.836,5.033,48.645,5.562,55.36,5.604
			c2.24,0.004,4.061,1.742,4.061,3.876v69.361c0,40.128-10.108,50.349-34.284,59.307c-13.534,5.015-21.047,9.582-23.649,11.312
			C299.46,161.41,298.643,161.642,297.827,161.643 M243.631,21.59c-0.857,0.014-1.545,0.711-1.545,1.569v67.169
			c0,39.171,10.034,47.176,31.332,55.067c12.093,4.482,19.613,8.67,23.192,10.896c0.746,0.465,1.686,0.465,2.433,0
			c3.578-2.226,11.098-6.414,23.192-10.896c21.299-7.891,31.333-15.897,31.333-55.067V23.159c0-0.858-0.688-1.555-1.545-1.569
			c-8.698-0.136-30.818-0.962-53.893-5.599c-0.2-0.04-0.408-0.04-0.608,0C274.449,20.627,252.331,21.454,243.631,21.59
			 M241.649,21.612h-0.003H241.649z"/>
		<path fill="#D42758" d="M297.827,165c-0.853,0-1.705-0.242-2.433-0.726c-2.719-1.809-10.568-6.58-24.708-11.819
			c-12.076-4.474-21.356-9.401-27.395-18.911c-5.823-9.167-8.42-22.443-8.42-43.047V18.036c0-2.232,1.906-4.049,4.249-4.049
			c6.993-0.044,31.873-0.595,57.828-5.855c0.575-0.115,1.183-0.116,1.759,0.001c25.946,5.257,50.819,5.81,57.836,5.854
			c2.34,0.005,4.241,1.82,4.241,4.049v72.461c0,41.922-10.559,52.601-35.816,61.958c-14.14,5.239-21.988,10.011-24.706,11.818
			C299.533,164.758,298.68,164.999,297.827,165 M241.094,18.097c-1.113,0.019-2.001,0.927-2.001,2.041v70.393
			c0,41.275,10.573,49.709,33.015,58.025c12.255,4.541,20.053,8.797,23.987,11.201c1.064,0.651,2.399,0.651,3.464,0
			c3.933-2.403,11.73-6.66,23.987-11.201c22.442-8.316,33.016-16.751,33.016-58.025v-70.05c0-1.302-1.041-2.366-2.343-2.39
			c-9.66-0.178-32.571-1.131-56.393-5.952C273.722,17.017,250.55,17.935,241.094,18.097 M238.633,18.127h-0.003H238.633z"/>
		<path d="M297.832,131.865c-0.823,0-1.637-0.218-2.349-0.63l-39.562-22.877c-1.446-0.836-2.344-2.392-2.344-4.062V58.542
			c0-1.67,0.898-3.226,2.344-4.062l39.562-22.877c0.712-0.412,1.525-0.63,2.349-0.63c0.824,0,1.636,0.218,2.35,0.63l39.554,22.877
			c1.446,0.837,2.345,2.396,2.343,4.067l-0.051,45.754c-0.001,1.666-0.897,3.22-2.34,4.055l-39.504,22.877
			C299.47,131.647,298.657,131.865,297.832,131.865 M300.888,123.692l25.102-14.537l-25.102,3.843V123.692z M294.715,123.661V112.94
			l-25.123-3.806L294.715,123.661z M303.462,106.359l29.755-4.554l-10.567-30.8L303.462,106.359z M292.111,106.303l-19.157-35.298
			l-10.566,30.794L292.111,106.303z M297.802,103.846l20.299-37.402h-40.598L297.802,103.846z M335.87,90.516l0.031-28.202
			l-8.687,2.978L335.87,90.516z M259.75,90.471l8.651-25.21l-8.651-2.966V90.471z M316.259,60.272l-18.431-20.049l-18.472,20.049
			H316.259z M324.208,59.797l7.778-2.667l-21.845-12.635L324.208,59.797z M271.423,59.772l14.053-15.252l-21.79,12.6L271.423,59.772
			z"/>
		<path fill="#FFFFFF" d="M297.832,32.454c0.556,0,1.11,0.144,1.608,0.431l39.554,22.878c0.993,0.574,1.604,1.635,1.603,2.782
			l-0.05,45.755c-0.001,1.144-0.611,2.201-1.602,2.775l-39.504,22.877c-0.498,0.288-1.053,0.432-1.609,0.432
			c-0.555,0-1.109-0.143-1.606-0.431l-39.563-22.877c-0.993-0.574-1.604-1.633-1.604-2.78V58.542c0-1.147,0.611-2.206,1.604-2.78
			l39.563-22.877C296.722,32.598,297.277,32.454,297.832,32.454 M275.978,61.753h43.654l-21.801-23.717L275.978,61.753
			 M323.772,61.512l11.771-4.036l-33.056-19.118L323.772,61.512 M271.857,61.487l21.302-23.121l-33.03,19.099L271.857,61.487
			 M258.269,99.35l12.013-35.009l-12.013-4.119V99.35 M337.341,99.366l0.043-39.126l-12.052,4.132L337.341,99.366 M297.802,106.951
			l22.788-41.988h-45.576L297.802,106.951 M294.833,108.213l-22.185-40.877l-12.237,35.662L294.833,108.213 M300.737,108.274
			L335.194,103l-12.238-35.664L300.737,108.274 M296.197,126.228v-14.561l-34.123-5.17L296.197,126.228 M299.408,126.261
			l34.115-19.757l-34.115,5.222V126.261 M297.832,29.492c-1.083,0-2.151,0.287-3.09,0.829l-39.563,22.877
			c-1.901,1.1-3.083,3.147-3.083,5.344v45.754c0,2.197,1.182,4.244,3.083,5.344l39.563,22.877c0.938,0.543,2.007,0.829,3.09,0.829
			c1.085,0,2.155-0.287,3.094-0.831l39.504-22.877c1.896-1.098,3.076-3.143,3.079-5.335l0.049-45.754
			c0.004-2.199-1.178-4.249-3.081-5.35l-39.554-22.878C299.984,29.779,298.916,29.492,297.832,29.492 M282.735,58.791l15.093-16.382
			l15.059,16.382H282.735z M324.643,58.082l-6.85-7.45l10.637,6.152L324.643,58.082z M267.244,56.773l10.55-6.1l-6.804,7.385
			L267.244,56.773z M261.23,81.593V64.369l5.288,1.813L261.23,81.593z M329.096,66.212l5.321-1.824l-0.019,17.277L329.096,66.212z
			 M279.992,67.925h35.621l-17.811,32.817L279.992,67.925z M264.366,100.601l8.896-25.926l16.129,29.718L264.366,100.601z
			 M306.186,104.444l16.156-29.769l8.899,25.934L306.186,104.444z M293.235,121.094l-16.123-9.323l16.123,2.443V121.094z
			 M302.37,114.269l16.088-2.462l-16.088,9.316V114.269z"/>
		<polygon fill="#FF517B" points="272.648,67.336 260.412,102.998 294.833,108.213 		"/>
		<polygon fill="#FF517B" points="293.16,38.366 260.13,57.465 271.858,61.486 		"/>
		<polygon fill="#FFCFE3" points="319.631,61.753 297.831,38.036 275.979,61.753 		"/>
		<polygon fill="#FFE2EF" points="335.543,57.476 302.488,38.358 323.772,61.512 		"/>
		<polygon fill="#E2456B" points="258.269,60.222 258.269,99.35 270.282,64.341 		"/>
		<polygon fill="#FFCFE3" points="300.737,108.274 335.193,103 322.956,67.336 		"/>
		<polygon fill="#E2456B" points="296.197,126.228 296.197,111.667 262.074,106.497 		"/>
		<polygon fill="#FFE2EF" points="325.333,64.371 337.34,99.366 337.384,60.239 		"/>
		<polygon fill="#FF517B" points="299.408,126.261 333.523,106.504 299.408,111.725 		"/>
		<polygon fill="#FF819B" points="275.014,64.963 297.802,106.951 320.59,64.963 		"/>
		<path fill="#D42758" d="M338.994,55.762L299.44,32.885c-0.498-0.288-1.054-0.432-1.608-0.432s-1.109,0.144-1.606,0.432
			l-39.564,22.877c-0.992,0.574-1.603,1.633-1.603,2.78v45.754c0,1.147,0.611,2.206,1.603,2.78l39.564,22.877
			c0.497,0.287,1.052,0.431,1.606,0.431c0.556,0,1.111-0.144,1.609-0.432l39.504-22.877c0.99-0.574,1.601-1.631,1.602-2.775
			l0.05-45.755C340.598,57.398,339.987,56.337,338.994,55.762 M258.269,60.222l12.013,4.119L258.269,99.35V60.222z M275.014,64.963
			h45.577l-22.788,41.988L275.014,64.963z M294.833,108.213l-34.422-5.216l12.237-35.661L294.833,108.213z M275.978,61.753
			l21.853-23.718l21.801,23.718H275.978z M323.772,61.512l-21.284-23.154l33.056,19.118L323.772,61.512z M271.858,61.487
			l-11.728-4.022l33.03-19.099L271.858,61.487z M296.197,111.667v14.561l-34.123-19.732L296.197,111.667z M322.956,67.336
			L335.194,103l-34.457,5.274L322.956,67.336z M325.333,64.371l12.052-4.131l-0.043,39.126L325.333,64.371z M299.408,126.261
			v-14.535l34.115-5.222L299.408,126.261z"/>
	</g>
	<g display="inline">
		<path fill="#D42758" d="M17.868,245.352c0-1.795,1.587-3.174,3.519-3.174c2.001,0,3.657,1.379,3.657,3.174
			c0,3.035,2.415,5.934,7.038,5.934c4.416,0,7.245-2.484,7.245-6.21c0-2.967-0.69-5.521-4.899-8.28l-1.863-1.104
			c-4.554-2.553-5.796-3.381-7.107-4.209c-4.416-2.967-7.176-6.418-7.176-11.592c0-7.66,6.348-12.213,13.662-12.213
			c7.659,0,13.662,4.484,13.662,11.799c0,1.793-1.587,3.174-3.588,3.174s-3.588-1.381-3.588-3.174c0-3.174-2.07-5.451-6.486-5.451
			c-4.485,0-6.486,2.967-6.486,5.796c0,1.519,0,3.588,3.726,6.21c1.104,0.896,4.002,2.691,8.763,5.382
			c5.313,3.104,8.556,7.866,8.556,13.662c0,8.004-7.038,12.558-14.421,12.558C23.181,257.633,17.868,251.631,17.868,245.352z"/>
		<path fill="#D42758" d="M95.216,210.852v43.539c0,1.793-1.587,3.242-3.588,3.242c-1.932,0-3.519-1.449-3.519-3.242v-20.424H73.55
			v20.424c0,1.793-1.587,3.242-3.519,3.242c-2.001,0-3.657-1.449-3.657-3.242v-43.539c0-1.795,1.656-3.174,3.657-3.174
			c1.932,0,3.519,1.379,3.519,3.174v16.767h14.559v-16.767c0-1.795,1.587-3.174,3.519-3.174
			C93.629,207.678,95.216,209.057,95.216,210.852z"/>
		<path fill="#D42758" d="M186.847,254.045c0,1.795-1.587,3.174-3.588,3.174h-19.251c-1.933,0-3.52-1.379-3.52-3.174v-42.849
			c0-1.726,1.587-3.104,3.52-3.104h19.044c2.001,0,3.588,1.379,3.588,3.104c0,1.794-1.587,3.243-3.588,3.243h-15.387v13.179h13.455
			c2.001,0,3.588,1.448,3.588,3.243c0,1.725-1.587,3.105-3.588,3.105h-13.455v16.836h15.594
			C185.26,250.803,186.847,252.182,186.847,254.045z"/>
		<path fill="#D42758" d="M232.318,253.631c0,1.795-1.588,3.174-3.589,3.174h-19.458c-2.001,0-3.588-1.379-3.588-3.174v-42.779
			c0-1.795,1.587-3.174,3.588-3.174s3.589,1.379,3.589,3.174v39.537h15.869C230.73,250.389,232.318,251.838,232.318,253.631z"/>
		<path fill="#D42758" d="M127.956,207.678c-2.001,0-3.588,1.379-3.588,3.174v4.07v35.467v4.07c0,1.795,1.588,3.174,3.589,3.174
			s3.588-1.379,3.588-3.174v-4.07v-35.467v-4.07C131.545,209.057,129.957,207.678,127.956,207.678z"/>
		<path fill="#D42758" d="M420.167,207.678c-2.001,0-3.588,1.379-3.588,3.174v4.07v35.467v4.07c0,1.795,1.588,3.174,3.589,3.174
			s3.588-1.379,3.588-3.174v-4.07v-35.467v-4.07C423.756,209.057,422.168,207.678,420.167,207.678z"/>
		<path fill="#D42758" d="M254.811,257.219c-2.001,0-3.657-1.379-3.657-3.174v-42.849c0-1.726,1.656-3.104,3.657-3.104h9.937
			c8.004,0,14.489,6.278,14.489,14.075v20.907c0,7.797-6.485,14.145-14.489,14.145H254.811z M258.331,250.803h6.417
			c4.07,0,7.313-3.451,7.313-7.729v-20.907c0-4.278-3.243-7.728-7.313-7.728h-6.417V250.803z"/>
		<path fill="#D42758" d="M331.815,254.391v-28.842l-8.694,17.664c-0.621,1.034-1.794,1.793-3.243,1.793
			c-1.38,0-2.553-0.621-3.174-1.725l-8.625-17.664v28.773c0,1.793-1.587,3.242-3.588,3.242c-1.932,0-3.519-1.449-3.519-3.242
			v-43.539c0-1.795,1.587-3.174,3.519-3.174c1.38,0,2.691,0.758,3.174,1.793l12.213,25.186c4.071-8.143,8.28-17.043,12.282-25.186
			c0.552-1.035,1.794-1.793,3.243-1.793c2.139,0,3.52,1.655,3.52,3.174v43.539c0,1.793-1.588,3.242-3.52,3.242
			C333.402,257.633,331.815,256.184,331.815,254.391z"/>
		<path fill="#D42758" d="M391.43,253.562c0.414,1.863-1.104,4.07-3.588,4.07c-1.519,0-2.829-0.896-3.312-2.276l-2.897-9.246
			h-13.938c-0.966,3.174-1.794,6.142-2.76,9.246c-0.414,1.312-1.863,2.276-3.45,2.276c-2.07,0-4.14-2-3.381-4.14v0.069l13.11-43.608
			c0.482-1.312,1.932-2.276,3.519-2.276c1.518,0,2.898,0.965,3.381,2.276l13.248,43.608H391.43z M379.769,239.762l-5.037-19.043
			l-5.175,19.043H379.769z"/>
		<path fill="#D42758" d="M456.358,257.219c-2.001,0-3.657-1.379-3.657-3.174v-42.849c0-1.726,1.656-3.104,3.657-3.104h9.937
			c8.004,0,14.489,6.278,14.489,14.075v20.907c0,7.797-6.485,14.145-14.489,14.145H456.358z M459.877,250.803h6.417
			c4.07,0,7.313-3.451,7.313-7.729v-20.907c0-4.278-3.243-7.728-7.313-7.728h-6.417V250.803z"/>
		<path fill="#D42758" d="M528.738,254.045c0,1.795-1.587,3.174-3.588,3.174h-19.251c-1.933,0-3.52-1.379-3.52-3.174v-42.849
			c0-1.726,1.587-3.104,3.52-3.104h19.044c2.001,0,3.588,1.379,3.588,3.104c0,1.794-1.587,3.243-3.588,3.243h-15.387v13.179h13.455
			c2.001,0,3.588,1.448,3.588,3.243c0,1.725-1.587,3.105-3.588,3.105h-13.455v16.836h15.594
			C527.151,250.803,528.738,252.182,528.738,254.045z"/>
		<path fill="#D42758" d="M570,255.84l-15.87-31.879l0.621,30.43c0,1.793-1.588,3.242-3.589,3.242c-1.932,0-3.588-1.449-3.588-3.242
			v-43.539c0-1.795,1.794-3.174,3.588-3.174c1.312,0,2.622,0.827,3.175,1.793l15.87,31.74l-0.621-30.359
			c0-1.795,1.587-3.174,3.588-3.174s3.588,1.379,3.588,3.174v43.539c0,1.518-1.173,2.76-2.76,3.174l0.138-0.069
			c-0.414,0.138-0.621,0.138-0.966,0.138C571.932,257.633,570.552,256.874,570,255.84z"/>
	</g>
</g>
<g id="Orange" display="none">
	<g display="inline">
		<path fill="#E2845C" d="M239.208,21.215v57.364v6.435v5.302c0,38.844,9.58,48.412,32.685,56.974
			c13.713,5.08,21.374,9.742,24.026,11.508c0.209,0.138,1.667,0.268,1.907,0.315v-27.178l-43.693-25.379V55.695l43.693-25.011
			V13.978c-26.234,5.067-50.194,5.586-56.817,5.628C240.015,19.605,239.208,20.326,239.208,21.215"/>
		<path fill="#FFEADD" d="M355.572,21.215v57.364v6.435v5.302c0,38.844-9.438,48.412-32.197,56.974
			c-13.509,5.08-21.056,9.742-23.668,11.508c-0.206,0.138-1.642,0.268-1.88,0.315v-27.178l45.013-25.379V55.695l-45.013-25.011
			V13.978c25.845,5.067,49.447,5.586,55.972,5.628C354.778,19.605,355.572,20.326,355.572,21.215"/>
		<path fill="#FFFFFF" d="M297.827,161.643c-0.816,0-1.632-0.23-2.328-0.694c-2.604-1.731-10.116-6.299-23.651-11.313
			c-11.559-4.283-20.442-9.001-26.223-18.103c-5.574-8.774-8.059-21.482-8.059-41.204V20.967c0-2.137,1.824-3.876,4.067-3.876
			c6.693-0.042,30.509-0.57,55.354-5.604c0.55-0.111,1.132-0.112,1.684,0c24.836,5.033,48.645,5.562,55.36,5.604
			c2.24,0.004,4.061,1.742,4.061,3.876v69.361c0,40.128-10.108,50.349-34.284,59.307c-13.534,5.015-21.047,9.582-23.649,11.312
			C299.46,161.41,298.643,161.642,297.827,161.643 M243.631,21.59c-0.857,0.014-1.545,0.711-1.545,1.569v67.169
			c0,39.171,10.034,47.176,31.332,55.067c12.093,4.482,19.613,8.67,23.192,10.896c0.746,0.465,1.686,0.465,2.433,0
			c3.578-2.226,11.098-6.414,23.192-10.896c21.299-7.891,31.333-15.897,31.333-55.067V23.159c0-0.858-0.688-1.555-1.545-1.569
			c-8.698-0.136-30.818-0.962-53.893-5.599c-0.2-0.04-0.408-0.04-0.608,0C274.449,20.627,252.331,21.454,243.631,21.59
			 M241.649,21.612h-0.003H241.649z"/>
		<path fill="#D1774A" d="M297.827,165c-0.853,0-1.705-0.242-2.433-0.726c-2.719-1.809-10.568-6.58-24.708-11.819
			c-12.076-4.474-21.356-9.401-27.395-18.911c-5.823-9.167-8.42-22.443-8.42-43.047V18.036c0-2.232,1.906-4.049,4.249-4.049
			c6.993-0.044,31.873-0.595,57.828-5.855c0.575-0.115,1.183-0.116,1.759,0.001c25.946,5.257,50.819,5.81,57.836,5.854
			c2.34,0.005,4.241,1.82,4.241,4.049v72.461c0,41.922-10.559,52.601-35.816,61.958c-14.14,5.239-21.988,10.011-24.706,11.818
			C299.533,164.758,298.68,164.999,297.827,165 M241.094,18.097c-1.113,0.019-2.001,0.927-2.001,2.041v70.393
			c0,41.275,10.573,49.709,33.015,58.025c12.255,4.541,20.053,8.797,23.987,11.201c1.064,0.651,2.399,0.651,3.464,0
			c3.933-2.403,11.73-6.66,23.987-11.201c22.442-8.316,33.016-16.751,33.016-58.025v-70.05c0-1.302-1.041-2.366-2.343-2.39
			c-9.66-0.178-32.571-1.131-56.393-5.952C273.722,17.017,250.55,17.935,241.094,18.097 M238.633,18.127h-0.003H238.633z"/>
		<path d="M297.832,131.865c-0.823,0-1.637-0.218-2.349-0.63l-39.562-22.877c-1.446-0.836-2.344-2.392-2.344-4.062V58.542
			c0-1.67,0.898-3.226,2.344-4.062l39.562-22.877c0.712-0.412,1.525-0.63,2.349-0.63c0.824,0,1.636,0.218,2.35,0.63l39.554,22.877
			c1.446,0.837,2.345,2.396,2.343,4.067l-0.051,45.754c-0.001,1.666-0.897,3.22-2.34,4.055l-39.504,22.877
			C299.47,131.647,298.657,131.865,297.832,131.865 M300.888,123.692l25.102-14.537l-25.102,3.843V123.692z M294.715,123.661V112.94
			l-25.123-3.806L294.715,123.661z M303.462,106.359l29.755-4.554l-10.567-30.8L303.462,106.359z M292.111,106.303l-19.157-35.298
			l-10.566,30.794L292.111,106.303z M297.802,103.846l20.299-37.402h-40.598L297.802,103.846z M335.87,90.516l0.031-28.202
			l-8.687,2.978L335.87,90.516z M259.75,90.471l8.651-25.21l-8.651-2.966V90.471z M316.259,60.272l-18.431-20.049l-18.472,20.049
			H316.259z M324.208,59.797l7.778-2.667l-21.845-12.635L324.208,59.797z M271.423,59.772l14.053-15.252l-21.79,12.6L271.423,59.772
			z"/>
		<path fill="#FFFFFF" d="M297.832,32.454c0.556,0,1.11,0.144,1.608,0.431l39.554,22.878c0.993,0.574,1.604,1.635,1.603,2.782
			l-0.05,45.755c-0.001,1.144-0.611,2.201-1.602,2.775l-39.504,22.877c-0.498,0.288-1.053,0.432-1.609,0.432
			c-0.555,0-1.109-0.143-1.606-0.431l-39.563-22.877c-0.993-0.574-1.604-1.633-1.604-2.78V58.542c0-1.147,0.611-2.206,1.604-2.78
			l39.563-22.877C296.722,32.598,297.277,32.454,297.832,32.454 M275.978,61.753h43.654l-21.801-23.717L275.978,61.753
			 M323.772,61.512l11.771-4.036l-33.056-19.118L323.772,61.512 M271.857,61.487l21.302-23.121l-33.03,19.099L271.857,61.487
			 M258.269,99.35l12.013-35.009l-12.013-4.119V99.35 M337.341,99.366l0.043-39.126l-12.052,4.132L337.341,99.366 M297.802,106.951
			l22.788-41.988h-45.576L297.802,106.951 M294.833,108.213l-22.185-40.877l-12.237,35.662L294.833,108.213 M300.737,108.274
			L335.194,103l-12.238-35.664L300.737,108.274 M296.197,126.228v-14.561l-34.123-5.17L296.197,126.228 M299.408,126.261
			l34.115-19.757l-34.115,5.222V126.261 M297.832,29.492c-1.083,0-2.151,0.287-3.09,0.829l-39.563,22.877
			c-1.901,1.1-3.083,3.147-3.083,5.344v45.754c0,2.197,1.182,4.244,3.083,5.344l39.563,22.877c0.938,0.543,2.007,0.829,3.09,0.829
			c1.085,0,2.155-0.287,3.094-0.831l39.504-22.877c1.896-1.098,3.076-3.143,3.079-5.335l0.049-45.754
			c0.004-2.199-1.178-4.249-3.081-5.35l-39.554-22.878C299.984,29.779,298.916,29.492,297.832,29.492 M282.735,58.791l15.093-16.382
			l15.059,16.382H282.735z M324.643,58.082l-6.85-7.45l10.637,6.152L324.643,58.082z M267.244,56.773l10.55-6.1l-6.804,7.385
			L267.244,56.773z M261.23,81.593V64.369l5.288,1.813L261.23,81.593z M329.096,66.212l5.321-1.824l-0.019,17.277L329.096,66.212z
			 M279.992,67.925h35.621l-17.811,32.817L279.992,67.925z M264.366,100.601l8.896-25.926l16.129,29.718L264.366,100.601z
			 M306.186,104.444l16.156-29.769l8.899,25.934L306.186,104.444z M293.235,121.094l-16.123-9.323l16.123,2.443V121.094z
			 M302.37,114.269l16.088-2.462l-16.088,9.316V114.269z"/>
		<polygon fill="#FFAD84" points="272.648,67.336 260.412,102.998 294.833,108.213 		"/>
		<polygon fill="#FFAD84" points="293.16,38.366 260.13,57.465 271.858,61.486 		"/>
		<polygon fill="#FFEADD" points="319.631,61.753 297.831,38.036 275.979,61.753 		"/>
		<polygon fill="#FFF4ED" points="335.543,57.476 302.488,38.358 323.772,61.512 		"/>
		<polygon fill="#E2845C" points="258.269,60.222 258.269,99.35 270.282,64.341 		"/>
		<polygon fill="#FFEADD" points="300.737,108.274 335.193,103 322.956,67.336 		"/>
		<polygon fill="#E2845C" points="296.197,126.228 296.197,111.667 262.074,106.497 		"/>
		<polygon fill="#FFF4ED" points="325.333,64.371 337.34,99.366 337.384,60.239 		"/>
		<polygon fill="#FFAD84" points="299.408,126.261 333.523,106.504 299.408,111.725 		"/>
		<polygon fill="#FFCCAF" points="275.014,64.963 297.802,106.951 320.59,64.963 		"/>
		<path fill="#D1774A" d="M338.994,55.762L299.44,32.885c-0.498-0.288-1.054-0.432-1.608-0.432s-1.109,0.144-1.606,0.432
			l-39.564,22.877c-0.992,0.574-1.603,1.633-1.603,2.78v45.754c0,1.147,0.611,2.206,1.603,2.78l39.564,22.877
			c0.497,0.287,1.052,0.431,1.606,0.431c0.556,0,1.111-0.144,1.609-0.432l39.504-22.877c0.99-0.574,1.601-1.631,1.602-2.775
			l0.05-45.755C340.598,57.398,339.987,56.337,338.994,55.762 M258.269,60.222l12.013,4.119L258.269,99.35V60.222z M275.014,64.963
			h45.577l-22.788,41.988L275.014,64.963z M294.833,108.213l-34.422-5.216l12.237-35.661L294.833,108.213z M275.978,61.753
			l21.853-23.718l21.801,23.718H275.978z M323.772,61.512l-21.284-23.154l33.056,19.118L323.772,61.512z M271.858,61.487
			l-11.728-4.022l33.03-19.099L271.858,61.487z M296.197,111.667v14.561l-34.123-19.732L296.197,111.667z M322.956,67.336
			L335.194,103l-34.457,5.274L322.956,67.336z M325.333,64.371l12.052-4.131l-0.043,39.126L325.333,64.371z M299.408,126.261
			v-14.535l34.115-5.222L299.408,126.261z"/>
	</g>
	<g display="inline">
		<path fill="#D1774A" d="M17.868,245.352c0-1.795,1.587-3.174,3.519-3.174c2.001,0,3.657,1.379,3.657,3.174
			c0,3.035,2.415,5.934,7.038,5.934c4.416,0,7.245-2.484,7.245-6.21c0-2.967-0.69-5.521-4.899-8.28l-1.863-1.104
			c-4.554-2.553-5.796-3.381-7.107-4.209c-4.416-2.967-7.176-6.418-7.176-11.592c0-7.66,6.348-12.213,13.662-12.213
			c7.659,0,13.662,4.484,13.662,11.799c0,1.793-1.587,3.174-3.588,3.174s-3.588-1.381-3.588-3.174c0-3.174-2.07-5.451-6.486-5.451
			c-4.485,0-6.486,2.967-6.486,5.796c0,1.519,0,3.588,3.726,6.21c1.104,0.896,4.002,2.691,8.763,5.382
			c5.313,3.104,8.556,7.866,8.556,13.662c0,8.004-7.038,12.558-14.421,12.558C23.181,257.633,17.868,251.631,17.868,245.352z"/>
		<path fill="#D1774A" d="M95.216,210.852v43.539c0,1.793-1.587,3.242-3.588,3.242c-1.932,0-3.519-1.449-3.519-3.242v-20.424H73.55
			v20.424c0,1.793-1.587,3.242-3.519,3.242c-2.001,0-3.657-1.449-3.657-3.242v-43.539c0-1.795,1.656-3.174,3.657-3.174
			c1.932,0,3.519,1.379,3.519,3.174v16.767h14.559v-16.767c0-1.795,1.587-3.174,3.519-3.174
			C93.629,207.678,95.216,209.057,95.216,210.852z"/>
		<path fill="#D1774A" d="M186.847,254.045c0,1.795-1.587,3.174-3.588,3.174h-19.251c-1.933,0-3.52-1.379-3.52-3.174v-42.849
			c0-1.726,1.587-3.104,3.52-3.104h19.044c2.001,0,3.588,1.379,3.588,3.104c0,1.794-1.587,3.243-3.588,3.243h-15.387v13.179h13.455
			c2.001,0,3.588,1.448,3.588,3.243c0,1.725-1.587,3.105-3.588,3.105h-13.455v16.836h15.594
			C185.26,250.803,186.847,252.182,186.847,254.045z"/>
		<path fill="#D1774A" d="M232.318,253.631c0,1.795-1.588,3.174-3.589,3.174h-19.458c-2.001,0-3.588-1.379-3.588-3.174v-42.779
			c0-1.795,1.587-3.174,3.588-3.174s3.589,1.379,3.589,3.174v39.537h15.869C230.73,250.389,232.318,251.838,232.318,253.631z"/>
		<path fill="#D1774A" d="M127.956,207.678c-2.001,0-3.588,1.379-3.588,3.174v4.07v35.467v4.07c0,1.795,1.588,3.174,3.589,3.174
			s3.588-1.379,3.588-3.174v-4.07v-35.467v-4.07C131.545,209.057,129.957,207.678,127.956,207.678z"/>
		<path fill="#D1774A" d="M420.167,207.678c-2.001,0-3.588,1.379-3.588,3.174v4.07v35.467v4.07c0,1.795,1.588,3.174,3.589,3.174
			s3.588-1.379,3.588-3.174v-4.07v-35.467v-4.07C423.756,209.057,422.168,207.678,420.167,207.678z"/>
		<path fill="#D1774A" d="M254.811,257.219c-2.001,0-3.657-1.379-3.657-3.174v-42.849c0-1.726,1.656-3.104,3.657-3.104h9.937
			c8.004,0,14.489,6.278,14.489,14.075v20.907c0,7.797-6.485,14.145-14.489,14.145H254.811z M258.331,250.803h6.417
			c4.07,0,7.313-3.451,7.313-7.729v-20.907c0-4.278-3.243-7.728-7.313-7.728h-6.417V250.803z"/>
		<path fill="#D1774A" d="M331.815,254.391v-28.842l-8.694,17.664c-0.621,1.034-1.794,1.793-3.243,1.793
			c-1.38,0-2.553-0.621-3.174-1.725l-8.625-17.664v28.773c0,1.793-1.587,3.242-3.588,3.242c-1.932,0-3.519-1.449-3.519-3.242
			v-43.539c0-1.795,1.587-3.174,3.519-3.174c1.38,0,2.691,0.758,3.174,1.793l12.213,25.186c4.071-8.143,8.28-17.043,12.282-25.186
			c0.552-1.035,1.794-1.793,3.243-1.793c2.139,0,3.52,1.655,3.52,3.174v43.539c0,1.793-1.588,3.242-3.52,3.242
			C333.402,257.633,331.815,256.184,331.815,254.391z"/>
		<path fill="#D1774A" d="M391.43,253.562c0.414,1.863-1.104,4.07-3.588,4.07c-1.519,0-2.829-0.896-3.312-2.276l-2.897-9.246
			h-13.938c-0.966,3.174-1.794,6.142-2.76,9.246c-0.414,1.312-1.863,2.276-3.45,2.276c-2.07,0-4.14-2-3.381-4.14v0.069l13.11-43.608
			c0.482-1.312,1.932-2.276,3.519-2.276c1.518,0,2.898,0.965,3.381,2.276l13.248,43.608H391.43z M379.769,239.762l-5.037-19.043
			l-5.175,19.043H379.769z"/>
		<path fill="#D1774A" d="M456.358,257.219c-2.001,0-3.657-1.379-3.657-3.174v-42.849c0-1.726,1.656-3.104,3.657-3.104h9.937
			c8.004,0,14.489,6.278,14.489,14.075v20.907c0,7.797-6.485,14.145-14.489,14.145H456.358z M459.877,250.803h6.417
			c4.07,0,7.313-3.451,7.313-7.729v-20.907c0-4.278-3.243-7.728-7.313-7.728h-6.417V250.803z"/>
		<path fill="#D1774A" d="M528.738,254.045c0,1.795-1.587,3.174-3.588,3.174h-19.251c-1.933,0-3.52-1.379-3.52-3.174v-42.849
			c0-1.726,1.587-3.104,3.52-3.104h19.044c2.001,0,3.588,1.379,3.588,3.104c0,1.794-1.587,3.243-3.588,3.243h-15.387v13.179h13.455
			c2.001,0,3.588,1.448,3.588,3.243c0,1.725-1.587,3.105-3.588,3.105h-13.455v16.836h15.594
			C527.151,250.803,528.738,252.182,528.738,254.045z"/>
		<path fill="#D1774A" d="M570,255.84l-15.87-31.879l0.621,30.43c0,1.793-1.588,3.242-3.589,3.242c-1.932,0-3.588-1.449-3.588-3.242
			v-43.539c0-1.795,1.794-3.174,3.588-3.174c1.312,0,2.622,0.827,3.175,1.793l15.87,31.74l-0.621-30.359
			c0-1.795,1.587-3.174,3.588-3.174s3.588,1.379,3.588,3.174v43.539c0,1.518-1.173,2.76-2.76,3.174l0.138-0.069
			c-0.414,0.138-0.621,0.138-0.966,0.138C571.932,257.633,570.552,256.874,570,255.84z"/>
	</g>
</g>
<g id="Cyan">
	<g>
		<path fill="#4CB5BC" d="M239.208,21.215v57.364v6.435v5.302c0,38.844,9.58,48.412,32.685,56.974
			c13.713,5.08,21.374,9.742,24.026,11.508c0.209,0.138,1.667,0.268,1.907,0.315v-27.178l-43.693-25.379V55.695l43.693-25.011
			V13.978c-26.234,5.067-50.194,5.586-56.817,5.628C240.015,19.605,239.208,20.326,239.208,21.215"/>
		<path fill="#C5EAF4" d="M355.572,21.215v57.364v6.435v5.302c0,38.844-9.438,48.412-32.197,56.974
			c-13.509,5.08-21.056,9.742-23.668,11.508c-0.206,0.138-1.642,0.268-1.88,0.315v-27.178l45.013-25.379V55.695l-45.013-25.011
			V13.978c25.845,5.067,49.447,5.586,55.972,5.628C354.778,19.605,355.572,20.326,355.572,21.215"/>
		<path fill="#FFFFFF" d="M297.827,161.643c-0.816,0-1.632-0.23-2.328-0.694c-2.604-1.731-10.116-6.299-23.651-11.313
			c-11.559-4.283-20.442-9.001-26.223-18.103c-5.574-8.774-8.059-21.482-8.059-41.204V20.967c0-2.137,1.824-3.876,4.067-3.876
			c6.693-0.042,30.509-0.57,55.354-5.604c0.55-0.111,1.132-0.112,1.684,0c24.836,5.033,48.645,5.562,55.36,5.604
			c2.24,0.004,4.061,1.742,4.061,3.876v69.361c0,40.128-10.108,50.349-34.284,59.307c-13.534,5.015-21.047,9.582-23.649,11.312
			C299.46,161.41,298.643,161.642,297.827,161.643 M243.631,21.59c-0.857,0.014-1.545,0.711-1.545,1.569v67.169
			c0,39.171,10.034,47.176,31.332,55.067c12.093,4.482,19.613,8.67,23.192,10.896c0.746,0.465,1.686,0.465,2.433,0
			c3.578-2.226,11.098-6.414,23.192-10.896c21.299-7.891,31.333-15.897,31.333-55.067V23.159c0-0.858-0.688-1.555-1.545-1.569
			c-8.698-0.136-30.818-0.962-53.893-5.599c-0.2-0.04-0.408-0.04-0.608,0C274.449,20.627,252.331,21.454,243.631,21.59
			 M241.649,21.612h-0.003H241.649z"/>
		<path fill="#3FA3AD" d="M297.827,165c-0.853,0-1.705-0.242-2.433-0.726c-2.719-1.809-10.568-6.58-24.708-11.819
			c-12.076-4.474-21.356-9.401-27.395-18.911c-5.823-9.167-8.42-22.443-8.42-43.047V18.036c0-2.232,1.906-4.049,4.249-4.049
			c6.993-0.044,31.873-0.595,57.828-5.855c0.575-0.115,1.183-0.116,1.759,0.001c25.946,5.257,50.819,5.81,57.836,5.854
			c2.34,0.005,4.241,1.82,4.241,4.049v72.461c0,41.922-10.559,52.601-35.816,61.958c-14.14,5.239-21.988,10.011-24.706,11.818
			C299.533,164.758,298.68,164.999,297.827,165 M241.094,18.097c-1.113,0.019-2.001,0.927-2.001,2.041v70.393
			c0,41.275,10.573,49.709,33.015,58.025c12.255,4.541,20.053,8.797,23.987,11.201c1.064,0.651,2.399,0.651,3.464,0
			c3.933-2.403,11.73-6.66,23.987-11.201c22.442-8.316,33.016-16.751,33.016-58.025v-70.05c0-1.302-1.041-2.366-2.343-2.39
			c-9.66-0.178-32.571-1.131-56.393-5.952C273.722,17.017,250.55,17.935,241.094,18.097 M238.633,18.127h-0.003H238.633z"/>
		<path d="M297.832,131.865c-0.823,0-1.637-0.218-2.349-0.63l-39.562-22.877c-1.446-0.836-2.344-2.392-2.344-4.062V58.542
			c0-1.67,0.898-3.226,2.344-4.062l39.562-22.877c0.712-0.412,1.525-0.63,2.349-0.63c0.824,0,1.636,0.218,2.35,0.63l39.554,22.877
			c1.446,0.837,2.345,2.396,2.343,4.067l-0.051,45.754c-0.001,1.666-0.897,3.22-2.34,4.055l-39.504,22.877
			C299.47,131.647,298.657,131.865,297.832,131.865 M300.888,123.692l25.102-14.537l-25.102,3.843V123.692z M294.715,123.661V112.94
			l-25.123-3.806L294.715,123.661z M303.462,106.359l29.755-4.554l-10.567-30.8L303.462,106.359z M292.111,106.303l-19.157-35.298
			l-10.566,30.794L292.111,106.303z M297.802,103.846l20.299-37.402h-40.598L297.802,103.846z M335.87,90.516l0.031-28.202
			l-8.687,2.978L335.87,90.516z M259.75,90.471l8.651-25.21l-8.651-2.966V90.471z M316.259,60.272l-18.431-20.049l-18.472,20.049
			H316.259z M324.208,59.797l7.778-2.667l-21.845-12.635L324.208,59.797z M271.423,59.772l14.053-15.252l-21.79,12.6L271.423,59.772
			z"/>
		<path fill="#FFFFFF" d="M297.832,32.454c0.556,0,1.11,0.144,1.608,0.431l39.554,22.878c0.993,0.574,1.604,1.635,1.603,2.782
			l-0.05,45.755c-0.001,1.144-0.611,2.201-1.602,2.775l-39.504,22.877c-0.498,0.288-1.053,0.432-1.609,0.432
			c-0.555,0-1.109-0.143-1.606-0.431l-39.563-22.877c-0.993-0.574-1.604-1.633-1.604-2.78V58.542c0-1.147,0.611-2.206,1.604-2.78
			l39.563-22.877C296.722,32.598,297.277,32.454,297.832,32.454 M275.978,61.753h43.654l-21.801-23.717L275.978,61.753
			 M323.772,61.512l11.771-4.036l-33.056-19.118L323.772,61.512 M271.857,61.487l21.302-23.121l-33.03,19.099L271.857,61.487
			 M258.269,99.35l12.013-35.009l-12.013-4.119V99.35 M337.341,99.366l0.043-39.126l-12.052,4.132L337.341,99.366 M297.802,106.951
			l22.788-41.988h-45.576L297.802,106.951 M294.833,108.213l-22.185-40.877l-12.237,35.662L294.833,108.213 M300.737,108.274
			L335.194,103l-12.238-35.664L300.737,108.274 M296.197,126.228v-14.561l-34.123-5.17L296.197,126.228 M299.408,126.261
			l34.115-19.757l-34.115,5.222V126.261 M297.832,29.492c-1.083,0-2.151,0.287-3.09,0.829l-39.563,22.877
			c-1.901,1.1-3.083,3.147-3.083,5.344v45.754c0,2.197,1.182,4.244,3.083,5.344l39.563,22.877c0.938,0.543,2.007,0.829,3.09,0.829
			c1.085,0,2.155-0.287,3.094-0.831l39.504-22.877c1.896-1.098,3.076-3.143,3.079-5.335l0.049-45.754
			c0.004-2.199-1.178-4.249-3.081-5.35l-39.554-22.878C299.984,29.779,298.916,29.492,297.832,29.492 M282.735,58.791l15.093-16.382
			l15.059,16.382H282.735z M324.643,58.082l-6.85-7.45l10.637,6.152L324.643,58.082z M267.244,56.773l10.55-6.1l-6.804,7.385
			L267.244,56.773z M261.23,81.593V64.369l5.288,1.813L261.23,81.593z M329.096,66.212l5.321-1.824l-0.019,17.277L329.096,66.212z
			 M279.992,67.925h35.621l-17.811,32.817L279.992,67.925z M264.366,100.601l8.896-25.926l16.129,29.718L264.366,100.601z
			 M306.186,104.444l16.156-29.769l8.899,25.934L306.186,104.444z M293.235,121.094l-16.123-9.323l16.123,2.443V121.094z
			 M302.37,114.269l16.088-2.462l-16.088,9.316V114.269z"/>
		<polygon fill="#6DCBD0" points="272.648,67.336 260.412,102.998 294.833,108.213 		"/>
		<polygon fill="#6DCBD0" points="293.16,38.366 260.13,57.465 271.858,61.486 		"/>
		<polygon fill="#C5EAF4" points="319.631,61.753 297.831,38.036 275.979,61.753 		"/>
		<polygon fill="#E0FBFB" points="335.543,57.476 302.488,38.358 323.772,61.512 		"/>
		<polygon fill="#4CB5BC" points="258.269,60.222 258.269,99.35 270.282,64.341 		"/>
		<polygon fill="#C5EAF4" points="300.737,108.274 335.193,103 322.956,67.336 		"/>
		<polygon fill="#4CB5BC" points="296.197,126.228 296.197,111.667 262.074,106.497 		"/>
		<polygon fill="#E0FBFB" points="325.333,64.371 337.34,99.366 337.384,60.239 		"/>
		<polygon fill="#6DCBD0" points="299.408,126.261 333.523,106.504 299.408,111.725 		"/>
		<polygon fill="#96DADF" points="275.014,64.963 297.802,106.951 320.59,64.963 		"/>
		<path fill="#3FA3AD" d="M338.994,55.762L299.44,32.885c-0.498-0.288-1.054-0.432-1.608-0.432s-1.109,0.144-1.606,0.432
			l-39.564,22.877c-0.992,0.574-1.603,1.633-1.603,2.78v45.754c0,1.147,0.611,2.206,1.603,2.78l39.564,22.877
			c0.497,0.287,1.052,0.431,1.606,0.431c0.556,0,1.111-0.144,1.609-0.432l39.504-22.877c0.99-0.574,1.601-1.631,1.602-2.775
			l0.05-45.755C340.598,57.398,339.987,56.337,338.994,55.762 M258.269,60.222l12.013,4.119L258.269,99.35V60.222z M275.014,64.963
			h45.577l-22.788,41.988L275.014,64.963z M294.833,108.213l-34.422-5.216l12.237-35.661L294.833,108.213z M275.978,61.753
			l21.853-23.718l21.801,23.718H275.978z M323.772,61.512l-21.284-23.154l33.056,19.118L323.772,61.512z M271.858,61.487
			l-11.728-4.022l33.03-19.099L271.858,61.487z M296.197,111.667v14.561l-34.123-19.732L296.197,111.667z M322.956,67.336
			L335.194,103l-34.457,5.274L322.956,67.336z M325.333,64.371l12.052-4.131l-0.043,39.126L325.333,64.371z M299.408,126.261
			v-14.535l34.115-5.222L299.408,126.261z"/>
	</g>
	<g>
		<path fill="#3FA3AD" d="M17.868,245.352c0-1.795,1.587-3.174,3.519-3.174c2.001,0,3.657,1.379,3.657,3.174
			c0,3.035,2.415,5.934,7.038,5.934c4.416,0,7.245-2.484,7.245-6.21c0-2.967-0.69-5.521-4.899-8.28l-1.863-1.104
			c-4.554-2.553-5.796-3.381-7.107-4.209c-4.416-2.967-7.176-6.418-7.176-11.592c0-7.66,6.348-12.213,13.662-12.213
			c7.659,0,13.662,4.484,13.662,11.799c0,1.793-1.587,3.174-3.588,3.174s-3.588-1.381-3.588-3.174c0-3.174-2.07-5.451-6.486-5.451
			c-4.485,0-6.486,2.967-6.486,5.796c0,1.519,0,3.588,3.726,6.21c1.104,0.896,4.002,2.691,8.763,5.382
			c5.313,3.104,8.556,7.866,8.556,13.662c0,8.004-7.038,12.558-14.421,12.558C23.181,257.633,17.868,251.631,17.868,245.352z"/>
		<path fill="#3FA3AD" d="M95.216,210.852v43.539c0,1.793-1.587,3.242-3.588,3.242c-1.932,0-3.519-1.449-3.519-3.242v-20.424H73.55
			v20.424c0,1.793-1.587,3.242-3.519,3.242c-2.001,0-3.657-1.449-3.657-3.242v-43.539c0-1.795,1.656-3.174,3.657-3.174
			c1.932,0,3.519,1.379,3.519,3.174v16.767h14.559v-16.767c0-1.795,1.587-3.174,3.519-3.174
			C93.629,207.678,95.216,209.057,95.216,210.852z"/>
		<path fill="#3FA3AD" d="M186.847,254.045c0,1.795-1.587,3.174-3.588,3.174h-19.251c-1.933,0-3.52-1.379-3.52-3.174v-42.849
			c0-1.726,1.587-3.104,3.52-3.104h19.044c2.001,0,3.588,1.379,3.588,3.104c0,1.794-1.587,3.243-3.588,3.243h-15.387v13.179h13.455
			c2.001,0,3.588,1.448,3.588,3.243c0,1.725-1.587,3.105-3.588,3.105h-13.455v16.836h15.594
			C185.26,250.803,186.847,252.182,186.847,254.045z"/>
		<path fill="#3FA3AD" d="M232.318,253.631c0,1.795-1.588,3.174-3.589,3.174h-19.458c-2.001,0-3.588-1.379-3.588-3.174v-42.779
			c0-1.795,1.587-3.174,3.588-3.174s3.589,1.379,3.589,3.174v39.537h15.869C230.73,250.389,232.318,251.838,232.318,253.631z"/>
		<path fill="#3FA3AD" d="M127.956,207.678c-2.001,0-3.588,1.379-3.588,3.174v4.07v35.467v4.07c0,1.795,1.588,3.174,3.589,3.174
			s3.588-1.379,3.588-3.174v-4.07v-35.467v-4.07C131.545,209.057,129.957,207.678,127.956,207.678z"/>
		<path fill="#3FA3AD" d="M420.167,207.678c-2.001,0-3.588,1.379-3.588,3.174v4.07v35.467v4.07c0,1.795,1.588,3.174,3.589,3.174
			s3.588-1.379,3.588-3.174v-4.07v-35.467v-4.07C423.756,209.057,422.168,207.678,420.167,207.678z"/>
		<path fill="#3FA3AD" d="M254.811,257.219c-2.001,0-3.657-1.379-3.657-3.174v-42.849c0-1.726,1.656-3.104,3.657-3.104h9.937
			c8.004,0,14.489,6.278,14.489,14.075v20.907c0,7.797-6.485,14.145-14.489,14.145H254.811z M258.331,250.803h6.417
			c4.07,0,7.313-3.451,7.313-7.729v-20.907c0-4.278-3.243-7.728-7.313-7.728h-6.417V250.803z"/>
		<path fill="#3FA3AD" d="M331.815,254.391v-28.842l-8.694,17.664c-0.621,1.034-1.794,1.793-3.243,1.793
			c-1.38,0-2.553-0.621-3.174-1.725l-8.625-17.664v28.773c0,1.793-1.587,3.242-3.588,3.242c-1.932,0-3.519-1.449-3.519-3.242
			v-43.539c0-1.795,1.587-3.174,3.519-3.174c1.38,0,2.691,0.758,3.174,1.793l12.213,25.186c4.071-8.143,8.28-17.043,12.282-25.186
			c0.552-1.035,1.794-1.793,3.243-1.793c2.139,0,3.52,1.655,3.52,3.174v43.539c0,1.793-1.588,3.242-3.52,3.242
			C333.402,257.633,331.815,256.184,331.815,254.391z"/>
		<path fill="#3FA3AD" d="M391.43,253.562c0.414,1.863-1.104,4.07-3.588,4.07c-1.519,0-2.829-0.896-3.312-2.276l-2.897-9.246
			h-13.938c-0.966,3.174-1.794,6.142-2.76,9.246c-0.414,1.312-1.863,2.276-3.45,2.276c-2.07,0-4.14-2-3.381-4.14v0.069l13.11-43.608
			c0.482-1.312,1.932-2.276,3.519-2.276c1.518,0,2.898,0.965,3.381,2.276l13.248,43.608H391.43z M379.769,239.762l-5.037-19.043
			l-5.175,19.043H379.769z"/>
		<path fill="#3FA3AD" d="M456.358,257.219c-2.001,0-3.657-1.379-3.657-3.174v-42.849c0-1.726,1.656-3.104,3.657-3.104h9.937
			c8.004,0,14.489,6.278,14.489,14.075v20.907c0,7.797-6.485,14.145-14.489,14.145H456.358z M459.877,250.803h6.417
			c4.07,0,7.313-3.451,7.313-7.729v-20.907c0-4.278-3.243-7.728-7.313-7.728h-6.417V250.803z"/>
		<path fill="#3FA3AD" d="M528.738,254.045c0,1.795-1.587,3.174-3.588,3.174h-19.251c-1.933,0-3.52-1.379-3.52-3.174v-42.849
			c0-1.726,1.587-3.104,3.52-3.104h19.044c2.001,0,3.588,1.379,3.588,3.104c0,1.794-1.587,3.243-3.588,3.243h-15.387v13.179h13.455
			c2.001,0,3.588,1.448,3.588,3.243c0,1.725-1.587,3.105-3.588,3.105h-13.455v16.836h15.594
			C527.151,250.803,528.738,252.182,528.738,254.045z"/>
		<path fill="#3FA3AD" d="M570,255.84l-15.87-31.879l0.621,30.43c0,1.793-1.588,3.242-3.589,3.242c-1.932,0-3.588-1.449-3.588-3.242
			v-43.539c0-1.795,1.794-3.174,3.588-3.174c1.312,0,2.622,0.827,3.175,1.793l15.87,31.74l-0.621-30.359
			c0-1.795,1.587-3.174,3.588-3.174s3.588,1.379,3.588,3.174v43.539c0,1.518-1.173,2.76-2.76,3.174l0.138-0.069
			c-0.414,0.138-0.621,0.138-0.966,0.138C571.932,257.633,570.552,256.874,570,255.84z"/>
	</g>
</g>
<g id="Yellow" display="none">
	<g display="inline">
		<path fill="#DDA71A" d="M239.208,21.215v57.364v6.435v5.302c0,38.844,9.58,48.412,32.685,56.974
			c13.713,5.08,21.374,9.742,24.026,11.508c0.209,0.138,1.667,0.268,1.907,0.315v-27.178l-43.693-25.379V55.695l43.693-25.011
			V13.978c-26.234,5.067-50.194,5.586-56.817,5.628C240.015,19.605,239.208,20.326,239.208,21.215"/>
		<path fill="#FFE7AD" d="M355.572,21.215v57.364v6.435v5.302c0,38.844-9.438,48.412-32.197,56.974
			c-13.509,5.08-21.056,9.742-23.668,11.508c-0.206,0.138-1.642,0.268-1.88,0.315v-27.178l45.013-25.379V55.695l-45.013-25.011
			V13.978c25.845,5.067,49.447,5.586,55.972,5.628C354.778,19.605,355.572,20.326,355.572,21.215"/>
		<path fill="#FFFFFF" d="M297.827,161.643c-0.816,0-1.632-0.23-2.328-0.694c-2.604-1.731-10.116-6.299-23.651-11.313
			c-11.559-4.283-20.442-9.001-26.223-18.103c-5.574-8.774-8.059-21.482-8.059-41.204V20.967c0-2.137,1.824-3.876,4.067-3.876
			c6.693-0.042,30.509-0.57,55.354-5.604c0.55-0.111,1.132-0.112,1.684,0c24.836,5.033,48.645,5.562,55.36,5.604
			c2.24,0.004,4.061,1.742,4.061,3.876v69.361c0,40.128-10.108,50.349-34.284,59.307c-13.534,5.015-21.047,9.582-23.649,11.312
			C299.46,161.41,298.643,161.642,297.827,161.643 M243.631,21.59c-0.857,0.014-1.545,0.711-1.545,1.569v67.169
			c0,39.171,10.034,47.176,31.332,55.067c12.093,4.482,19.613,8.67,23.192,10.896c0.746,0.465,1.686,0.465,2.433,0
			c3.578-2.226,11.098-6.414,23.192-10.896c21.299-7.891,31.333-15.897,31.333-55.067V23.159c0-0.858-0.688-1.555-1.545-1.569
			c-8.698-0.136-30.818-0.962-53.893-5.599c-0.2-0.04-0.408-0.04-0.608,0C274.449,20.627,252.331,21.454,243.631,21.59
			 M241.649,21.612h-0.003H241.649z"/>
		<path fill="#BD8B00" d="M297.827,165c-0.853,0-1.705-0.242-2.433-0.726c-2.719-1.809-10.568-6.58-24.708-11.819
			c-12.076-4.474-21.356-9.401-27.395-18.911c-5.823-9.167-8.42-22.443-8.42-43.047V18.036c0-2.232,1.906-4.049,4.249-4.049
			c6.993-0.044,31.873-0.595,57.828-5.855c0.575-0.115,1.183-0.116,1.759,0.001c25.946,5.257,50.819,5.81,57.836,5.854
			c2.34,0.005,4.241,1.82,4.241,4.049v72.461c0,41.922-10.559,52.601-35.816,61.958c-14.14,5.239-21.988,10.011-24.706,11.818
			C299.533,164.758,298.68,164.999,297.827,165 M241.094,18.097c-1.113,0.019-2.001,0.927-2.001,2.041v70.393
			c0,41.275,10.573,49.709,33.015,58.025c12.255,4.541,20.053,8.797,23.987,11.201c1.064,0.651,2.399,0.651,3.464,0
			c3.933-2.403,11.73-6.66,23.987-11.201c22.442-8.316,33.016-16.751,33.016-58.025v-70.05c0-1.302-1.041-2.366-2.343-2.39
			c-9.66-0.178-32.571-1.131-56.393-5.952C273.722,17.017,250.55,17.935,241.094,18.097 M238.633,18.127h-0.003H238.633z"/>
		<path d="M297.832,131.865c-0.823,0-1.637-0.218-2.349-0.63l-39.562-22.877c-1.446-0.836-2.344-2.392-2.344-4.062V58.542
			c0-1.67,0.898-3.226,2.344-4.062l39.562-22.877c0.712-0.412,1.525-0.63,2.349-0.63c0.824,0,1.636,0.218,2.35,0.63l39.554,22.877
			c1.446,0.837,2.345,2.396,2.343,4.067l-0.051,45.754c-0.001,1.666-0.897,3.22-2.34,4.055l-39.504,22.877
			C299.47,131.647,298.657,131.865,297.832,131.865 M300.888,123.692l25.102-14.537l-25.102,3.843V123.692z M294.715,123.661V112.94
			l-25.123-3.806L294.715,123.661z M303.462,106.359l29.755-4.554l-10.567-30.8L303.462,106.359z M292.111,106.303l-19.157-35.298
			l-10.566,30.794L292.111,106.303z M297.802,103.846l20.299-37.402h-40.598L297.802,103.846z M335.87,90.516l0.031-28.202
			l-8.687,2.978L335.87,90.516z M259.75,90.471l8.651-25.21l-8.651-2.966V90.471z M316.259,60.272l-18.431-20.049l-18.472,20.049
			H316.259z M324.208,59.797l7.778-2.667l-21.845-12.635L324.208,59.797z M271.423,59.772l14.053-15.252l-21.79,12.6L271.423,59.772
			z"/>
		<path fill="#FFFFFF" d="M297.832,32.454c0.556,0,1.11,0.144,1.608,0.431l39.554,22.878c0.993,0.574,1.604,1.635,1.603,2.782
			l-0.05,45.755c-0.001,1.144-0.611,2.201-1.602,2.775l-39.504,22.877c-0.498,0.288-1.053,0.432-1.609,0.432
			c-0.555,0-1.109-0.143-1.606-0.431l-39.563-22.877c-0.993-0.574-1.604-1.633-1.604-2.78V58.542c0-1.147,0.611-2.206,1.604-2.78
			l39.563-22.877C296.722,32.598,297.277,32.454,297.832,32.454 M275.978,61.753h43.654l-21.801-23.717L275.978,61.753
			 M323.772,61.512l11.771-4.036l-33.056-19.118L323.772,61.512 M271.857,61.487l21.302-23.121l-33.03,19.099L271.857,61.487
			 M258.269,99.35l12.013-35.009l-12.013-4.119V99.35 M337.341,99.366l0.043-39.126l-12.052,4.132L337.341,99.366 M297.802,106.951
			l22.788-41.988h-45.576L297.802,106.951 M294.833,108.213l-22.185-40.877l-12.237,35.662L294.833,108.213 M300.737,108.274
			L335.194,103l-12.238-35.664L300.737,108.274 M296.197,126.228v-14.561l-34.123-5.17L296.197,126.228 M299.408,126.261
			l34.115-19.757l-34.115,5.222V126.261 M297.832,29.492c-1.083,0-2.151,0.287-3.09,0.829l-39.563,22.877
			c-1.901,1.1-3.083,3.147-3.083,5.344v45.754c0,2.197,1.182,4.244,3.083,5.344l39.563,22.877c0.938,0.543,2.007,0.829,3.09,0.829
			c1.085,0,2.155-0.287,3.094-0.831l39.504-22.877c1.896-1.098,3.076-3.143,3.079-5.335l0.049-45.754
			c0.004-2.199-1.178-4.249-3.081-5.35l-39.554-22.878C299.984,29.779,298.916,29.492,297.832,29.492 M282.735,58.791l15.093-16.382
			l15.059,16.382H282.735z M324.643,58.082l-6.85-7.45l10.637,6.152L324.643,58.082z M267.244,56.773l10.55-6.1l-6.804,7.385
			L267.244,56.773z M261.23,81.593V64.369l5.288,1.813L261.23,81.593z M329.096,66.212l5.321-1.824l-0.019,17.277L329.096,66.212z
			 M279.992,67.925h35.621l-17.811,32.817L279.992,67.925z M264.366,100.601l8.896-25.926l16.129,29.718L264.366,100.601z
			 M306.186,104.444l16.156-29.769l8.899,25.934L306.186,104.444z M293.235,121.094l-16.123-9.323l16.123,2.443V121.094z
			 M302.37,114.269l16.088-2.462l-16.088,9.316V114.269z"/>
		<polygon fill="#FFC44A" points="272.648,67.336 260.412,102.998 294.833,108.213 		"/>
		<polygon fill="#FFC44A" points="293.16,38.366 260.13,57.465 271.858,61.486 		"/>
		<polygon fill="#FFE7AD" points="319.631,61.753 297.831,38.036 275.979,61.753 		"/>
		<polygon fill="#FFF4E0" points="335.543,57.476 302.488,38.358 323.772,61.512 		"/>
		<polygon fill="#DDA71A" points="258.269,60.222 258.269,99.35 270.282,64.341 		"/>
		<polygon fill="#FFE7AD" points="300.737,108.274 335.193,103 322.956,67.336 		"/>
		<polygon fill="#DDA71A" points="296.197,126.228 296.197,111.667 262.074,106.497 		"/>
		<polygon fill="#FFF4E0" points="325.333,64.371 337.34,99.366 337.384,60.239 		"/>
		<polygon fill="#FFC44A" points="299.408,126.261 333.523,106.504 299.408,111.725 		"/>
		<polygon fill="#FFDB65" points="275.014,64.963 297.802,106.951 320.59,64.963 		"/>
		<path fill="#BD8B00" d="M338.994,55.762L299.44,32.885c-0.498-0.288-1.054-0.432-1.608-0.432s-1.109,0.144-1.606,0.432
			l-39.564,22.877c-0.992,0.574-1.603,1.633-1.603,2.78v45.754c0,1.147,0.611,2.206,1.603,2.78l39.564,22.877
			c0.497,0.287,1.052,0.431,1.606,0.431c0.556,0,1.111-0.144,1.609-0.432l39.504-22.877c0.99-0.574,1.601-1.631,1.602-2.775
			l0.05-45.755C340.598,57.398,339.987,56.337,338.994,55.762 M258.269,60.222l12.013,4.119L258.269,99.35V60.222z M275.014,64.963
			h45.577l-22.788,41.988L275.014,64.963z M294.833,108.213l-34.422-5.216l12.237-35.661L294.833,108.213z M275.978,61.753
			l21.853-23.718l21.801,23.718H275.978z M323.772,61.512l-21.284-23.154l33.056,19.118L323.772,61.512z M271.858,61.487
			l-11.728-4.022l33.03-19.099L271.858,61.487z M296.197,111.667v14.561l-34.123-19.732L296.197,111.667z M322.956,67.336
			L335.194,103l-34.457,5.274L322.956,67.336z M325.333,64.371l12.052-4.131l-0.043,39.126L325.333,64.371z M299.408,126.261
			v-14.535l34.115-5.222L299.408,126.261z"/>
	</g>
	<g display="inline">
		<path fill="#BD8B00" d="M17.868,245.352c0-1.795,1.587-3.174,3.519-3.174c2.001,0,3.657,1.379,3.657,3.174
			c0,3.035,2.415,5.934,7.038,5.934c4.416,0,7.245-2.484,7.245-6.21c0-2.967-0.69-5.521-4.899-8.28l-1.863-1.104
			c-4.554-2.553-5.796-3.381-7.107-4.209c-4.416-2.967-7.176-6.418-7.176-11.592c0-7.66,6.348-12.213,13.662-12.213
			c7.659,0,13.662,4.484,13.662,11.799c0,1.793-1.587,3.174-3.588,3.174s-3.588-1.381-3.588-3.174c0-3.174-2.07-5.451-6.486-5.451
			c-4.485,0-6.486,2.967-6.486,5.796c0,1.519,0,3.588,3.726,6.21c1.104,0.896,4.002,2.691,8.763,5.382
			c5.313,3.104,8.556,7.866,8.556,13.662c0,8.004-7.038,12.558-14.421,12.558C23.181,257.633,17.868,251.631,17.868,245.352z"/>
		<path fill="#BD8B00" d="M95.216,210.852v43.539c0,1.793-1.587,3.242-3.588,3.242c-1.932,0-3.519-1.449-3.519-3.242v-20.424H73.55
			v20.424c0,1.793-1.587,3.242-3.519,3.242c-2.001,0-3.657-1.449-3.657-3.242v-43.539c0-1.795,1.656-3.174,3.657-3.174
			c1.932,0,3.519,1.379,3.519,3.174v16.767h14.559v-16.767c0-1.795,1.587-3.174,3.519-3.174
			C93.629,207.678,95.216,209.057,95.216,210.852z"/>
		<path fill="#BD8B00" d="M186.847,254.045c0,1.795-1.587,3.174-3.588,3.174h-19.251c-1.933,0-3.52-1.379-3.52-3.174v-42.849
			c0-1.726,1.587-3.104,3.52-3.104h19.044c2.001,0,3.588,1.379,3.588,3.104c0,1.794-1.587,3.243-3.588,3.243h-15.387v13.179h13.455
			c2.001,0,3.588,1.448,3.588,3.243c0,1.725-1.587,3.105-3.588,3.105h-13.455v16.836h15.594
			C185.26,250.803,186.847,252.182,186.847,254.045z"/>
		<path fill="#BD8B00" d="M232.318,253.631c0,1.795-1.588,3.174-3.589,3.174h-19.458c-2.001,0-3.588-1.379-3.588-3.174v-42.779
			c0-1.795,1.587-3.174,3.588-3.174s3.589,1.379,3.589,3.174v39.537h15.869C230.73,250.389,232.318,251.838,232.318,253.631z"/>
		<path fill="#BD8B00" d="M127.956,207.678c-2.001,0-3.588,1.379-3.588,3.174v4.07v35.467v4.07c0,1.795,1.588,3.174,3.589,3.174
			s3.588-1.379,3.588-3.174v-4.07v-35.467v-4.07C131.545,209.057,129.957,207.678,127.956,207.678z"/>
		<path fill="#BD8B00" d="M420.167,207.678c-2.001,0-3.588,1.379-3.588,3.174v4.07v35.467v4.07c0,1.795,1.588,3.174,3.589,3.174
			s3.588-1.379,3.588-3.174v-4.07v-35.467v-4.07C423.756,209.057,422.168,207.678,420.167,207.678z"/>
		<path fill="#BD8B00" d="M254.811,257.219c-2.001,0-3.657-1.379-3.657-3.174v-42.849c0-1.726,1.656-3.104,3.657-3.104h9.937
			c8.004,0,14.489,6.278,14.489,14.075v20.907c0,7.797-6.485,14.145-14.489,14.145H254.811z M258.331,250.803h6.417
			c4.07,0,7.313-3.451,7.313-7.729v-20.907c0-4.278-3.243-7.728-7.313-7.728h-6.417V250.803z"/>
		<path fill="#BD8B00" d="M331.815,254.391v-28.842l-8.694,17.664c-0.621,1.034-1.794,1.793-3.243,1.793
			c-1.38,0-2.553-0.621-3.174-1.725l-8.625-17.664v28.773c0,1.793-1.587,3.242-3.588,3.242c-1.932,0-3.519-1.449-3.519-3.242
			v-43.539c0-1.795,1.587-3.174,3.519-3.174c1.38,0,2.691,0.758,3.174,1.793l12.213,25.186c4.071-8.143,8.28-17.043,12.282-25.186
			c0.552-1.035,1.794-1.793,3.243-1.793c2.139,0,3.52,1.655,3.52,3.174v43.539c0,1.793-1.588,3.242-3.52,3.242
			C333.402,257.633,331.815,256.184,331.815,254.391z"/>
		<path fill="#BD8B00" d="M391.43,253.562c0.414,1.863-1.104,4.07-3.588,4.07c-1.519,0-2.829-0.896-3.312-2.276l-2.897-9.246
			h-13.938c-0.966,3.174-1.794,6.142-2.76,9.246c-0.414,1.312-1.863,2.276-3.45,2.276c-2.07,0-4.14-2-3.381-4.14v0.069l13.11-43.608
			c0.482-1.312,1.932-2.276,3.519-2.276c1.518,0,2.898,0.965,3.381,2.276l13.248,43.608H391.43z M379.769,239.762l-5.037-19.043
			l-5.175,19.043H379.769z"/>
		<path fill="#BD8B00" d="M456.358,257.219c-2.001,0-3.657-1.379-3.657-3.174v-42.849c0-1.726,1.656-3.104,3.657-3.104h9.937
			c8.004,0,14.489,6.278,14.489,14.075v20.907c0,7.797-6.485,14.145-14.489,14.145H456.358z M459.877,250.803h6.417
			c4.07,0,7.313-3.451,7.313-7.729v-20.907c0-4.278-3.243-7.728-7.313-7.728h-6.417V250.803z"/>
		<path fill="#BD8B00" d="M528.738,254.045c0,1.795-1.587,3.174-3.588,3.174h-19.251c-1.933,0-3.52-1.379-3.52-3.174v-42.849
			c0-1.726,1.587-3.104,3.52-3.104h19.044c2.001,0,3.588,1.379,3.588,3.104c0,1.794-1.587,3.243-3.588,3.243h-15.387v13.179h13.455
			c2.001,0,3.588,1.448,3.588,3.243c0,1.725-1.587,3.105-3.588,3.105h-13.455v16.836h15.594
			C527.151,250.803,528.738,252.182,528.738,254.045z"/>
		<path fill="#BD8B00" d="M570,255.84l-15.87-31.879l0.621,30.43c0,1.793-1.588,3.242-3.589,3.242c-1.932,0-3.588-1.449-3.588-3.242
			v-43.539c0-1.795,1.794-3.174,3.588-3.174c1.312,0,2.622,0.827,3.175,1.793l15.87,31.74l-0.621-30.359
			c0-1.795,1.587-3.174,3.588-3.174s3.588,1.379,3.588,3.174v43.539c0,1.518-1.173,2.76-2.76,3.174l0.138-0.069
			c-0.414,0.138-0.621,0.138-0.966,0.138C571.932,257.633,570.552,256.874,570,255.84z"/>
	</g>
</g>
</svg>
