<?xml version="1.0" encoding="utf-8"?>
<!-- Generator: Adobe Illustrator 16.0.0, SVG Export Plug-In . SVG Version: 6.00 Build 0)  -->
<!DOCTYPE svg PUBLIC "-//W3C//DTD SVG 1.1//EN" "http://www.w3.org/Graphics/SVG/1.1/DTD/svg11.dtd">
<svg version="1.1" xmlns="http://www.w3.org/2000/svg" xmlns:xlink="http://www.w3.org/1999/xlink" x="0px" y="0px"
	 width="858.556px" height="83.524px" viewBox="0 0 858.556 83.524" enable-background="new 0 0 858.556 83.524"
	 xml:space="preserve">
<g id="Green" display="none">
	<g display="inline">
		<path fill="#6B8A6B" d="M0.108,63.011c0-2.996,2.65-5.301,5.877-5.301c3.342,0,6.108,2.305,6.108,5.301
			c0,5.071,4.033,9.911,11.755,9.911c7.375,0,12.101-4.149,12.101-10.372c0-4.956-1.152-9.219-8.183-13.83l-3.111-1.844
			c-7.606-4.264-9.681-5.646-11.871-7.03C5.41,34.891,0.8,29.128,0.8,20.485C0.8,7.692,11.402,0.087,23.618,0.087
			c12.793,0,22.819,7.49,22.819,19.707c0,2.997-2.651,5.302-5.993,5.302c-3.342,0-5.993-2.305-5.993-5.302
			c0-5.301-3.458-9.104-10.833-9.104c-7.491,0-10.833,4.955-10.833,9.681c0,2.535,0,5.993,6.224,10.372
			c1.844,1.498,6.684,4.495,14.636,8.989c8.874,5.187,14.29,13.138,14.29,22.819c0,13.369-11.754,20.975-24.086,20.975
			C8.982,83.524,0.108,73.498,0.108,63.011z"/>
		<path fill="#6B8A6B" d="M127.454,5.388v72.721c0,2.996-2.65,5.416-5.993,5.416c-3.228,0-5.878-2.42-5.878-5.416V43.995H91.266
			v34.113c0,2.996-2.65,5.416-5.877,5.416c-3.342,0-6.108-2.42-6.108-5.416V5.388c0-2.996,2.767-5.301,6.108-5.301
			c3.227,0,5.877,2.305,5.877,5.301v28.005h24.317V5.388c0-2.996,2.65-5.301,5.878-5.301C124.803,0.087,127.454,2.392,127.454,5.388
			z"/>
		<path fill="#6B8A6B" d="M246.037,77.532c0,2.997-2.651,5.301-5.993,5.301H207.89c-3.227,0-5.877-2.305-5.877-5.301V5.964
			c0-2.881,2.65-5.187,5.877-5.187h31.808c3.343,0,5.993,2.305,5.993,5.187c0,2.996-2.65,5.416-5.993,5.416h-25.699v22.012h22.473
			c3.342,0,5.993,2.42,5.993,5.417c0,2.881-2.651,5.186-5.993,5.186h-22.473v28.12h26.045
			C243.386,72.115,246.037,74.42,246.037,77.532z"/>
		<path fill="#6B8A6B" d="M355.864,82.833c-3.342,0-6.109-2.305-6.109-5.301V5.964c0-2.881,2.768-5.187,6.109-5.187h16.595
			c13.367,0,24.201,10.487,24.201,23.51v34.919c0,13.023-10.834,23.625-24.201,23.625H355.864z M361.741,72.115h10.718
			c6.8,0,12.217-5.762,12.217-12.908V24.288c0-7.145-5.417-12.908-12.217-12.908h-10.718V72.115z"/>
		<path fill="#6B8A6B" d="M482.633,78.108V29.935l-14.521,29.503c-1.038,1.728-2.997,2.996-5.417,2.996
			c-2.305,0-4.264-1.038-5.301-2.881L442.988,30.05v48.058c0,2.996-2.649,5.416-5.991,5.416c-3.228,0-5.877-2.42-5.877-5.416V5.388
			c0-2.996,2.649-5.301,5.877-5.301c2.305,0,4.493,1.267,5.301,2.996l20.398,42.065c6.8-13.599,13.83-28.466,20.514-42.065
			c0.922-1.729,2.997-2.996,5.417-2.996c3.573,0,5.878,2.766,5.878,5.301v72.721c0,2.996-2.652,5.416-5.878,5.416
			C485.285,83.524,482.633,81.104,482.633,78.108z"/>
		<path fill="#6B8A6B" d="M580.358,76.725c0.692,3.112-1.844,6.799-5.991,6.799c-2.536,0-4.727-1.498-5.533-3.803l-4.84-15.443
			h-23.279c-1.613,5.302-2.996,10.257-4.61,15.443c-0.69,2.189-3.112,3.803-5.762,3.803c-3.458,0-6.915-3.342-5.648-6.915v0.115
			L546.592,3.89c0.806-2.189,3.227-3.803,5.878-3.803c2.533,0,4.84,1.613,5.646,3.803l22.128,72.835H580.358z M560.881,53.676
			l-8.411-31.808l-8.646,31.808H560.881z"/>
		<path fill="#6B8A6B" d="M661.144,82.833c-3.345,0-6.109-2.305-6.109-5.301V5.964c0-2.881,2.765-5.187,6.109-5.187h16.595
			c13.367,0,24.201,10.487,24.201,23.51v34.919c0,13.023-10.834,23.625-24.201,23.625H661.144z M667.021,72.115h10.718
			c6.8,0,12.217-5.762,12.217-12.908V24.288c0-7.145-5.417-12.908-12.217-12.908h-10.718V72.115z"/>
		<path fill="#6B8A6B" d="M780.188,77.532c0,2.997-2.649,5.301-5.991,5.301h-32.155c-3.227,0-5.878-2.305-5.878-5.301V5.964
			c0-2.881,2.651-5.187,5.878-5.187h31.808c3.342,0,5.994,2.305,5.994,5.187c0,2.996-2.652,5.416-5.994,5.416h-25.698v22.012h22.473
			c3.342,0,5.993,2.42,5.993,5.417c0,2.881-2.651,5.186-5.993,5.186h-22.473v28.12h26.046
			C777.539,72.115,780.188,74.42,780.188,77.532z"/>
		<path fill="#6B8A6B" d="M847.262,80.528l-26.508-53.244l1.038,50.824c0,2.996-2.651,5.416-5.993,5.416
			c-3.227,0-5.992-2.42-5.992-5.416V5.388c0-2.996,2.995-5.301,5.992-5.301c2.19,0,4.379,1.382,5.301,2.996l26.507,53.013
			L846.57,5.388c0-2.996,2.651-5.301,5.993-5.301s5.993,2.305,5.993,5.301v72.721c0,2.535-1.959,4.609-4.61,5.301l0.231-0.115
			c-0.692,0.23-1.038,0.23-1.614,0.23C850.488,83.524,848.183,82.257,847.262,80.528z"/>
		<path fill="#6B8A6B" d="M158.799,5.388c0-2.996,2.65-5.301,5.877-5.301c3.342,0,5.993,2.305,5.993,5.301v72.721
			c0,2.996-2.65,5.416-5.993,5.416c-3.227,0-5.877-2.42-5.877-5.416V5.388z"/>
		<path fill="#6B8A6B" d="M611.819,5.388c0-2.996,2.649-5.301,5.877-5.301c3.342,0,5.991,2.305,5.991,5.301v72.721
			c0,2.996-2.649,5.416-5.991,5.416c-3.228,0-5.877-2.42-5.877-5.416V5.388z"/>
		<path fill="#6B8A6B" d="M287.637,72.115h26.506c3.342,0,5.994,2.42,5.994,5.417c0,2.997-2.652,5.301-5.994,5.301h-32.499
			c-3.342,0-5.993-2.305-5.993-5.301V5.388c0-2.996,2.65-5.301,5.877-5.301c3.128,0,5.797,2.026,6.108,4.739V72.115z"/>
	</g>
</g>
<g id="Blue" display="none">
	<g display="inline">
		<path fill="#5C6CA7" d="M0.108,63.011c0-2.996,2.65-5.301,5.877-5.301c3.342,0,6.108,2.305,6.108,5.301
			c0,5.071,4.033,9.911,11.755,9.911c7.375,0,12.101-4.149,12.101-10.372c0-4.956-1.152-9.219-8.183-13.83l-3.111-1.844
			c-7.606-4.264-9.681-5.646-11.871-7.03C5.41,34.891,0.8,29.128,0.8,20.485C0.8,7.692,11.402,0.087,23.618,0.087
			c12.793,0,22.819,7.49,22.819,19.707c0,2.997-2.651,5.302-5.993,5.302c-3.342,0-5.993-2.305-5.993-5.302
			c0-5.301-3.458-9.104-10.833-9.104c-7.491,0-10.833,4.955-10.833,9.681c0,2.535,0,5.993,6.224,10.372
			c1.844,1.498,6.684,4.495,14.636,8.989c8.874,5.187,14.29,13.138,14.29,22.819c0,13.369-11.754,20.975-24.086,20.975
			C8.982,83.524,0.108,73.498,0.108,63.011z"/>
		<path fill="#5C6CA7" d="M127.454,5.388v72.721c0,2.996-2.65,5.416-5.993,5.416c-3.228,0-5.878-2.42-5.878-5.416V43.995H91.266
			v34.113c0,2.996-2.65,5.416-5.877,5.416c-3.342,0-6.108-2.42-6.108-5.416V5.388c0-2.996,2.767-5.301,6.108-5.301
			c3.227,0,5.877,2.305,5.877,5.301v28.005h24.317V5.388c0-2.996,2.65-5.301,5.878-5.301C124.803,0.087,127.454,2.392,127.454,5.388
			z"/>
		<path fill="#5C6CA7" d="M246.037,77.532c0,2.997-2.651,5.301-5.993,5.301H207.89c-3.227,0-5.877-2.305-5.877-5.301V5.964
			c0-2.881,2.65-5.187,5.877-5.187h31.808c3.343,0,5.993,2.305,5.993,5.187c0,2.996-2.65,5.416-5.993,5.416h-25.699v22.012h22.473
			c3.342,0,5.993,2.42,5.993,5.417c0,2.881-2.651,5.186-5.993,5.186h-22.473v28.12h26.045
			C243.386,72.115,246.037,74.42,246.037,77.532z"/>
		<path fill="#5C6CA7" d="M355.864,82.833c-3.342,0-6.109-2.305-6.109-5.301V5.964c0-2.881,2.768-5.187,6.109-5.187h16.595
			c13.367,0,24.201,10.487,24.201,23.51v34.919c0,13.023-10.834,23.625-24.201,23.625H355.864z M361.741,72.115h10.718
			c6.8,0,12.217-5.762,12.217-12.908V24.288c0-7.145-5.417-12.908-12.217-12.908h-10.718V72.115z"/>
		<path fill="#5C6CA7" d="M482.633,78.108V29.935l-14.521,29.503c-1.038,1.728-2.997,2.996-5.417,2.996
			c-2.305,0-4.264-1.038-5.301-2.881L442.988,30.05v48.058c0,2.996-2.649,5.416-5.991,5.416c-3.228,0-5.877-2.42-5.877-5.416V5.388
			c0-2.996,2.649-5.301,5.877-5.301c2.305,0,4.493,1.267,5.301,2.996l20.398,42.065c6.8-13.599,13.83-28.466,20.514-42.065
			c0.922-1.729,2.997-2.996,5.417-2.996c3.573,0,5.878,2.766,5.878,5.301v72.721c0,2.996-2.652,5.416-5.878,5.416
			C485.285,83.524,482.633,81.104,482.633,78.108z"/>
		<path fill="#5C6CA7" d="M580.358,76.725c0.692,3.112-1.844,6.799-5.991,6.799c-2.536,0-4.727-1.498-5.533-3.803l-4.84-15.443
			h-23.279c-1.613,5.302-2.996,10.257-4.61,15.443c-0.69,2.189-3.112,3.803-5.762,3.803c-3.458,0-6.915-3.342-5.648-6.915v0.115
			L546.592,3.89c0.806-2.189,3.227-3.803,5.878-3.803c2.533,0,4.84,1.613,5.646,3.803l22.128,72.835H580.358z M560.881,53.676
			l-8.411-31.808l-8.646,31.808H560.881z"/>
		<path fill="#5C6CA7" d="M661.144,82.833c-3.345,0-6.109-2.305-6.109-5.301V5.964c0-2.881,2.765-5.187,6.109-5.187h16.595
			c13.367,0,24.201,10.487,24.201,23.51v34.919c0,13.023-10.834,23.625-24.201,23.625H661.144z M667.021,72.115h10.718
			c6.8,0,12.217-5.762,12.217-12.908V24.288c0-7.145-5.417-12.908-12.217-12.908h-10.718V72.115z"/>
		<path fill="#5C6CA7" d="M780.188,77.532c0,2.997-2.649,5.301-5.991,5.301h-32.155c-3.227,0-5.878-2.305-5.878-5.301V5.964
			c0-2.881,2.651-5.187,5.878-5.187h31.808c3.342,0,5.994,2.305,5.994,5.187c0,2.996-2.652,5.416-5.994,5.416h-25.698v22.012h22.473
			c3.342,0,5.993,2.42,5.993,5.417c0,2.881-2.651,5.186-5.993,5.186h-22.473v28.12h26.046
			C777.539,72.115,780.188,74.42,780.188,77.532z"/>
		<path fill="#5C6CA7" d="M847.262,80.528l-26.508-53.244l1.038,50.824c0,2.996-2.651,5.416-5.993,5.416
			c-3.227,0-5.992-2.42-5.992-5.416V5.388c0-2.996,2.995-5.301,5.992-5.301c2.19,0,4.379,1.382,5.301,2.996l26.507,53.013
			L846.57,5.388c0-2.996,2.651-5.301,5.993-5.301s5.993,2.305,5.993,5.301v72.721c0,2.535-1.959,4.609-4.61,5.301l0.231-0.115
			c-0.692,0.23-1.038,0.23-1.614,0.23C850.488,83.524,848.183,82.257,847.262,80.528z"/>
		<path fill="#5C6CA7" d="M158.799,5.388c0-2.996,2.65-5.301,5.877-5.301c3.342,0,5.993,2.305,5.993,5.301v72.721
			c0,2.996-2.65,5.416-5.993,5.416c-3.227,0-5.877-2.42-5.877-5.416V5.388z"/>
		<path fill="#5C6CA7" d="M611.819,5.388c0-2.996,2.649-5.301,5.877-5.301c3.342,0,5.991,2.305,5.991,5.301v72.721
			c0,2.996-2.649,5.416-5.991,5.416c-3.228,0-5.877-2.42-5.877-5.416V5.388z"/>
		<path fill="#5C6CA7" d="M287.637,72.115h26.506c3.342,0,5.994,2.42,5.994,5.417c0,2.997-2.652,5.301-5.994,5.301h-32.499
			c-3.342,0-5.993-2.305-5.993-5.301V5.388c0-2.996,2.65-5.301,5.877-5.301c3.128,0,5.797,2.026,6.108,4.739V72.115z"/>
	</g>
</g>
<g id="Red" display="none">
	<g display="inline">
		<path fill="#D42758" d="M0.108,63.011c0-2.996,2.65-5.301,5.877-5.301c3.342,0,6.108,2.305,6.108,5.301
			c0,5.071,4.033,9.911,11.755,9.911c7.375,0,12.101-4.149,12.101-10.372c0-4.956-1.152-9.219-8.183-13.83l-3.111-1.844
			c-7.606-4.264-9.681-5.646-11.871-7.03C5.41,34.891,0.8,29.128,0.8,20.485C0.8,7.692,11.402,0.087,23.618,0.087
			c12.793,0,22.819,7.49,22.819,19.707c0,2.997-2.651,5.302-5.993,5.302c-3.342,0-5.993-2.305-5.993-5.302
			c0-5.301-3.458-9.104-10.833-9.104c-7.491,0-10.833,4.955-10.833,9.681c0,2.535,0,5.993,6.224,10.372
			c1.844,1.498,6.684,4.495,14.636,8.989c8.874,5.187,14.29,13.138,14.29,22.819c0,13.369-11.754,20.975-24.086,20.975
			C8.982,83.524,0.108,73.498,0.108,63.011z"/>
		<path fill="#D42758" d="M127.454,5.388v72.721c0,2.996-2.65,5.416-5.993,5.416c-3.228,0-5.878-2.42-5.878-5.416V43.995H91.266
			v34.113c0,2.996-2.65,5.416-5.877,5.416c-3.342,0-6.108-2.42-6.108-5.416V5.388c0-2.996,2.767-5.301,6.108-5.301
			c3.227,0,5.877,2.305,5.877,5.301v28.005h24.317V5.388c0-2.996,2.65-5.301,5.878-5.301C124.803,0.087,127.454,2.392,127.454,5.388
			z"/>
		<path fill="#D42758" d="M246.037,77.532c0,2.997-2.651,5.301-5.993,5.301H207.89c-3.227,0-5.877-2.305-5.877-5.301V5.964
			c0-2.881,2.65-5.187,5.877-5.187h31.808c3.343,0,5.993,2.305,5.993,5.187c0,2.996-2.65,5.416-5.993,5.416h-25.699v22.012h22.473
			c3.342,0,5.993,2.42,5.993,5.417c0,2.881-2.651,5.186-5.993,5.186h-22.473v28.12h26.045
			C243.386,72.115,246.037,74.42,246.037,77.532z"/>
		<path fill="#D42758" d="M355.864,82.833c-3.342,0-6.109-2.305-6.109-5.301V5.964c0-2.881,2.768-5.187,6.109-5.187h16.595
			c13.367,0,24.201,10.487,24.201,23.51v34.919c0,13.023-10.834,23.625-24.201,23.625H355.864z M361.741,72.115h10.718
			c6.8,0,12.217-5.762,12.217-12.908V24.288c0-7.145-5.417-12.908-12.217-12.908h-10.718V72.115z"/>
		<path fill="#D42758" d="M482.633,78.108V29.935l-14.521,29.503c-1.038,1.728-2.997,2.996-5.417,2.996
			c-2.305,0-4.264-1.038-5.301-2.881L442.988,30.05v48.058c0,2.996-2.649,5.416-5.991,5.416c-3.228,0-5.877-2.42-5.877-5.416V5.388
			c0-2.996,2.649-5.301,5.877-5.301c2.305,0,4.493,1.267,5.301,2.996l20.398,42.065c6.8-13.599,13.83-28.466,20.514-42.065
			c0.922-1.729,2.997-2.996,5.417-2.996c3.573,0,5.878,2.766,5.878,5.301v72.721c0,2.996-2.652,5.416-5.878,5.416
			C485.285,83.524,482.633,81.104,482.633,78.108z"/>
		<path fill="#D42758" d="M580.358,76.725c0.692,3.112-1.844,6.799-5.991,6.799c-2.536,0-4.727-1.498-5.533-3.803l-4.84-15.443
			h-23.279c-1.613,5.302-2.996,10.257-4.61,15.443c-0.69,2.189-3.112,3.803-5.762,3.803c-3.458,0-6.915-3.342-5.648-6.915v0.115
			L546.592,3.89c0.806-2.189,3.227-3.803,5.878-3.803c2.533,0,4.84,1.613,5.646,3.803l22.128,72.835H580.358z M560.881,53.676
			l-8.411-31.808l-8.646,31.808H560.881z"/>
		<path fill="#D42758" d="M661.144,82.833c-3.345,0-6.109-2.305-6.109-5.301V5.964c0-2.881,2.765-5.187,6.109-5.187h16.595
			c13.367,0,24.201,10.487,24.201,23.51v34.919c0,13.023-10.834,23.625-24.201,23.625H661.144z M667.021,72.115h10.718
			c6.8,0,12.217-5.762,12.217-12.908V24.288c0-7.145-5.417-12.908-12.217-12.908h-10.718V72.115z"/>
		<path fill="#D42758" d="M780.188,77.532c0,2.997-2.649,5.301-5.991,5.301h-32.155c-3.227,0-5.878-2.305-5.878-5.301V5.964
			c0-2.881,2.651-5.187,5.878-5.187h31.808c3.342,0,5.994,2.305,5.994,5.187c0,2.996-2.652,5.416-5.994,5.416h-25.698v22.012h22.473
			c3.342,0,5.993,2.42,5.993,5.417c0,2.881-2.651,5.186-5.993,5.186h-22.473v28.12h26.046
			C777.539,72.115,780.188,74.42,780.188,77.532z"/>
		<path fill="#D42758" d="M847.262,80.528l-26.508-53.244l1.038,50.824c0,2.996-2.651,5.416-5.993,5.416
			c-3.227,0-5.992-2.42-5.992-5.416V5.388c0-2.996,2.995-5.301,5.992-5.301c2.19,0,4.379,1.382,5.301,2.996l26.507,53.013
			L846.57,5.388c0-2.996,2.651-5.301,5.993-5.301s5.993,2.305,5.993,5.301v72.721c0,2.535-1.959,4.609-4.61,5.301l0.231-0.115
			c-0.692,0.23-1.038,0.23-1.614,0.23C850.488,83.524,848.183,82.257,847.262,80.528z"/>
		<path fill="#D42758" d="M158.799,5.388c0-2.996,2.65-5.301,5.877-5.301c3.342,0,5.993,2.305,5.993,5.301v72.721
			c0,2.996-2.65,5.416-5.993,5.416c-3.227,0-5.877-2.42-5.877-5.416V5.388z"/>
		<path fill="#D42758" d="M611.819,5.388c0-2.996,2.649-5.301,5.877-5.301c3.342,0,5.991,2.305,5.991,5.301v72.721
			c0,2.996-2.649,5.416-5.991,5.416c-3.228,0-5.877-2.42-5.877-5.416V5.388z"/>
		<path fill="#D42758" d="M287.637,72.115h26.506c3.342,0,5.994,2.42,5.994,5.417c0,2.997-2.652,5.301-5.994,5.301h-32.499
			c-3.342,0-5.993-2.305-5.993-5.301V5.388c0-2.996,2.65-5.301,5.877-5.301c3.128,0,5.797,2.026,6.108,4.739V72.115z"/>
	</g>
</g>
<g id="Orange" display="none">
	<g display="inline">
		<path fill="#D1774A" d="M0.108,63.011c0-2.996,2.65-5.301,5.877-5.301c3.342,0,6.108,2.305,6.108,5.301
			c0,5.071,4.033,9.911,11.755,9.911c7.375,0,12.101-4.149,12.101-10.372c0-4.956-1.152-9.219-8.183-13.83l-3.111-1.844
			c-7.606-4.264-9.681-5.646-11.871-7.03C5.41,34.891,0.8,29.128,0.8,20.485C0.8,7.692,11.402,0.087,23.618,0.087
			c12.793,0,22.819,7.49,22.819,19.707c0,2.997-2.651,5.302-5.993,5.302c-3.342,0-5.993-2.305-5.993-5.302
			c0-5.301-3.458-9.104-10.833-9.104c-7.491,0-10.833,4.955-10.833,9.681c0,2.535,0,5.993,6.224,10.372
			c1.844,1.498,6.684,4.495,14.636,8.989c8.874,5.187,14.29,13.138,14.29,22.819c0,13.369-11.754,20.975-24.086,20.975
			C8.982,83.524,0.108,73.498,0.108,63.011z"/>
		<path fill="#D1774A" d="M127.454,5.388v72.721c0,2.996-2.65,5.416-5.993,5.416c-3.228,0-5.878-2.42-5.878-5.416V43.995H91.266
			v34.113c0,2.996-2.65,5.416-5.877,5.416c-3.342,0-6.108-2.42-6.108-5.416V5.388c0-2.996,2.767-5.301,6.108-5.301
			c3.227,0,5.877,2.305,5.877,5.301v28.005h24.317V5.388c0-2.996,2.65-5.301,5.878-5.301C124.803,0.087,127.454,2.392,127.454,5.388
			z"/>
		<path fill="#D1774A" d="M246.037,77.532c0,2.997-2.651,5.301-5.993,5.301H207.89c-3.227,0-5.877-2.305-5.877-5.301V5.964
			c0-2.881,2.65-5.187,5.877-5.187h31.808c3.343,0,5.993,2.305,5.993,5.187c0,2.996-2.65,5.416-5.993,5.416h-25.699v22.012h22.473
			c3.342,0,5.993,2.42,5.993,5.417c0,2.881-2.651,5.186-5.993,5.186h-22.473v28.12h26.045
			C243.386,72.115,246.037,74.42,246.037,77.532z"/>
		<path fill="#D1774A" d="M355.864,82.833c-3.342,0-6.109-2.305-6.109-5.301V5.964c0-2.881,2.768-5.187,6.109-5.187h16.595
			c13.367,0,24.201,10.487,24.201,23.51v34.919c0,13.023-10.834,23.625-24.201,23.625H355.864z M361.741,72.115h10.718
			c6.8,0,12.217-5.762,12.217-12.908V24.288c0-7.145-5.417-12.908-12.217-12.908h-10.718V72.115z"/>
		<path fill="#D1774A" d="M482.633,78.108V29.935l-14.521,29.503c-1.038,1.728-2.997,2.996-5.417,2.996
			c-2.305,0-4.264-1.038-5.301-2.881L442.988,30.05v48.058c0,2.996-2.649,5.416-5.991,5.416c-3.228,0-5.877-2.42-5.877-5.416V5.388
			c0-2.996,2.649-5.301,5.877-5.301c2.305,0,4.493,1.267,5.301,2.996l20.398,42.065c6.8-13.599,13.83-28.466,20.514-42.065
			c0.922-1.729,2.997-2.996,5.417-2.996c3.573,0,5.878,2.766,5.878,5.301v72.721c0,2.996-2.652,5.416-5.878,5.416
			C485.285,83.524,482.633,81.104,482.633,78.108z"/>
		<path fill="#D1774A" d="M580.358,76.725c0.692,3.112-1.844,6.799-5.991,6.799c-2.536,0-4.727-1.498-5.533-3.803l-4.84-15.443
			h-23.279c-1.613,5.302-2.996,10.257-4.61,15.443c-0.69,2.189-3.112,3.803-5.762,3.803c-3.458,0-6.915-3.342-5.648-6.915v0.115
			L546.592,3.89c0.806-2.189,3.227-3.803,5.878-3.803c2.533,0,4.84,1.613,5.646,3.803l22.128,72.835H580.358z M560.881,53.676
			l-8.411-31.808l-8.646,31.808H560.881z"/>
		<path fill="#D1774A" d="M661.144,82.833c-3.345,0-6.109-2.305-6.109-5.301V5.964c0-2.881,2.765-5.187,6.109-5.187h16.595
			c13.367,0,24.201,10.487,24.201,23.51v34.919c0,13.023-10.834,23.625-24.201,23.625H661.144z M667.021,72.115h10.718
			c6.8,0,12.217-5.762,12.217-12.908V24.288c0-7.145-5.417-12.908-12.217-12.908h-10.718V72.115z"/>
		<path fill="#D1774A" d="M780.188,77.532c0,2.997-2.649,5.301-5.991,5.301h-32.155c-3.227,0-5.878-2.305-5.878-5.301V5.964
			c0-2.881,2.651-5.187,5.878-5.187h31.808c3.342,0,5.994,2.305,5.994,5.187c0,2.996-2.652,5.416-5.994,5.416h-25.698v22.012h22.473
			c3.342,0,5.993,2.42,5.993,5.417c0,2.881-2.651,5.186-5.993,5.186h-22.473v28.12h26.046
			C777.539,72.115,780.188,74.42,780.188,77.532z"/>
		<path fill="#D1774A" d="M847.262,80.528l-26.508-53.244l1.038,50.824c0,2.996-2.651,5.416-5.993,5.416
			c-3.227,0-5.992-2.42-5.992-5.416V5.388c0-2.996,2.995-5.301,5.992-5.301c2.19,0,4.379,1.382,5.301,2.996l26.507,53.013
			L846.57,5.388c0-2.996,2.651-5.301,5.993-5.301s5.993,2.305,5.993,5.301v72.721c0,2.535-1.959,4.609-4.61,5.301l0.231-0.115
			c-0.692,0.23-1.038,0.23-1.614,0.23C850.488,83.524,848.183,82.257,847.262,80.528z"/>
		<path fill="#D1774A" d="M158.799,5.388c0-2.996,2.65-5.301,5.877-5.301c3.342,0,5.993,2.305,5.993,5.301v72.721
			c0,2.996-2.65,5.416-5.993,5.416c-3.227,0-5.877-2.42-5.877-5.416V5.388z"/>
		<path fill="#D1774A" d="M611.819,5.388c0-2.996,2.649-5.301,5.877-5.301c3.342,0,5.991,2.305,5.991,5.301v72.721
			c0,2.996-2.649,5.416-5.991,5.416c-3.228,0-5.877-2.42-5.877-5.416V5.388z"/>
		<path fill="#D1774A" d="M287.637,72.115h26.506c3.342,0,5.994,2.42,5.994,5.417c0,2.997-2.652,5.301-5.994,5.301h-32.499
			c-3.342,0-5.993-2.305-5.993-5.301V5.388c0-2.996,2.65-5.301,5.877-5.301c3.128,0,5.797,2.026,6.108,4.739V72.115z"/>
	</g>
</g>
<g id="Cyan">
	<g>
		<path fill="#3FA3AD" d="M0.108,63.011c0-2.996,2.65-5.301,5.877-5.301c3.342,0,6.108,2.305,6.108,5.301
			c0,5.071,4.033,9.911,11.755,9.911c7.375,0,12.101-4.149,12.101-10.372c0-4.956-1.152-9.219-8.183-13.83l-3.111-1.844
			c-7.606-4.264-9.681-5.646-11.871-7.03C5.41,34.891,0.8,29.128,0.8,20.485C0.8,7.692,11.402,0.087,23.618,0.087
			c12.793,0,22.819,7.49,22.819,19.707c0,2.997-2.651,5.302-5.993,5.302c-3.342,0-5.993-2.305-5.993-5.302
			c0-5.301-3.458-9.104-10.833-9.104c-7.491,0-10.833,4.955-10.833,9.681c0,2.535,0,5.993,6.224,10.372
			c1.844,1.498,6.684,4.495,14.636,8.989c8.874,5.187,14.29,13.138,14.29,22.819c0,13.369-11.754,20.975-24.086,20.975
			C8.982,83.524,0.108,73.498,0.108,63.011z"/>
		<path fill="#3FA3AD" d="M127.454,5.388v72.721c0,2.996-2.65,5.416-5.993,5.416c-3.228,0-5.878-2.42-5.878-5.416V43.995H91.266
			v34.113c0,2.996-2.65,5.416-5.877,5.416c-3.342,0-6.108-2.42-6.108-5.416V5.388c0-2.996,2.767-5.301,6.108-5.301
			c3.227,0,5.877,2.305,5.877,5.301v28.005h24.317V5.388c0-2.996,2.65-5.301,5.878-5.301C124.803,0.087,127.454,2.392,127.454,5.388
			z"/>
		<path fill="#3FA3AD" d="M246.037,77.532c0,2.997-2.651,5.301-5.993,5.301H207.89c-3.227,0-5.877-2.305-5.877-5.301V5.964
			c0-2.881,2.65-5.187,5.877-5.187h31.808c3.343,0,5.993,2.305,5.993,5.187c0,2.996-2.65,5.416-5.993,5.416h-25.699v22.012h22.473
			c3.342,0,5.993,2.42,5.993,5.417c0,2.881-2.651,5.186-5.993,5.186h-22.473v28.12h26.045
			C243.386,72.115,246.037,74.42,246.037,77.532z"/>
		<path fill="#3FA3AD" d="M355.864,82.833c-3.342,0-6.109-2.305-6.109-5.301V5.964c0-2.881,2.768-5.187,6.109-5.187h16.595
			c13.367,0,24.201,10.487,24.201,23.51v34.919c0,13.023-10.834,23.625-24.201,23.625H355.864z M361.741,72.115h10.718
			c6.8,0,12.217-5.762,12.217-12.908V24.288c0-7.145-5.417-12.908-12.217-12.908h-10.718V72.115z"/>
		<path fill="#3FA3AD" d="M482.633,78.108V29.935l-14.521,29.503c-1.038,1.728-2.997,2.996-5.417,2.996
			c-2.305,0-4.264-1.038-5.301-2.881L442.988,30.05v48.058c0,2.996-2.649,5.416-5.991,5.416c-3.228,0-5.877-2.42-5.877-5.416V5.388
			c0-2.996,2.649-5.301,5.877-5.301c2.305,0,4.493,1.267,5.301,2.996l20.398,42.065c6.8-13.599,13.83-28.466,20.514-42.065
			c0.922-1.729,2.997-2.996,5.417-2.996c3.573,0,5.878,2.766,5.878,5.301v72.721c0,2.996-2.652,5.416-5.878,5.416
			C485.285,83.524,482.633,81.104,482.633,78.108z"/>
		<path fill="#3FA3AD" d="M580.358,76.725c0.692,3.112-1.844,6.799-5.991,6.799c-2.536,0-4.727-1.498-5.533-3.803l-4.84-15.443
			h-23.279c-1.613,5.302-2.996,10.257-4.61,15.443c-0.69,2.189-3.112,3.803-5.762,3.803c-3.458,0-6.915-3.342-5.648-6.915v0.115
			L546.592,3.89c0.806-2.189,3.227-3.803,5.878-3.803c2.533,0,4.84,1.613,5.646,3.803l22.128,72.835H580.358z M560.881,53.676
			l-8.411-31.808l-8.646,31.808H560.881z"/>
		<path fill="#3FA3AD" d="M661.144,82.833c-3.345,0-6.109-2.305-6.109-5.301V5.964c0-2.881,2.765-5.187,6.109-5.187h16.595
			c13.367,0,24.201,10.487,24.201,23.51v34.919c0,13.023-10.834,23.625-24.201,23.625H661.144z M667.021,72.115h10.718
			c6.8,0,12.217-5.762,12.217-12.908V24.288c0-7.145-5.417-12.908-12.217-12.908h-10.718V72.115z"/>
		<path fill="#3FA3AD" d="M780.188,77.532c0,2.997-2.649,5.301-5.991,5.301h-32.155c-3.227,0-5.878-2.305-5.878-5.301V5.964
			c0-2.881,2.651-5.187,5.878-5.187h31.808c3.342,0,5.994,2.305,5.994,5.187c0,2.996-2.652,5.416-5.994,5.416h-25.698v22.012h22.473
			c3.342,0,5.993,2.42,5.993,5.417c0,2.881-2.651,5.186-5.993,5.186h-22.473v28.12h26.046
			C777.539,72.115,780.188,74.42,780.188,77.532z"/>
		<path fill="#3FA3AD" d="M847.262,80.528l-26.508-53.244l1.038,50.824c0,2.996-2.651,5.416-5.993,5.416
			c-3.227,0-5.992-2.42-5.992-5.416V5.388c0-2.996,2.995-5.301,5.992-5.301c2.19,0,4.379,1.382,5.301,2.996l26.507,53.013
			L846.57,5.388c0-2.996,2.651-5.301,5.993-5.301s5.993,2.305,5.993,5.301v72.721c0,2.535-1.959,4.609-4.61,5.301l0.231-0.115
			c-0.692,0.23-1.038,0.23-1.614,0.23C850.488,83.524,848.183,82.257,847.262,80.528z"/>
		<path fill="#3FA3AD" d="M158.799,5.388c0-2.996,2.65-5.301,5.877-5.301c3.342,0,5.993,2.305,5.993,5.301v72.721
			c0,2.996-2.65,5.416-5.993,5.416c-3.227,0-5.877-2.42-5.877-5.416V5.388z"/>
		<path fill="#3FA3AD" d="M611.819,5.388c0-2.996,2.649-5.301,5.877-5.301c3.342,0,5.991,2.305,5.991,5.301v72.721
			c0,2.996-2.649,5.416-5.991,5.416c-3.228,0-5.877-2.42-5.877-5.416V5.388z"/>
		<path fill="#3FA3AD" d="M287.637,72.115h26.506c3.342,0,5.994,2.42,5.994,5.417c0,2.997-2.652,5.301-5.994,5.301h-32.499
			c-3.342,0-5.993-2.305-5.993-5.301V5.388c0-2.996,2.65-5.301,5.877-5.301c3.128,0,5.797,2.026,6.108,4.739V72.115z"/>
	</g>
</g>
<g id="Yellow" display="none">
	<g display="inline">
		<path fill="#BD8B00" d="M0.108,63.011c0-2.996,2.65-5.301,5.877-5.301c3.342,0,6.108,2.305,6.108,5.301
			c0,5.071,4.033,9.911,11.755,9.911c7.375,0,12.101-4.149,12.101-10.372c0-4.956-1.152-9.219-8.183-13.83l-3.111-1.844
			c-7.606-4.264-9.681-5.646-11.871-7.03C5.41,34.891,0.8,29.128,0.8,20.485C0.8,7.692,11.402,0.087,23.618,0.087
			c12.793,0,22.819,7.49,22.819,19.707c0,2.997-2.651,5.302-5.993,5.302c-3.342,0-5.993-2.305-5.993-5.302
			c0-5.301-3.458-9.104-10.833-9.104c-7.491,0-10.833,4.955-10.833,9.681c0,2.535,0,5.993,6.224,10.372
			c1.844,1.498,6.684,4.495,14.636,8.989c8.874,5.187,14.29,13.138,14.29,22.819c0,13.369-11.754,20.975-24.086,20.975
			C8.982,83.524,0.108,73.498,0.108,63.011z"/>
		<path fill="#BD8B00" d="M127.454,5.388v72.721c0,2.996-2.65,5.416-5.993,5.416c-3.228,0-5.878-2.42-5.878-5.416V43.995H91.266
			v34.113c0,2.996-2.65,5.416-5.877,5.416c-3.342,0-6.108-2.42-6.108-5.416V5.388c0-2.996,2.767-5.301,6.108-5.301
			c3.227,0,5.877,2.305,5.877,5.301v28.005h24.317V5.388c0-2.996,2.65-5.301,5.878-5.301C124.803,0.087,127.454,2.392,127.454,5.388
			z"/>
		<path fill="#BD8B00" d="M246.037,77.532c0,2.997-2.651,5.301-5.993,5.301H207.89c-3.227,0-5.877-2.305-5.877-5.301V5.964
			c0-2.881,2.65-5.187,5.877-5.187h31.808c3.343,0,5.993,2.305,5.993,5.187c0,2.996-2.65,5.416-5.993,5.416h-25.699v22.012h22.473
			c3.342,0,5.993,2.42,5.993,5.417c0,2.881-2.651,5.186-5.993,5.186h-22.473v28.12h26.045
			C243.386,72.115,246.037,74.42,246.037,77.532z"/>
		<path fill="#BD8B00" d="M355.864,82.833c-3.342,0-6.109-2.305-6.109-5.301V5.964c0-2.881,2.768-5.187,6.109-5.187h16.595
			c13.367,0,24.201,10.487,24.201,23.51v34.919c0,13.023-10.834,23.625-24.201,23.625H355.864z M361.741,72.115h10.718
			c6.8,0,12.217-5.762,12.217-12.908V24.288c0-7.145-5.417-12.908-12.217-12.908h-10.718V72.115z"/>
		<path fill="#BD8B00" d="M482.633,78.108V29.935l-14.521,29.503c-1.038,1.728-2.997,2.996-5.417,2.996
			c-2.305,0-4.264-1.038-5.301-2.881L442.988,30.05v48.058c0,2.996-2.649,5.416-5.991,5.416c-3.228,0-5.877-2.42-5.877-5.416V5.388
			c0-2.996,2.649-5.301,5.877-5.301c2.305,0,4.493,1.267,5.301,2.996l20.398,42.065c6.8-13.599,13.83-28.466,20.514-42.065
			c0.922-1.729,2.997-2.996,5.417-2.996c3.573,0,5.878,2.766,5.878,5.301v72.721c0,2.996-2.652,5.416-5.878,5.416
			C485.285,83.524,482.633,81.104,482.633,78.108z"/>
		<path fill="#BD8B00" d="M580.358,76.725c0.692,3.112-1.844,6.799-5.991,6.799c-2.536,0-4.727-1.498-5.533-3.803l-4.84-15.443
			h-23.279c-1.613,5.302-2.996,10.257-4.61,15.443c-0.69,2.189-3.112,3.803-5.762,3.803c-3.458,0-6.915-3.342-5.648-6.915v0.115
			L546.592,3.89c0.806-2.189,3.227-3.803,5.878-3.803c2.533,0,4.84,1.613,5.646,3.803l22.128,72.835H580.358z M560.881,53.676
			l-8.411-31.808l-8.646,31.808H560.881z"/>
		<path fill="#BD8B00" d="M661.144,82.833c-3.345,0-6.109-2.305-6.109-5.301V5.964c0-2.881,2.765-5.187,6.109-5.187h16.595
			c13.367,0,24.201,10.487,24.201,23.51v34.919c0,13.023-10.834,23.625-24.201,23.625H661.144z M667.021,72.115h10.718
			c6.8,0,12.217-5.762,12.217-12.908V24.288c0-7.145-5.417-12.908-12.217-12.908h-10.718V72.115z"/>
		<path fill="#BD8B00" d="M780.188,77.532c0,2.997-2.649,5.301-5.991,5.301h-32.155c-3.227,0-5.878-2.305-5.878-5.301V5.964
			c0-2.881,2.651-5.187,5.878-5.187h31.808c3.342,0,5.994,2.305,5.994,5.187c0,2.996-2.652,5.416-5.994,5.416h-25.698v22.012h22.473
			c3.342,0,5.993,2.42,5.993,5.417c0,2.881-2.651,5.186-5.993,5.186h-22.473v28.12h26.046
			C777.539,72.115,780.188,74.42,780.188,77.532z"/>
		<path fill="#BD8B00" d="M847.262,80.528l-26.508-53.244l1.038,50.824c0,2.996-2.651,5.416-5.993,5.416
			c-3.227,0-5.992-2.42-5.992-5.416V5.388c0-2.996,2.995-5.301,5.992-5.301c2.19,0,4.379,1.382,5.301,2.996l26.507,53.013
			L846.57,5.388c0-2.996,2.651-5.301,5.993-5.301s5.993,2.305,5.993,5.301v72.721c0,2.535-1.959,4.609-4.61,5.301l0.231-0.115
			c-0.692,0.23-1.038,0.23-1.614,0.23C850.488,83.524,848.183,82.257,847.262,80.528z"/>
		<path fill="#BD8B00" d="M158.799,5.388c0-2.996,2.65-5.301,5.877-5.301c3.342,0,5.993,2.305,5.993,5.301v72.721
			c0,2.996-2.65,5.416-5.993,5.416c-3.227,0-5.877-2.42-5.877-5.416V5.388z"/>
		<path fill="#BD8B00" d="M611.819,5.388c0-2.996,2.649-5.301,5.877-5.301c3.342,0,5.991,2.305,5.991,5.301v72.721
			c0,2.996-2.649,5.416-5.991,5.416c-3.228,0-5.877-2.42-5.877-5.416V5.388z"/>
		<path fill="#BD8B00" d="M287.637,72.115h26.506c3.342,0,5.994,2.42,5.994,5.417c0,2.997-2.652,5.301-5.994,5.301h-32.499
			c-3.342,0-5.993-2.305-5.993-5.301V5.388c0-2.996,2.65-5.301,5.877-5.301c3.128,0,5.797,2.026,6.108,4.739V72.115z"/>
	</g>
</g>
</svg>
