<?xml version="1.0" encoding="utf-8"?>
<!-- Generator: Adobe Illustrator 16.0.0, SVG Export Plug-In . SVG Version: 6.00 Build 0)  -->
<!DOCTYPE svg PUBLIC "-//W3C//DTD SVG 1.1//EN" "http://www.w3.org/Graphics/SVG/1.1/DTD/svg11.dtd">
<svg version="1.1" id="Layer_1" xmlns="http://www.w3.org/2000/svg" xmlns:xlink="http://www.w3.org/1999/xlink" x="0px" y="0px"
	 width="713.416px" height="156.955px" viewBox="0 0 713.416 156.955" enable-background="new 0 0 713.416 156.955"
	 xml:space="preserve">
<g>
	<path fill="#4CB5BC" d="M4.337,13.169v57.364v6.435v5.302c0,38.844,9.58,48.412,32.685,56.974
		c13.713,5.08,21.374,9.742,24.026,11.508c0.209,0.137,1.667,0.268,1.907,0.314v-27.177L19.262,98.51V47.649l43.693-25.011V5.932
		c-26.234,5.067-50.194,5.586-56.817,5.628C5.144,11.56,4.337,12.28,4.337,13.169"/>
	<path fill="#C5EAF4" d="M120.701,13.169v57.364v6.435v5.302c0,38.844-9.438,48.412-32.197,56.974
		c-13.509,5.08-21.056,9.742-23.668,11.508c-0.206,0.137-1.642,0.268-1.88,0.314v-27.177l45.013-25.379V47.649L62.956,22.638V5.932
		c25.845,5.067,49.447,5.586,55.972,5.628C119.907,11.56,120.701,12.28,120.701,13.169"/>
	<path fill="#FFFFFF" d="M62.956,153.598c-0.816,0-1.632-0.23-2.328-0.695c-2.604-1.73-10.116-6.299-23.651-11.312
		c-11.559-4.283-20.442-9.001-26.223-18.104c-5.574-8.774-8.059-21.482-8.059-41.204V12.921c0-2.137,1.824-3.876,4.067-3.876
		c6.693-0.042,30.509-0.57,55.354-5.604c0.55-0.111,1.132-0.112,1.684,0c24.836,5.033,48.645,5.562,55.36,5.604
		c2.24,0.004,4.061,1.742,4.061,3.876v69.361c0,40.128-10.108,50.349-34.284,59.308c-13.534,5.014-21.047,9.582-23.649,11.312
		C64.589,153.365,63.772,153.596,62.956,153.598 M8.76,13.544c-0.857,0.014-1.545,0.711-1.545,1.569v67.169
		c0,39.171,10.034,47.176,31.332,55.067c12.093,4.482,19.613,8.67,23.192,10.896c0.746,0.465,1.686,0.465,2.433,0
		c3.578-2.227,11.098-6.414,23.192-10.896c21.299-7.892,31.333-15.897,31.333-55.067V15.113c0-0.858-0.688-1.555-1.545-1.569
		c-8.698-0.136-30.818-0.962-53.893-5.599c-0.2-0.04-0.408-0.04-0.608,0C39.578,12.582,17.459,13.408,8.76,13.544 M6.778,13.566
		H6.775H6.778z"/>
	<path fill="#3FA3AD" d="M62.956,156.955c-0.853,0-1.705-0.242-2.433-0.727c-2.719-1.809-10.568-6.58-24.708-11.818
		c-12.076-4.475-21.356-9.402-27.395-18.911C2.597,116.332,0,103.056,0,82.452V9.991c0-2.232,1.906-4.049,4.249-4.049
		c6.993-0.044,31.873-0.595,57.828-5.855c0.575-0.115,1.183-0.116,1.759,0.001c25.946,5.257,50.819,5.81,57.836,5.854
		c2.34,0.005,4.241,1.82,4.241,4.049v72.461c0,41.922-10.559,52.601-35.816,61.958c-14.14,5.238-21.988,10.01-24.706,11.818
		C64.662,156.713,63.809,156.953,62.956,156.955 M6.223,10.052c-1.113,0.019-2.001,0.927-2.001,2.041v70.393
		c0,41.275,10.573,49.709,33.015,58.026c12.255,4.541,20.053,8.797,23.987,11.201c1.064,0.65,2.399,0.65,3.464,0
		c3.933-2.404,11.73-6.66,23.987-11.201c22.442-8.317,33.016-16.752,33.016-58.026v-70.05c0-1.302-1.041-2.366-2.343-2.39
		c-9.66-0.178-32.571-1.131-56.393-5.952C38.851,8.972,15.679,9.89,6.223,10.052 M3.762,10.082H3.759H3.762z"/>
	<path d="M62.96,123.819c-0.823,0-1.637-0.218-2.349-0.63l-39.562-22.877c-1.446-0.836-2.344-2.392-2.344-4.062V50.497
		c0-1.67,0.898-3.226,2.344-4.062l39.562-22.877c0.712-0.412,1.525-0.63,2.349-0.63c0.824,0,1.636,0.218,2.35,0.63l39.554,22.877
		c1.446,0.837,2.345,2.396,2.343,4.067l-0.051,45.754c-0.001,1.666-0.897,3.22-2.34,4.055l-39.504,22.877
		C64.599,123.602,63.786,123.819,62.96,123.819 M66.017,115.646l25.102-14.537l-25.102,3.843V115.646z M59.844,115.615v-10.721
		l-25.123-3.806L59.844,115.615z M68.591,98.313l29.755-4.554l-10.567-30.8L68.591,98.313z M57.24,98.257L38.083,62.959
		L27.517,93.753L57.24,98.257z M62.931,95.8L83.23,58.398H42.632L62.931,95.8z M100.999,82.47l0.031-28.202l-8.687,2.978
		L100.999,82.47z M24.878,82.425l8.651-25.21l-8.651-2.966V82.425z M81.388,52.227L62.958,32.177L44.485,52.227H81.388z
		 M89.336,51.751l7.778-2.667L75.27,36.449L89.336,51.751z M36.552,51.727l14.053-15.252l-21.79,12.6L36.552,51.727z"/>
	<path fill="#FFFFFF" d="M62.96,24.408c0.556,0,1.11,0.144,1.608,0.431l39.554,22.878c0.993,0.574,1.604,1.635,1.603,2.782
		l-0.05,45.755c-0.001,1.144-0.611,2.201-1.602,2.775L64.57,121.906c-0.498,0.288-1.053,0.432-1.609,0.432
		c-0.555,0-1.109-0.143-1.606-0.431L21.791,99.03c-0.993-0.574-1.604-1.633-1.604-2.78V50.497c0-1.147,0.611-2.206,1.604-2.78
		l39.563-22.877C61.851,24.552,62.406,24.408,62.96,24.408 M41.106,53.708H84.76L62.959,29.99L41.106,53.708 M88.901,53.466
		l11.771-4.036L67.617,30.312L88.901,53.466 M36.986,53.441L58.289,30.32l-33.03,19.099L36.986,53.441 M23.397,91.304l12.013-35.009
		l-12.013-4.119V91.304 M102.47,91.32l0.043-39.126l-12.052,4.132L102.47,91.32 M62.931,98.905l22.788-41.988H40.144L62.931,98.905
		 M59.962,100.167L37.777,59.291L25.541,94.953L59.962,100.167 M65.866,100.229l34.457-5.274L88.084,59.291L65.866,100.229
		 M61.326,118.183v-14.561l-34.123-5.17L61.326,118.183 M64.537,118.215l34.115-19.757l-34.115,5.222V118.215 M62.96,21.446
		c-1.083,0-2.151,0.287-3.09,0.829L20.308,45.152c-1.901,1.1-3.083,3.147-3.083,5.344V96.25c0,2.197,1.182,4.244,3.083,5.344
		l39.563,22.877c0.938,0.543,2.007,0.829,3.09,0.829c1.085,0,2.155-0.287,3.094-0.831l39.504-22.877
		c1.896-1.098,3.076-3.143,3.079-5.335l0.049-45.754c0.004-2.199-1.178-4.249-3.081-5.35L66.051,22.275
		C65.113,21.733,64.044,21.446,62.96,21.446 M47.864,50.746l15.093-16.382l15.059,16.382H47.864z M89.772,50.037l-6.85-7.45
		l10.637,6.152L89.772,50.037z M32.373,48.728l10.55-6.1l-6.804,7.385L32.373,48.728z M26.359,73.547V56.323l5.288,1.813
		L26.359,73.547z M94.225,58.167l5.321-1.824L99.528,73.62L94.225,58.167z M45.121,59.879h35.621L62.931,92.696L45.121,59.879z
		 M29.495,92.556l8.896-25.926L54.52,96.348L29.495,92.556z M71.315,96.398l16.156-29.769l8.899,25.934L71.315,96.398z
		 M58.364,113.048l-16.123-9.323l16.123,2.443V113.048z M67.499,106.224l16.088-2.462l-16.088,9.316V106.224z"/>
	<polygon fill="#6DCBD0" points="37.777,59.291 25.541,94.952 59.962,100.167 	"/>
	<polygon fill="#6DCBD0" points="58.289,30.32 25.259,49.42 36.987,53.441 	"/>
	<polygon fill="#C5EAF4" points="84.76,53.708 62.959,29.99 41.107,53.708 	"/>
	<polygon fill="#E0FBFB" points="100.672,49.431 67.617,30.312 88.901,53.466 	"/>
	<polygon fill="#4CB5BC" points="23.397,52.177 23.397,91.305 35.411,56.295 	"/>
	<polygon fill="#C5EAF4" points="65.866,100.229 100.322,94.955 88.084,59.291 	"/>
	<polygon fill="#4CB5BC" points="61.326,118.183 61.326,103.622 27.203,98.452 	"/>
	<polygon fill="#E0FBFB" points="90.462,56.326 102.469,91.321 102.513,52.194 	"/>
	<polygon fill="#6DCBD0" points="64.537,118.216 98.652,98.458 64.537,103.68 	"/>
	<polygon fill="#96DADF" points="40.143,56.918 62.931,98.906 85.719,56.918 	"/>
	<path fill="#3FA3AD" d="M104.123,47.717L64.569,24.84c-0.498-0.288-1.054-0.432-1.608-0.432s-1.109,0.144-1.606,0.432L21.79,47.717
		c-0.992,0.574-1.603,1.633-1.603,2.78V96.25c0,1.147,0.611,2.206,1.603,2.78l39.564,22.877c0.497,0.287,1.052,0.431,1.606,0.431
		c0.556,0,1.111-0.144,1.609-0.432l39.504-22.877c0.99-0.574,1.601-1.631,1.602-2.775l0.05-45.755
		C105.727,49.353,105.116,48.292,104.123,47.717 M23.397,52.177l12.013,4.119L23.397,91.305V52.177z M40.143,56.917h45.577
		L62.931,98.906L40.143,56.917z M59.962,100.167l-34.422-5.216l12.237-35.661L59.962,100.167z M41.106,53.708L62.959,29.99
		L84.76,53.708H41.106z M88.901,53.467L67.617,30.312l33.056,19.118L88.901,53.467z M36.987,53.441l-11.728-4.022l33.03-19.099
		L36.987,53.441z M61.326,103.622v14.561L27.203,98.451L61.326,103.622z M88.084,59.291l12.238,35.664l-34.457,5.274L88.084,59.291z
		 M90.461,56.326l12.052-4.131l-0.043,39.126L90.461,56.326z M64.537,118.216v-14.535l34.115-5.222L64.537,118.216z"/>
</g>
<g>
	<path fill="#3FA3AD" d="M183.737,56.855v43.7c0,1.801-1.593,3.255-3.602,3.255c-1.938,0-3.531-1.454-3.531-3.255V80.057h-14.613
		v20.499c0,1.801-1.593,3.255-3.532,3.255c-2.009,0-3.671-1.454-3.671-3.255v-43.7c0-1.801,1.662-3.186,3.671-3.186
		c1.939,0,3.532,1.385,3.532,3.186v16.829h14.613V56.855c0-1.801,1.593-3.186,3.531-3.186
		C182.144,53.67,183.737,55.055,183.737,56.855"/>
	<path fill="#3FA3AD" d="M237.892,99.726c0.415,1.87-1.109,4.086-3.602,4.086c-1.523,0-2.839-0.9-3.324-2.286l-2.908-9.28h-13.99
		c-0.969,3.188-1.801,6.164-2.77,9.28c-0.416,1.315-1.87,2.286-3.464,2.286c-2.077,0-4.154-2.009-3.393-4.156v0.07L217.6,55.955
		c0.484-1.314,1.939-2.285,3.532-2.285c1.523,0,2.909,0.971,3.393,2.285l13.297,43.771H237.892z M226.187,85.874l-5.055-19.113
		l-5.195,19.113H226.187z"/>
	<path fill="#3FA3AD" d="M286.991,99.655c0.416,1.87-0.971,4.156-3.463,4.156c-1.455,0-2.909-0.831-3.462-2.147l-6.51-21.331
		c-0.07,0.069-0.971,0.208-8.035,0.208v20.084c0,1.732-1.592,3.187-3.6,3.187c-1.94,0-3.601-1.454-3.601-3.187V57.202
		c0-1.731,1.661-3.116,3.601-3.116h11.427c7.548,0,13.711,5.888,13.711,13.229c0,4.917-2.77,9.21-6.924,11.564l6.786,20.707
		L286.991,99.655z M273.348,74.17c3.601,0,6.509-3.047,6.509-6.855c0-3.81-2.908-6.857-6.509-6.857h-7.827V74.17H273.348z"/>
	<path fill="#3FA3AD" d="M339.898,100.556V71.608l-8.728,17.729c-0.623,1.039-1.799,1.801-3.254,1.801
		c-1.386,0-2.562-0.624-3.186-1.731l-8.657-17.729v28.879c0,1.802-1.593,3.255-3.601,3.255c-1.939,0-3.532-1.453-3.532-3.255V56.856
		c0-1.802,1.593-3.187,3.532-3.187c1.385,0,2.701,0.762,3.186,1.801l12.258,25.278c4.086-8.172,8.312-17.105,12.328-25.278
		c0.553-1.039,1.801-1.801,3.256-1.801c2.146,0,3.53,1.662,3.53,3.187v43.699c0,1.802-1.592,3.255-3.53,3.255
		C341.491,103.811,339.898,102.357,339.898,100.556"/>
	<path fill="#3FA3AD" d="M398.415,99.794c0,1.802-1.594,3.187-3.602,3.187h-19.529c-2.009,0-3.602-1.385-3.602-3.187V56.856
		c0-1.801,1.593-3.187,3.602-3.187c2.008,0,3.602,1.386,3.602,3.187v39.683h15.928C396.821,96.539,398.415,97.993,398.415,99.794"/>
	<path fill="#3FA3AD" d="M445.436,100.21c0,1.802-1.593,3.187-3.602,3.187h-19.322c-1.938,0-3.531-1.385-3.531-3.187V57.202
		c0-1.73,1.594-3.116,3.531-3.116h19.115c2.008,0,3.601,1.386,3.601,3.116c0,1.801-1.593,3.255-3.601,3.255h-15.444v13.229h13.505
		c2.008,0,3.602,1.455,3.602,3.255c0,1.73-1.594,3.117-3.602,3.117h-13.505v16.897h15.651
		C443.843,96.955,445.436,98.34,445.436,100.21"/>
	<path fill="#3FA3AD" d="M463.301,91.483c0-1.801,1.593-3.186,3.532-3.186c2.009,0,3.671,1.385,3.671,3.186
		c0,3.048,2.424,5.956,7.063,5.956c4.433,0,7.272-2.493,7.272-6.232c0-2.979-0.693-5.54-4.918-8.311l-1.87-1.108
		c-4.57-2.562-5.817-3.394-7.133-4.225c-4.433-2.978-7.203-6.439-7.203-11.635c0-7.688,6.372-12.258,13.713-12.258
		c7.687,0,13.713,4.501,13.713,11.842c0,1.801-1.594,3.186-3.602,3.186c-2.01,0-3.601-1.385-3.601-3.186
		c0-3.185-2.078-5.47-6.511-5.47c-4.501,0-6.51,2.977-6.51,5.816c0,1.523,0,3.603,3.74,6.232c1.107,0.9,4.017,2.702,8.795,5.403
		c5.332,3.115,8.588,7.894,8.588,13.712c0,8.033-7.064,12.604-14.475,12.604C468.633,103.811,463.301,97.786,463.301,91.483"/>
	<path fill="#3FA3AD" d="M510.946,91.483c0-1.801,1.593-3.186,3.532-3.186c2.008,0,3.67,1.385,3.67,3.186
		c0,3.048,2.425,5.956,7.064,5.956c4.433,0,7.271-2.493,7.271-6.232c0-2.979-0.692-5.54-4.917-8.311l-1.87-1.108
		c-4.57-2.562-5.817-3.394-7.134-4.225c-4.432-2.978-7.202-6.439-7.202-11.635c0-7.688,6.372-12.258,13.713-12.258
		c7.687,0,13.713,4.501,13.713,11.842c0,1.801-1.594,3.186-3.602,3.186c-2.01,0-3.602-1.385-3.602-3.186
		c0-3.185-2.077-5.47-6.51-5.47c-4.501,0-6.511,2.977-6.511,5.816c0,1.523,0,3.603,3.74,6.232c1.108,0.9,4.017,2.702,8.795,5.403
		c5.333,3.115,8.589,7.894,8.589,13.712c0,8.033-7.064,12.604-14.475,12.604C516.278,103.811,510.946,97.786,510.946,91.483"/>
	<path fill="#3FA3AD" d="M616.485,103.811c-1.316,0-2.632-0.831-3.394-2.077l-10.804-22.992l-4.294,4.847v16.968
		c0,1.801-1.593,3.255-3.602,3.255c-2.008,0-3.67-1.454-3.67-3.255v-43.7c0-1.801,1.662-3.186,3.67-3.186
		c2.009,0,3.602,1.385,3.602,3.186v17.037c5.194-6.371,10.388-12.812,15.583-19.113c0.623-0.693,1.801-1.109,2.839-1.109
		c2.632,0,4.433,3.118,2.771,5.195l-11.704,14.266l12.188,26.11C620.501,101.111,619.117,103.811,616.485,103.811"/>
	<path fill="#3FA3AD" d="M666.415,100.21c0,1.802-1.593,3.187-3.601,3.187h-19.322c-1.939,0-3.532-1.385-3.532-3.187V57.202
		c0-1.73,1.593-3.116,3.532-3.116h19.114c2.009,0,3.602,1.386,3.602,3.116c0,1.801-1.593,3.255-3.602,3.255h-15.444v13.229h13.506
		c2.008,0,3.601,1.455,3.601,3.255c0,1.73-1.593,3.117-3.601,3.117h-13.506v16.897h15.652
		C664.822,96.955,666.415,98.34,666.415,100.21"/>
	<path fill="#3FA3AD" d="M713.16,58.172l-11.22,24.726v17.659c0,1.801-1.523,3.255-3.531,3.255c-2.009,0-3.602-1.454-3.602-3.255
		V82.965l-11.149-24.793c-0.693-1.938,0.761-4.502,3.255-4.502c1.454,0,2.7,0.763,3.255,1.87l8.241,19.253l8.241-19.253
		c0.554-1.107,1.731-1.87,3.255-1.87C712.19,53.67,714.129,55.955,713.16,58.172"/>
</g>
</svg>
