<?xml version="1.0" encoding="utf-8"?>
<!-- Generator: Adobe Illustrator 16.0.0, SVG Export Plug-In . SVG Version: 6.00 Build 0)  -->
<!DOCTYPE svg PUBLIC "-//W3C//DTD SVG 1.1//EN" "http://www.w3.org/Graphics/SVG/1.1/DTD/svg11.dtd">
<svg version="1.1" id="Layer_1" xmlns="http://www.w3.org/2000/svg" xmlns:xlink="http://www.w3.org/1999/xlink" x="0px" y="0px"
	 width="531.275px" height="334.465px" viewBox="0 0 531.275 334.465" enable-background="new 0 0 531.275 334.465"
	 xml:space="preserve">
<g>
	<path fill="#4CB5BC" d="M212.108,21.214v57.364v6.435c0,1.428,0,3.169,0,5.302c0,38.845,9.58,48.413,32.685,56.973
		c13.713,5.081,21.374,9.743,24.026,11.507c0.208,0.14,1.666,0.27,1.907,0.317v-27.178l-43.693-25.379V55.694l43.693-25.011V13.978
		c-26.235,5.067-50.195,5.586-56.817,5.627C212.915,19.605,212.108,20.326,212.108,21.214z"/>
	<path fill="#C5EAF4" d="M328.472,21.214v57.364v6.435c0,1.428,0,3.169,0,5.302c0,38.845-9.438,48.413-32.198,56.973
		c-13.509,5.081-21.055,9.743-23.667,11.507c-0.206,0.14-1.643,0.27-1.88,0.317v-27.178l45.013-25.379V55.694l-45.013-25.011V13.978
		c25.844,5.067,49.447,5.586,55.971,5.627C327.678,19.605,328.472,20.326,328.472,21.214z"/>
	<g>
		<path fill="#FFFFFF" d="M270.727,161.643c-0.816,0-1.632-0.231-2.328-0.694c-2.604-1.731-10.116-6.299-23.651-11.313
			c-11.56-4.283-20.442-9.001-26.224-18.103c-5.574-8.775-8.06-21.483-8.06-41.205V20.966c0-2.137,1.825-3.876,4.068-3.876
			c6.693-0.042,30.508-0.57,55.354-5.604c0.55-0.111,1.132-0.112,1.683,0c24.837,5.032,48.646,5.562,55.361,5.604
			c2.24,0.004,4.061,1.742,4.061,3.876v69.361c0,40.128-10.107,50.349-34.284,59.308c-13.535,5.015-21.048,9.582-23.649,11.312
			C272.359,161.41,271.543,161.642,270.727,161.643z M216.531,21.589c-0.857,0.014-1.545,0.711-1.545,1.569v67.169
			c0,39.171,10.035,47.176,31.333,55.067c12.094,4.481,19.614,8.67,23.193,10.896c0.746,0.465,1.686,0.465,2.433,0
			c3.578-2.225,11.098-6.414,23.192-10.896c21.299-7.892,31.333-15.897,31.333-55.067V23.158c0-0.857-0.688-1.555-1.546-1.569
			c-8.697-0.136-30.818-0.962-53.893-5.599c-0.2-0.041-0.407-0.041-0.607,0C247.349,20.628,225.23,21.453,216.531,21.589z
			 M214.549,21.612c-0.001,0-0.002,0-0.003,0C214.546,21.612,214.546,21.612,214.549,21.612z"/>
	</g>
	<g>
		<path fill="#3FA3AD" d="M270.727,165c-0.854,0-1.705-0.242-2.433-0.726c-2.719-1.809-10.568-6.58-24.708-11.819
			c-12.076-4.475-21.355-9.402-27.396-18.912c-5.823-9.167-8.419-22.443-8.419-43.046V18.036c0-2.232,1.906-4.049,4.25-4.049
			c6.992-0.044,31.872-0.596,57.827-5.855c0.574-0.116,1.183-0.116,1.759,0.001c25.946,5.257,50.819,5.81,57.835,5.854
			c2.34,0.004,4.242,1.819,4.242,4.049v72.461c0,41.922-10.559,52.6-35.816,61.958c-14.14,5.239-21.988,10.011-24.706,11.818
			C272.433,164.758,271.579,164.999,270.727,165z M213.995,18.097c-1.114,0.02-2.002,0.927-2.002,2.041v70.393
			c0,41.274,10.573,49.708,33.015,58.024c12.256,4.541,20.054,8.797,23.987,11.202c1.065,0.651,2.4,0.651,3.465,0
			c3.933-2.404,11.73-6.661,23.987-11.202c22.441-8.316,33.015-16.751,33.015-58.024v-70.05c0-1.302-1.04-2.366-2.342-2.39
			c-9.66-0.178-32.572-1.132-56.393-5.952C246.622,17.017,223.449,17.935,213.995,18.097z M211.533,18.126c-0.001,0-0.002,0-0.003,0
			C211.53,18.126,211.53,18.126,211.533,18.126z"/>
	</g>
	<g>
		<path d="M270.731,131.865c-0.823,0-1.636-0.218-2.349-0.63l-39.563-22.877c-1.445-0.836-2.343-2.392-2.343-4.062V58.542
			c0-1.67,0.898-3.226,2.343-4.062l39.563-22.877c0.713-0.412,1.525-0.63,2.349-0.63s1.636,0.218,2.349,0.63l39.555,22.877
			c1.446,0.837,2.344,2.395,2.343,4.066l-0.051,45.754c-0.002,1.666-0.898,3.22-2.341,4.055l-39.503,22.877
			C272.369,131.646,271.557,131.865,270.731,131.865z M273.788,123.691l25.102-14.537l-25.102,3.842V123.691z M267.615,123.66
			v-10.72l-25.123-3.807L267.615,123.66z M276.361,106.358l29.756-4.554l-10.568-30.799L276.361,106.358z M265.012,106.303
			l-19.157-35.298l-10.566,30.794L265.012,106.303z M270.702,103.846l20.299-37.402h-40.599L270.702,103.846z M308.77,90.516
			l0.031-28.202l-8.687,2.978L308.77,90.516z M232.649,90.471l8.65-25.21l-8.65-2.966V90.471z M289.158,60.271l-18.43-20.049
			l-18.473,20.049H289.158z M297.106,59.797l7.78-2.667l-21.846-12.635L297.106,59.797z M244.323,59.771l14.054-15.252l-21.79,12.6
			L244.323,59.771z"/>
		<path fill="#FFFFFF" d="M270.731,32.453c0.556,0,1.11,0.144,1.607,0.432l39.554,22.877c0.994,0.574,1.604,1.635,1.604,2.783
			l-0.05,45.754c-0.002,1.145-0.611,2.202-1.602,2.775l-39.504,22.877c-0.498,0.289-1.054,0.432-1.609,0.432
			c-0.555,0-1.11-0.144-1.607-0.431l-39.563-22.877c-0.993-0.574-1.604-1.633-1.604-2.78V58.542c0-1.146,0.611-2.206,1.604-2.78
			l39.563-22.877C269.621,32.597,270.177,32.453,270.731,32.453 M248.878,61.752h43.653l-21.802-23.717L248.878,61.752
			 M296.672,61.512l11.771-4.036l-33.056-19.118L296.672,61.512 M244.757,61.486l21.302-23.121l-33.03,19.1L244.757,61.486
			 M231.168,99.35l12.013-35.009l-12.013-4.119V99.35 M310.24,99.366l0.043-39.126l-12.051,4.132L310.24,99.366 M270.702,106.951
			l22.788-41.988h-45.577L270.702,106.951 M267.733,108.212l-22.186-40.877l-12.237,35.662L267.733,108.212 M273.637,108.274
			L308.093,103l-12.237-35.664L273.637,108.274 M269.097,126.228v-14.561l-34.123-5.17L269.097,126.228 M272.307,126.261
			l34.116-19.757l-34.116,5.222V126.261 M270.731,29.492c-1.083,0-2.151,0.287-3.09,0.829l-39.563,22.877
			c-1.901,1.1-3.083,3.147-3.083,5.344v45.754c0,2.197,1.181,4.244,3.083,5.344l39.563,22.877c0.938,0.542,2.007,0.829,3.09,0.829
			c1.085,0,2.154-0.287,3.094-0.831l39.503-22.877c1.897-1.099,3.077-3.143,3.08-5.335l0.05-45.754
			c0.003-2.199-1.179-4.249-3.082-5.35l-39.554-22.877C272.884,29.778,271.815,29.492,270.731,29.492L270.731,29.492z
			 M255.634,58.791l15.094-16.382l15.058,16.382H255.634L255.634,58.791z M297.542,58.082l-6.849-7.451l10.637,6.152L297.542,58.082
			L297.542,58.082z M240.143,56.773l10.55-6.101l-6.804,7.385L240.143,56.773L240.143,56.773z M234.13,81.592V64.368l5.288,1.813
			L234.13,81.592L234.13,81.592z M301.996,66.212l5.321-1.825l-0.02,17.278L301.996,66.212L301.996,66.212z M252.891,67.925h35.622
			l-17.811,32.817L252.891,67.925L252.891,67.925z M237.265,100.601l8.896-25.926l16.129,29.718L237.265,100.601L237.265,100.601z
			 M279.086,104.443l16.156-29.769l8.899,25.934L279.086,104.443L279.086,104.443z M266.134,121.094l-16.123-9.323l16.123,2.443
			V121.094L266.134,121.094z M275.269,114.269l16.089-2.463l-16.089,9.317V114.269L275.269,114.269z"/>
	</g>
	<g>
		<polygon fill="#6DCBD0" points="245.548,67.335 233.312,102.997 267.733,108.212 		"/>
		<polygon fill="#6DCBD0" points="266.06,38.365 233.029,57.465 244.757,61.486 		"/>
		<polygon fill="#C5EAF4" points="292.531,61.752 270.729,38.035 248.878,61.752 		"/>
		<polygon fill="#E0FBFB" points="308.443,57.476 275.388,38.357 296.672,61.512 		"/>
		<polygon fill="#4CB5BC" points="231.168,60.222 231.168,99.35 243.182,64.34 		"/>
		<polygon fill="#C5EAF4" points="273.637,108.274 308.093,103 295.855,67.335 		"/>
		<polygon fill="#4CB5BC" points="269.096,126.228 269.096,111.667 234.974,106.496 		"/>
		<polygon fill="#E0FBFB" points="298.232,64.371 310.24,99.366 310.283,60.239 		"/>
		<polygon fill="#6DCBD0" points="272.307,126.261 306.423,106.504 272.307,111.725 		"/>
		<polygon fill="#96DADF" points="247.914,64.963 270.701,106.951 293.49,64.963 		"/>
	</g>
	<path fill="#3FA3AD" d="M311.893,55.762l-39.554-22.877c-0.497-0.288-1.052-0.432-1.607-0.432c-0.555,0-1.11,0.144-1.607,0.431
		l-39.563,22.877c-0.993,0.574-1.604,1.633-1.604,2.78v45.754c0,1.146,0.611,2.206,1.604,2.78l39.563,22.877
		c0.497,0.288,1.053,0.431,1.607,0.431c0.556,0,1.111-0.144,1.609-0.432l39.504-22.877c0.99-0.574,1.6-1.631,1.602-2.775
		l0.05-45.754C313.497,57.397,312.887,56.336,311.893,55.762z M231.168,60.222l12.013,4.119L231.168,99.35V60.222z M247.914,64.963
		h45.577l-22.788,41.988L247.914,64.963z M267.733,108.212l-34.422-5.215l12.237-35.662L267.733,108.212z M248.878,61.752
		l21.852-23.717l21.802,23.717H248.878z M296.672,61.512l-21.284-23.154l33.056,19.118L296.672,61.512z M244.757,61.486
		l-11.728-4.021l33.03-19.1L244.757,61.486z M269.097,111.667v14.561l-34.123-19.731L269.097,111.667z M295.855,67.336L308.093,103
		l-34.456,5.274L295.855,67.336z M298.232,64.371l12.051-4.132l-0.043,39.126L298.232,64.371z M272.307,126.261v-14.535
		l34.116-5.222L272.307,126.261z"/>
</g>
<g>
	<g>
		<path fill="#3FA3AD" d="M107.227,207.186v43.7c0,1.801-1.593,3.255-3.602,3.255c-1.938,0-3.532-1.454-3.532-3.255v-20.499H85.481
			v20.499c0,1.801-1.593,3.255-3.533,3.255c-2.008,0-3.67-1.454-3.67-3.255v-43.7c0-1.801,1.662-3.186,3.67-3.186
			c1.939,0,3.533,1.385,3.533,3.186v16.829h14.612v-16.829c0-1.801,1.593-3.186,3.532-3.186
			C105.633,204,107.227,205.385,107.227,207.186z"/>
		<path fill="#3FA3AD" d="M161.381,250.055c0.415,1.87-1.109,4.086-3.602,4.086c-1.524,0-2.839-0.899-3.325-2.285l-2.908-9.28
			h-13.99c-0.97,3.187-1.801,6.164-2.771,9.28c-0.416,1.315-1.87,2.285-3.463,2.285c-2.077,0-4.155-2.009-3.393-4.155v0.069
			l13.158-43.77c0.485-1.315,1.939-2.285,3.532-2.285c1.524,0,2.909,0.97,3.394,2.285l13.297,43.77H161.381z M149.677,236.204
			l-5.056-19.114l-5.194,19.114H149.677z"/>
		<path fill="#3FA3AD" d="M210.48,249.985c0.416,1.87-0.97,4.155-3.463,4.155c-1.455,0-2.909-0.831-3.462-2.146l-6.51-21.33
			c-0.07,0.068-0.97,0.207-8.034,0.207v20.084c0,1.731-1.592,3.186-3.601,3.186c-1.939,0-3.601-1.454-3.601-3.186v-43.423
			c0-1.731,1.662-3.116,3.601-3.116h11.427c7.548,0,13.712,5.887,13.712,13.228c0,4.917-2.771,9.211-6.926,11.565l6.787,20.707
			L210.48,249.985z M196.837,224.5c3.601,0,6.509-3.047,6.509-6.856c0-3.809-2.909-6.856-6.509-6.856h-7.827V224.5H196.837z"/>
		<path fill="#3FA3AD" d="M263.388,250.886v-28.948l-8.727,17.729c-0.624,1.039-1.8,1.801-3.254,1.801
			c-1.386,0-2.563-0.624-3.187-1.732l-8.656-17.729v28.879c0,1.801-1.593,3.255-3.602,3.255c-1.939,0-3.532-1.454-3.532-3.255v-43.7
			c0-1.801,1.593-3.186,3.532-3.186c1.386,0,2.701,0.762,3.186,1.801l12.258,25.278c4.085-8.172,8.311-17.105,12.327-25.278
			c0.554-1.039,1.801-1.801,3.255-1.801c2.146,0,3.531,1.662,3.531,3.186v43.7c0,1.801-1.593,3.255-3.531,3.255
			C264.98,254.141,263.388,252.687,263.388,250.886z"/>
		<path fill="#3FA3AD" d="M321.903,250.124c0,1.801-1.592,3.186-3.601,3.186h-19.529c-2.009,0-3.602-1.385-3.602-3.186v-42.938
			c0-1.801,1.593-3.186,3.602-3.186c2.008,0,3.601,1.385,3.601,3.186v39.684h15.929
			C320.312,246.869,321.903,248.323,321.903,250.124z"/>
		<path fill="#3FA3AD" d="M368.926,250.54c0,1.801-1.593,3.186-3.602,3.186h-19.322c-1.938,0-3.531-1.385-3.531-3.186v-43.008
			c0-1.731,1.593-3.116,3.531-3.116h19.115c2.008,0,3.601,1.385,3.601,3.116c0,1.801-1.593,3.255-3.601,3.255h-15.444v13.228h13.505
			c2.008,0,3.601,1.455,3.601,3.256c0,1.73-1.593,3.116-3.601,3.116h-13.505v16.898h15.651
			C367.333,247.285,368.926,248.67,368.926,250.54z"/>
		<path fill="#3FA3AD" d="M386.791,241.813c0-1.801,1.593-3.186,3.532-3.186c2.008,0,3.671,1.385,3.671,3.186
			c0,3.048,2.424,5.956,7.063,5.956c4.433,0,7.272-2.493,7.272-6.233c0-2.978-0.693-5.54-4.918-8.31l-1.87-1.109
			c-4.57-2.562-5.817-3.393-7.133-4.224c-4.433-2.979-7.203-6.44-7.203-11.635c0-7.688,6.372-12.259,13.713-12.259
			c7.688,0,13.713,4.502,13.713,11.843c0,1.801-1.594,3.186-3.602,3.186c-2.009,0-3.601-1.385-3.601-3.186
			c0-3.186-2.078-5.471-6.511-5.471c-4.501,0-6.51,2.978-6.51,5.817c0,1.523,0,3.602,3.739,6.232c1.108,0.9,4.017,2.701,8.796,5.402
			c5.332,3.116,8.588,7.895,8.588,13.712c0,8.034-7.064,12.604-14.475,12.604C392.123,254.141,386.791,248.115,386.791,241.813z"/>
		<path fill="#3FA3AD" d="M434.436,241.813c0-1.801,1.593-3.186,3.532-3.186c2.008,0,3.67,1.385,3.67,3.186
			c0,3.048,2.425,5.956,7.064,5.956c4.433,0,7.271-2.493,7.271-6.233c0-2.978-0.692-5.54-4.917-8.31l-1.87-1.109
			c-4.571-2.562-5.817-3.393-7.134-4.224c-4.432-2.979-7.202-6.44-7.202-11.635c0-7.688,6.372-12.259,13.713-12.259
			c7.687,0,13.713,4.502,13.713,11.843c0,1.801-1.594,3.186-3.602,3.186c-2.009,0-3.602-1.385-3.602-3.186
			c0-3.186-2.077-5.471-6.51-5.471c-4.501,0-6.511,2.978-6.511,5.817c0,1.523,0,3.602,3.74,6.232c1.108,0.9,4.017,2.701,8.795,5.402
			c5.333,3.116,8.589,7.895,8.589,13.712c0,8.034-7.064,12.604-14.475,12.604C439.768,254.141,434.436,248.115,434.436,241.813z"/>
	</g>
	<g>
		<path fill="#3FA3AD" d="M235.143,322.141c-1.316,0-2.631-0.831-3.393-2.077l-10.804-22.993l-4.293,4.848v16.968
			c0,1.801-1.593,3.255-3.602,3.255s-3.671-1.454-3.671-3.255v-43.7c0-1.801,1.663-3.186,3.671-3.186s3.602,1.385,3.602,3.186
			v17.037c5.194-6.371,10.388-12.812,15.582-19.114c0.624-0.692,1.801-1.108,2.839-1.108c2.632,0,4.432,3.117,2.771,5.194
			l-11.705,14.267l12.189,26.109C239.16,319.44,237.775,322.141,235.143,322.141z"/>
		<path fill="#3FA3AD" d="M285.073,318.54c0,1.801-1.593,3.186-3.601,3.186h-19.323c-1.938,0-3.532-1.385-3.532-3.186v-43.008
			c0-1.731,1.593-3.116,3.532-3.116h19.114c2.01,0,3.602,1.385,3.602,3.116c0,1.801-1.592,3.255-3.602,3.255H265.82v13.228h13.505
			c2.009,0,3.601,1.455,3.601,3.256c0,1.73-1.592,3.116-3.601,3.116H265.82v16.898h15.652
			C283.48,315.285,285.073,316.67,285.073,318.54z"/>
		<path fill="#3FA3AD" d="M331.818,276.502l-11.22,24.725v17.659c0,1.801-1.523,3.255-3.532,3.255c-2.008,0-3.602-1.454-3.602-3.255
			v-17.591l-11.149-24.793c-0.692-1.939,0.762-4.502,3.255-4.502c1.454,0,2.701,0.762,3.255,1.87l8.241,19.253l8.242-19.253
			c0.554-1.108,1.73-1.87,3.254-1.87C330.849,272,332.788,274.285,331.818,276.502z"/>
	</g>
</g>
</svg>
