<?xml version="1.0" encoding="utf-8"?>
<!-- Generator: Adobe Illustrator 16.0.0, SVG Export Plug-In . SVG Version: 6.00 Build 0)  -->
<!DOCTYPE svg PUBLIC "-//W3C//DTD SVG 1.1//EN" "http://www.w3.org/Graphics/SVG/1.1/DTD/svg11.dtd">
<svg version="1.1" id="Layer_1" xmlns="http://www.w3.org/2000/svg" xmlns:xlink="http://www.w3.org/1999/xlink" x="0px" y="0px"
	 viewBox="0 0 283.465 283.465" enable-background="new 0 0 283.465 283.465"
	 xml:space="preserve">
<g>
	<polygon fill="#999999" points="73.832,103.157 40.476,200.365 134.305,214.582 	"/>
	<polygon fill="#999999" points="129.743,24.189 39.708,76.251 71.676,87.212 	"/>
	<polygon fill="#E1E1E1" points="201.899,87.938 142.473,23.288 82.909,87.938 	"/>
	<polygon fill="#FAFAFA" points="245.273,76.28 155.169,24.167 213.186,87.282 	"/>
	<polygon fill="#666666" points="34.635,83.766 34.635,190.423 67.38,94.992 	"/>
	<polygon fill="#E1E1E1" points="150.397,214.749 244.32,200.372 210.961,103.157 	"/>
	<polygon fill="#666666" points="138.02,263.688 138.02,223.997 45.007,209.903 	"/>
	<polygon fill="#FAFAFA" points="217.442,95.077 250.172,190.465 250.291,83.814 	"/>
	<polygon fill="#999999" points="146.772,263.776 239.767,209.923 146.772,224.156 	"/>
	<polygon fill="#CCCCCC" points="80.28,96.689 142.396,211.142 204.514,96.689 	"/>
</g>
</svg>
