<?xml version="1.0" encoding="utf-8"?>
<!-- Generator: Adobe Illustrator 16.0.0, SVG Export Plug-In . SVG Version: 6.00 Build 0)  -->
<!DOCTYPE svg PUBLIC "-//W3C//DTD SVG 1.1//EN" "http://www.w3.org/Graphics/SVG/1.1/DTD/svg11.dtd">
<svg version="1.1" id="Layer_1" xmlns="http://www.w3.org/2000/svg" xmlns:xlink="http://www.w3.org/1999/xlink" x="0px" y="0px"
	 width="192px" height="192px" viewBox="0 0 192 192" enable-background="new 0 0 192 192" xml:space="preserve">
<polygon fill="#B9BBBE" points="50.009,69.872 27.416,135.714 90.969,145.344 "/>
<polygon fill="#B9BBBE" points="87.879,16.384 26.896,51.647 48.548,59.071 "/>
<polygon fill="#E1E3E6" points="136.753,59.563 96.502,15.774 56.157,59.563 "/>
<polygon fill="#FAFCFF" points="166.131,51.667 105.102,16.369 144.398,59.119 "/>
<polygon fill="#72767D" points="23.459,56.737 23.459,128.979 45.639,64.341 "/>
<polygon fill="#E1E3E6" points="101.869,145.457 165.486,135.719 142.891,69.872 "/>
<polygon fill="#72767D" points="93.485,178.604 93.485,151.721 30.485,142.174 "/>
<polygon fill="#FAFCFF" points="147.28,64.399 169.449,129.008 169.53,56.77 "/>
<polygon fill="#B9BBBE" points="99.414,178.664 162.402,142.188 99.414,151.828 "/>
<polygon fill="#CDCFD2" points="54.376,65.491 96.449,143.014 138.523,65.491 "/>
</svg>
