<?xml version="1.0" encoding="utf-8"?>
<!-- Generator: Adobe Illustrator 16.0.0, SVG Export Plug-In . SVG Version: 6.00 Build 0)  -->
<!DOCTYPE svg PUBLIC "-//W3C//DTD SVG 1.1//EN" "http://www.w3.org/Graphics/SVG/1.1/DTD/svg11.dtd">
<svg version="1.1" id="Layer_1" xmlns="http://www.w3.org/2000/svg" xmlns:xlink="http://www.w3.org/1999/xlink" x="0px" y="0px"
	 width="283.465px" height="283.465px" viewBox="0 0 283.465 283.465" enable-background="new 0 0 283.465 283.465"
	 xml:space="preserve">
<g>
	<path fill="#4CB5BC" d="M43.508,31.272v96.84v10.862c0,2.411,0,5.35,0,8.95c0,65.576,16.173,81.728,55.177,96.18
		c23.15,8.577,36.082,16.448,40.56,19.426c0.352,0.234,2.813,0.454,3.221,0.535v-45.881l-74.138-42.844V89.479l74.138-42.222V19.055
		c-44.289,8.554-84.737,9.43-95.917,9.5C44.869,28.555,43.508,29.771,43.508,31.272z"/>
	<path fill="#C5EAF4" d="M239.947,31.272v96.84v10.862c0,2.411,0,5.35,0,8.95c0,65.576-15.932,81.728-54.354,96.18
		c-22.806,8.577-35.545,16.448-39.955,19.426c-0.347,0.234-2.771,0.454-3.172,0.535v-45.881l74.988-42.844V89.479l-74.988-42.222
		V19.055c43.628,8.554,83.474,9.43,94.488,9.5C238.607,28.555,239.947,29.771,239.947,31.272z"/>
	<g>
		<path fill="#FFFFFF" d="M142.464,268.337c-1.377,0-2.754-0.391-3.93-1.173c-4.394-2.923-17.077-10.633-39.926-19.099
			c-19.515-7.23-34.51-15.194-44.27-30.561c-9.41-14.813-13.606-36.267-13.606-69.56V30.853c0-3.607,3.081-6.543,6.867-6.543
			c11.299-0.071,51.503-0.962,93.445-9.46c0.929-0.188,1.912-0.188,2.842,0.001c41.928,8.495,82.12,9.388,93.458,9.459
			c3.781,0.007,6.854,2.94,6.854,6.543v117.092c0,67.742-17.062,84.997-57.876,100.12c-22.849,8.466-35.531,16.176-39.924,19.098
			C145.222,267.945,143.843,268.336,142.464,268.337z M50.974,31.905c-1.447,0.022-2.609,1.2-2.609,2.648l0,113.392
			c0,66.127,16.939,79.64,52.894,92.963c20.416,7.565,33.111,14.636,39.153,18.394c1.26,0.784,2.846,0.784,4.106,0
			c6.04-3.757,18.735-10.828,39.152-18.394c35.956-13.323,52.896-26.837,52.896-92.963V34.554c0-1.448-1.161-2.626-2.609-2.648
			c-14.684-0.23-52.026-1.624-90.979-9.452c-0.338-0.068-0.688-0.068-1.026,0C103,30.281,65.659,31.675,50.974,31.905z
			 M47.628,31.942c-0.002,0-0.003,0-0.005,0C47.623,31.942,47.624,31.942,47.628,31.942z"/>
	</g>
	<g>
		<path fill="#3FA3AD" d="M142.464,274.005c-1.439,0-2.877-0.408-4.105-1.225c-4.591-3.054-17.84-11.108-41.711-19.953
			c-20.386-7.554-36.052-15.873-46.248-31.926c-9.83-15.476-14.214-37.888-14.214-72.669V25.907c0-3.769,3.218-6.835,7.174-6.835
			c11.804-0.075,53.806-1.006,97.622-9.884c0.97-0.196,1.997-0.197,2.969,0.001c43.802,8.875,85.79,9.808,97.635,9.882
			c3.95,0.008,7.16,3.071,7.16,6.835v122.326c0,70.77-17.824,88.796-60.463,104.595c-23.87,8.845-37.119,16.899-41.708,19.952
			C145.345,273.596,143.904,274.004,142.464,274.005z M46.692,26.01c-1.88,0.032-3.379,1.565-3.379,3.445V148.29
			c0,69.677,17.849,83.916,55.734,97.953c20.689,7.667,33.854,14.852,40.494,18.912c1.797,1.1,4.051,1.1,5.849,0
			c6.639-4.06,19.803-11.244,40.493-18.912c37.887-14.037,55.735-28.277,55.735-97.953V30.034c0-2.198-1.756-3.994-3.954-4.034
			c-16.308-0.301-54.986-1.911-95.199-10.048C101.772,24.186,62.653,25.736,46.692,26.01z M42.537,26.06c-0.002,0-0.003,0-0.005,0
			C42.531,26.06,42.532,26.06,42.537,26.06z"/>
	</g>
	<g>
		<path d="M142.473,218.067c-1.391,0-2.762-0.368-3.965-1.063l-66.789-38.621c-2.44-1.411-3.956-4.038-3.956-6.856V94.286
			c0-2.818,1.516-5.446,3.956-6.856l66.789-38.62c1.204-0.696,2.575-1.064,3.965-1.064s2.761,0.368,3.965,1.063l66.773,38.621
			c2.442,1.413,3.958,4.043,3.955,6.864l-0.085,77.241c-0.003,2.812-1.517,5.436-3.951,6.846l-66.688,38.62
			C145.238,217.699,143.865,218.067,142.473,218.067z M147.633,204.27l42.376-24.54l-42.376,6.486V204.27z M137.212,204.217v-18.098
			l-42.411-6.426L137.212,204.217z M151.978,175.009l50.232-7.688l-17.841-51.994L151.978,175.009z M132.817,174.914l-32.34-59.588
			l-17.837,51.985L132.817,174.914z M142.423,170.767l34.269-63.14h-68.537L142.423,170.767z M206.688,148.264l0.052-47.61
			l-14.664,5.027L206.688,148.264z M78.184,148.188l14.604-42.559l-14.604-5.007V148.188z M173.581,97.206L142.468,63.36
			l-31.185,33.846H173.581z M186.999,96.405l13.133-4.503l-36.879-21.33L186.999,96.405z M97.891,96.363l23.725-25.749
			L84.831,91.885L97.891,96.363z"/>
		<path fill="#FFFFFF" d="M142.473,50.245c0.937,0,1.875,0.243,2.714,0.728l66.772,38.621c1.677,0.97,2.709,2.761,2.707,4.698
			l-0.085,77.241c-0.002,1.933-1.032,3.717-2.704,4.686l-66.688,38.62c-0.84,0.486-1.778,0.729-2.716,0.729
			c-0.937,0-1.874-0.242-2.713-0.728l-66.789-38.621c-1.675-0.969-2.707-2.757-2.707-4.692V94.286c0-1.935,1.032-3.724,2.707-4.692
			l66.789-38.62C140.599,50.488,141.536,50.245,142.473,50.245 M105.581,99.706h73.694L142.47,59.668L105.581,99.706 M186.265,99.3
			l19.871-6.813l-55.802-32.275L186.265,99.3 M98.625,99.257l35.962-39.031l-55.76,32.243L98.625,99.257 M75.684,163.176
			l20.28-59.101l-20.28-6.953V163.176 M209.171,163.204l0.072-66.052l-20.344,6.975L209.171,163.204 M142.423,176.008l38.47-70.881
			h-76.939L142.423,176.008 M137.412,178.139l-37.453-69.007l-20.657,60.202L137.412,178.139 M147.378,178.242l58.168-8.903
			l-20.66-60.207L147.378,178.242 M139.712,208.551V183.97l-57.604-8.729L139.712,208.551 M145.133,208.606l57.594-33.353
			l-57.594,8.815V208.606 M142.473,45.245c-1.829,0-3.633,0.484-5.216,1.399L70.468,85.265c-3.21,1.856-5.204,5.312-5.204,9.021
			v77.241c0,3.708,1.994,7.165,5.204,9.021l66.789,38.62c1.583,0.916,3.387,1.399,5.216,1.399c1.832,0,3.637-0.485,5.222-1.402
			l66.688-38.621c3.202-1.854,5.194-5.305,5.198-9.006l0.085-77.241c0.004-3.712-1.99-7.173-5.203-9.032L147.69,46.645
			C146.106,45.729,144.303,45.245,142.473,45.245L142.473,45.245z M116.986,94.706l25.48-27.655l25.42,27.655H116.986
			L116.986,94.706z M187.734,93.511l-11.562-12.579l17.957,10.386L187.734,93.511L187.734,93.511z M90.835,91.301l17.81-10.299
			L97.159,93.469L90.835,91.301L90.835,91.301z M80.684,133.199v-29.077l8.927,3.061L80.684,133.199L80.684,133.199z
			 M195.252,107.235l8.983-3.08l-0.032,29.167L195.252,107.235L195.252,107.235z M112.355,110.126h60.135l-30.067,55.4
			L112.355,110.126L112.355,110.126z M85.976,165.288l15.018-43.767l27.228,50.168L85.976,165.288L85.976,165.288z M156.576,171.775
			l27.275-50.254l15.022,43.781L156.576,171.775L156.576,171.775z M134.712,199.884l-27.219-15.739l27.219,4.124V199.884
			L134.712,199.884z M150.133,188.361l27.16-4.156l-27.16,15.729V188.361L150.133,188.361z"/>
	</g>
	<g>
		<polygon fill="#6DCBD0" points="99.959,109.132 79.302,169.334 137.412,178.139 		"/>
		<polygon fill="#6DCBD0" points="134.586,60.226 78.826,92.469 98.625,99.257 		"/>
		<polygon fill="#C5EAF4" points="179.274,99.706 142.47,59.668 105.581,99.706 		"/>
		<polygon fill="#E0FBFB" points="206.136,92.487 150.333,60.212 186.264,99.3 		"/>
		<polygon fill="#4CB5BC" points="75.684,97.123 75.684,163.177 95.964,104.075 		"/>
		<polygon fill="#C5EAF4" points="147.378,178.242 205.545,169.339 184.886,109.132 		"/>
		<polygon fill="#4CB5BC" points="139.712,208.551 139.712,183.97 82.108,175.241 		"/>
		<polygon fill="#E0FBFB" points="188.899,104.127 209.17,163.203 209.243,97.152 		"/>
		<polygon fill="#6DCBD0" points="145.133,208.606 202.726,175.254 145.133,184.068 		"/>
		<polygon fill="#96DADF" points="103.953,105.126 142.422,176.008 180.893,105.126 		"/>
	</g>
	<path fill="#3FA3AD" d="M211.96,89.594l-66.772-38.621c-0.84-0.485-1.777-0.728-2.714-0.728s-1.874,0.243-2.713,0.728
		l-66.789,38.62c-1.675,0.969-2.707,2.757-2.707,4.692v77.241c0,1.936,1.032,3.724,2.707,4.692l66.789,38.621
		c0.839,0.485,1.776,0.728,2.713,0.728c0.938,0,1.876-0.243,2.716-0.729l66.688-38.62c1.672-0.969,2.702-2.753,2.704-4.686
		l0.085-77.241C214.669,92.354,213.637,90.563,211.96,89.594z M75.684,97.122l20.28,6.953l-20.28,59.101V97.122z M103.953,105.126
		h76.939l-38.47,70.881L103.953,105.126z M137.412,178.139l-58.11-8.805l20.657-60.202L137.412,178.139z M105.581,99.706
		l36.89-40.038l36.804,40.038H105.581z M186.265,99.3l-35.931-39.088l55.802,32.275L186.265,99.3z M98.625,99.257l-19.798-6.788
		l55.76-32.243L98.625,99.257z M139.712,183.97v24.581l-57.604-33.31L139.712,183.97z M184.886,109.132l20.66,60.207l-58.168,8.903
		L184.886,109.132z M188.899,104.127l20.344-6.975l-0.072,66.052L188.899,104.127z M145.133,208.606v-24.537l57.594-8.815
		L145.133,208.606z"/>
</g>
</svg>
