<?xml version="1.0" encoding="utf-8"?>
<!-- Generator: Adobe Illustrator 16.0.0, SVG Export Plug-In . SVG Version: 6.00 Build 0)  -->
<!DOCTYPE svg PUBLIC "-//W3C//DTD SVG 1.1//EN" "http://www.w3.org/Graphics/SVG/1.1/DTD/svg11.dtd">
<svg version="1.1" xmlns="http://www.w3.org/2000/svg" xmlns:xlink="http://www.w3.org/1999/xlink" x="0px" y="0px"
	 width="678.21px" height="156.955px" viewBox="0 0 678.21 156.955" enable-background="new 0 0 678.21 156.955"
	 xml:space="preserve">
<g id="Green" display="none">
	<g display="inline">
		<path fill="#6AB082" d="M4.337,13.169v57.364v6.435v5.302c0,38.844,9.58,48.412,32.685,56.974
			c13.713,5.08,21.374,9.742,24.026,11.508c0.209,0.137,1.667,0.268,1.907,0.314v-27.177L19.262,98.51V47.649l43.693-25.011V5.932
			c-26.234,5.067-50.194,5.586-56.817,5.628C5.144,11.56,4.337,12.28,4.337,13.169"/>
		<path fill="#DCFFDE" d="M120.701,13.169v57.364v6.435v5.302c0,38.844-9.438,48.412-32.197,56.974
			c-13.509,5.08-21.056,9.742-23.668,11.508c-0.206,0.137-1.642,0.268-1.88,0.314v-27.177l45.013-25.379V47.649L62.956,22.638V5.932
			c25.845,5.067,49.447,5.586,55.972,5.628C119.907,11.56,120.701,12.28,120.701,13.169"/>
		<path fill="#FFFFFF" d="M62.956,153.598c-0.816,0-1.632-0.23-2.328-0.695c-2.604-1.73-10.116-6.299-23.651-11.312
			c-11.559-4.283-20.442-9.001-26.223-18.104c-5.574-8.774-8.059-21.482-8.059-41.204V12.921c0-2.137,1.824-3.876,4.067-3.876
			c6.693-0.042,30.509-0.57,55.354-5.604c0.55-0.111,1.132-0.112,1.684,0c24.836,5.033,48.645,5.562,55.36,5.604
			c2.24,0.004,4.061,1.742,4.061,3.876v69.361c0,40.128-10.108,50.349-34.284,59.308c-13.534,5.014-21.047,9.582-23.649,11.312
			C64.589,153.365,63.772,153.596,62.956,153.598 M8.76,13.544c-0.857,0.014-1.545,0.711-1.545,1.569v67.169
			c0,39.171,10.034,47.176,31.332,55.067c12.093,4.482,19.613,8.67,23.192,10.896c0.746,0.465,1.686,0.465,2.433,0
			c3.578-2.227,11.098-6.414,23.192-10.896c21.299-7.892,31.333-15.897,31.333-55.067V15.113c0-0.858-0.688-1.555-1.545-1.569
			c-8.698-0.136-30.818-0.962-53.893-5.599c-0.2-0.04-0.408-0.04-0.608,0C39.578,12.582,17.459,13.408,8.76,13.544 M6.778,13.566
			H6.775H6.778z"/>
		<path fill="#6B8A6B" d="M62.956,156.955c-0.853,0-1.705-0.242-2.433-0.727c-2.719-1.809-10.568-6.58-24.708-11.818
			c-12.076-4.475-21.356-9.402-27.395-18.911C2.597,116.332,0,103.056,0,82.452V9.991c0-2.232,1.906-4.049,4.249-4.049
			c6.993-0.044,31.873-0.595,57.828-5.855c0.575-0.115,1.183-0.116,1.759,0.001c25.946,5.257,50.819,5.81,57.836,5.854
			c2.34,0.005,4.241,1.82,4.241,4.049v72.461c0,41.922-10.559,52.601-35.816,61.958c-14.14,5.238-21.988,10.01-24.706,11.818
			C64.662,156.713,63.809,156.953,62.956,156.955 M6.223,10.052c-1.113,0.019-2.001,0.927-2.001,2.041v70.393
			c0,41.275,10.573,49.709,33.015,58.026c12.255,4.541,20.053,8.797,23.987,11.201c1.064,0.65,2.399,0.65,3.464,0
			c3.933-2.404,11.73-6.66,23.987-11.201c22.442-8.317,33.016-16.752,33.016-58.026v-70.05c0-1.302-1.041-2.366-2.343-2.39
			c-9.66-0.178-32.571-1.131-56.393-5.952C38.851,8.972,15.679,9.89,6.223,10.052 M3.762,10.082H3.759H3.762z"/>
		<path d="M62.96,123.819c-0.823,0-1.637-0.218-2.349-0.63l-39.562-22.877c-1.446-0.836-2.344-2.392-2.344-4.062V50.497
			c0-1.67,0.898-3.226,2.344-4.062l39.562-22.877c0.712-0.412,1.525-0.63,2.349-0.63c0.824,0,1.636,0.218,2.35,0.63l39.554,22.877
			c1.446,0.837,2.345,2.396,2.343,4.067l-0.051,45.754c-0.001,1.666-0.897,3.22-2.34,4.055l-39.504,22.877
			C64.599,123.602,63.786,123.819,62.96,123.819 M66.017,115.646l25.102-14.537l-25.102,3.843V115.646z M59.844,115.615v-10.721
			l-25.123-3.806L59.844,115.615z M68.591,98.313l29.755-4.554l-10.567-30.8L68.591,98.313z M57.24,98.257L38.083,62.959
			L27.517,93.753L57.24,98.257z M62.931,95.8L83.23,58.398H42.632L62.931,95.8z M100.999,82.47l0.031-28.202l-8.687,2.978
			L100.999,82.47z M24.878,82.425l8.651-25.21l-8.651-2.966V82.425z M81.388,52.227L62.958,32.177L44.485,52.227H81.388z
			 M89.336,51.751l7.778-2.667L75.27,36.449L89.336,51.751z M36.552,51.727l14.053-15.252l-21.79,12.6L36.552,51.727z"/>
		<path fill="#FFFFFF" d="M62.96,24.408c0.556,0,1.11,0.144,1.608,0.431l39.554,22.878c0.993,0.574,1.604,1.635,1.603,2.782
			l-0.05,45.755c-0.001,1.144-0.611,2.201-1.602,2.775L64.57,121.906c-0.498,0.288-1.053,0.432-1.609,0.432
			c-0.555,0-1.109-0.143-1.606-0.431L21.791,99.03c-0.993-0.574-1.604-1.633-1.604-2.78V50.497c0-1.147,0.611-2.206,1.604-2.78
			l39.563-22.877C61.851,24.552,62.406,24.408,62.96,24.408 M41.106,53.708H84.76L62.959,29.99L41.106,53.708 M88.901,53.466
			l11.771-4.036L67.617,30.312L88.901,53.466 M36.986,53.441L58.289,30.32l-33.03,19.099L36.986,53.441 M23.397,91.304
			l12.013-35.009l-12.013-4.119V91.304 M102.47,91.32l0.043-39.126l-12.052,4.132L102.47,91.32 M62.931,98.905l22.788-41.988H40.144
			L62.931,98.905 M59.962,100.167L37.777,59.291L25.541,94.953L59.962,100.167 M65.866,100.229l34.457-5.274L88.084,59.291
			L65.866,100.229 M61.326,118.183v-14.561l-34.123-5.17L61.326,118.183 M64.537,118.215l34.115-19.757l-34.115,5.222V118.215
			 M62.96,21.446c-1.083,0-2.151,0.287-3.09,0.829L20.308,45.152c-1.901,1.1-3.083,3.147-3.083,5.344V96.25
			c0,2.197,1.182,4.244,3.083,5.344l39.563,22.877c0.938,0.543,2.007,0.829,3.09,0.829c1.085,0,2.155-0.287,3.094-0.831
			l39.504-22.877c1.896-1.098,3.076-3.143,3.079-5.335l0.049-45.754c0.004-2.199-1.178-4.249-3.081-5.35L66.051,22.275
			C65.113,21.733,64.044,21.446,62.96,21.446 M47.864,50.746l15.093-16.382l15.059,16.382H47.864z M89.772,50.037l-6.85-7.45
			l10.637,6.152L89.772,50.037z M32.373,48.728l10.55-6.1l-6.804,7.385L32.373,48.728z M26.359,73.547V56.323l5.288,1.813
			L26.359,73.547z M94.225,58.167l5.321-1.824L99.528,73.62L94.225,58.167z M45.121,59.879h35.621L62.931,92.696L45.121,59.879z
			 M29.495,92.556l8.896-25.926L54.52,96.348L29.495,92.556z M71.315,96.398l16.156-29.769l8.899,25.934L71.315,96.398z
			 M58.364,113.048l-16.123-9.323l16.123,2.443V113.048z M67.499,106.224l16.088-2.462l-16.088,9.316V106.224z"/>
		<polygon fill="#8DD294" points="37.777,59.291 25.541,94.952 59.962,100.167 		"/>
		<polygon fill="#8DD294" points="58.289,30.32 25.259,49.42 36.987,53.441 		"/>
		<polygon fill="#DCFFDE" points="84.76,53.708 62.959,29.99 41.107,53.708 		"/>
		<polygon fill="#EFFFEC" points="100.672,49.431 67.617,30.312 88.901,53.466 		"/>
		<polygon fill="#6AB082" points="23.397,52.177 23.397,91.305 35.411,56.295 		"/>
		<polygon fill="#DCFFDE" points="65.866,100.229 100.322,94.955 88.084,59.291 		"/>
		<polygon fill="#6AB082" points="61.326,118.183 61.326,103.622 27.203,98.452 		"/>
		<polygon fill="#EFFFEC" points="90.462,56.326 102.469,91.321 102.513,52.194 		"/>
		<polygon fill="#8DD294" points="64.537,118.216 98.652,98.458 64.537,103.68 		"/>
		<polygon fill="#A2FF9E" points="40.143,56.918 62.931,98.906 85.719,56.918 		"/>
		<path fill="#6B8A6B" d="M104.123,47.717L64.569,24.84c-0.498-0.288-1.054-0.432-1.608-0.432s-1.109,0.144-1.606,0.432
			L21.79,47.717c-0.992,0.574-1.603,1.633-1.603,2.78V96.25c0,1.147,0.611,2.206,1.603,2.78l39.564,22.877
			c0.497,0.287,1.052,0.431,1.606,0.431c0.556,0,1.111-0.144,1.609-0.432l39.504-22.877c0.99-0.574,1.601-1.631,1.602-2.775
			l0.05-45.755C105.727,49.353,105.116,48.292,104.123,47.717 M23.397,52.177l12.013,4.119L23.397,91.305V52.177z M40.143,56.917
			h45.577L62.931,98.906L40.143,56.917z M59.962,100.167l-34.422-5.216l12.237-35.661L59.962,100.167z M41.106,53.708L62.959,29.99
			L84.76,53.708H41.106z M88.901,53.467L67.617,30.312l33.056,19.118L88.901,53.467z M36.987,53.441l-11.728-4.022l33.03-19.099
			L36.987,53.441z M61.326,103.622v14.561L27.203,98.451L61.326,103.622z M88.084,59.291l12.238,35.664l-34.457,5.274L88.084,59.291
			z M90.461,56.326l12.052-4.131l-0.043,39.126L90.461,56.326z M64.537,118.216v-14.535l34.115-5.222L64.537,118.216z"/>
	</g>
	<g display="inline">
		<path fill="#6B8A6B" d="M154.464,92.114c0-1.828,1.617-3.234,3.586-3.234c2.039,0,3.727,1.406,3.727,3.234
			c0,3.094,2.461,6.047,7.172,6.047c4.5,0,7.383-2.531,7.383-6.328c0-3.023-0.703-5.625-4.992-8.438l-1.898-1.125
			c-4.641-2.602-5.906-3.445-7.242-4.289c-4.5-3.023-7.312-6.539-7.312-11.812c0-7.805,6.469-12.445,13.922-12.445
			c7.805,0,13.922,4.57,13.922,12.023c0,1.828-1.617,3.234-3.656,3.234s-3.656-1.406-3.656-3.234c0-3.234-2.109-5.555-6.609-5.555
			c-4.57,0-6.609,3.023-6.609,5.906c0,1.547,0,3.656,3.797,6.328c1.125,0.914,4.078,2.742,8.93,5.484
			c5.414,3.164,8.719,8.016,8.719,13.922c0,8.156-7.172,12.797-14.695,12.797C159.878,104.629,154.464,98.512,154.464,92.114z"/>
		<path fill="#6B8A6B" d="M232.159,56.958v44.367c0,1.828-1.617,3.305-3.656,3.305c-1.969,0-3.586-1.477-3.586-3.305V80.512h-14.836
			v20.812c0,1.828-1.617,3.305-3.586,3.305c-2.039,0-3.727-1.477-3.727-3.305V56.958c0-1.828,1.688-3.234,3.727-3.234
			c1.969,0,3.586,1.406,3.586,3.234v17.086h14.836V56.958c0-1.828,1.617-3.234,3.586-3.234
			C230.542,53.723,232.159,55.129,232.159,56.958z"/>
		<path fill="#6B8A6B" d="M304.507,100.973c0,1.828-1.617,3.234-3.656,3.234h-19.617c-1.969,0-3.586-1.406-3.586-3.234V57.309
			c0-1.758,1.617-3.164,3.586-3.164h19.406c2.039,0,3.656,1.406,3.656,3.164c0,1.828-1.617,3.305-3.656,3.305h-15.68v13.43h13.711
			c2.039,0,3.656,1.477,3.656,3.305c0,1.758-1.617,3.164-3.656,3.164H284.96v17.156h15.891
			C302.89,97.668,304.507,99.075,304.507,100.973z"/>
		<path fill="#6B8A6B" d="M371.513,104.208c-2.039,0-3.727-1.406-3.727-3.234V57.309c0-1.758,1.688-3.164,3.727-3.164h10.125
			c8.156,0,14.766,6.398,14.766,14.344v21.305c0,7.945-6.609,14.414-14.766,14.414H371.513z M375.099,97.668h6.539
			c4.148,0,7.453-3.516,7.453-7.875V68.489c0-4.359-3.305-7.875-7.453-7.875h-6.539V97.668z"/>
		<path fill="#6B8A6B" d="M448.857,101.325V71.934l-8.859,18c-0.633,1.055-1.828,1.828-3.305,1.828
			c-1.406,0-2.602-0.633-3.234-1.758l-8.789-18v29.32c0,1.828-1.617,3.305-3.656,3.305c-1.969,0-3.586-1.477-3.586-3.305V56.958
			c0-1.828,1.617-3.234,3.586-3.234c1.406,0,2.742,0.773,3.234,1.828l12.445,25.664c4.148-8.297,8.438-17.367,12.516-25.664
			c0.562-1.055,1.828-1.828,3.305-1.828c2.18,0,3.586,1.688,3.586,3.234v44.367c0,1.828-1.617,3.305-3.586,3.305
			C450.474,104.629,448.857,103.153,448.857,101.325z"/>
		<path fill="#6B8A6B" d="M508.48,100.481c0.422,1.898-1.125,4.148-3.656,4.148c-1.547,0-2.883-0.914-3.375-2.32l-2.953-9.422
			h-14.203c-0.984,3.234-1.828,6.258-2.812,9.422c-0.422,1.336-1.898,2.32-3.516,2.32c-2.109,0-4.219-2.039-3.445-4.219v0.07
			l13.359-44.438c0.492-1.336,1.969-2.32,3.586-2.32c1.547,0,2.953,0.984,3.445,2.32l13.5,44.438H508.48z M496.597,86.418
			l-5.133-19.406l-5.273,19.406H496.597z"/>
		<path fill="#6B8A6B" d="M557.767,104.208c-2.039,0-3.727-1.406-3.727-3.234V57.309c0-1.758,1.688-3.164,3.727-3.164h10.125
			c8.156,0,14.766,6.398,14.766,14.344v21.305c0,7.945-6.609,14.414-14.766,14.414H557.767z M561.353,97.668h6.539
			c4.148,0,7.453-3.516,7.453-7.875V68.489c0-4.359-3.305-7.875-7.453-7.875h-6.539V97.668z"/>
		<path fill="#6B8A6B" d="M630.398,100.973c0,1.828-1.617,3.234-3.656,3.234h-19.617c-1.969,0-3.586-1.406-3.586-3.234V57.309
			c0-1.758,1.617-3.164,3.586-3.164h19.406c2.039,0,3.656,1.406,3.656,3.164c0,1.828-1.617,3.305-3.656,3.305h-15.68v13.43h13.711
			c2.039,0,3.656,1.477,3.656,3.305c0,1.758-1.617,3.164-3.656,3.164h-13.711v17.156h15.891
			C628.781,97.668,630.398,99.075,630.398,100.973z"/>
		<path fill="#6B8A6B" d="M671.32,102.801l-16.172-32.484l0.633,31.008c0,1.828-1.617,3.305-3.656,3.305
			c-1.969,0-3.656-1.477-3.656-3.305V56.958c0-1.828,1.828-3.234,3.656-3.234c1.336,0,2.672,0.844,3.234,1.828l16.172,32.344
			l-0.633-30.938c0-1.828,1.617-3.234,3.656-3.234s3.656,1.406,3.656,3.234v44.367c0,1.547-1.195,2.812-2.812,3.234l0.141-0.07
			c-0.422,0.141-0.633,0.141-0.984,0.141C673.289,104.629,671.882,103.856,671.32,102.801z"/>
		<path fill="#6B8A6B" d="M251.283,56.958c0-1.828,1.617-3.234,3.586-3.234c2.039,0,3.656,1.406,3.656,3.234v44.367
			c0,1.828-1.617,3.305-3.656,3.305c-1.969,0-3.586-1.477-3.586-3.305V56.958z"/>
		<path fill="#6B8A6B" d="M527.673,56.958c0-1.828,1.617-3.234,3.586-3.234c2.039,0,3.656,1.406,3.656,3.234v44.367
			c0,1.828-1.617,3.305-3.656,3.305c-1.969,0-3.586-1.477-3.586-3.305V56.958z"/>
		<path fill="#6B8A6B" d="M329.888,97.668h16.172c2.039,0,3.656,1.477,3.656,3.305s-1.617,3.234-3.656,3.234h-19.828
			c-2.039,0-3.656-1.406-3.656-3.234V56.958c0-1.828,1.617-3.234,3.586-3.234c1.908,0,3.537,1.236,3.727,2.892V97.668z"/>
	</g>
</g>
<g id="Blue" display="none">
	<g display="inline">
		<path fill="#7388CE" d="M4.337,13.169v57.364v6.435v5.302c0,38.844,9.58,48.412,32.685,56.974
			c13.713,5.08,21.374,9.742,24.026,11.508c0.209,0.137,1.667,0.268,1.907,0.314v-27.177L19.262,98.51V47.649l43.693-25.011V5.932
			c-26.234,5.067-50.194,5.586-56.817,5.628C5.144,11.56,4.337,12.28,4.337,13.169"/>
		<path fill="#DBDEFF" d="M120.701,13.169v57.364v6.435v5.302c0,38.844-9.438,48.412-32.197,56.974
			c-13.509,5.08-21.056,9.742-23.668,11.508c-0.206,0.137-1.642,0.268-1.88,0.314v-27.177l45.013-25.379V47.649L62.956,22.638V5.932
			c25.845,5.067,49.447,5.586,55.972,5.628C119.907,11.56,120.701,12.28,120.701,13.169"/>
		<path fill="#FFFFFF" d="M62.956,153.598c-0.816,0-1.632-0.23-2.328-0.695c-2.604-1.73-10.116-6.299-23.651-11.312
			c-11.559-4.283-20.442-9.001-26.223-18.104c-5.574-8.774-8.059-21.482-8.059-41.204V12.921c0-2.137,1.824-3.876,4.067-3.876
			c6.693-0.042,30.509-0.57,55.354-5.604c0.55-0.111,1.132-0.112,1.684,0c24.836,5.033,48.645,5.562,55.36,5.604
			c2.24,0.004,4.061,1.742,4.061,3.876v69.361c0,40.128-10.108,50.349-34.284,59.308c-13.534,5.014-21.047,9.582-23.649,11.312
			C64.589,153.365,63.772,153.596,62.956,153.598 M8.76,13.544c-0.857,0.014-1.545,0.711-1.545,1.569v67.169
			c0,39.171,10.034,47.176,31.332,55.067c12.093,4.482,19.613,8.67,23.192,10.896c0.746,0.465,1.686,0.465,2.433,0
			c3.578-2.227,11.098-6.414,23.192-10.896c21.299-7.892,31.333-15.897,31.333-55.067V15.113c0-0.858-0.688-1.555-1.545-1.569
			c-8.698-0.136-30.818-0.962-53.893-5.599c-0.2-0.04-0.408-0.04-0.608,0C39.578,12.582,17.459,13.408,8.76,13.544 M6.778,13.566
			H6.775H6.778z"/>
		<path fill="#5C6CA7" d="M62.956,156.955c-0.853,0-1.705-0.242-2.433-0.727c-2.719-1.809-10.568-6.58-24.708-11.818
			c-12.076-4.475-21.356-9.402-27.395-18.911C2.597,116.332,0,103.056,0,82.452V9.991c0-2.232,1.906-4.049,4.249-4.049
			c6.993-0.044,31.873-0.595,57.828-5.855c0.575-0.115,1.183-0.116,1.759,0.001c25.946,5.257,50.819,5.81,57.836,5.854
			c2.34,0.005,4.241,1.82,4.241,4.049v72.461c0,41.922-10.559,52.601-35.816,61.958c-14.14,5.238-21.988,10.01-24.706,11.818
			C64.662,156.713,63.809,156.953,62.956,156.955 M6.223,10.052c-1.113,0.019-2.001,0.927-2.001,2.041v70.393
			c0,41.275,10.573,49.709,33.015,58.026c12.255,4.541,20.053,8.797,23.987,11.201c1.064,0.65,2.399,0.65,3.464,0
			c3.933-2.404,11.73-6.66,23.987-11.201c22.442-8.317,33.016-16.752,33.016-58.026v-70.05c0-1.302-1.041-2.366-2.343-2.39
			c-9.66-0.178-32.571-1.131-56.393-5.952C38.851,8.972,15.679,9.89,6.223,10.052 M3.762,10.082H3.759H3.762z"/>
		<path d="M62.96,123.819c-0.823,0-1.637-0.218-2.349-0.63l-39.562-22.877c-1.446-0.836-2.344-2.392-2.344-4.062V50.497
			c0-1.67,0.898-3.226,2.344-4.062l39.562-22.877c0.712-0.412,1.525-0.63,2.349-0.63c0.824,0,1.636,0.218,2.35,0.63l39.554,22.877
			c1.446,0.837,2.345,2.396,2.343,4.067l-0.051,45.754c-0.001,1.666-0.897,3.22-2.34,4.055l-39.504,22.877
			C64.599,123.602,63.786,123.819,62.96,123.819 M66.017,115.646l25.102-14.537l-25.102,3.843V115.646z M59.844,115.615v-10.721
			l-25.123-3.806L59.844,115.615z M68.591,98.313l29.755-4.554l-10.567-30.8L68.591,98.313z M57.24,98.257L38.083,62.959
			L27.517,93.753L57.24,98.257z M62.931,95.8L83.23,58.398H42.632L62.931,95.8z M100.999,82.47l0.031-28.202l-8.687,2.978
			L100.999,82.47z M24.878,82.425l8.651-25.21l-8.651-2.966V82.425z M81.388,52.227L62.958,32.177L44.485,52.227H81.388z
			 M89.336,51.751l7.778-2.667L75.27,36.449L89.336,51.751z M36.552,51.727l14.053-15.252l-21.79,12.6L36.552,51.727z"/>
		<path fill="#FFFFFF" d="M62.96,24.408c0.556,0,1.11,0.144,1.608,0.431l39.554,22.878c0.993,0.574,1.604,1.635,1.603,2.782
			l-0.05,45.755c-0.001,1.144-0.611,2.201-1.602,2.775L64.57,121.906c-0.498,0.288-1.053,0.432-1.609,0.432
			c-0.555,0-1.109-0.143-1.606-0.431L21.791,99.03c-0.993-0.574-1.604-1.633-1.604-2.78V50.497c0-1.147,0.611-2.206,1.604-2.78
			l39.563-22.877C61.851,24.552,62.406,24.408,62.96,24.408 M41.106,53.708H84.76L62.959,29.99L41.106,53.708 M88.901,53.466
			l11.771-4.036L67.617,30.312L88.901,53.466 M36.986,53.441L58.289,30.32l-33.03,19.099L36.986,53.441 M23.397,91.304
			l12.013-35.009l-12.013-4.119V91.304 M102.47,91.32l0.043-39.126l-12.052,4.132L102.47,91.32 M62.931,98.905l22.788-41.988H40.144
			L62.931,98.905 M59.962,100.167L37.777,59.291L25.541,94.953L59.962,100.167 M65.866,100.229l34.457-5.274L88.084,59.291
			L65.866,100.229 M61.326,118.183v-14.561l-34.123-5.17L61.326,118.183 M64.537,118.215l34.115-19.757l-34.115,5.222V118.215
			 M62.96,21.446c-1.083,0-2.151,0.287-3.09,0.829L20.308,45.152c-1.901,1.1-3.083,3.147-3.083,5.344V96.25
			c0,2.197,1.182,4.244,3.083,5.344l39.563,22.877c0.938,0.543,2.007,0.829,3.09,0.829c1.085,0,2.155-0.287,3.094-0.831
			l39.504-22.877c1.896-1.098,3.076-3.143,3.079-5.335l0.049-45.754c0.004-2.199-1.178-4.249-3.081-5.35L66.051,22.275
			C65.113,21.733,64.044,21.446,62.96,21.446 M47.864,50.746l15.093-16.382l15.059,16.382H47.864z M89.772,50.037l-6.85-7.45
			l10.637,6.152L89.772,50.037z M32.373,48.728l10.55-6.1l-6.804,7.385L32.373,48.728z M26.359,73.547V56.323l5.288,1.813
			L26.359,73.547z M94.225,58.167l5.321-1.824L99.528,73.62L94.225,58.167z M45.121,59.879h35.621L62.931,92.696L45.121,59.879z
			 M29.495,92.556l8.896-25.926L54.52,96.348L29.495,92.556z M71.315,96.398l16.156-29.769l8.899,25.934L71.315,96.398z
			 M58.364,113.048l-16.123-9.323l16.123,2.443V113.048z M67.499,106.224l16.088-2.462l-16.088,9.316V106.224z"/>
		<polygon fill="#A2ADFF" points="37.777,59.291 25.541,94.952 59.962,100.167 		"/>
		<polygon fill="#A2ADFF" points="58.289,30.32 25.259,49.42 36.987,53.441 		"/>
		<polygon fill="#DBDEFF" points="84.76,53.708 62.959,29.99 41.107,53.708 		"/>
		<polygon fill="#ECEFFF" points="100.672,49.431 67.617,30.312 88.901,53.466 		"/>
		<polygon fill="#7388CE" points="23.397,52.177 23.397,91.305 35.411,56.295 		"/>
		<polygon fill="#DBDEFF" points="65.866,100.229 100.322,94.955 88.084,59.291 		"/>
		<polygon fill="#7388CE" points="61.326,118.183 61.326,103.622 27.203,98.452 		"/>
		<polygon fill="#ECEFFF" points="90.462,56.326 102.469,91.321 102.513,52.194 		"/>
		<polygon fill="#A2ADFF" points="64.537,118.216 98.652,98.458 64.537,103.68 		"/>
		<polygon fill="#C0C9FF" points="40.143,56.918 62.931,98.906 85.719,56.918 		"/>
		<path fill="#5C6CA7" d="M104.123,47.717L64.569,24.84c-0.498-0.288-1.054-0.432-1.608-0.432s-1.109,0.144-1.606,0.432
			L21.79,47.717c-0.992,0.574-1.603,1.633-1.603,2.78V96.25c0,1.147,0.611,2.206,1.603,2.78l39.564,22.877
			c0.497,0.287,1.052,0.431,1.606,0.431c0.556,0,1.111-0.144,1.609-0.432l39.504-22.877c0.99-0.574,1.601-1.631,1.602-2.775
			l0.05-45.755C105.727,49.353,105.116,48.292,104.123,47.717 M23.397,52.177l12.013,4.119L23.397,91.305V52.177z M40.143,56.917
			h45.577L62.931,98.906L40.143,56.917z M59.962,100.167l-34.422-5.216l12.237-35.661L59.962,100.167z M41.106,53.708L62.959,29.99
			L84.76,53.708H41.106z M88.901,53.467L67.617,30.312l33.056,19.118L88.901,53.467z M36.987,53.441l-11.728-4.022l33.03-19.099
			L36.987,53.441z M61.326,103.622v14.561L27.203,98.451L61.326,103.622z M88.084,59.291l12.238,35.664l-34.457,5.274L88.084,59.291
			z M90.461,56.326l12.052-4.131l-0.043,39.126L90.461,56.326z M64.537,118.216v-14.535l34.115-5.222L64.537,118.216z"/>
	</g>
	<g display="inline">
		<path fill="#5C6CA7" d="M154.464,92.114c0-1.828,1.617-3.234,3.586-3.234c2.039,0,3.727,1.406,3.727,3.234
			c0,3.094,2.461,6.047,7.172,6.047c4.5,0,7.383-2.531,7.383-6.328c0-3.023-0.703-5.625-4.992-8.438l-1.898-1.125
			c-4.641-2.602-5.906-3.445-7.242-4.289c-4.5-3.023-7.312-6.539-7.312-11.812c0-7.805,6.469-12.445,13.922-12.445
			c7.805,0,13.922,4.57,13.922,12.023c0,1.828-1.617,3.234-3.656,3.234s-3.656-1.406-3.656-3.234c0-3.234-2.109-5.555-6.609-5.555
			c-4.57,0-6.609,3.023-6.609,5.906c0,1.547,0,3.656,3.797,6.328c1.125,0.914,4.078,2.742,8.93,5.484
			c5.414,3.164,8.719,8.016,8.719,13.922c0,8.156-7.172,12.797-14.695,12.797C159.878,104.629,154.464,98.512,154.464,92.114z"/>
		<path fill="#5C6CA7" d="M232.159,56.958v44.367c0,1.828-1.617,3.305-3.656,3.305c-1.969,0-3.586-1.477-3.586-3.305V80.512h-14.836
			v20.812c0,1.828-1.617,3.305-3.586,3.305c-2.039,0-3.727-1.477-3.727-3.305V56.958c0-1.828,1.688-3.234,3.727-3.234
			c1.969,0,3.586,1.406,3.586,3.234v17.086h14.836V56.958c0-1.828,1.617-3.234,3.586-3.234
			C230.542,53.723,232.159,55.129,232.159,56.958z"/>
		<path fill="#5C6CA7" d="M304.507,100.973c0,1.828-1.617,3.234-3.656,3.234h-19.617c-1.969,0-3.586-1.406-3.586-3.234V57.309
			c0-1.758,1.617-3.164,3.586-3.164h19.406c2.039,0,3.656,1.406,3.656,3.164c0,1.828-1.617,3.305-3.656,3.305h-15.68v13.43h13.711
			c2.039,0,3.656,1.477,3.656,3.305c0,1.758-1.617,3.164-3.656,3.164H284.96v17.156h15.891
			C302.89,97.668,304.507,99.075,304.507,100.973z"/>
		<path fill="#5C6CA7" d="M371.513,104.208c-2.039,0-3.727-1.406-3.727-3.234V57.309c0-1.758,1.688-3.164,3.727-3.164h10.125
			c8.156,0,14.766,6.398,14.766,14.344v21.305c0,7.945-6.609,14.414-14.766,14.414H371.513z M375.099,97.668h6.539
			c4.148,0,7.453-3.516,7.453-7.875V68.489c0-4.359-3.305-7.875-7.453-7.875h-6.539V97.668z"/>
		<path fill="#5C6CA7" d="M448.857,101.325V71.934l-8.859,18c-0.633,1.055-1.828,1.828-3.305,1.828
			c-1.406,0-2.602-0.633-3.234-1.758l-8.789-18v29.32c0,1.828-1.617,3.305-3.656,3.305c-1.969,0-3.586-1.477-3.586-3.305V56.958
			c0-1.828,1.617-3.234,3.586-3.234c1.406,0,2.742,0.773,3.234,1.828l12.445,25.664c4.148-8.297,8.438-17.367,12.516-25.664
			c0.562-1.055,1.828-1.828,3.305-1.828c2.18,0,3.586,1.688,3.586,3.234v44.367c0,1.828-1.617,3.305-3.586,3.305
			C450.474,104.629,448.857,103.153,448.857,101.325z"/>
		<path fill="#5C6CA7" d="M508.48,100.481c0.422,1.898-1.125,4.148-3.656,4.148c-1.547,0-2.883-0.914-3.375-2.32l-2.953-9.422
			h-14.203c-0.984,3.234-1.828,6.258-2.812,9.422c-0.422,1.336-1.898,2.32-3.516,2.32c-2.109,0-4.219-2.039-3.445-4.219v0.07
			l13.359-44.438c0.492-1.336,1.969-2.32,3.586-2.32c1.547,0,2.953,0.984,3.445,2.32l13.5,44.438H508.48z M496.597,86.418
			l-5.133-19.406l-5.273,19.406H496.597z"/>
		<path fill="#5C6CA7" d="M557.767,104.208c-2.039,0-3.727-1.406-3.727-3.234V57.309c0-1.758,1.688-3.164,3.727-3.164h10.125
			c8.156,0,14.766,6.398,14.766,14.344v21.305c0,7.945-6.609,14.414-14.766,14.414H557.767z M561.353,97.668h6.539
			c4.148,0,7.453-3.516,7.453-7.875V68.489c0-4.359-3.305-7.875-7.453-7.875h-6.539V97.668z"/>
		<path fill="#5C6CA7" d="M630.398,100.973c0,1.828-1.617,3.234-3.656,3.234h-19.617c-1.969,0-3.586-1.406-3.586-3.234V57.309
			c0-1.758,1.617-3.164,3.586-3.164h19.406c2.039,0,3.656,1.406,3.656,3.164c0,1.828-1.617,3.305-3.656,3.305h-15.68v13.43h13.711
			c2.039,0,3.656,1.477,3.656,3.305c0,1.758-1.617,3.164-3.656,3.164h-13.711v17.156h15.891
			C628.781,97.668,630.398,99.075,630.398,100.973z"/>
		<path fill="#5C6CA7" d="M671.32,102.801l-16.172-32.484l0.633,31.008c0,1.828-1.617,3.305-3.656,3.305
			c-1.969,0-3.656-1.477-3.656-3.305V56.958c0-1.828,1.828-3.234,3.656-3.234c1.336,0,2.672,0.844,3.234,1.828l16.172,32.344
			l-0.633-30.938c0-1.828,1.617-3.234,3.656-3.234s3.656,1.406,3.656,3.234v44.367c0,1.547-1.195,2.812-2.812,3.234l0.141-0.07
			c-0.422,0.141-0.633,0.141-0.984,0.141C673.289,104.629,671.882,103.856,671.32,102.801z"/>
		<path fill="#5C6CA7" d="M251.283,56.958c0-1.828,1.617-3.234,3.586-3.234c2.039,0,3.656,1.406,3.656,3.234v44.367
			c0,1.828-1.617,3.305-3.656,3.305c-1.969,0-3.586-1.477-3.586-3.305V56.958z"/>
		<path fill="#5C6CA7" d="M527.673,56.958c0-1.828,1.617-3.234,3.586-3.234c2.039,0,3.656,1.406,3.656,3.234v44.367
			c0,1.828-1.617,3.305-3.656,3.305c-1.969,0-3.586-1.477-3.586-3.305V56.958z"/>
		<path fill="#5C6CA7" d="M329.888,97.668h16.172c2.039,0,3.656,1.477,3.656,3.305s-1.617,3.234-3.656,3.234h-19.828
			c-2.039,0-3.656-1.406-3.656-3.234V56.958c0-1.828,1.617-3.234,3.586-3.234c1.908,0,3.537,1.236,3.727,2.892V97.668z"/>
	</g>
</g>
<g id="Red" display="none">
	<g display="inline">
		<path fill="#E2456B" d="M4.337,13.169v57.364v6.435v5.302c0,38.844,9.58,48.412,32.685,56.974
			c13.713,5.08,21.374,9.742,24.026,11.508c0.209,0.137,1.667,0.268,1.907,0.314v-27.177L19.262,98.51V47.649l43.693-25.011V5.932
			c-26.234,5.067-50.194,5.586-56.817,5.628C5.144,11.56,4.337,12.28,4.337,13.169"/>
		<path fill="#FFCFE3" d="M120.701,13.169v57.364v6.435v5.302c0,38.844-9.438,48.412-32.197,56.974
			c-13.509,5.08-21.056,9.742-23.668,11.508c-0.206,0.137-1.642,0.268-1.88,0.314v-27.177l45.013-25.379V47.649L62.956,22.638V5.932
			c25.845,5.067,49.447,5.586,55.972,5.628C119.907,11.56,120.701,12.28,120.701,13.169"/>
		<path fill="#FFFFFF" d="M62.956,153.598c-0.816,0-1.632-0.23-2.328-0.695c-2.604-1.73-10.116-6.299-23.651-11.312
			c-11.559-4.283-20.442-9.001-26.223-18.104c-5.574-8.774-8.059-21.482-8.059-41.204V12.921c0-2.137,1.824-3.876,4.067-3.876
			c6.693-0.042,30.509-0.57,55.354-5.604c0.55-0.111,1.132-0.112,1.684,0c24.836,5.033,48.645,5.562,55.36,5.604
			c2.24,0.004,4.061,1.742,4.061,3.876v69.361c0,40.128-10.108,50.349-34.284,59.308c-13.534,5.014-21.047,9.582-23.649,11.312
			C64.589,153.365,63.772,153.596,62.956,153.598 M8.76,13.544c-0.857,0.014-1.545,0.711-1.545,1.569v67.169
			c0,39.171,10.034,47.176,31.332,55.067c12.093,4.482,19.613,8.67,23.192,10.896c0.746,0.465,1.686,0.465,2.433,0
			c3.578-2.227,11.098-6.414,23.192-10.896c21.299-7.892,31.333-15.897,31.333-55.067V15.113c0-0.858-0.688-1.555-1.545-1.569
			c-8.698-0.136-30.818-0.962-53.893-5.599c-0.2-0.04-0.408-0.04-0.608,0C39.578,12.582,17.459,13.408,8.76,13.544 M6.778,13.566
			H6.775H6.778z"/>
		<path fill="#D42758" d="M62.956,156.955c-0.853,0-1.705-0.242-2.433-0.727c-2.719-1.809-10.568-6.58-24.708-11.818
			c-12.076-4.475-21.356-9.402-27.395-18.911C2.597,116.332,0,103.056,0,82.452V9.991c0-2.232,1.906-4.049,4.249-4.049
			c6.993-0.044,31.873-0.595,57.828-5.855c0.575-0.115,1.183-0.116,1.759,0.001c25.946,5.257,50.819,5.81,57.836,5.854
			c2.34,0.005,4.241,1.82,4.241,4.049v72.461c0,41.922-10.559,52.601-35.816,61.958c-14.14,5.238-21.988,10.01-24.706,11.818
			C64.662,156.713,63.809,156.953,62.956,156.955 M6.223,10.052c-1.113,0.019-2.001,0.927-2.001,2.041v70.393
			c0,41.275,10.573,49.709,33.015,58.026c12.255,4.541,20.053,8.797,23.987,11.201c1.064,0.65,2.399,0.65,3.464,0
			c3.933-2.404,11.73-6.66,23.987-11.201c22.442-8.317,33.016-16.752,33.016-58.026v-70.05c0-1.302-1.041-2.366-2.343-2.39
			c-9.66-0.178-32.571-1.131-56.393-5.952C38.851,8.972,15.679,9.89,6.223,10.052 M3.762,10.082H3.759H3.762z"/>
		<path d="M62.96,123.819c-0.823,0-1.637-0.218-2.349-0.63l-39.562-22.877c-1.446-0.836-2.344-2.392-2.344-4.062V50.497
			c0-1.67,0.898-3.226,2.344-4.062l39.562-22.877c0.712-0.412,1.525-0.63,2.349-0.63c0.824,0,1.636,0.218,2.35,0.63l39.554,22.877
			c1.446,0.837,2.345,2.396,2.343,4.067l-0.051,45.754c-0.001,1.666-0.897,3.22-2.34,4.055l-39.504,22.877
			C64.599,123.602,63.786,123.819,62.96,123.819 M66.017,115.646l25.102-14.537l-25.102,3.843V115.646z M59.844,115.615v-10.721
			l-25.123-3.806L59.844,115.615z M68.591,98.313l29.755-4.554l-10.567-30.8L68.591,98.313z M57.24,98.257L38.083,62.959
			L27.517,93.753L57.24,98.257z M62.931,95.8L83.23,58.398H42.632L62.931,95.8z M100.999,82.47l0.031-28.202l-8.687,2.978
			L100.999,82.47z M24.878,82.425l8.651-25.21l-8.651-2.966V82.425z M81.388,52.227L62.958,32.177L44.485,52.227H81.388z
			 M89.336,51.751l7.778-2.667L75.27,36.449L89.336,51.751z M36.552,51.727l14.053-15.252l-21.79,12.6L36.552,51.727z"/>
		<path fill="#FFFFFF" d="M62.96,24.408c0.556,0,1.11,0.144,1.608,0.431l39.554,22.878c0.993,0.574,1.604,1.635,1.603,2.782
			l-0.05,45.755c-0.001,1.144-0.611,2.201-1.602,2.775L64.57,121.906c-0.498,0.288-1.053,0.432-1.609,0.432
			c-0.555,0-1.109-0.143-1.606-0.431L21.791,99.03c-0.993-0.574-1.604-1.633-1.604-2.78V50.497c0-1.147,0.611-2.206,1.604-2.78
			l39.563-22.877C61.851,24.552,62.406,24.408,62.96,24.408 M41.106,53.708H84.76L62.959,29.99L41.106,53.708 M88.901,53.466
			l11.771-4.036L67.617,30.312L88.901,53.466 M36.986,53.441L58.289,30.32l-33.03,19.099L36.986,53.441 M23.397,91.304
			l12.013-35.009l-12.013-4.119V91.304 M102.47,91.32l0.043-39.126l-12.052,4.132L102.47,91.32 M62.931,98.905l22.788-41.988H40.144
			L62.931,98.905 M59.962,100.167L37.777,59.291L25.541,94.953L59.962,100.167 M65.866,100.229l34.457-5.274L88.084,59.291
			L65.866,100.229 M61.326,118.183v-14.561l-34.123-5.17L61.326,118.183 M64.537,118.215l34.115-19.757l-34.115,5.222V118.215
			 M62.96,21.446c-1.083,0-2.151,0.287-3.09,0.829L20.308,45.152c-1.901,1.1-3.083,3.147-3.083,5.344V96.25
			c0,2.197,1.182,4.244,3.083,5.344l39.563,22.877c0.938,0.543,2.007,0.829,3.09,0.829c1.085,0,2.155-0.287,3.094-0.831
			l39.504-22.877c1.896-1.098,3.076-3.143,3.079-5.335l0.049-45.754c0.004-2.199-1.178-4.249-3.081-5.35L66.051,22.275
			C65.113,21.733,64.044,21.446,62.96,21.446 M47.864,50.746l15.093-16.382l15.059,16.382H47.864z M89.772,50.037l-6.85-7.45
			l10.637,6.152L89.772,50.037z M32.373,48.728l10.55-6.1l-6.804,7.385L32.373,48.728z M26.359,73.547V56.323l5.288,1.813
			L26.359,73.547z M94.225,58.167l5.321-1.824L99.528,73.62L94.225,58.167z M45.121,59.879h35.621L62.931,92.696L45.121,59.879z
			 M29.495,92.556l8.896-25.926L54.52,96.348L29.495,92.556z M71.315,96.398l16.156-29.769l8.899,25.934L71.315,96.398z
			 M58.364,113.048l-16.123-9.323l16.123,2.443V113.048z M67.499,106.224l16.088-2.462l-16.088,9.316V106.224z"/>
		<polygon fill="#FF517B" points="37.777,59.291 25.541,94.952 59.962,100.167 		"/>
		<polygon fill="#FF517B" points="58.289,30.32 25.259,49.42 36.987,53.441 		"/>
		<polygon fill="#FFCFE3" points="84.76,53.708 62.959,29.99 41.107,53.708 		"/>
		<polygon fill="#FFE2EF" points="100.672,49.431 67.617,30.312 88.901,53.466 		"/>
		<polygon fill="#E2456B" points="23.397,52.177 23.397,91.305 35.411,56.295 		"/>
		<polygon fill="#FFCFE3" points="65.866,100.229 100.322,94.955 88.084,59.291 		"/>
		<polygon fill="#E2456B" points="61.326,118.183 61.326,103.622 27.203,98.452 		"/>
		<polygon fill="#FFE2EF" points="90.462,56.326 102.469,91.321 102.513,52.194 		"/>
		<polygon fill="#FF517B" points="64.537,118.216 98.652,98.458 64.537,103.68 		"/>
		<polygon fill="#FF819B" points="40.143,56.918 62.931,98.906 85.719,56.918 		"/>
		<path fill="#D42758" d="M104.123,47.717L64.569,24.84c-0.498-0.288-1.054-0.432-1.608-0.432s-1.109,0.144-1.606,0.432
			L21.79,47.717c-0.992,0.574-1.603,1.633-1.603,2.78V96.25c0,1.147,0.611,2.206,1.603,2.78l39.564,22.877
			c0.497,0.287,1.052,0.431,1.606,0.431c0.556,0,1.111-0.144,1.609-0.432l39.504-22.877c0.99-0.574,1.601-1.631,1.602-2.775
			l0.05-45.755C105.727,49.353,105.116,48.292,104.123,47.717 M23.397,52.177l12.013,4.119L23.397,91.305V52.177z M40.143,56.917
			h45.577L62.931,98.906L40.143,56.917z M59.962,100.167l-34.422-5.216l12.237-35.661L59.962,100.167z M41.106,53.708L62.959,29.99
			L84.76,53.708H41.106z M88.901,53.467L67.617,30.312l33.056,19.118L88.901,53.467z M36.987,53.441l-11.728-4.022l33.03-19.099
			L36.987,53.441z M61.326,103.622v14.561L27.203,98.451L61.326,103.622z M88.084,59.291l12.238,35.664l-34.457,5.274L88.084,59.291
			z M90.461,56.326l12.052-4.131l-0.043,39.126L90.461,56.326z M64.537,118.216v-14.535l34.115-5.222L64.537,118.216z"/>
	</g>
	<g display="inline">
		<path fill="#D42758" d="M154.464,92.114c0-1.828,1.617-3.234,3.586-3.234c2.039,0,3.727,1.406,3.727,3.234
			c0,3.094,2.461,6.047,7.172,6.047c4.5,0,7.383-2.531,7.383-6.328c0-3.023-0.703-5.625-4.992-8.438l-1.898-1.125
			c-4.641-2.602-5.906-3.445-7.242-4.289c-4.5-3.023-7.312-6.539-7.312-11.812c0-7.805,6.469-12.445,13.922-12.445
			c7.805,0,13.922,4.57,13.922,12.023c0,1.828-1.617,3.234-3.656,3.234s-3.656-1.406-3.656-3.234c0-3.234-2.109-5.555-6.609-5.555
			c-4.57,0-6.609,3.023-6.609,5.906c0,1.547,0,3.656,3.797,6.328c1.125,0.914,4.078,2.742,8.93,5.484
			c5.414,3.164,8.719,8.016,8.719,13.922c0,8.156-7.172,12.797-14.695,12.797C159.878,104.629,154.464,98.512,154.464,92.114z"/>
		<path fill="#D42758" d="M232.159,56.958v44.367c0,1.828-1.617,3.305-3.656,3.305c-1.969,0-3.586-1.477-3.586-3.305V80.512h-14.836
			v20.812c0,1.828-1.617,3.305-3.586,3.305c-2.039,0-3.727-1.477-3.727-3.305V56.958c0-1.828,1.688-3.234,3.727-3.234
			c1.969,0,3.586,1.406,3.586,3.234v17.086h14.836V56.958c0-1.828,1.617-3.234,3.586-3.234
			C230.542,53.723,232.159,55.129,232.159,56.958z"/>
		<path fill="#D42758" d="M304.507,100.973c0,1.828-1.617,3.234-3.656,3.234h-19.617c-1.969,0-3.586-1.406-3.586-3.234V57.309
			c0-1.758,1.617-3.164,3.586-3.164h19.406c2.039,0,3.656,1.406,3.656,3.164c0,1.828-1.617,3.305-3.656,3.305h-15.68v13.43h13.711
			c2.039,0,3.656,1.477,3.656,3.305c0,1.758-1.617,3.164-3.656,3.164H284.96v17.156h15.891
			C302.89,97.668,304.507,99.075,304.507,100.973z"/>
		<path fill="#D42758" d="M371.513,104.208c-2.039,0-3.727-1.406-3.727-3.234V57.309c0-1.758,1.688-3.164,3.727-3.164h10.125
			c8.156,0,14.766,6.398,14.766,14.344v21.305c0,7.945-6.609,14.414-14.766,14.414H371.513z M375.099,97.668h6.539
			c4.148,0,7.453-3.516,7.453-7.875V68.489c0-4.359-3.305-7.875-7.453-7.875h-6.539V97.668z"/>
		<path fill="#D42758" d="M448.857,101.325V71.934l-8.859,18c-0.633,1.055-1.828,1.828-3.305,1.828
			c-1.406,0-2.602-0.633-3.234-1.758l-8.789-18v29.32c0,1.828-1.617,3.305-3.656,3.305c-1.969,0-3.586-1.477-3.586-3.305V56.958
			c0-1.828,1.617-3.234,3.586-3.234c1.406,0,2.742,0.773,3.234,1.828l12.445,25.664c4.148-8.297,8.438-17.367,12.516-25.664
			c0.562-1.055,1.828-1.828,3.305-1.828c2.18,0,3.586,1.688,3.586,3.234v44.367c0,1.828-1.617,3.305-3.586,3.305
			C450.474,104.629,448.857,103.153,448.857,101.325z"/>
		<path fill="#D42758" d="M508.48,100.481c0.422,1.898-1.125,4.148-3.656,4.148c-1.547,0-2.883-0.914-3.375-2.32l-2.953-9.422
			h-14.203c-0.984,3.234-1.828,6.258-2.812,9.422c-0.422,1.336-1.898,2.32-3.516,2.32c-2.109,0-4.219-2.039-3.445-4.219v0.07
			l13.359-44.438c0.492-1.336,1.969-2.32,3.586-2.32c1.547,0,2.953,0.984,3.445,2.32l13.5,44.438H508.48z M496.597,86.418
			l-5.133-19.406l-5.273,19.406H496.597z"/>
		<path fill="#D42758" d="M557.767,104.208c-2.039,0-3.727-1.406-3.727-3.234V57.309c0-1.758,1.688-3.164,3.727-3.164h10.125
			c8.156,0,14.766,6.398,14.766,14.344v21.305c0,7.945-6.609,14.414-14.766,14.414H557.767z M561.353,97.668h6.539
			c4.148,0,7.453-3.516,7.453-7.875V68.489c0-4.359-3.305-7.875-7.453-7.875h-6.539V97.668z"/>
		<path fill="#D42758" d="M630.398,100.973c0,1.828-1.617,3.234-3.656,3.234h-19.617c-1.969,0-3.586-1.406-3.586-3.234V57.309
			c0-1.758,1.617-3.164,3.586-3.164h19.406c2.039,0,3.656,1.406,3.656,3.164c0,1.828-1.617,3.305-3.656,3.305h-15.68v13.43h13.711
			c2.039,0,3.656,1.477,3.656,3.305c0,1.758-1.617,3.164-3.656,3.164h-13.711v17.156h15.891
			C628.781,97.668,630.398,99.075,630.398,100.973z"/>
		<path fill="#D42758" d="M671.32,102.801l-16.172-32.484l0.633,31.008c0,1.828-1.617,3.305-3.656,3.305
			c-1.969,0-3.656-1.477-3.656-3.305V56.958c0-1.828,1.828-3.234,3.656-3.234c1.336,0,2.672,0.844,3.234,1.828l16.172,32.344
			l-0.633-30.938c0-1.828,1.617-3.234,3.656-3.234s3.656,1.406,3.656,3.234v44.367c0,1.547-1.195,2.812-2.812,3.234l0.141-0.07
			c-0.422,0.141-0.633,0.141-0.984,0.141C673.289,104.629,671.882,103.856,671.32,102.801z"/>
		<path fill="#D42758" d="M251.283,56.958c0-1.828,1.617-3.234,3.586-3.234c2.039,0,3.656,1.406,3.656,3.234v44.367
			c0,1.828-1.617,3.305-3.656,3.305c-1.969,0-3.586-1.477-3.586-3.305V56.958z"/>
		<path fill="#D42758" d="M527.673,56.958c0-1.828,1.617-3.234,3.586-3.234c2.039,0,3.656,1.406,3.656,3.234v44.367
			c0,1.828-1.617,3.305-3.656,3.305c-1.969,0-3.586-1.477-3.586-3.305V56.958z"/>
		<path fill="#D42758" d="M329.888,97.668h16.172c2.039,0,3.656,1.477,3.656,3.305s-1.617,3.234-3.656,3.234h-19.828
			c-2.039,0-3.656-1.406-3.656-3.234V56.958c0-1.828,1.617-3.234,3.586-3.234c1.908,0,3.537,1.236,3.727,2.892V97.668z"/>
	</g>
</g>
<g id="Orange" display="none">
	<g display="inline">
		<path fill="#E2845C" d="M4.337,13.169v57.364v6.435v5.302c0,38.844,9.58,48.412,32.685,56.974
			c13.713,5.08,21.374,9.742,24.026,11.508c0.209,0.137,1.667,0.268,1.907,0.314v-27.177L19.262,98.51V47.649l43.693-25.011V5.932
			c-26.234,5.067-50.194,5.586-56.817,5.628C5.144,11.56,4.337,12.28,4.337,13.169"/>
		<path fill="#FFEADD" d="M120.701,13.169v57.364v6.435v5.302c0,38.844-9.438,48.412-32.197,56.974
			c-13.509,5.08-21.056,9.742-23.668,11.508c-0.206,0.137-1.642,0.268-1.88,0.314v-27.177l45.013-25.379V47.649L62.956,22.638V5.932
			c25.845,5.067,49.447,5.586,55.972,5.628C119.907,11.56,120.701,12.28,120.701,13.169"/>
		<path fill="#FFFFFF" d="M62.956,153.598c-0.816,0-1.632-0.23-2.328-0.695c-2.604-1.73-10.116-6.299-23.651-11.312
			c-11.559-4.283-20.442-9.001-26.223-18.104c-5.574-8.774-8.059-21.482-8.059-41.204V12.921c0-2.137,1.824-3.876,4.067-3.876
			c6.693-0.042,30.509-0.57,55.354-5.604c0.55-0.111,1.132-0.112,1.684,0c24.836,5.033,48.645,5.562,55.36,5.604
			c2.24,0.004,4.061,1.742,4.061,3.876v69.361c0,40.128-10.108,50.349-34.284,59.308c-13.534,5.014-21.047,9.582-23.649,11.312
			C64.589,153.365,63.772,153.596,62.956,153.598 M8.76,13.544c-0.857,0.014-1.545,0.711-1.545,1.569v67.169
			c0,39.171,10.034,47.176,31.332,55.067c12.093,4.482,19.613,8.67,23.192,10.896c0.746,0.465,1.686,0.465,2.433,0
			c3.578-2.227,11.098-6.414,23.192-10.896c21.299-7.892,31.333-15.897,31.333-55.067V15.113c0-0.858-0.688-1.555-1.545-1.569
			c-8.698-0.136-30.818-0.962-53.893-5.599c-0.2-0.04-0.408-0.04-0.608,0C39.578,12.582,17.459,13.408,8.76,13.544 M6.778,13.566
			H6.775H6.778z"/>
		<path fill="#D1774A" d="M62.956,156.955c-0.853,0-1.705-0.242-2.433-0.727c-2.719-1.809-10.568-6.58-24.708-11.818
			c-12.076-4.475-21.356-9.402-27.395-18.911C2.597,116.332,0,103.056,0,82.452V9.991c0-2.232,1.906-4.049,4.249-4.049
			c6.993-0.044,31.873-0.595,57.828-5.855c0.575-0.115,1.183-0.116,1.759,0.001c25.946,5.257,50.819,5.81,57.836,5.854
			c2.34,0.005,4.241,1.82,4.241,4.049v72.461c0,41.922-10.559,52.601-35.816,61.958c-14.14,5.238-21.988,10.01-24.706,11.818
			C64.662,156.713,63.809,156.953,62.956,156.955 M6.223,10.052c-1.113,0.019-2.001,0.927-2.001,2.041v70.393
			c0,41.275,10.573,49.709,33.015,58.026c12.255,4.541,20.053,8.797,23.987,11.201c1.064,0.65,2.399,0.65,3.464,0
			c3.933-2.404,11.73-6.66,23.987-11.201c22.442-8.317,33.016-16.752,33.016-58.026v-70.05c0-1.302-1.041-2.366-2.343-2.39
			c-9.66-0.178-32.571-1.131-56.393-5.952C38.851,8.972,15.679,9.89,6.223,10.052 M3.762,10.082H3.759H3.762z"/>
		<path d="M62.96,123.819c-0.823,0-1.637-0.218-2.349-0.63l-39.562-22.877c-1.446-0.836-2.344-2.392-2.344-4.062V50.497
			c0-1.67,0.898-3.226,2.344-4.062l39.562-22.877c0.712-0.412,1.525-0.63,2.349-0.63c0.824,0,1.636,0.218,2.35,0.63l39.554,22.877
			c1.446,0.837,2.345,2.396,2.343,4.067l-0.051,45.754c-0.001,1.666-0.897,3.22-2.34,4.055l-39.504,22.877
			C64.599,123.602,63.786,123.819,62.96,123.819 M66.017,115.646l25.102-14.537l-25.102,3.843V115.646z M59.844,115.615v-10.721
			l-25.123-3.806L59.844,115.615z M68.591,98.313l29.755-4.554l-10.567-30.8L68.591,98.313z M57.24,98.257L38.083,62.959
			L27.517,93.753L57.24,98.257z M62.931,95.8L83.23,58.398H42.632L62.931,95.8z M100.999,82.47l0.031-28.202l-8.687,2.978
			L100.999,82.47z M24.878,82.425l8.651-25.21l-8.651-2.966V82.425z M81.388,52.227L62.958,32.177L44.485,52.227H81.388z
			 M89.336,51.751l7.778-2.667L75.27,36.449L89.336,51.751z M36.552,51.727l14.053-15.252l-21.79,12.6L36.552,51.727z"/>
		<path fill="#FFFFFF" d="M62.96,24.408c0.556,0,1.11,0.144,1.608,0.431l39.554,22.878c0.993,0.574,1.604,1.635,1.603,2.782
			l-0.05,45.755c-0.001,1.144-0.611,2.201-1.602,2.775L64.57,121.906c-0.498,0.288-1.053,0.432-1.609,0.432
			c-0.555,0-1.109-0.143-1.606-0.431L21.791,99.03c-0.993-0.574-1.604-1.633-1.604-2.78V50.497c0-1.147,0.611-2.206,1.604-2.78
			l39.563-22.877C61.851,24.552,62.406,24.408,62.96,24.408 M41.106,53.708H84.76L62.959,29.99L41.106,53.708 M88.901,53.466
			l11.771-4.036L67.617,30.312L88.901,53.466 M36.986,53.441L58.289,30.32l-33.03,19.099L36.986,53.441 M23.397,91.304
			l12.013-35.009l-12.013-4.119V91.304 M102.47,91.32l0.043-39.126l-12.052,4.132L102.47,91.32 M62.931,98.905l22.788-41.988H40.144
			L62.931,98.905 M59.962,100.167L37.777,59.291L25.541,94.953L59.962,100.167 M65.866,100.229l34.457-5.274L88.084,59.291
			L65.866,100.229 M61.326,118.183v-14.561l-34.123-5.17L61.326,118.183 M64.537,118.215l34.115-19.757l-34.115,5.222V118.215
			 M62.96,21.446c-1.083,0-2.151,0.287-3.09,0.829L20.308,45.152c-1.901,1.1-3.083,3.147-3.083,5.344V96.25
			c0,2.197,1.182,4.244,3.083,5.344l39.563,22.877c0.938,0.543,2.007,0.829,3.09,0.829c1.085,0,2.155-0.287,3.094-0.831
			l39.504-22.877c1.896-1.098,3.076-3.143,3.079-5.335l0.049-45.754c0.004-2.199-1.178-4.249-3.081-5.35L66.051,22.275
			C65.113,21.733,64.044,21.446,62.96,21.446 M47.864,50.746l15.093-16.382l15.059,16.382H47.864z M89.772,50.037l-6.85-7.45
			l10.637,6.152L89.772,50.037z M32.373,48.728l10.55-6.1l-6.804,7.385L32.373,48.728z M26.359,73.547V56.323l5.288,1.813
			L26.359,73.547z M94.225,58.167l5.321-1.824L99.528,73.62L94.225,58.167z M45.121,59.879h35.621L62.931,92.696L45.121,59.879z
			 M29.495,92.556l8.896-25.926L54.52,96.348L29.495,92.556z M71.315,96.398l16.156-29.769l8.899,25.934L71.315,96.398z
			 M58.364,113.048l-16.123-9.323l16.123,2.443V113.048z M67.499,106.224l16.088-2.462l-16.088,9.316V106.224z"/>
		<polygon fill="#FFAD84" points="37.777,59.291 25.541,94.952 59.962,100.167 		"/>
		<polygon fill="#FFAD84" points="58.289,30.32 25.259,49.42 36.987,53.441 		"/>
		<polygon fill="#FFEADD" points="84.76,53.708 62.959,29.99 41.107,53.708 		"/>
		<polygon fill="#FFF4ED" points="100.672,49.431 67.617,30.312 88.901,53.466 		"/>
		<polygon fill="#E2845C" points="23.397,52.177 23.397,91.305 35.411,56.295 		"/>
		<polygon fill="#FFEADD" points="65.866,100.229 100.322,94.955 88.084,59.291 		"/>
		<polygon fill="#E2845C" points="61.326,118.183 61.326,103.622 27.203,98.452 		"/>
		<polygon fill="#FFF4ED" points="90.462,56.326 102.469,91.321 102.513,52.194 		"/>
		<polygon fill="#FFAD84" points="64.537,118.216 98.652,98.458 64.537,103.68 		"/>
		<polygon fill="#FFCCAF" points="40.143,56.918 62.931,98.906 85.719,56.918 		"/>
		<path fill="#D1774A" d="M104.123,47.717L64.569,24.84c-0.498-0.288-1.054-0.432-1.608-0.432s-1.109,0.144-1.606,0.432
			L21.79,47.717c-0.992,0.574-1.603,1.633-1.603,2.78V96.25c0,1.147,0.611,2.206,1.603,2.78l39.564,22.877
			c0.497,0.287,1.052,0.431,1.606,0.431c0.556,0,1.111-0.144,1.609-0.432l39.504-22.877c0.99-0.574,1.601-1.631,1.602-2.775
			l0.05-45.755C105.727,49.353,105.116,48.292,104.123,47.717 M23.397,52.177l12.013,4.119L23.397,91.305V52.177z M40.143,56.917
			h45.577L62.931,98.906L40.143,56.917z M59.962,100.167l-34.422-5.216l12.237-35.661L59.962,100.167z M41.106,53.708L62.959,29.99
			L84.76,53.708H41.106z M88.901,53.467L67.617,30.312l33.056,19.118L88.901,53.467z M36.987,53.441l-11.728-4.022l33.03-19.099
			L36.987,53.441z M61.326,103.622v14.561L27.203,98.451L61.326,103.622z M88.084,59.291l12.238,35.664l-34.457,5.274L88.084,59.291
			z M90.461,56.326l12.052-4.131l-0.043,39.126L90.461,56.326z M64.537,118.216v-14.535l34.115-5.222L64.537,118.216z"/>
	</g>
	<g display="inline">
		<path fill="#D1774A" d="M154.464,92.114c0-1.828,1.617-3.234,3.586-3.234c2.039,0,3.727,1.406,3.727,3.234
			c0,3.094,2.461,6.047,7.172,6.047c4.5,0,7.383-2.531,7.383-6.328c0-3.023-0.703-5.625-4.992-8.438l-1.898-1.125
			c-4.641-2.602-5.906-3.445-7.242-4.289c-4.5-3.023-7.312-6.539-7.312-11.812c0-7.805,6.469-12.445,13.922-12.445
			c7.805,0,13.922,4.57,13.922,12.023c0,1.828-1.617,3.234-3.656,3.234s-3.656-1.406-3.656-3.234c0-3.234-2.109-5.555-6.609-5.555
			c-4.57,0-6.609,3.023-6.609,5.906c0,1.547,0,3.656,3.797,6.328c1.125,0.914,4.078,2.742,8.93,5.484
			c5.414,3.164,8.719,8.016,8.719,13.922c0,8.156-7.172,12.797-14.695,12.797C159.878,104.629,154.464,98.512,154.464,92.114z"/>
		<path fill="#D1774A" d="M232.159,56.958v44.367c0,1.828-1.617,3.305-3.656,3.305c-1.969,0-3.586-1.477-3.586-3.305V80.512h-14.836
			v20.812c0,1.828-1.617,3.305-3.586,3.305c-2.039,0-3.727-1.477-3.727-3.305V56.958c0-1.828,1.688-3.234,3.727-3.234
			c1.969,0,3.586,1.406,3.586,3.234v17.086h14.836V56.958c0-1.828,1.617-3.234,3.586-3.234
			C230.542,53.723,232.159,55.129,232.159,56.958z"/>
		<path fill="#D1774A" d="M304.507,100.973c0,1.828-1.617,3.234-3.656,3.234h-19.617c-1.969,0-3.586-1.406-3.586-3.234V57.309
			c0-1.758,1.617-3.164,3.586-3.164h19.406c2.039,0,3.656,1.406,3.656,3.164c0,1.828-1.617,3.305-3.656,3.305h-15.68v13.43h13.711
			c2.039,0,3.656,1.477,3.656,3.305c0,1.758-1.617,3.164-3.656,3.164H284.96v17.156h15.891
			C302.89,97.668,304.507,99.075,304.507,100.973z"/>
		<path fill="#D1774A" d="M371.513,104.208c-2.039,0-3.727-1.406-3.727-3.234V57.309c0-1.758,1.688-3.164,3.727-3.164h10.125
			c8.156,0,14.766,6.398,14.766,14.344v21.305c0,7.945-6.609,14.414-14.766,14.414H371.513z M375.099,97.668h6.539
			c4.148,0,7.453-3.516,7.453-7.875V68.489c0-4.359-3.305-7.875-7.453-7.875h-6.539V97.668z"/>
		<path fill="#D1774A" d="M448.857,101.325V71.934l-8.859,18c-0.633,1.055-1.828,1.828-3.305,1.828
			c-1.406,0-2.602-0.633-3.234-1.758l-8.789-18v29.32c0,1.828-1.617,3.305-3.656,3.305c-1.969,0-3.586-1.477-3.586-3.305V56.958
			c0-1.828,1.617-3.234,3.586-3.234c1.406,0,2.742,0.773,3.234,1.828l12.445,25.664c4.148-8.297,8.438-17.367,12.516-25.664
			c0.562-1.055,1.828-1.828,3.305-1.828c2.18,0,3.586,1.688,3.586,3.234v44.367c0,1.828-1.617,3.305-3.586,3.305
			C450.474,104.629,448.857,103.153,448.857,101.325z"/>
		<path fill="#D1774A" d="M508.48,100.481c0.422,1.898-1.125,4.148-3.656,4.148c-1.547,0-2.883-0.914-3.375-2.32l-2.953-9.422
			h-14.203c-0.984,3.234-1.828,6.258-2.812,9.422c-0.422,1.336-1.898,2.32-3.516,2.32c-2.109,0-4.219-2.039-3.445-4.219v0.07
			l13.359-44.438c0.492-1.336,1.969-2.32,3.586-2.32c1.547,0,2.953,0.984,3.445,2.32l13.5,44.438H508.48z M496.597,86.418
			l-5.133-19.406l-5.273,19.406H496.597z"/>
		<path fill="#D1774A" d="M557.767,104.208c-2.039,0-3.727-1.406-3.727-3.234V57.309c0-1.758,1.688-3.164,3.727-3.164h10.125
			c8.156,0,14.766,6.398,14.766,14.344v21.305c0,7.945-6.609,14.414-14.766,14.414H557.767z M561.353,97.668h6.539
			c4.148,0,7.453-3.516,7.453-7.875V68.489c0-4.359-3.305-7.875-7.453-7.875h-6.539V97.668z"/>
		<path fill="#D1774A" d="M630.398,100.973c0,1.828-1.617,3.234-3.656,3.234h-19.617c-1.969,0-3.586-1.406-3.586-3.234V57.309
			c0-1.758,1.617-3.164,3.586-3.164h19.406c2.039,0,3.656,1.406,3.656,3.164c0,1.828-1.617,3.305-3.656,3.305h-15.68v13.43h13.711
			c2.039,0,3.656,1.477,3.656,3.305c0,1.758-1.617,3.164-3.656,3.164h-13.711v17.156h15.891
			C628.781,97.668,630.398,99.075,630.398,100.973z"/>
		<path fill="#D1774A" d="M671.32,102.801l-16.172-32.484l0.633,31.008c0,1.828-1.617,3.305-3.656,3.305
			c-1.969,0-3.656-1.477-3.656-3.305V56.958c0-1.828,1.828-3.234,3.656-3.234c1.336,0,2.672,0.844,3.234,1.828l16.172,32.344
			l-0.633-30.938c0-1.828,1.617-3.234,3.656-3.234s3.656,1.406,3.656,3.234v44.367c0,1.547-1.195,2.812-2.812,3.234l0.141-0.07
			c-0.422,0.141-0.633,0.141-0.984,0.141C673.289,104.629,671.882,103.856,671.32,102.801z"/>
		<path fill="#D1774A" d="M251.283,56.958c0-1.828,1.617-3.234,3.586-3.234c2.039,0,3.656,1.406,3.656,3.234v44.367
			c0,1.828-1.617,3.305-3.656,3.305c-1.969,0-3.586-1.477-3.586-3.305V56.958z"/>
		<path fill="#D1774A" d="M527.673,56.958c0-1.828,1.617-3.234,3.586-3.234c2.039,0,3.656,1.406,3.656,3.234v44.367
			c0,1.828-1.617,3.305-3.656,3.305c-1.969,0-3.586-1.477-3.586-3.305V56.958z"/>
		<path fill="#D1774A" d="M329.888,97.668h16.172c2.039,0,3.656,1.477,3.656,3.305s-1.617,3.234-3.656,3.234h-19.828
			c-2.039,0-3.656-1.406-3.656-3.234V56.958c0-1.828,1.617-3.234,3.586-3.234c1.908,0,3.537,1.236,3.727,2.892V97.668z"/>
	</g>
</g>
<g id="Cyan">
	<g>
		<path fill="#4CB5BC" d="M4.337,13.169v57.364v6.435v5.302c0,38.844,9.58,48.412,32.685,56.974
			c13.713,5.08,21.374,9.742,24.026,11.508c0.209,0.137,1.667,0.268,1.907,0.314v-27.177L19.262,98.51V47.649l43.693-25.011V5.932
			c-26.234,5.067-50.194,5.586-56.817,5.628C5.144,11.56,4.337,12.28,4.337,13.169"/>
		<path fill="#C5EAF4" d="M120.701,13.169v57.364v6.435v5.302c0,38.844-9.438,48.412-32.197,56.974
			c-13.509,5.08-21.056,9.742-23.668,11.508c-0.206,0.137-1.642,0.268-1.88,0.314v-27.177l45.013-25.379V47.649L62.956,22.638V5.932
			c25.845,5.067,49.447,5.586,55.972,5.628C119.907,11.56,120.701,12.28,120.701,13.169"/>
		<path fill="#FFFFFF" d="M62.956,153.598c-0.816,0-1.632-0.23-2.328-0.695c-2.604-1.73-10.116-6.299-23.651-11.312
			c-11.559-4.283-20.442-9.001-26.223-18.104c-5.574-8.774-8.059-21.482-8.059-41.204V12.921c0-2.137,1.824-3.876,4.067-3.876
			c6.693-0.042,30.509-0.57,55.354-5.604c0.55-0.111,1.132-0.112,1.684,0c24.836,5.033,48.645,5.562,55.36,5.604
			c2.24,0.004,4.061,1.742,4.061,3.876v69.361c0,40.128-10.108,50.349-34.284,59.308c-13.534,5.014-21.047,9.582-23.649,11.312
			C64.589,153.365,63.772,153.596,62.956,153.598 M8.76,13.544c-0.857,0.014-1.545,0.711-1.545,1.569v67.169
			c0,39.171,10.034,47.176,31.332,55.067c12.093,4.482,19.613,8.67,23.192,10.896c0.746,0.465,1.686,0.465,2.433,0
			c3.578-2.227,11.098-6.414,23.192-10.896c21.299-7.892,31.333-15.897,31.333-55.067V15.113c0-0.858-0.688-1.555-1.545-1.569
			c-8.698-0.136-30.818-0.962-53.893-5.599c-0.2-0.04-0.408-0.04-0.608,0C39.578,12.582,17.459,13.408,8.76,13.544 M6.778,13.566
			H6.775H6.778z"/>
		<path fill="#3FA3AD" d="M62.956,156.955c-0.853,0-1.705-0.242-2.433-0.727c-2.719-1.809-10.568-6.58-24.708-11.818
			c-12.076-4.475-21.356-9.402-27.395-18.911C2.597,116.332,0,103.056,0,82.452V9.991c0-2.232,1.906-4.049,4.249-4.049
			c6.993-0.044,31.873-0.595,57.828-5.855c0.575-0.115,1.183-0.116,1.759,0.001c25.946,5.257,50.819,5.81,57.836,5.854
			c2.34,0.005,4.241,1.82,4.241,4.049v72.461c0,41.922-10.559,52.601-35.816,61.958c-14.14,5.238-21.988,10.01-24.706,11.818
			C64.662,156.713,63.809,156.953,62.956,156.955 M6.223,10.052c-1.113,0.019-2.001,0.927-2.001,2.041v70.393
			c0,41.275,10.573,49.709,33.015,58.026c12.255,4.541,20.053,8.797,23.987,11.201c1.064,0.65,2.399,0.65,3.464,0
			c3.933-2.404,11.73-6.66,23.987-11.201c22.442-8.317,33.016-16.752,33.016-58.026v-70.05c0-1.302-1.041-2.366-2.343-2.39
			c-9.66-0.178-32.571-1.131-56.393-5.952C38.851,8.972,15.679,9.89,6.223,10.052 M3.762,10.082H3.759H3.762z"/>
		<path d="M62.96,123.819c-0.823,0-1.637-0.218-2.349-0.63l-39.562-22.877c-1.446-0.836-2.344-2.392-2.344-4.062V50.497
			c0-1.67,0.898-3.226,2.344-4.062l39.562-22.877c0.712-0.412,1.525-0.63,2.349-0.63c0.824,0,1.636,0.218,2.35,0.63l39.554,22.877
			c1.446,0.837,2.345,2.396,2.343,4.067l-0.051,45.754c-0.001,1.666-0.897,3.22-2.34,4.055l-39.504,22.877
			C64.599,123.602,63.786,123.819,62.96,123.819 M66.017,115.646l25.102-14.537l-25.102,3.843V115.646z M59.844,115.615v-10.721
			l-25.123-3.806L59.844,115.615z M68.591,98.313l29.755-4.554l-10.567-30.8L68.591,98.313z M57.24,98.257L38.083,62.959
			L27.517,93.753L57.24,98.257z M62.931,95.8L83.23,58.398H42.632L62.931,95.8z M100.999,82.47l0.031-28.202l-8.687,2.978
			L100.999,82.47z M24.878,82.425l8.651-25.21l-8.651-2.966V82.425z M81.388,52.227L62.958,32.177L44.485,52.227H81.388z
			 M89.336,51.751l7.778-2.667L75.27,36.449L89.336,51.751z M36.552,51.727l14.053-15.252l-21.79,12.6L36.552,51.727z"/>
		<path fill="#FFFFFF" d="M62.96,24.408c0.556,0,1.11,0.144,1.608,0.431l39.554,22.878c0.993,0.574,1.604,1.635,1.603,2.782
			l-0.05,45.755c-0.001,1.144-0.611,2.201-1.602,2.775L64.57,121.906c-0.498,0.288-1.053,0.432-1.609,0.432
			c-0.555,0-1.109-0.143-1.606-0.431L21.791,99.03c-0.993-0.574-1.604-1.633-1.604-2.78V50.497c0-1.147,0.611-2.206,1.604-2.78
			l39.563-22.877C61.851,24.552,62.406,24.408,62.96,24.408 M41.106,53.708H84.76L62.959,29.99L41.106,53.708 M88.901,53.466
			l11.771-4.036L67.617,30.312L88.901,53.466 M36.986,53.441L58.289,30.32l-33.03,19.099L36.986,53.441 M23.397,91.304
			l12.013-35.009l-12.013-4.119V91.304 M102.47,91.32l0.043-39.126l-12.052,4.132L102.47,91.32 M62.931,98.905l22.788-41.988H40.144
			L62.931,98.905 M59.962,100.167L37.777,59.291L25.541,94.953L59.962,100.167 M65.866,100.229l34.457-5.274L88.084,59.291
			L65.866,100.229 M61.326,118.183v-14.561l-34.123-5.17L61.326,118.183 M64.537,118.215l34.115-19.757l-34.115,5.222V118.215
			 M62.96,21.446c-1.083,0-2.151,0.287-3.09,0.829L20.308,45.152c-1.901,1.1-3.083,3.147-3.083,5.344V96.25
			c0,2.197,1.182,4.244,3.083,5.344l39.563,22.877c0.938,0.543,2.007,0.829,3.09,0.829c1.085,0,2.155-0.287,3.094-0.831
			l39.504-22.877c1.896-1.098,3.076-3.143,3.079-5.335l0.049-45.754c0.004-2.199-1.178-4.249-3.081-5.35L66.051,22.275
			C65.113,21.733,64.044,21.446,62.96,21.446 M47.864,50.746l15.093-16.382l15.059,16.382H47.864z M89.772,50.037l-6.85-7.45
			l10.637,6.152L89.772,50.037z M32.373,48.728l10.55-6.1l-6.804,7.385L32.373,48.728z M26.359,73.547V56.323l5.288,1.813
			L26.359,73.547z M94.225,58.167l5.321-1.824L99.528,73.62L94.225,58.167z M45.121,59.879h35.621L62.931,92.696L45.121,59.879z
			 M29.495,92.556l8.896-25.926L54.52,96.348L29.495,92.556z M71.315,96.398l16.156-29.769l8.899,25.934L71.315,96.398z
			 M58.364,113.048l-16.123-9.323l16.123,2.443V113.048z M67.499,106.224l16.088-2.462l-16.088,9.316V106.224z"/>
		<polygon fill="#6DCBD0" points="37.777,59.291 25.541,94.952 59.962,100.167 		"/>
		<polygon fill="#6DCBD0" points="58.289,30.32 25.259,49.42 36.987,53.441 		"/>
		<polygon fill="#C5EAF4" points="84.76,53.708 62.959,29.99 41.107,53.708 		"/>
		<polygon fill="#E0FBFB" points="100.672,49.431 67.617,30.312 88.901,53.466 		"/>
		<polygon fill="#4CB5BC" points="23.397,52.177 23.397,91.305 35.411,56.295 		"/>
		<polygon fill="#C5EAF4" points="65.866,100.229 100.322,94.955 88.084,59.291 		"/>
		<polygon fill="#4CB5BC" points="61.326,118.183 61.326,103.622 27.203,98.452 		"/>
		<polygon fill="#E0FBFB" points="90.462,56.326 102.469,91.321 102.513,52.194 		"/>
		<polygon fill="#6DCBD0" points="64.537,118.216 98.652,98.458 64.537,103.68 		"/>
		<polygon fill="#96DADF" points="40.143,56.918 62.931,98.906 85.719,56.918 		"/>
		<path fill="#3FA3AD" d="M104.123,47.717L64.569,24.84c-0.498-0.288-1.054-0.432-1.608-0.432s-1.109,0.144-1.606,0.432
			L21.79,47.717c-0.992,0.574-1.603,1.633-1.603,2.78V96.25c0,1.147,0.611,2.206,1.603,2.78l39.564,22.877
			c0.497,0.287,1.052,0.431,1.606,0.431c0.556,0,1.111-0.144,1.609-0.432l39.504-22.877c0.99-0.574,1.601-1.631,1.602-2.775
			l0.05-45.755C105.727,49.353,105.116,48.292,104.123,47.717 M23.397,52.177l12.013,4.119L23.397,91.305V52.177z M40.143,56.917
			h45.577L62.931,98.906L40.143,56.917z M59.962,100.167l-34.422-5.216l12.237-35.661L59.962,100.167z M41.106,53.708L62.959,29.99
			L84.76,53.708H41.106z M88.901,53.467L67.617,30.312l33.056,19.118L88.901,53.467z M36.987,53.441l-11.728-4.022l33.03-19.099
			L36.987,53.441z M61.326,103.622v14.561L27.203,98.451L61.326,103.622z M88.084,59.291l12.238,35.664l-34.457,5.274L88.084,59.291
			z M90.461,56.326l12.052-4.131l-0.043,39.126L90.461,56.326z M64.537,118.216v-14.535l34.115-5.222L64.537,118.216z"/>
	</g>
	<g>
		<path fill="#3FA3AD" d="M154.464,92.114c0-1.828,1.617-3.234,3.586-3.234c2.039,0,3.727,1.406,3.727,3.234
			c0,3.094,2.461,6.047,7.172,6.047c4.5,0,7.383-2.531,7.383-6.328c0-3.023-0.703-5.625-4.992-8.438l-1.898-1.125
			c-4.641-2.602-5.906-3.445-7.242-4.289c-4.5-3.023-7.312-6.539-7.312-11.812c0-7.805,6.469-12.445,13.922-12.445
			c7.805,0,13.922,4.57,13.922,12.023c0,1.828-1.617,3.234-3.656,3.234s-3.656-1.406-3.656-3.234c0-3.234-2.109-5.555-6.609-5.555
			c-4.57,0-6.609,3.023-6.609,5.906c0,1.547,0,3.656,3.797,6.328c1.125,0.914,4.078,2.742,8.93,5.484
			c5.414,3.164,8.719,8.016,8.719,13.922c0,8.156-7.172,12.797-14.695,12.797C159.878,104.629,154.464,98.512,154.464,92.114z"/>
		<path fill="#3FA3AD" d="M232.159,56.958v44.367c0,1.828-1.617,3.305-3.656,3.305c-1.969,0-3.586-1.477-3.586-3.305V80.512h-14.836
			v20.812c0,1.828-1.617,3.305-3.586,3.305c-2.039,0-3.727-1.477-3.727-3.305V56.958c0-1.828,1.688-3.234,3.727-3.234
			c1.969,0,3.586,1.406,3.586,3.234v17.086h14.836V56.958c0-1.828,1.617-3.234,3.586-3.234
			C230.542,53.723,232.159,55.129,232.159,56.958z"/>
		<path fill="#3FA3AD" d="M304.507,100.973c0,1.828-1.617,3.234-3.656,3.234h-19.617c-1.969,0-3.586-1.406-3.586-3.234V57.309
			c0-1.758,1.617-3.164,3.586-3.164h19.406c2.039,0,3.656,1.406,3.656,3.164c0,1.828-1.617,3.305-3.656,3.305h-15.68v13.43h13.711
			c2.039,0,3.656,1.477,3.656,3.305c0,1.758-1.617,3.164-3.656,3.164H284.96v17.156h15.891
			C302.89,97.668,304.507,99.075,304.507,100.973z"/>
		<path fill="#3FA3AD" d="M371.513,104.208c-2.039,0-3.727-1.406-3.727-3.234V57.309c0-1.758,1.688-3.164,3.727-3.164h10.125
			c8.156,0,14.766,6.398,14.766,14.344v21.305c0,7.945-6.609,14.414-14.766,14.414H371.513z M375.099,97.668h6.539
			c4.148,0,7.453-3.516,7.453-7.875V68.489c0-4.359-3.305-7.875-7.453-7.875h-6.539V97.668z"/>
		<path fill="#3FA3AD" d="M448.857,101.325V71.934l-8.859,18c-0.633,1.055-1.828,1.828-3.305,1.828
			c-1.406,0-2.602-0.633-3.234-1.758l-8.789-18v29.32c0,1.828-1.617,3.305-3.656,3.305c-1.969,0-3.586-1.477-3.586-3.305V56.958
			c0-1.828,1.617-3.234,3.586-3.234c1.406,0,2.742,0.773,3.234,1.828l12.445,25.664c4.148-8.297,8.438-17.367,12.516-25.664
			c0.562-1.055,1.828-1.828,3.305-1.828c2.18,0,3.586,1.688,3.586,3.234v44.367c0,1.828-1.617,3.305-3.586,3.305
			C450.474,104.629,448.857,103.153,448.857,101.325z"/>
		<path fill="#3FA3AD" d="M508.48,100.481c0.422,1.898-1.125,4.148-3.656,4.148c-1.547,0-2.883-0.914-3.375-2.32l-2.953-9.422
			h-14.203c-0.984,3.234-1.828,6.258-2.812,9.422c-0.422,1.336-1.898,2.32-3.516,2.32c-2.109,0-4.219-2.039-3.445-4.219v0.07
			l13.359-44.438c0.492-1.336,1.969-2.32,3.586-2.32c1.547,0,2.953,0.984,3.445,2.32l13.5,44.438H508.48z M496.597,86.418
			l-5.133-19.406l-5.273,19.406H496.597z"/>
		<path fill="#3FA3AD" d="M557.767,104.208c-2.039,0-3.727-1.406-3.727-3.234V57.309c0-1.758,1.688-3.164,3.727-3.164h10.125
			c8.156,0,14.766,6.398,14.766,14.344v21.305c0,7.945-6.609,14.414-14.766,14.414H557.767z M561.353,97.668h6.539
			c4.148,0,7.453-3.516,7.453-7.875V68.489c0-4.359-3.305-7.875-7.453-7.875h-6.539V97.668z"/>
		<path fill="#3FA3AD" d="M630.398,100.973c0,1.828-1.617,3.234-3.656,3.234h-19.617c-1.969,0-3.586-1.406-3.586-3.234V57.309
			c0-1.758,1.617-3.164,3.586-3.164h19.406c2.039,0,3.656,1.406,3.656,3.164c0,1.828-1.617,3.305-3.656,3.305h-15.68v13.43h13.711
			c2.039,0,3.656,1.477,3.656,3.305c0,1.758-1.617,3.164-3.656,3.164h-13.711v17.156h15.891
			C628.781,97.668,630.398,99.075,630.398,100.973z"/>
		<path fill="#3FA3AD" d="M671.32,102.801l-16.172-32.484l0.633,31.008c0,1.828-1.617,3.305-3.656,3.305
			c-1.969,0-3.656-1.477-3.656-3.305V56.958c0-1.828,1.828-3.234,3.656-3.234c1.336,0,2.672,0.844,3.234,1.828l16.172,32.344
			l-0.633-30.938c0-1.828,1.617-3.234,3.656-3.234s3.656,1.406,3.656,3.234v44.367c0,1.547-1.195,2.812-2.812,3.234l0.141-0.07
			c-0.422,0.141-0.633,0.141-0.984,0.141C673.289,104.629,671.882,103.856,671.32,102.801z"/>
		<path fill="#3FA3AD" d="M251.283,56.958c0-1.828,1.617-3.234,3.586-3.234c2.039,0,3.656,1.406,3.656,3.234v44.367
			c0,1.828-1.617,3.305-3.656,3.305c-1.969,0-3.586-1.477-3.586-3.305V56.958z"/>
		<path fill="#3FA3AD" d="M527.673,56.958c0-1.828,1.617-3.234,3.586-3.234c2.039,0,3.656,1.406,3.656,3.234v44.367
			c0,1.828-1.617,3.305-3.656,3.305c-1.969,0-3.586-1.477-3.586-3.305V56.958z"/>
		<path fill="#3FA3AD" d="M329.888,97.668h16.172c2.039,0,3.656,1.477,3.656,3.305s-1.617,3.234-3.656,3.234h-19.828
			c-2.039,0-3.656-1.406-3.656-3.234V56.958c0-1.828,1.617-3.234,3.586-3.234c1.908,0,3.537,1.236,3.727,2.892V97.668z"/>
	</g>
</g>
<g id="Yellow" display="none">
	<g display="inline">
		<path fill="#DDA71A" d="M4.337,13.169v57.364v6.435v5.302c0,38.844,9.58,48.412,32.685,56.974
			c13.713,5.08,21.374,9.742,24.026,11.508c0.209,0.137,1.667,0.268,1.907,0.314v-27.177L19.262,98.51V47.649l43.693-25.011V5.932
			c-26.234,5.067-50.194,5.586-56.817,5.628C5.144,11.56,4.337,12.28,4.337,13.169"/>
		<path fill="#FFE7AD" d="M120.701,13.169v57.364v6.435v5.302c0,38.844-9.438,48.412-32.197,56.974
			c-13.509,5.08-21.056,9.742-23.668,11.508c-0.206,0.137-1.642,0.268-1.88,0.314v-27.177l45.013-25.379V47.649L62.956,22.638V5.932
			c25.845,5.067,49.447,5.586,55.972,5.628C119.907,11.56,120.701,12.28,120.701,13.169"/>
		<path fill="#FFFFFF" d="M62.956,153.598c-0.816,0-1.632-0.23-2.328-0.695c-2.604-1.73-10.116-6.299-23.651-11.312
			c-11.559-4.283-20.442-9.001-26.223-18.104c-5.574-8.774-8.059-21.482-8.059-41.204V12.921c0-2.137,1.824-3.876,4.067-3.876
			c6.693-0.042,30.509-0.57,55.354-5.604c0.55-0.111,1.132-0.112,1.684,0c24.836,5.033,48.645,5.562,55.36,5.604
			c2.24,0.004,4.061,1.742,4.061,3.876v69.361c0,40.128-10.108,50.349-34.284,59.308c-13.534,5.014-21.047,9.582-23.649,11.312
			C64.589,153.365,63.772,153.596,62.956,153.598 M8.76,13.544c-0.857,0.014-1.545,0.711-1.545,1.569v67.169
			c0,39.171,10.034,47.176,31.332,55.067c12.093,4.482,19.613,8.67,23.192,10.896c0.746,0.465,1.686,0.465,2.433,0
			c3.578-2.227,11.098-6.414,23.192-10.896c21.299-7.892,31.333-15.897,31.333-55.067V15.113c0-0.858-0.688-1.555-1.545-1.569
			c-8.698-0.136-30.818-0.962-53.893-5.599c-0.2-0.04-0.408-0.04-0.608,0C39.578,12.582,17.459,13.408,8.76,13.544 M6.778,13.566
			H6.775H6.778z"/>
		<path fill="#BD8B00" d="M62.956,156.955c-0.853,0-1.705-0.242-2.433-0.727c-2.719-1.809-10.568-6.58-24.708-11.818
			c-12.076-4.475-21.356-9.402-27.395-18.911C2.597,116.332,0,103.056,0,82.452V9.991c0-2.232,1.906-4.049,4.249-4.049
			c6.993-0.044,31.873-0.595,57.828-5.855c0.575-0.115,1.183-0.116,1.759,0.001c25.946,5.257,50.819,5.81,57.836,5.854
			c2.34,0.005,4.241,1.82,4.241,4.049v72.461c0,41.922-10.559,52.601-35.816,61.958c-14.14,5.238-21.988,10.01-24.706,11.818
			C64.662,156.713,63.809,156.953,62.956,156.955 M6.223,10.052c-1.113,0.019-2.001,0.927-2.001,2.041v70.393
			c0,41.275,10.573,49.709,33.015,58.026c12.255,4.541,20.053,8.797,23.987,11.201c1.064,0.65,2.399,0.65,3.464,0
			c3.933-2.404,11.73-6.66,23.987-11.201c22.442-8.317,33.016-16.752,33.016-58.026v-70.05c0-1.302-1.041-2.366-2.343-2.39
			c-9.66-0.178-32.571-1.131-56.393-5.952C38.851,8.972,15.679,9.89,6.223,10.052 M3.762,10.082H3.759H3.762z"/>
		<path d="M62.96,123.819c-0.823,0-1.637-0.218-2.349-0.63l-39.562-22.877c-1.446-0.836-2.344-2.392-2.344-4.062V50.497
			c0-1.67,0.898-3.226,2.344-4.062l39.562-22.877c0.712-0.412,1.525-0.63,2.349-0.63c0.824,0,1.636,0.218,2.35,0.63l39.554,22.877
			c1.446,0.837,2.345,2.396,2.343,4.067l-0.051,45.754c-0.001,1.666-0.897,3.22-2.34,4.055l-39.504,22.877
			C64.599,123.602,63.786,123.819,62.96,123.819 M66.017,115.646l25.102-14.537l-25.102,3.843V115.646z M59.844,115.615v-10.721
			l-25.123-3.806L59.844,115.615z M68.591,98.313l29.755-4.554l-10.567-30.8L68.591,98.313z M57.24,98.257L38.083,62.959
			L27.517,93.753L57.24,98.257z M62.931,95.8L83.23,58.398H42.632L62.931,95.8z M100.999,82.47l0.031-28.202l-8.687,2.978
			L100.999,82.47z M24.878,82.425l8.651-25.21l-8.651-2.966V82.425z M81.388,52.227L62.958,32.177L44.485,52.227H81.388z
			 M89.336,51.751l7.778-2.667L75.27,36.449L89.336,51.751z M36.552,51.727l14.053-15.252l-21.79,12.6L36.552,51.727z"/>
		<path fill="#FFFFFF" d="M62.96,24.408c0.556,0,1.11,0.144,1.608,0.431l39.554,22.878c0.993,0.574,1.604,1.635,1.603,2.782
			l-0.05,45.755c-0.001,1.144-0.611,2.201-1.602,2.775L64.57,121.906c-0.498,0.288-1.053,0.432-1.609,0.432
			c-0.555,0-1.109-0.143-1.606-0.431L21.791,99.03c-0.993-0.574-1.604-1.633-1.604-2.78V50.497c0-1.147,0.611-2.206,1.604-2.78
			l39.563-22.877C61.851,24.552,62.406,24.408,62.96,24.408 M41.106,53.708H84.76L62.959,29.99L41.106,53.708 M88.901,53.466
			l11.771-4.036L67.617,30.312L88.901,53.466 M36.986,53.441L58.289,30.32l-33.03,19.099L36.986,53.441 M23.397,91.304
			l12.013-35.009l-12.013-4.119V91.304 M102.47,91.32l0.043-39.126l-12.052,4.132L102.47,91.32 M62.931,98.905l22.788-41.988H40.144
			L62.931,98.905 M59.962,100.167L37.777,59.291L25.541,94.953L59.962,100.167 M65.866,100.229l34.457-5.274L88.084,59.291
			L65.866,100.229 M61.326,118.183v-14.561l-34.123-5.17L61.326,118.183 M64.537,118.215l34.115-19.757l-34.115,5.222V118.215
			 M62.96,21.446c-1.083,0-2.151,0.287-3.09,0.829L20.308,45.152c-1.901,1.1-3.083,3.147-3.083,5.344V96.25
			c0,2.197,1.182,4.244,3.083,5.344l39.563,22.877c0.938,0.543,2.007,0.829,3.09,0.829c1.085,0,2.155-0.287,3.094-0.831
			l39.504-22.877c1.896-1.098,3.076-3.143,3.079-5.335l0.049-45.754c0.004-2.199-1.178-4.249-3.081-5.35L66.051,22.275
			C65.113,21.733,64.044,21.446,62.96,21.446 M47.864,50.746l15.093-16.382l15.059,16.382H47.864z M89.772,50.037l-6.85-7.45
			l10.637,6.152L89.772,50.037z M32.373,48.728l10.55-6.1l-6.804,7.385L32.373,48.728z M26.359,73.547V56.323l5.288,1.813
			L26.359,73.547z M94.225,58.167l5.321-1.824L99.528,73.62L94.225,58.167z M45.121,59.879h35.621L62.931,92.696L45.121,59.879z
			 M29.495,92.556l8.896-25.926L54.52,96.348L29.495,92.556z M71.315,96.398l16.156-29.769l8.899,25.934L71.315,96.398z
			 M58.364,113.048l-16.123-9.323l16.123,2.443V113.048z M67.499,106.224l16.088-2.462l-16.088,9.316V106.224z"/>
		<polygon fill="#FFC44A" points="37.777,59.291 25.541,94.952 59.962,100.167 		"/>
		<polygon fill="#FFC44A" points="58.289,30.32 25.259,49.42 36.987,53.441 		"/>
		<polygon fill="#FFE7AD" points="84.76,53.708 62.959,29.99 41.107,53.708 		"/>
		<polygon fill="#FFF4E0" points="100.672,49.431 67.617,30.312 88.901,53.466 		"/>
		<polygon fill="#DDA71A" points="23.397,52.177 23.397,91.305 35.411,56.295 		"/>
		<polygon fill="#FFE7AD" points="65.866,100.229 100.322,94.955 88.084,59.291 		"/>
		<polygon fill="#DDA71A" points="61.326,118.183 61.326,103.622 27.203,98.452 		"/>
		<polygon fill="#FFF4E0" points="90.462,56.326 102.469,91.321 102.513,52.194 		"/>
		<polygon fill="#FFC44A" points="64.537,118.216 98.652,98.458 64.537,103.68 		"/>
		<polygon fill="#FFDB65" points="40.143,56.918 62.931,98.906 85.719,56.918 		"/>
		<path fill="#BD8B00" d="M104.123,47.717L64.569,24.84c-0.498-0.288-1.054-0.432-1.608-0.432s-1.109,0.144-1.606,0.432
			L21.79,47.717c-0.992,0.574-1.603,1.633-1.603,2.78V96.25c0,1.147,0.611,2.206,1.603,2.78l39.564,22.877
			c0.497,0.287,1.052,0.431,1.606,0.431c0.556,0,1.111-0.144,1.609-0.432l39.504-22.877c0.99-0.574,1.601-1.631,1.602-2.775
			l0.05-45.755C105.727,49.353,105.116,48.292,104.123,47.717 M23.397,52.177l12.013,4.119L23.397,91.305V52.177z M40.143,56.917
			h45.577L62.931,98.906L40.143,56.917z M59.962,100.167l-34.422-5.216l12.237-35.661L59.962,100.167z M41.106,53.708L62.959,29.99
			L84.76,53.708H41.106z M88.901,53.467L67.617,30.312l33.056,19.118L88.901,53.467z M36.987,53.441l-11.728-4.022l33.03-19.099
			L36.987,53.441z M61.326,103.622v14.561L27.203,98.451L61.326,103.622z M88.084,59.291l12.238,35.664l-34.457,5.274L88.084,59.291
			z M90.461,56.326l12.052-4.131l-0.043,39.126L90.461,56.326z M64.537,118.216v-14.535l34.115-5.222L64.537,118.216z"/>
	</g>
	<g display="inline">
		<path fill="#BD8B00" d="M154.464,92.114c0-1.828,1.617-3.234,3.586-3.234c2.039,0,3.727,1.406,3.727,3.234
			c0,3.094,2.461,6.047,7.172,6.047c4.5,0,7.383-2.531,7.383-6.328c0-3.023-0.703-5.625-4.992-8.438l-1.898-1.125
			c-4.641-2.602-5.906-3.445-7.242-4.289c-4.5-3.023-7.312-6.539-7.312-11.812c0-7.805,6.469-12.445,13.922-12.445
			c7.805,0,13.922,4.57,13.922,12.023c0,1.828-1.617,3.234-3.656,3.234s-3.656-1.406-3.656-3.234c0-3.234-2.109-5.555-6.609-5.555
			c-4.57,0-6.609,3.023-6.609,5.906c0,1.547,0,3.656,3.797,6.328c1.125,0.914,4.078,2.742,8.93,5.484
			c5.414,3.164,8.719,8.016,8.719,13.922c0,8.156-7.172,12.797-14.695,12.797C159.878,104.629,154.464,98.512,154.464,92.114z"/>
		<path fill="#BD8B00" d="M232.159,56.958v44.367c0,1.828-1.617,3.305-3.656,3.305c-1.969,0-3.586-1.477-3.586-3.305V80.512h-14.836
			v20.812c0,1.828-1.617,3.305-3.586,3.305c-2.039,0-3.727-1.477-3.727-3.305V56.958c0-1.828,1.688-3.234,3.727-3.234
			c1.969,0,3.586,1.406,3.586,3.234v17.086h14.836V56.958c0-1.828,1.617-3.234,3.586-3.234
			C230.542,53.723,232.159,55.129,232.159,56.958z"/>
		<path fill="#BD8B00" d="M304.507,100.973c0,1.828-1.617,3.234-3.656,3.234h-19.617c-1.969,0-3.586-1.406-3.586-3.234V57.309
			c0-1.758,1.617-3.164,3.586-3.164h19.406c2.039,0,3.656,1.406,3.656,3.164c0,1.828-1.617,3.305-3.656,3.305h-15.68v13.43h13.711
			c2.039,0,3.656,1.477,3.656,3.305c0,1.758-1.617,3.164-3.656,3.164H284.96v17.156h15.891
			C302.89,97.668,304.507,99.075,304.507,100.973z"/>
		<path fill="#BD8B00" d="M371.513,104.208c-2.039,0-3.727-1.406-3.727-3.234V57.309c0-1.758,1.688-3.164,3.727-3.164h10.125
			c8.156,0,14.766,6.398,14.766,14.344v21.305c0,7.945-6.609,14.414-14.766,14.414H371.513z M375.099,97.668h6.539
			c4.148,0,7.453-3.516,7.453-7.875V68.489c0-4.359-3.305-7.875-7.453-7.875h-6.539V97.668z"/>
		<path fill="#BD8B00" d="M448.857,101.325V71.934l-8.859,18c-0.633,1.055-1.828,1.828-3.305,1.828
			c-1.406,0-2.602-0.633-3.234-1.758l-8.789-18v29.32c0,1.828-1.617,3.305-3.656,3.305c-1.969,0-3.586-1.477-3.586-3.305V56.958
			c0-1.828,1.617-3.234,3.586-3.234c1.406,0,2.742,0.773,3.234,1.828l12.445,25.664c4.148-8.297,8.438-17.367,12.516-25.664
			c0.562-1.055,1.828-1.828,3.305-1.828c2.18,0,3.586,1.688,3.586,3.234v44.367c0,1.828-1.617,3.305-3.586,3.305
			C450.474,104.629,448.857,103.153,448.857,101.325z"/>
		<path fill="#BD8B00" d="M508.48,100.481c0.422,1.898-1.125,4.148-3.656,4.148c-1.547,0-2.883-0.914-3.375-2.32l-2.953-9.422
			h-14.203c-0.984,3.234-1.828,6.258-2.812,9.422c-0.422,1.336-1.898,2.32-3.516,2.32c-2.109,0-4.219-2.039-3.445-4.219v0.07
			l13.359-44.438c0.492-1.336,1.969-2.32,3.586-2.32c1.547,0,2.953,0.984,3.445,2.32l13.5,44.438H508.48z M496.597,86.418
			l-5.133-19.406l-5.273,19.406H496.597z"/>
		<path fill="#BD8B00" d="M557.767,104.208c-2.039,0-3.727-1.406-3.727-3.234V57.309c0-1.758,1.688-3.164,3.727-3.164h10.125
			c8.156,0,14.766,6.398,14.766,14.344v21.305c0,7.945-6.609,14.414-14.766,14.414H557.767z M561.353,97.668h6.539
			c4.148,0,7.453-3.516,7.453-7.875V68.489c0-4.359-3.305-7.875-7.453-7.875h-6.539V97.668z"/>
		<path fill="#BD8B00" d="M630.398,100.973c0,1.828-1.617,3.234-3.656,3.234h-19.617c-1.969,0-3.586-1.406-3.586-3.234V57.309
			c0-1.758,1.617-3.164,3.586-3.164h19.406c2.039,0,3.656,1.406,3.656,3.164c0,1.828-1.617,3.305-3.656,3.305h-15.68v13.43h13.711
			c2.039,0,3.656,1.477,3.656,3.305c0,1.758-1.617,3.164-3.656,3.164h-13.711v17.156h15.891
			C628.781,97.668,630.398,99.075,630.398,100.973z"/>
		<path fill="#BD8B00" d="M671.32,102.801l-16.172-32.484l0.633,31.008c0,1.828-1.617,3.305-3.656,3.305
			c-1.969,0-3.656-1.477-3.656-3.305V56.958c0-1.828,1.828-3.234,3.656-3.234c1.336,0,2.672,0.844,3.234,1.828l16.172,32.344
			l-0.633-30.938c0-1.828,1.617-3.234,3.656-3.234s3.656,1.406,3.656,3.234v44.367c0,1.547-1.195,2.812-2.812,3.234l0.141-0.07
			c-0.422,0.141-0.633,0.141-0.984,0.141C673.289,104.629,671.882,103.856,671.32,102.801z"/>
		<path fill="#BD8B00" d="M251.283,56.958c0-1.828,1.617-3.234,3.586-3.234c2.039,0,3.656,1.406,3.656,3.234v44.367
			c0,1.828-1.617,3.305-3.656,3.305c-1.969,0-3.586-1.477-3.586-3.305V56.958z"/>
		<path fill="#BD8B00" d="M527.673,56.958c0-1.828,1.617-3.234,3.586-3.234c2.039,0,3.656,1.406,3.656,3.234v44.367
			c0,1.828-1.617,3.305-3.656,3.305c-1.969,0-3.586-1.477-3.586-3.305V56.958z"/>
		<path fill="#BD8B00" d="M329.888,97.668h16.172c2.039,0,3.656,1.477,3.656,3.305s-1.617,3.234-3.656,3.234h-19.828
			c-2.039,0-3.656-1.406-3.656-3.234V56.958c0-1.828,1.617-3.234,3.586-3.234c1.908,0,3.537,1.236,3.727,2.892V97.668z"/>
	</g>
</g>
</svg>
