<?xml version="1.0" encoding="utf-8"?>
<!-- Generator: Adobe Illustrator 16.0.0, SVG Export Plug-In . SVG Version: 6.00 Build 0)  -->
<!DOCTYPE svg PUBLIC "-//W3C//DTD SVG 1.1//EN" "http://www.w3.org/Graphics/SVG/1.1/DTD/svg11.dtd">
<svg version="1.1" xmlns="http://www.w3.org/2000/svg" xmlns:xlink="http://www.w3.org/1999/xlink" x="0px" y="0px"
	 width="713.416px" height="156.955px" viewBox="0 0 713.416 156.955" enable-background="new 0 0 713.416 156.955"
	 xml:space="preserve">
<g id="Green" display="none">
	<g display="inline">
		<path fill="#6AB082" d="M4.337,13.169v57.364v6.435v5.302c0,38.844,9.58,48.412,32.685,56.974
			c13.713,5.08,21.374,9.742,24.026,11.508c0.209,0.137,1.667,0.268,1.907,0.314v-27.177L19.262,98.51V47.649l43.693-25.011V5.932
			c-26.234,5.067-50.194,5.586-56.817,5.628C5.144,11.56,4.337,12.28,4.337,13.169"/>
		<path fill="#DCFFDE" d="M120.701,13.169v57.364v6.435v5.302c0,38.844-9.438,48.412-32.197,56.974
			c-13.509,5.08-21.056,9.742-23.668,11.508c-0.206,0.137-1.642,0.268-1.88,0.314v-27.177l45.013-25.379V47.649L62.956,22.638V5.932
			c25.845,5.067,49.447,5.586,55.972,5.628C119.907,11.56,120.701,12.28,120.701,13.169"/>
		<path fill="#FFFFFF" d="M62.956,153.598c-0.816,0-1.632-0.23-2.328-0.695c-2.604-1.73-10.116-6.299-23.651-11.312
			c-11.559-4.283-20.442-9.001-26.223-18.104c-5.574-8.774-8.059-21.482-8.059-41.204V12.921c0-2.137,1.824-3.876,4.067-3.876
			c6.693-0.042,30.509-0.57,55.354-5.604c0.55-0.111,1.132-0.112,1.684,0c24.836,5.033,48.645,5.562,55.36,5.604
			c2.24,0.004,4.061,1.742,4.061,3.876v69.361c0,40.128-10.108,50.349-34.284,59.308c-13.534,5.014-21.047,9.582-23.649,11.312
			C64.589,153.365,63.772,153.596,62.956,153.598 M8.76,13.544c-0.857,0.014-1.545,0.711-1.545,1.569v67.169
			c0,39.171,10.034,47.176,31.332,55.067c12.093,4.482,19.613,8.67,23.192,10.896c0.746,0.465,1.686,0.465,2.433,0
			c3.578-2.227,11.098-6.414,23.192-10.896c21.299-7.892,31.333-15.897,31.333-55.067V15.113c0-0.858-0.688-1.555-1.545-1.569
			c-8.698-0.136-30.818-0.962-53.893-5.599c-0.2-0.04-0.408-0.04-0.608,0C39.578,12.582,17.459,13.408,8.76,13.544 M6.778,13.566
			H6.775H6.778z"/>
		<path fill="#6B8A6B" d="M62.956,156.955c-0.853,0-1.705-0.242-2.433-0.727c-2.719-1.809-10.568-6.58-24.708-11.818
			c-12.076-4.475-21.356-9.402-27.395-18.911C2.597,116.332,0,103.056,0,82.452V9.991c0-2.232,1.906-4.049,4.249-4.049
			c6.993-0.044,31.873-0.595,57.828-5.855c0.575-0.115,1.183-0.116,1.759,0.001c25.946,5.257,50.819,5.81,57.836,5.854
			c2.34,0.005,4.241,1.82,4.241,4.049v72.461c0,41.922-10.559,52.601-35.816,61.958c-14.14,5.238-21.988,10.01-24.706,11.818
			C64.662,156.713,63.809,156.953,62.956,156.955 M6.223,10.052c-1.113,0.019-2.001,0.927-2.001,2.041v70.393
			c0,41.275,10.573,49.709,33.015,58.026c12.255,4.541,20.053,8.797,23.987,11.201c1.064,0.65,2.399,0.65,3.464,0
			c3.933-2.404,11.73-6.66,23.987-11.201c22.442-8.317,33.016-16.752,33.016-58.026v-70.05c0-1.302-1.041-2.366-2.343-2.39
			c-9.66-0.178-32.571-1.131-56.393-5.952C38.851,8.972,15.679,9.89,6.223,10.052 M3.762,10.082H3.759H3.762z"/>
		<path d="M62.96,123.819c-0.823,0-1.637-0.218-2.349-0.63l-39.562-22.877c-1.446-0.836-2.344-2.392-2.344-4.062V50.497
			c0-1.67,0.898-3.226,2.344-4.062l39.562-22.877c0.712-0.412,1.525-0.63,2.349-0.63c0.824,0,1.636,0.218,2.35,0.63l39.554,22.877
			c1.446,0.837,2.345,2.396,2.343,4.067l-0.051,45.754c-0.001,1.666-0.897,3.22-2.34,4.055l-39.504,22.877
			C64.599,123.602,63.786,123.819,62.96,123.819 M66.017,115.646l25.102-14.537l-25.102,3.843V115.646z M59.844,115.615v-10.721
			l-25.123-3.806L59.844,115.615z M68.591,98.313l29.755-4.554l-10.567-30.8L68.591,98.313z M57.24,98.257L38.083,62.959
			L27.517,93.753L57.24,98.257z M62.931,95.8L83.23,58.398H42.632L62.931,95.8z M100.999,82.47l0.031-28.202l-8.687,2.978
			L100.999,82.47z M24.878,82.425l8.651-25.21l-8.651-2.966V82.425z M81.388,52.227L62.958,32.177L44.485,52.227H81.388z
			 M89.336,51.751l7.778-2.667L75.27,36.449L89.336,51.751z M36.552,51.727l14.053-15.252l-21.79,12.6L36.552,51.727z"/>
		<path fill="#FFFFFF" d="M62.96,24.408c0.556,0,1.11,0.144,1.608,0.431l39.554,22.878c0.993,0.574,1.604,1.635,1.603,2.782
			l-0.05,45.755c-0.001,1.144-0.611,2.201-1.602,2.775L64.57,121.906c-0.498,0.288-1.053,0.432-1.609,0.432
			c-0.555,0-1.109-0.143-1.606-0.431L21.791,99.03c-0.993-0.574-1.604-1.633-1.604-2.78V50.497c0-1.147,0.611-2.206,1.604-2.78
			l39.563-22.877C61.851,24.552,62.406,24.408,62.96,24.408 M41.106,53.708H84.76L62.959,29.99L41.106,53.708 M88.901,53.466
			l11.771-4.036L67.617,30.312L88.901,53.466 M36.986,53.441L58.289,30.32l-33.03,19.099L36.986,53.441 M23.397,91.304
			l12.013-35.009l-12.013-4.119V91.304 M102.47,91.32l0.043-39.126l-12.052,4.132L102.47,91.32 M62.931,98.905l22.788-41.988H40.144
			L62.931,98.905 M59.962,100.167L37.777,59.291L25.541,94.953L59.962,100.167 M65.866,100.229l34.457-5.274L88.084,59.291
			L65.866,100.229 M61.326,118.183v-14.561l-34.123-5.17L61.326,118.183 M64.537,118.215l34.115-19.757l-34.115,5.222V118.215
			 M62.96,21.446c-1.083,0-2.151,0.287-3.09,0.829L20.308,45.152c-1.901,1.1-3.083,3.147-3.083,5.344V96.25
			c0,2.197,1.182,4.244,3.083,5.344l39.563,22.877c0.938,0.543,2.007,0.829,3.09,0.829c1.085,0,2.155-0.287,3.094-0.831
			l39.504-22.877c1.896-1.098,3.076-3.143,3.079-5.335l0.049-45.754c0.004-2.199-1.178-4.249-3.081-5.35L66.051,22.275
			C65.113,21.733,64.044,21.446,62.96,21.446 M47.864,50.746l15.093-16.382l15.059,16.382H47.864z M89.772,50.037l-6.85-7.45
			l10.637,6.152L89.772,50.037z M32.373,48.728l10.55-6.1l-6.804,7.385L32.373,48.728z M26.359,73.547V56.323l5.288,1.813
			L26.359,73.547z M94.225,58.167l5.321-1.824L99.528,73.62L94.225,58.167z M45.121,59.879h35.621L62.931,92.696L45.121,59.879z
			 M29.495,92.556l8.896-25.926L54.52,96.348L29.495,92.556z M71.315,96.398l16.156-29.769l8.899,25.934L71.315,96.398z
			 M58.364,113.048l-16.123-9.323l16.123,2.443V113.048z M67.499,106.224l16.088-2.462l-16.088,9.316V106.224z"/>
		<polygon fill="#8DD294" points="37.777,59.291 25.541,94.952 59.962,100.167 		"/>
		<polygon fill="#8DD294" points="58.289,30.32 25.259,49.42 36.987,53.441 		"/>
		<polygon fill="#DCFFDE" points="84.76,53.708 62.959,29.99 41.107,53.708 		"/>
		<polygon fill="#EFFFEC" points="100.672,49.431 67.617,30.312 88.901,53.466 		"/>
		<polygon fill="#6AB082" points="23.397,52.177 23.397,91.305 35.411,56.295 		"/>
		<polygon fill="#DCFFDE" points="65.866,100.229 100.322,94.955 88.084,59.291 		"/>
		<polygon fill="#6AB082" points="61.326,118.183 61.326,103.622 27.203,98.452 		"/>
		<polygon fill="#EFFFEC" points="90.462,56.326 102.469,91.321 102.513,52.194 		"/>
		<polygon fill="#8DD294" points="64.537,118.216 98.652,98.458 64.537,103.68 		"/>
		<polygon fill="#A2FF9E" points="40.143,56.918 62.931,98.906 85.719,56.918 		"/>
		<path fill="#6B8A6B" d="M104.123,47.717L64.569,24.84c-0.498-0.288-1.054-0.432-1.608-0.432s-1.109,0.144-1.606,0.432
			L21.79,47.717c-0.992,0.574-1.603,1.633-1.603,2.78V96.25c0,1.147,0.611,2.206,1.603,2.78l39.564,22.877
			c0.497,0.287,1.052,0.431,1.606,0.431c0.556,0,1.111-0.144,1.609-0.432l39.504-22.877c0.99-0.574,1.601-1.631,1.602-2.775
			l0.05-45.755C105.727,49.353,105.116,48.292,104.123,47.717 M23.397,52.177l12.013,4.119L23.397,91.305V52.177z M40.143,56.917
			h45.577L62.931,98.906L40.143,56.917z M59.962,100.167l-34.422-5.216l12.237-35.661L59.962,100.167z M41.106,53.708L62.959,29.99
			L84.76,53.708H41.106z M88.901,53.467L67.617,30.312l33.056,19.118L88.901,53.467z M36.987,53.441l-11.728-4.022l33.03-19.099
			L36.987,53.441z M61.326,103.622v14.561L27.203,98.451L61.326,103.622z M88.084,59.291l12.238,35.664l-34.457,5.274L88.084,59.291
			z M90.461,56.326l12.052-4.131l-0.043,39.126L90.461,56.326z M64.537,118.216v-14.535l34.115-5.222L64.537,118.216z"/>
	</g>
	<path display="inline" fill="#6B8A6B" d="M154.505,91.477c0-1.794,1.587-3.174,3.519-3.174c2.001,0,3.657,1.38,3.657,3.174
		c0,3.036,2.415,5.934,7.038,5.934c4.416,0,7.245-2.484,7.245-6.21c0-2.967-0.69-5.52-4.899-8.28l-1.863-1.104
		c-4.554-2.553-5.796-3.381-7.107-4.209c-4.416-2.967-7.176-6.417-7.176-11.592c0-7.659,6.348-12.213,13.662-12.213
		c7.659,0,13.662,4.485,13.662,11.799c0,1.794-1.587,3.174-3.588,3.174s-3.588-1.38-3.588-3.174c0-3.174-2.07-5.451-6.486-5.451
		c-4.485,0-6.486,2.967-6.486,5.796c0,1.518,0,3.588,3.726,6.21c1.104,0.897,4.002,2.691,8.763,5.382
		c5.313,3.105,8.556,7.866,8.556,13.662c0,8.004-7.038,12.558-14.421,12.558C159.818,103.759,154.505,97.756,154.505,91.477z"/>
	<path display="inline" fill="#6B8A6B" d="M231.854,56.977v43.539c0,1.794-1.587,3.243-3.588,3.243
		c-1.932,0-3.519-1.449-3.519-3.243V80.092h-14.559v20.424c0,1.794-1.587,3.243-3.519,3.243c-2.001,0-3.657-1.449-3.657-3.243
		V56.977c0-1.794,1.656-3.174,3.657-3.174c1.932,0,3.519,1.38,3.519,3.174v16.767h14.559V56.977c0-1.794,1.587-3.174,3.519-3.174
		C230.267,53.803,231.854,55.183,231.854,56.977z"/>
	<path display="inline" fill="#6B8A6B" d="M323.485,100.171c0,1.794-1.587,3.174-3.588,3.174h-19.251c-1.933,0-3.52-1.38-3.52-3.174
		V57.322c0-1.725,1.587-3.105,3.52-3.105h19.044c2.001,0,3.588,1.38,3.588,3.105c0,1.794-1.587,3.243-3.588,3.243h-15.387v13.179
		h13.455c2.001,0,3.588,1.449,3.588,3.243c0,1.725-1.587,3.105-3.588,3.105h-13.455v16.836h15.594
		C321.898,96.928,323.485,98.308,323.485,100.171z"/>
	<path display="inline" fill="#6B8A6B" d="M368.956,99.757c0,1.794-1.588,3.174-3.589,3.174h-19.458
		c-2.001,0-3.588-1.38-3.588-3.174v-42.78c0-1.794,1.587-3.174,3.588-3.174s3.589,1.38,3.589,3.174v39.537h15.869
		C367.368,96.514,368.956,97.963,368.956,99.757z"/>
	<path display="inline" fill="#6B8A6B" d="M264.594,53.803c-2.001,0-3.588,1.38-3.588,3.174v4.071v35.466v4.071
		c0,1.794,1.588,3.174,3.589,3.174s3.588-1.38,3.588-3.174v-4.071V61.048v-4.071C268.183,55.183,266.595,53.803,264.594,53.803z"/>
	<path display="inline" fill="#6B8A6B" d="M556.805,53.803c-2.001,0-3.588,1.38-3.588,3.174v4.071v35.466v4.071
		c0,1.794,1.588,3.174,3.589,3.174s3.588-1.38,3.588-3.174v-4.071V61.048v-4.071C560.394,55.183,558.806,53.803,556.805,53.803z"/>
	<path display="inline" fill="#6B8A6B" d="M391.449,103.345c-2.001,0-3.657-1.38-3.657-3.174V57.322
		c0-1.725,1.656-3.105,3.657-3.105h9.937c8.004,0,14.489,6.279,14.489,14.076V89.2c0,7.797-6.485,14.145-14.489,14.145H391.449z
		 M394.968,96.928h6.417c4.07,0,7.313-3.45,7.313-7.728V68.292c0-4.278-3.243-7.728-7.313-7.728h-6.417V96.928z"/>
	<path display="inline" fill="#6B8A6B" d="M468.453,100.516V71.674l-8.694,17.664c-0.621,1.035-1.794,1.794-3.243,1.794
		c-1.38,0-2.553-0.621-3.174-1.725l-8.625-17.664v28.773c0,1.794-1.587,3.243-3.588,3.243c-1.932,0-3.519-1.449-3.519-3.243V56.977
		c0-1.794,1.587-3.174,3.519-3.174c1.38,0,2.691,0.759,3.174,1.794l12.213,25.185c4.071-8.142,8.28-17.043,12.282-25.185
		c0.552-1.035,1.794-1.794,3.243-1.794c2.139,0,3.52,1.656,3.52,3.174v43.539c0,1.794-1.588,3.243-3.52,3.243
		C470.04,103.759,468.453,102.31,468.453,100.516z"/>
	<path display="inline" fill="#6B8A6B" d="M528.068,99.688c0.414,1.863-1.104,4.071-3.588,4.071c-1.519,0-2.829-0.897-3.312-2.277
		l-2.897-9.246h-13.938c-0.966,3.174-1.794,6.141-2.76,9.246c-0.414,1.311-1.863,2.277-3.45,2.277c-2.07,0-4.14-2.001-3.381-4.14
		v0.069l13.11-43.608c0.482-1.311,1.932-2.277,3.519-2.277c1.518,0,2.898,0.966,3.381,2.277l13.248,43.608H528.068z M516.407,85.888
		l-5.037-19.044l-5.175,19.044H516.407z"/>
	<path display="inline" fill="#6B8A6B" d="M592.996,103.345c-2.001,0-3.657-1.38-3.657-3.174V57.322
		c0-1.725,1.656-3.105,3.657-3.105h9.937c8.004,0,14.489,6.279,14.489,14.076V89.2c0,7.797-6.485,14.145-14.489,14.145H592.996z
		 M596.515,96.928h6.417c4.07,0,7.313-3.45,7.313-7.728V68.292c0-4.278-3.243-7.728-7.313-7.728h-6.417V96.928z"/>
	<path display="inline" fill="#6B8A6B" d="M665.375,100.171c0,1.794-1.587,3.174-3.588,3.174h-19.251c-1.933,0-3.52-1.38-3.52-3.174
		V57.322c0-1.725,1.587-3.105,3.52-3.105h19.044c2.001,0,3.588,1.38,3.588,3.105c0,1.794-1.587,3.243-3.588,3.243h-15.387v13.179
		h13.455c2.001,0,3.588,1.449,3.588,3.243c0,1.725-1.587,3.105-3.588,3.105h-13.455v16.836h15.594
		C663.789,96.928,665.375,98.308,665.375,100.171z"/>
	<path display="inline" fill="#6B8A6B" d="M706.638,101.965l-15.87-31.878l0.621,30.429c0,1.794-1.588,3.243-3.589,3.243
		c-1.932,0-3.588-1.449-3.588-3.243V56.977c0-1.794,1.794-3.174,3.588-3.174c1.312,0,2.622,0.828,3.175,1.794l15.87,31.74
		l-0.621-30.36c0-1.794,1.587-3.174,3.588-3.174s3.588,1.38,3.588,3.174v43.539c0,1.518-1.173,2.76-2.76,3.174l0.138-0.069
		c-0.414,0.138-0.621,0.138-0.966,0.138C708.57,103.759,707.19,103,706.638,101.965z"/>
</g>
<g id="Blue" display="none">
	<g display="inline">
		<path fill="#7388CE" d="M4.337,13.169v57.364v6.435v5.302c0,38.844,9.58,48.412,32.685,56.974
			c13.713,5.08,21.374,9.742,24.026,11.508c0.209,0.137,1.667,0.268,1.907,0.314v-27.177L19.262,98.51V47.649l43.693-25.011V5.932
			c-26.234,5.067-50.194,5.586-56.817,5.628C5.144,11.56,4.337,12.28,4.337,13.169"/>
		<path fill="#DBDEFF" d="M120.701,13.169v57.364v6.435v5.302c0,38.844-9.438,48.412-32.197,56.974
			c-13.509,5.08-21.056,9.742-23.668,11.508c-0.206,0.137-1.642,0.268-1.88,0.314v-27.177l45.013-25.379V47.649L62.956,22.638V5.932
			c25.845,5.067,49.447,5.586,55.972,5.628C119.907,11.56,120.701,12.28,120.701,13.169"/>
		<path fill="#FFFFFF" d="M62.956,153.598c-0.816,0-1.632-0.23-2.328-0.695c-2.604-1.73-10.116-6.299-23.651-11.312
			c-11.559-4.283-20.442-9.001-26.223-18.104c-5.574-8.774-8.059-21.482-8.059-41.204V12.921c0-2.137,1.824-3.876,4.067-3.876
			c6.693-0.042,30.509-0.57,55.354-5.604c0.55-0.111,1.132-0.112,1.684,0c24.836,5.033,48.645,5.562,55.36,5.604
			c2.24,0.004,4.061,1.742,4.061,3.876v69.361c0,40.128-10.108,50.349-34.284,59.308c-13.534,5.014-21.047,9.582-23.649,11.312
			C64.589,153.365,63.772,153.596,62.956,153.598 M8.76,13.544c-0.857,0.014-1.545,0.711-1.545,1.569v67.169
			c0,39.171,10.034,47.176,31.332,55.067c12.093,4.482,19.613,8.67,23.192,10.896c0.746,0.465,1.686,0.465,2.433,0
			c3.578-2.227,11.098-6.414,23.192-10.896c21.299-7.892,31.333-15.897,31.333-55.067V15.113c0-0.858-0.688-1.555-1.545-1.569
			c-8.698-0.136-30.818-0.962-53.893-5.599c-0.2-0.04-0.408-0.04-0.608,0C39.578,12.582,17.459,13.408,8.76,13.544 M6.778,13.566
			H6.775H6.778z"/>
		<path fill="#5C6CA7" d="M62.956,156.955c-0.853,0-1.705-0.242-2.433-0.727c-2.719-1.809-10.568-6.58-24.708-11.818
			c-12.076-4.475-21.356-9.402-27.395-18.911C2.597,116.332,0,103.056,0,82.452V9.991c0-2.232,1.906-4.049,4.249-4.049
			c6.993-0.044,31.873-0.595,57.828-5.855c0.575-0.115,1.183-0.116,1.759,0.001c25.946,5.257,50.819,5.81,57.836,5.854
			c2.34,0.005,4.241,1.82,4.241,4.049v72.461c0,41.922-10.559,52.601-35.816,61.958c-14.14,5.238-21.988,10.01-24.706,11.818
			C64.662,156.713,63.809,156.953,62.956,156.955 M6.223,10.052c-1.113,0.019-2.001,0.927-2.001,2.041v70.393
			c0,41.275,10.573,49.709,33.015,58.026c12.255,4.541,20.053,8.797,23.987,11.201c1.064,0.65,2.399,0.65,3.464,0
			c3.933-2.404,11.73-6.66,23.987-11.201c22.442-8.317,33.016-16.752,33.016-58.026v-70.05c0-1.302-1.041-2.366-2.343-2.39
			c-9.66-0.178-32.571-1.131-56.393-5.952C38.851,8.972,15.679,9.89,6.223,10.052 M3.762,10.082H3.759H3.762z"/>
		<path d="M62.96,123.819c-0.823,0-1.637-0.218-2.349-0.63l-39.562-22.877c-1.446-0.836-2.344-2.392-2.344-4.062V50.497
			c0-1.67,0.898-3.226,2.344-4.062l39.562-22.877c0.712-0.412,1.525-0.63,2.349-0.63c0.824,0,1.636,0.218,2.35,0.63l39.554,22.877
			c1.446,0.837,2.345,2.396,2.343,4.067l-0.051,45.754c-0.001,1.666-0.897,3.22-2.34,4.055l-39.504,22.877
			C64.599,123.602,63.786,123.819,62.96,123.819 M66.017,115.646l25.102-14.537l-25.102,3.843V115.646z M59.844,115.615v-10.721
			l-25.123-3.806L59.844,115.615z M68.591,98.313l29.755-4.554l-10.567-30.8L68.591,98.313z M57.24,98.257L38.083,62.959
			L27.517,93.753L57.24,98.257z M62.931,95.8L83.23,58.398H42.632L62.931,95.8z M100.999,82.47l0.031-28.202l-8.687,2.978
			L100.999,82.47z M24.878,82.425l8.651-25.21l-8.651-2.966V82.425z M81.388,52.227L62.958,32.177L44.485,52.227H81.388z
			 M89.336,51.751l7.778-2.667L75.27,36.449L89.336,51.751z M36.552,51.727l14.053-15.252l-21.79,12.6L36.552,51.727z"/>
		<path fill="#FFFFFF" d="M62.96,24.408c0.556,0,1.11,0.144,1.608,0.431l39.554,22.878c0.993,0.574,1.604,1.635,1.603,2.782
			l-0.05,45.755c-0.001,1.144-0.611,2.201-1.602,2.775L64.57,121.906c-0.498,0.288-1.053,0.432-1.609,0.432
			c-0.555,0-1.109-0.143-1.606-0.431L21.791,99.03c-0.993-0.574-1.604-1.633-1.604-2.78V50.497c0-1.147,0.611-2.206,1.604-2.78
			l39.563-22.877C61.851,24.552,62.406,24.408,62.96,24.408 M41.106,53.708H84.76L62.959,29.99L41.106,53.708 M88.901,53.466
			l11.771-4.036L67.617,30.312L88.901,53.466 M36.986,53.441L58.289,30.32l-33.03,19.099L36.986,53.441 M23.397,91.304
			l12.013-35.009l-12.013-4.119V91.304 M102.47,91.32l0.043-39.126l-12.052,4.132L102.47,91.32 M62.931,98.905l22.788-41.988H40.144
			L62.931,98.905 M59.962,100.167L37.777,59.291L25.541,94.953L59.962,100.167 M65.866,100.229l34.457-5.274L88.084,59.291
			L65.866,100.229 M61.326,118.183v-14.561l-34.123-5.17L61.326,118.183 M64.537,118.215l34.115-19.757l-34.115,5.222V118.215
			 M62.96,21.446c-1.083,0-2.151,0.287-3.09,0.829L20.308,45.152c-1.901,1.1-3.083,3.147-3.083,5.344V96.25
			c0,2.197,1.182,4.244,3.083,5.344l39.563,22.877c0.938,0.543,2.007,0.829,3.09,0.829c1.085,0,2.155-0.287,3.094-0.831
			l39.504-22.877c1.896-1.098,3.076-3.143,3.079-5.335l0.049-45.754c0.004-2.199-1.178-4.249-3.081-5.35L66.051,22.275
			C65.113,21.733,64.044,21.446,62.96,21.446 M47.864,50.746l15.093-16.382l15.059,16.382H47.864z M89.772,50.037l-6.85-7.45
			l10.637,6.152L89.772,50.037z M32.373,48.728l10.55-6.1l-6.804,7.385L32.373,48.728z M26.359,73.547V56.323l5.288,1.813
			L26.359,73.547z M94.225,58.167l5.321-1.824L99.528,73.62L94.225,58.167z M45.121,59.879h35.621L62.931,92.696L45.121,59.879z
			 M29.495,92.556l8.896-25.926L54.52,96.348L29.495,92.556z M71.315,96.398l16.156-29.769l8.899,25.934L71.315,96.398z
			 M58.364,113.048l-16.123-9.323l16.123,2.443V113.048z M67.499,106.224l16.088-2.462l-16.088,9.316V106.224z"/>
		<polygon fill="#A2ADFF" points="37.777,59.291 25.541,94.952 59.962,100.167 		"/>
		<polygon fill="#A2ADFF" points="58.289,30.32 25.259,49.42 36.987,53.441 		"/>
		<polygon fill="#DBDEFF" points="84.76,53.708 62.959,29.99 41.107,53.708 		"/>
		<polygon fill="#ECEFFF" points="100.672,49.431 67.617,30.312 88.901,53.466 		"/>
		<polygon fill="#7388CE" points="23.397,52.177 23.397,91.305 35.411,56.295 		"/>
		<polygon fill="#DBDEFF" points="65.866,100.229 100.322,94.955 88.084,59.291 		"/>
		<polygon fill="#7388CE" points="61.326,118.183 61.326,103.622 27.203,98.452 		"/>
		<polygon fill="#ECEFFF" points="90.462,56.326 102.469,91.321 102.513,52.194 		"/>
		<polygon fill="#A2ADFF" points="64.537,118.216 98.652,98.458 64.537,103.68 		"/>
		<polygon fill="#C0C9FF" points="40.143,56.918 62.931,98.906 85.719,56.918 		"/>
		<path fill="#5C6CA7" d="M104.123,47.717L64.569,24.84c-0.498-0.288-1.054-0.432-1.608-0.432s-1.109,0.144-1.606,0.432
			L21.79,47.717c-0.992,0.574-1.603,1.633-1.603,2.78V96.25c0,1.147,0.611,2.206,1.603,2.78l39.564,22.877
			c0.497,0.287,1.052,0.431,1.606,0.431c0.556,0,1.111-0.144,1.609-0.432l39.504-22.877c0.99-0.574,1.601-1.631,1.602-2.775
			l0.05-45.755C105.727,49.353,105.116,48.292,104.123,47.717 M23.397,52.177l12.013,4.119L23.397,91.305V52.177z M40.143,56.917
			h45.577L62.931,98.906L40.143,56.917z M59.962,100.167l-34.422-5.216l12.237-35.661L59.962,100.167z M41.106,53.708L62.959,29.99
			L84.76,53.708H41.106z M88.901,53.467L67.617,30.312l33.056,19.118L88.901,53.467z M36.987,53.441l-11.728-4.022l33.03-19.099
			L36.987,53.441z M61.326,103.622v14.561L27.203,98.451L61.326,103.622z M88.084,59.291l12.238,35.664l-34.457,5.274L88.084,59.291
			z M90.461,56.326l12.052-4.131l-0.043,39.126L90.461,56.326z M64.537,118.216v-14.535l34.115-5.222L64.537,118.216z"/>
	</g>
	<path display="inline" fill="#5C6CA7" d="M154.505,91.477c0-1.794,1.587-3.174,3.519-3.174c2.001,0,3.657,1.38,3.657,3.174
		c0,3.036,2.415,5.934,7.038,5.934c4.416,0,7.245-2.484,7.245-6.21c0-2.967-0.69-5.52-4.899-8.28l-1.863-1.104
		c-4.554-2.553-5.796-3.381-7.107-4.209c-4.416-2.967-7.176-6.417-7.176-11.592c0-7.659,6.348-12.213,13.662-12.213
		c7.659,0,13.662,4.485,13.662,11.799c0,1.794-1.587,3.174-3.588,3.174s-3.588-1.38-3.588-3.174c0-3.174-2.07-5.451-6.486-5.451
		c-4.485,0-6.486,2.967-6.486,5.796c0,1.518,0,3.588,3.726,6.21c1.104,0.897,4.002,2.691,8.763,5.382
		c5.313,3.105,8.556,7.866,8.556,13.662c0,8.004-7.038,12.558-14.421,12.558C159.818,103.759,154.505,97.756,154.505,91.477z"/>
	<path display="inline" fill="#5C6CA7" d="M231.854,56.977v43.539c0,1.794-1.587,3.243-3.588,3.243
		c-1.932,0-3.519-1.449-3.519-3.243V80.092h-14.559v20.424c0,1.794-1.587,3.243-3.519,3.243c-2.001,0-3.657-1.449-3.657-3.243
		V56.977c0-1.794,1.656-3.174,3.657-3.174c1.932,0,3.519,1.38,3.519,3.174v16.767h14.559V56.977c0-1.794,1.587-3.174,3.519-3.174
		C230.267,53.803,231.854,55.183,231.854,56.977z"/>
	<path display="inline" fill="#5C6CA7" d="M323.485,100.171c0,1.794-1.587,3.174-3.588,3.174h-19.251c-1.933,0-3.52-1.38-3.52-3.174
		V57.322c0-1.725,1.587-3.105,3.52-3.105h19.044c2.001,0,3.588,1.38,3.588,3.105c0,1.794-1.587,3.243-3.588,3.243h-15.387v13.179
		h13.455c2.001,0,3.588,1.449,3.588,3.243c0,1.725-1.587,3.105-3.588,3.105h-13.455v16.836h15.594
		C321.898,96.928,323.485,98.308,323.485,100.171z"/>
	<path display="inline" fill="#5C6CA7" d="M368.956,99.757c0,1.794-1.588,3.174-3.589,3.174h-19.458
		c-2.001,0-3.588-1.38-3.588-3.174v-42.78c0-1.794,1.587-3.174,3.588-3.174s3.589,1.38,3.589,3.174v39.537h15.869
		C367.368,96.514,368.956,97.963,368.956,99.757z"/>
	<path display="inline" fill="#5C6CA7" d="M264.594,53.803c-2.001,0-3.588,1.38-3.588,3.174v4.071v35.466v4.071
		c0,1.794,1.588,3.174,3.589,3.174s3.588-1.38,3.588-3.174v-4.071V61.048v-4.071C268.183,55.183,266.595,53.803,264.594,53.803z"/>
	<path display="inline" fill="#5C6CA7" d="M556.805,53.803c-2.001,0-3.588,1.38-3.588,3.174v4.071v35.466v4.071
		c0,1.794,1.588,3.174,3.589,3.174s3.588-1.38,3.588-3.174v-4.071V61.048v-4.071C560.394,55.183,558.806,53.803,556.805,53.803z"/>
	<path display="inline" fill="#5C6CA7" d="M391.449,103.345c-2.001,0-3.657-1.38-3.657-3.174V57.322
		c0-1.725,1.656-3.105,3.657-3.105h9.937c8.004,0,14.489,6.279,14.489,14.076V89.2c0,7.797-6.485,14.145-14.489,14.145H391.449z
		 M394.968,96.928h6.417c4.07,0,7.313-3.45,7.313-7.728V68.292c0-4.278-3.243-7.728-7.313-7.728h-6.417V96.928z"/>
	<path display="inline" fill="#5C6CA7" d="M468.453,100.516V71.674l-8.694,17.664c-0.621,1.035-1.794,1.794-3.243,1.794
		c-1.38,0-2.553-0.621-3.174-1.725l-8.625-17.664v28.773c0,1.794-1.587,3.243-3.588,3.243c-1.932,0-3.519-1.449-3.519-3.243V56.977
		c0-1.794,1.587-3.174,3.519-3.174c1.38,0,2.691,0.759,3.174,1.794l12.213,25.185c4.071-8.142,8.28-17.043,12.282-25.185
		c0.552-1.035,1.794-1.794,3.243-1.794c2.139,0,3.52,1.656,3.52,3.174v43.539c0,1.794-1.588,3.243-3.52,3.243
		C470.04,103.759,468.453,102.31,468.453,100.516z"/>
	<path display="inline" fill="#5C6CA7" d="M528.068,99.688c0.414,1.863-1.104,4.071-3.588,4.071c-1.519,0-2.829-0.897-3.312-2.277
		l-2.897-9.246h-13.938c-0.966,3.174-1.794,6.141-2.76,9.246c-0.414,1.311-1.863,2.277-3.45,2.277c-2.07,0-4.14-2.001-3.381-4.14
		v0.069l13.11-43.608c0.482-1.311,1.932-2.277,3.519-2.277c1.518,0,2.898,0.966,3.381,2.277l13.248,43.608H528.068z M516.407,85.888
		l-5.037-19.044l-5.175,19.044H516.407z"/>
	<path display="inline" fill="#5C6CA7" d="M592.996,103.345c-2.001,0-3.657-1.38-3.657-3.174V57.322
		c0-1.725,1.656-3.105,3.657-3.105h9.937c8.004,0,14.489,6.279,14.489,14.076V89.2c0,7.797-6.485,14.145-14.489,14.145H592.996z
		 M596.515,96.928h6.417c4.07,0,7.313-3.45,7.313-7.728V68.292c0-4.278-3.243-7.728-7.313-7.728h-6.417V96.928z"/>
	<path display="inline" fill="#5C6CA7" d="M665.375,100.171c0,1.794-1.587,3.174-3.588,3.174h-19.251c-1.933,0-3.52-1.38-3.52-3.174
		V57.322c0-1.725,1.587-3.105,3.52-3.105h19.044c2.001,0,3.588,1.38,3.588,3.105c0,1.794-1.587,3.243-3.588,3.243h-15.387v13.179
		h13.455c2.001,0,3.588,1.449,3.588,3.243c0,1.725-1.587,3.105-3.588,3.105h-13.455v16.836h15.594
		C663.789,96.928,665.375,98.308,665.375,100.171z"/>
	<path display="inline" fill="#5C6CA7" d="M706.638,101.965l-15.87-31.878l0.621,30.429c0,1.794-1.588,3.243-3.589,3.243
		c-1.932,0-3.588-1.449-3.588-3.243V56.977c0-1.794,1.794-3.174,3.588-3.174c1.312,0,2.622,0.828,3.175,1.794l15.87,31.74
		l-0.621-30.36c0-1.794,1.587-3.174,3.588-3.174s3.588,1.38,3.588,3.174v43.539c0,1.518-1.173,2.76-2.76,3.174l0.138-0.069
		c-0.414,0.138-0.621,0.138-0.966,0.138C708.57,103.759,707.19,103,706.638,101.965z"/>
</g>
<g id="Red" display="none">
	<g display="inline">
		<path fill="#E2456B" d="M4.337,13.169v57.364v6.435v5.302c0,38.844,9.58,48.412,32.685,56.974
			c13.713,5.08,21.374,9.742,24.026,11.508c0.209,0.137,1.667,0.268,1.907,0.314v-27.177L19.262,98.51V47.649l43.693-25.011V5.932
			c-26.234,5.067-50.194,5.586-56.817,5.628C5.144,11.56,4.337,12.28,4.337,13.169"/>
		<path fill="#FFCFE3" d="M120.701,13.169v57.364v6.435v5.302c0,38.844-9.438,48.412-32.197,56.974
			c-13.509,5.08-21.056,9.742-23.668,11.508c-0.206,0.137-1.642,0.268-1.88,0.314v-27.177l45.013-25.379V47.649L62.956,22.638V5.932
			c25.845,5.067,49.447,5.586,55.972,5.628C119.907,11.56,120.701,12.28,120.701,13.169"/>
		<path fill="#FFFFFF" d="M62.956,153.598c-0.816,0-1.632-0.23-2.328-0.695c-2.604-1.73-10.116-6.299-23.651-11.312
			c-11.559-4.283-20.442-9.001-26.223-18.104c-5.574-8.774-8.059-21.482-8.059-41.204V12.921c0-2.137,1.824-3.876,4.067-3.876
			c6.693-0.042,30.509-0.57,55.354-5.604c0.55-0.111,1.132-0.112,1.684,0c24.836,5.033,48.645,5.562,55.36,5.604
			c2.24,0.004,4.061,1.742,4.061,3.876v69.361c0,40.128-10.108,50.349-34.284,59.308c-13.534,5.014-21.047,9.582-23.649,11.312
			C64.589,153.365,63.772,153.596,62.956,153.598 M8.76,13.544c-0.857,0.014-1.545,0.711-1.545,1.569v67.169
			c0,39.171,10.034,47.176,31.332,55.067c12.093,4.482,19.613,8.67,23.192,10.896c0.746,0.465,1.686,0.465,2.433,0
			c3.578-2.227,11.098-6.414,23.192-10.896c21.299-7.892,31.333-15.897,31.333-55.067V15.113c0-0.858-0.688-1.555-1.545-1.569
			c-8.698-0.136-30.818-0.962-53.893-5.599c-0.2-0.04-0.408-0.04-0.608,0C39.578,12.582,17.459,13.408,8.76,13.544 M6.778,13.566
			H6.775H6.778z"/>
		<path fill="#D42758" d="M62.956,156.955c-0.853,0-1.705-0.242-2.433-0.727c-2.719-1.809-10.568-6.58-24.708-11.818
			c-12.076-4.475-21.356-9.402-27.395-18.911C2.597,116.332,0,103.056,0,82.452V9.991c0-2.232,1.906-4.049,4.249-4.049
			c6.993-0.044,31.873-0.595,57.828-5.855c0.575-0.115,1.183-0.116,1.759,0.001c25.946,5.257,50.819,5.81,57.836,5.854
			c2.34,0.005,4.241,1.82,4.241,4.049v72.461c0,41.922-10.559,52.601-35.816,61.958c-14.14,5.238-21.988,10.01-24.706,11.818
			C64.662,156.713,63.809,156.953,62.956,156.955 M6.223,10.052c-1.113,0.019-2.001,0.927-2.001,2.041v70.393
			c0,41.275,10.573,49.709,33.015,58.026c12.255,4.541,20.053,8.797,23.987,11.201c1.064,0.65,2.399,0.65,3.464,0
			c3.933-2.404,11.73-6.66,23.987-11.201c22.442-8.317,33.016-16.752,33.016-58.026v-70.05c0-1.302-1.041-2.366-2.343-2.39
			c-9.66-0.178-32.571-1.131-56.393-5.952C38.851,8.972,15.679,9.89,6.223,10.052 M3.762,10.082H3.759H3.762z"/>
		<path d="M62.96,123.819c-0.823,0-1.637-0.218-2.349-0.63l-39.562-22.877c-1.446-0.836-2.344-2.392-2.344-4.062V50.497
			c0-1.67,0.898-3.226,2.344-4.062l39.562-22.877c0.712-0.412,1.525-0.63,2.349-0.63c0.824,0,1.636,0.218,2.35,0.63l39.554,22.877
			c1.446,0.837,2.345,2.396,2.343,4.067l-0.051,45.754c-0.001,1.666-0.897,3.22-2.34,4.055l-39.504,22.877
			C64.599,123.602,63.786,123.819,62.96,123.819 M66.017,115.646l25.102-14.537l-25.102,3.843V115.646z M59.844,115.615v-10.721
			l-25.123-3.806L59.844,115.615z M68.591,98.313l29.755-4.554l-10.567-30.8L68.591,98.313z M57.24,98.257L38.083,62.959
			L27.517,93.753L57.24,98.257z M62.931,95.8L83.23,58.398H42.632L62.931,95.8z M100.999,82.47l0.031-28.202l-8.687,2.978
			L100.999,82.47z M24.878,82.425l8.651-25.21l-8.651-2.966V82.425z M81.388,52.227L62.958,32.177L44.485,52.227H81.388z
			 M89.336,51.751l7.778-2.667L75.27,36.449L89.336,51.751z M36.552,51.727l14.053-15.252l-21.79,12.6L36.552,51.727z"/>
		<path fill="#FFFFFF" d="M62.96,24.408c0.556,0,1.11,0.144,1.608,0.431l39.554,22.878c0.993,0.574,1.604,1.635,1.603,2.782
			l-0.05,45.755c-0.001,1.144-0.611,2.201-1.602,2.775L64.57,121.906c-0.498,0.288-1.053,0.432-1.609,0.432
			c-0.555,0-1.109-0.143-1.606-0.431L21.791,99.03c-0.993-0.574-1.604-1.633-1.604-2.78V50.497c0-1.147,0.611-2.206,1.604-2.78
			l39.563-22.877C61.851,24.552,62.406,24.408,62.96,24.408 M41.106,53.708H84.76L62.959,29.99L41.106,53.708 M88.901,53.466
			l11.771-4.036L67.617,30.312L88.901,53.466 M36.986,53.441L58.289,30.32l-33.03,19.099L36.986,53.441 M23.397,91.304
			l12.013-35.009l-12.013-4.119V91.304 M102.47,91.32l0.043-39.126l-12.052,4.132L102.47,91.32 M62.931,98.905l22.788-41.988H40.144
			L62.931,98.905 M59.962,100.167L37.777,59.291L25.541,94.953L59.962,100.167 M65.866,100.229l34.457-5.274L88.084,59.291
			L65.866,100.229 M61.326,118.183v-14.561l-34.123-5.17L61.326,118.183 M64.537,118.215l34.115-19.757l-34.115,5.222V118.215
			 M62.96,21.446c-1.083,0-2.151,0.287-3.09,0.829L20.308,45.152c-1.901,1.1-3.083,3.147-3.083,5.344V96.25
			c0,2.197,1.182,4.244,3.083,5.344l39.563,22.877c0.938,0.543,2.007,0.829,3.09,0.829c1.085,0,2.155-0.287,3.094-0.831
			l39.504-22.877c1.896-1.098,3.076-3.143,3.079-5.335l0.049-45.754c0.004-2.199-1.178-4.249-3.081-5.35L66.051,22.275
			C65.113,21.733,64.044,21.446,62.96,21.446 M47.864,50.746l15.093-16.382l15.059,16.382H47.864z M89.772,50.037l-6.85-7.45
			l10.637,6.152L89.772,50.037z M32.373,48.728l10.55-6.1l-6.804,7.385L32.373,48.728z M26.359,73.547V56.323l5.288,1.813
			L26.359,73.547z M94.225,58.167l5.321-1.824L99.528,73.62L94.225,58.167z M45.121,59.879h35.621L62.931,92.696L45.121,59.879z
			 M29.495,92.556l8.896-25.926L54.52,96.348L29.495,92.556z M71.315,96.398l16.156-29.769l8.899,25.934L71.315,96.398z
			 M58.364,113.048l-16.123-9.323l16.123,2.443V113.048z M67.499,106.224l16.088-2.462l-16.088,9.316V106.224z"/>
		<polygon fill="#FF517B" points="37.777,59.291 25.541,94.952 59.962,100.167 		"/>
		<polygon fill="#FF517B" points="58.289,30.32 25.259,49.42 36.987,53.441 		"/>
		<polygon fill="#FFCFE3" points="84.76,53.708 62.959,29.99 41.107,53.708 		"/>
		<polygon fill="#FFE2EF" points="100.672,49.431 67.617,30.312 88.901,53.466 		"/>
		<polygon fill="#E2456B" points="23.397,52.177 23.397,91.305 35.411,56.295 		"/>
		<polygon fill="#FFCFE3" points="65.866,100.229 100.322,94.955 88.084,59.291 		"/>
		<polygon fill="#E2456B" points="61.326,118.183 61.326,103.622 27.203,98.452 		"/>
		<polygon fill="#FFE2EF" points="90.462,56.326 102.469,91.321 102.513,52.194 		"/>
		<polygon fill="#FF517B" points="64.537,118.216 98.652,98.458 64.537,103.68 		"/>
		<polygon fill="#FF819B" points="40.143,56.918 62.931,98.906 85.719,56.918 		"/>
		<path fill="#D42758" d="M104.123,47.717L64.569,24.84c-0.498-0.288-1.054-0.432-1.608-0.432s-1.109,0.144-1.606,0.432
			L21.79,47.717c-0.992,0.574-1.603,1.633-1.603,2.78V96.25c0,1.147,0.611,2.206,1.603,2.78l39.564,22.877
			c0.497,0.287,1.052,0.431,1.606,0.431c0.556,0,1.111-0.144,1.609-0.432l39.504-22.877c0.99-0.574,1.601-1.631,1.602-2.775
			l0.05-45.755C105.727,49.353,105.116,48.292,104.123,47.717 M23.397,52.177l12.013,4.119L23.397,91.305V52.177z M40.143,56.917
			h45.577L62.931,98.906L40.143,56.917z M59.962,100.167l-34.422-5.216l12.237-35.661L59.962,100.167z M41.106,53.708L62.959,29.99
			L84.76,53.708H41.106z M88.901,53.467L67.617,30.312l33.056,19.118L88.901,53.467z M36.987,53.441l-11.728-4.022l33.03-19.099
			L36.987,53.441z M61.326,103.622v14.561L27.203,98.451L61.326,103.622z M88.084,59.291l12.238,35.664l-34.457,5.274L88.084,59.291
			z M90.461,56.326l12.052-4.131l-0.043,39.126L90.461,56.326z M64.537,118.216v-14.535l34.115-5.222L64.537,118.216z"/>
	</g>
	<path display="inline" fill="#D42758" d="M154.505,91.477c0-1.794,1.587-3.174,3.519-3.174c2.001,0,3.657,1.38,3.657,3.174
		c0,3.036,2.415,5.934,7.038,5.934c4.416,0,7.245-2.484,7.245-6.21c0-2.967-0.69-5.52-4.899-8.28l-1.863-1.104
		c-4.554-2.553-5.796-3.381-7.107-4.209c-4.416-2.967-7.176-6.417-7.176-11.592c0-7.659,6.348-12.213,13.662-12.213
		c7.659,0,13.662,4.485,13.662,11.799c0,1.794-1.587,3.174-3.588,3.174s-3.588-1.38-3.588-3.174c0-3.174-2.07-5.451-6.486-5.451
		c-4.485,0-6.486,2.967-6.486,5.796c0,1.518,0,3.588,3.726,6.21c1.104,0.897,4.002,2.691,8.763,5.382
		c5.313,3.105,8.556,7.866,8.556,13.662c0,8.004-7.038,12.558-14.421,12.558C159.818,103.759,154.505,97.756,154.505,91.477z"/>
	<path display="inline" fill="#D42758" d="M231.854,56.977v43.539c0,1.794-1.587,3.243-3.588,3.243
		c-1.932,0-3.519-1.449-3.519-3.243V80.092h-14.559v20.424c0,1.794-1.587,3.243-3.519,3.243c-2.001,0-3.657-1.449-3.657-3.243
		V56.977c0-1.794,1.656-3.174,3.657-3.174c1.932,0,3.519,1.38,3.519,3.174v16.767h14.559V56.977c0-1.794,1.587-3.174,3.519-3.174
		C230.267,53.803,231.854,55.183,231.854,56.977z"/>
	<path display="inline" fill="#D42758" d="M323.485,100.171c0,1.794-1.587,3.174-3.588,3.174h-19.251c-1.933,0-3.52-1.38-3.52-3.174
		V57.322c0-1.725,1.587-3.105,3.52-3.105h19.044c2.001,0,3.588,1.38,3.588,3.105c0,1.794-1.587,3.243-3.588,3.243h-15.387v13.179
		h13.455c2.001,0,3.588,1.449,3.588,3.243c0,1.725-1.587,3.105-3.588,3.105h-13.455v16.836h15.594
		C321.898,96.928,323.485,98.308,323.485,100.171z"/>
	<path display="inline" fill="#D42758" d="M368.956,99.757c0,1.794-1.588,3.174-3.589,3.174h-19.458
		c-2.001,0-3.588-1.38-3.588-3.174v-42.78c0-1.794,1.587-3.174,3.588-3.174s3.589,1.38,3.589,3.174v39.537h15.869
		C367.368,96.514,368.956,97.963,368.956,99.757z"/>
	<path display="inline" fill="#D42758" d="M264.594,53.803c-2.001,0-3.588,1.38-3.588,3.174v4.071v35.466v4.071
		c0,1.794,1.588,3.174,3.589,3.174s3.588-1.38,3.588-3.174v-4.071V61.048v-4.071C268.183,55.183,266.595,53.803,264.594,53.803z"/>
	<path display="inline" fill="#D42758" d="M556.805,53.803c-2.001,0-3.588,1.38-3.588,3.174v4.071v35.466v4.071
		c0,1.794,1.588,3.174,3.589,3.174s3.588-1.38,3.588-3.174v-4.071V61.048v-4.071C560.394,55.183,558.806,53.803,556.805,53.803z"/>
	<path display="inline" fill="#D42758" d="M391.449,103.345c-2.001,0-3.657-1.38-3.657-3.174V57.322
		c0-1.725,1.656-3.105,3.657-3.105h9.937c8.004,0,14.489,6.279,14.489,14.076V89.2c0,7.797-6.485,14.145-14.489,14.145H391.449z
		 M394.968,96.928h6.417c4.07,0,7.313-3.45,7.313-7.728V68.292c0-4.278-3.243-7.728-7.313-7.728h-6.417V96.928z"/>
	<path display="inline" fill="#D42758" d="M468.453,100.516V71.674l-8.694,17.664c-0.621,1.035-1.794,1.794-3.243,1.794
		c-1.38,0-2.553-0.621-3.174-1.725l-8.625-17.664v28.773c0,1.794-1.587,3.243-3.588,3.243c-1.932,0-3.519-1.449-3.519-3.243V56.977
		c0-1.794,1.587-3.174,3.519-3.174c1.38,0,2.691,0.759,3.174,1.794l12.213,25.185c4.071-8.142,8.28-17.043,12.282-25.185
		c0.552-1.035,1.794-1.794,3.243-1.794c2.139,0,3.52,1.656,3.52,3.174v43.539c0,1.794-1.588,3.243-3.52,3.243
		C470.04,103.759,468.453,102.31,468.453,100.516z"/>
	<path display="inline" fill="#D42758" d="M528.068,99.688c0.414,1.863-1.104,4.071-3.588,4.071c-1.519,0-2.829-0.897-3.312-2.277
		l-2.897-9.246h-13.938c-0.966,3.174-1.794,6.141-2.76,9.246c-0.414,1.311-1.863,2.277-3.45,2.277c-2.07,0-4.14-2.001-3.381-4.14
		v0.069l13.11-43.608c0.482-1.311,1.932-2.277,3.519-2.277c1.518,0,2.898,0.966,3.381,2.277l13.248,43.608H528.068z M516.407,85.888
		l-5.037-19.044l-5.175,19.044H516.407z"/>
	<path display="inline" fill="#D42758" d="M592.996,103.345c-2.001,0-3.657-1.38-3.657-3.174V57.322
		c0-1.725,1.656-3.105,3.657-3.105h9.937c8.004,0,14.489,6.279,14.489,14.076V89.2c0,7.797-6.485,14.145-14.489,14.145H592.996z
		 M596.515,96.928h6.417c4.07,0,7.313-3.45,7.313-7.728V68.292c0-4.278-3.243-7.728-7.313-7.728h-6.417V96.928z"/>
	<path display="inline" fill="#D42758" d="M665.375,100.171c0,1.794-1.587,3.174-3.588,3.174h-19.251c-1.933,0-3.52-1.38-3.52-3.174
		V57.322c0-1.725,1.587-3.105,3.52-3.105h19.044c2.001,0,3.588,1.38,3.588,3.105c0,1.794-1.587,3.243-3.588,3.243h-15.387v13.179
		h13.455c2.001,0,3.588,1.449,3.588,3.243c0,1.725-1.587,3.105-3.588,3.105h-13.455v16.836h15.594
		C663.789,96.928,665.375,98.308,665.375,100.171z"/>
	<path display="inline" fill="#D42758" d="M706.638,101.965l-15.87-31.878l0.621,30.429c0,1.794-1.588,3.243-3.589,3.243
		c-1.932,0-3.588-1.449-3.588-3.243V56.977c0-1.794,1.794-3.174,3.588-3.174c1.312,0,2.622,0.828,3.175,1.794l15.87,31.74
		l-0.621-30.36c0-1.794,1.587-3.174,3.588-3.174s3.588,1.38,3.588,3.174v43.539c0,1.518-1.173,2.76-2.76,3.174l0.138-0.069
		c-0.414,0.138-0.621,0.138-0.966,0.138C708.57,103.759,707.19,103,706.638,101.965z"/>
</g>
<g id="Orange" display="none">
	<g display="inline">
		<path fill="#E2845C" d="M4.337,13.169v57.364v6.435v5.302c0,38.844,9.58,48.412,32.685,56.974
			c13.713,5.08,21.374,9.742,24.026,11.508c0.209,0.137,1.667,0.268,1.907,0.314v-27.177L19.262,98.51V47.649l43.693-25.011V5.932
			c-26.234,5.067-50.194,5.586-56.817,5.628C5.144,11.56,4.337,12.28,4.337,13.169"/>
		<path fill="#FFEADD" d="M120.701,13.169v57.364v6.435v5.302c0,38.844-9.438,48.412-32.197,56.974
			c-13.509,5.08-21.056,9.742-23.668,11.508c-0.206,0.137-1.642,0.268-1.88,0.314v-27.177l45.013-25.379V47.649L62.956,22.638V5.932
			c25.845,5.067,49.447,5.586,55.972,5.628C119.907,11.56,120.701,12.28,120.701,13.169"/>
		<path fill="#FFFFFF" d="M62.956,153.598c-0.816,0-1.632-0.23-2.328-0.695c-2.604-1.73-10.116-6.299-23.651-11.312
			c-11.559-4.283-20.442-9.001-26.223-18.104c-5.574-8.774-8.059-21.482-8.059-41.204V12.921c0-2.137,1.824-3.876,4.067-3.876
			c6.693-0.042,30.509-0.57,55.354-5.604c0.55-0.111,1.132-0.112,1.684,0c24.836,5.033,48.645,5.562,55.36,5.604
			c2.24,0.004,4.061,1.742,4.061,3.876v69.361c0,40.128-10.108,50.349-34.284,59.308c-13.534,5.014-21.047,9.582-23.649,11.312
			C64.589,153.365,63.772,153.596,62.956,153.598 M8.76,13.544c-0.857,0.014-1.545,0.711-1.545,1.569v67.169
			c0,39.171,10.034,47.176,31.332,55.067c12.093,4.482,19.613,8.67,23.192,10.896c0.746,0.465,1.686,0.465,2.433,0
			c3.578-2.227,11.098-6.414,23.192-10.896c21.299-7.892,31.333-15.897,31.333-55.067V15.113c0-0.858-0.688-1.555-1.545-1.569
			c-8.698-0.136-30.818-0.962-53.893-5.599c-0.2-0.04-0.408-0.04-0.608,0C39.578,12.582,17.459,13.408,8.76,13.544 M6.778,13.566
			H6.775H6.778z"/>
		<path fill="#D1774A" d="M62.956,156.955c-0.853,0-1.705-0.242-2.433-0.727c-2.719-1.809-10.568-6.58-24.708-11.818
			c-12.076-4.475-21.356-9.402-27.395-18.911C2.597,116.332,0,103.056,0,82.452V9.991c0-2.232,1.906-4.049,4.249-4.049
			c6.993-0.044,31.873-0.595,57.828-5.855c0.575-0.115,1.183-0.116,1.759,0.001c25.946,5.257,50.819,5.81,57.836,5.854
			c2.34,0.005,4.241,1.82,4.241,4.049v72.461c0,41.922-10.559,52.601-35.816,61.958c-14.14,5.238-21.988,10.01-24.706,11.818
			C64.662,156.713,63.809,156.953,62.956,156.955 M6.223,10.052c-1.113,0.019-2.001,0.927-2.001,2.041v70.393
			c0,41.275,10.573,49.709,33.015,58.026c12.255,4.541,20.053,8.797,23.987,11.201c1.064,0.65,2.399,0.65,3.464,0
			c3.933-2.404,11.73-6.66,23.987-11.201c22.442-8.317,33.016-16.752,33.016-58.026v-70.05c0-1.302-1.041-2.366-2.343-2.39
			c-9.66-0.178-32.571-1.131-56.393-5.952C38.851,8.972,15.679,9.89,6.223,10.052 M3.762,10.082H3.759H3.762z"/>
		<path d="M62.96,123.819c-0.823,0-1.637-0.218-2.349-0.63l-39.562-22.877c-1.446-0.836-2.344-2.392-2.344-4.062V50.497
			c0-1.67,0.898-3.226,2.344-4.062l39.562-22.877c0.712-0.412,1.525-0.63,2.349-0.63c0.824,0,1.636,0.218,2.35,0.63l39.554,22.877
			c1.446,0.837,2.345,2.396,2.343,4.067l-0.051,45.754c-0.001,1.666-0.897,3.22-2.34,4.055l-39.504,22.877
			C64.599,123.602,63.786,123.819,62.96,123.819 M66.017,115.646l25.102-14.537l-25.102,3.843V115.646z M59.844,115.615v-10.721
			l-25.123-3.806L59.844,115.615z M68.591,98.313l29.755-4.554l-10.567-30.8L68.591,98.313z M57.24,98.257L38.083,62.959
			L27.517,93.753L57.24,98.257z M62.931,95.8L83.23,58.398H42.632L62.931,95.8z M100.999,82.47l0.031-28.202l-8.687,2.978
			L100.999,82.47z M24.878,82.425l8.651-25.21l-8.651-2.966V82.425z M81.388,52.227L62.958,32.177L44.485,52.227H81.388z
			 M89.336,51.751l7.778-2.667L75.27,36.449L89.336,51.751z M36.552,51.727l14.053-15.252l-21.79,12.6L36.552,51.727z"/>
		<path fill="#FFFFFF" d="M62.96,24.408c0.556,0,1.11,0.144,1.608,0.431l39.554,22.878c0.993,0.574,1.604,1.635,1.603,2.782
			l-0.05,45.755c-0.001,1.144-0.611,2.201-1.602,2.775L64.57,121.906c-0.498,0.288-1.053,0.432-1.609,0.432
			c-0.555,0-1.109-0.143-1.606-0.431L21.791,99.03c-0.993-0.574-1.604-1.633-1.604-2.78V50.497c0-1.147,0.611-2.206,1.604-2.78
			l39.563-22.877C61.851,24.552,62.406,24.408,62.96,24.408 M41.106,53.708H84.76L62.959,29.99L41.106,53.708 M88.901,53.466
			l11.771-4.036L67.617,30.312L88.901,53.466 M36.986,53.441L58.289,30.32l-33.03,19.099L36.986,53.441 M23.397,91.304
			l12.013-35.009l-12.013-4.119V91.304 M102.47,91.32l0.043-39.126l-12.052,4.132L102.47,91.32 M62.931,98.905l22.788-41.988H40.144
			L62.931,98.905 M59.962,100.167L37.777,59.291L25.541,94.953L59.962,100.167 M65.866,100.229l34.457-5.274L88.084,59.291
			L65.866,100.229 M61.326,118.183v-14.561l-34.123-5.17L61.326,118.183 M64.537,118.215l34.115-19.757l-34.115,5.222V118.215
			 M62.96,21.446c-1.083,0-2.151,0.287-3.09,0.829L20.308,45.152c-1.901,1.1-3.083,3.147-3.083,5.344V96.25
			c0,2.197,1.182,4.244,3.083,5.344l39.563,22.877c0.938,0.543,2.007,0.829,3.09,0.829c1.085,0,2.155-0.287,3.094-0.831
			l39.504-22.877c1.896-1.098,3.076-3.143,3.079-5.335l0.049-45.754c0.004-2.199-1.178-4.249-3.081-5.35L66.051,22.275
			C65.113,21.733,64.044,21.446,62.96,21.446 M47.864,50.746l15.093-16.382l15.059,16.382H47.864z M89.772,50.037l-6.85-7.45
			l10.637,6.152L89.772,50.037z M32.373,48.728l10.55-6.1l-6.804,7.385L32.373,48.728z M26.359,73.547V56.323l5.288,1.813
			L26.359,73.547z M94.225,58.167l5.321-1.824L99.528,73.62L94.225,58.167z M45.121,59.879h35.621L62.931,92.696L45.121,59.879z
			 M29.495,92.556l8.896-25.926L54.52,96.348L29.495,92.556z M71.315,96.398l16.156-29.769l8.899,25.934L71.315,96.398z
			 M58.364,113.048l-16.123-9.323l16.123,2.443V113.048z M67.499,106.224l16.088-2.462l-16.088,9.316V106.224z"/>
		<polygon fill="#FFAD84" points="37.777,59.291 25.541,94.952 59.962,100.167 		"/>
		<polygon fill="#FFAD84" points="58.289,30.32 25.259,49.42 36.987,53.441 		"/>
		<polygon fill="#FFEADD" points="84.76,53.708 62.959,29.99 41.107,53.708 		"/>
		<polygon fill="#FFF4ED" points="100.672,49.431 67.617,30.312 88.901,53.466 		"/>
		<polygon fill="#E2845C" points="23.397,52.177 23.397,91.305 35.411,56.295 		"/>
		<polygon fill="#FFEADD" points="65.866,100.229 100.322,94.955 88.084,59.291 		"/>
		<polygon fill="#E2845C" points="61.326,118.183 61.326,103.622 27.203,98.452 		"/>
		<polygon fill="#FFF4ED" points="90.462,56.326 102.469,91.321 102.513,52.194 		"/>
		<polygon fill="#FFAD84" points="64.537,118.216 98.652,98.458 64.537,103.68 		"/>
		<polygon fill="#FFCCAF" points="40.143,56.918 62.931,98.906 85.719,56.918 		"/>
		<path fill="#D1774A" d="M104.123,47.717L64.569,24.84c-0.498-0.288-1.054-0.432-1.608-0.432s-1.109,0.144-1.606,0.432
			L21.79,47.717c-0.992,0.574-1.603,1.633-1.603,2.78V96.25c0,1.147,0.611,2.206,1.603,2.78l39.564,22.877
			c0.497,0.287,1.052,0.431,1.606,0.431c0.556,0,1.111-0.144,1.609-0.432l39.504-22.877c0.99-0.574,1.601-1.631,1.602-2.775
			l0.05-45.755C105.727,49.353,105.116,48.292,104.123,47.717 M23.397,52.177l12.013,4.119L23.397,91.305V52.177z M40.143,56.917
			h45.577L62.931,98.906L40.143,56.917z M59.962,100.167l-34.422-5.216l12.237-35.661L59.962,100.167z M41.106,53.708L62.959,29.99
			L84.76,53.708H41.106z M88.901,53.467L67.617,30.312l33.056,19.118L88.901,53.467z M36.987,53.441l-11.728-4.022l33.03-19.099
			L36.987,53.441z M61.326,103.622v14.561L27.203,98.451L61.326,103.622z M88.084,59.291l12.238,35.664l-34.457,5.274L88.084,59.291
			z M90.461,56.326l12.052-4.131l-0.043,39.126L90.461,56.326z M64.537,118.216v-14.535l34.115-5.222L64.537,118.216z"/>
	</g>
	<path display="inline" fill="#D1774A" d="M154.505,91.477c0-1.794,1.587-3.174,3.519-3.174c2.001,0,3.657,1.38,3.657,3.174
		c0,3.036,2.415,5.934,7.038,5.934c4.416,0,7.245-2.484,7.245-6.21c0-2.967-0.69-5.52-4.899-8.28l-1.863-1.104
		c-4.554-2.553-5.796-3.381-7.107-4.209c-4.416-2.967-7.176-6.417-7.176-11.592c0-7.659,6.348-12.213,13.662-12.213
		c7.659,0,13.662,4.485,13.662,11.799c0,1.794-1.587,3.174-3.588,3.174s-3.588-1.38-3.588-3.174c0-3.174-2.07-5.451-6.486-5.451
		c-4.485,0-6.486,2.967-6.486,5.796c0,1.518,0,3.588,3.726,6.21c1.104,0.897,4.002,2.691,8.763,5.382
		c5.313,3.105,8.556,7.866,8.556,13.662c0,8.004-7.038,12.558-14.421,12.558C159.818,103.759,154.505,97.756,154.505,91.477z"/>
	<path display="inline" fill="#D1774A" d="M231.854,56.977v43.539c0,1.794-1.587,3.243-3.588,3.243
		c-1.932,0-3.519-1.449-3.519-3.243V80.092h-14.559v20.424c0,1.794-1.587,3.243-3.519,3.243c-2.001,0-3.657-1.449-3.657-3.243
		V56.977c0-1.794,1.656-3.174,3.657-3.174c1.932,0,3.519,1.38,3.519,3.174v16.767h14.559V56.977c0-1.794,1.587-3.174,3.519-3.174
		C230.267,53.803,231.854,55.183,231.854,56.977z"/>
	<path display="inline" fill="#D1774A" d="M323.485,100.171c0,1.794-1.587,3.174-3.588,3.174h-19.251c-1.933,0-3.52-1.38-3.52-3.174
		V57.322c0-1.725,1.587-3.105,3.52-3.105h19.044c2.001,0,3.588,1.38,3.588,3.105c0,1.794-1.587,3.243-3.588,3.243h-15.387v13.179
		h13.455c2.001,0,3.588,1.449,3.588,3.243c0,1.725-1.587,3.105-3.588,3.105h-13.455v16.836h15.594
		C321.898,96.928,323.485,98.308,323.485,100.171z"/>
	<path display="inline" fill="#D1774A" d="M368.956,99.757c0,1.794-1.588,3.174-3.589,3.174h-19.458
		c-2.001,0-3.588-1.38-3.588-3.174v-42.78c0-1.794,1.587-3.174,3.588-3.174s3.589,1.38,3.589,3.174v39.537h15.869
		C367.368,96.514,368.956,97.963,368.956,99.757z"/>
	<path display="inline" fill="#D1774A" d="M264.594,53.803c-2.001,0-3.588,1.38-3.588,3.174v4.071v35.466v4.071
		c0,1.794,1.588,3.174,3.589,3.174s3.588-1.38,3.588-3.174v-4.071V61.048v-4.071C268.183,55.183,266.595,53.803,264.594,53.803z"/>
	<path display="inline" fill="#D1774A" d="M556.805,53.803c-2.001,0-3.588,1.38-3.588,3.174v4.071v35.466v4.071
		c0,1.794,1.588,3.174,3.589,3.174s3.588-1.38,3.588-3.174v-4.071V61.048v-4.071C560.394,55.183,558.806,53.803,556.805,53.803z"/>
	<path display="inline" fill="#D1774A" d="M391.449,103.345c-2.001,0-3.657-1.38-3.657-3.174V57.322
		c0-1.725,1.656-3.105,3.657-3.105h9.937c8.004,0,14.489,6.279,14.489,14.076V89.2c0,7.797-6.485,14.145-14.489,14.145H391.449z
		 M394.968,96.928h6.417c4.07,0,7.313-3.45,7.313-7.728V68.292c0-4.278-3.243-7.728-7.313-7.728h-6.417V96.928z"/>
	<path display="inline" fill="#D1774A" d="M468.453,100.516V71.674l-8.694,17.664c-0.621,1.035-1.794,1.794-3.243,1.794
		c-1.38,0-2.553-0.621-3.174-1.725l-8.625-17.664v28.773c0,1.794-1.587,3.243-3.588,3.243c-1.932,0-3.519-1.449-3.519-3.243V56.977
		c0-1.794,1.587-3.174,3.519-3.174c1.38,0,2.691,0.759,3.174,1.794l12.213,25.185c4.071-8.142,8.28-17.043,12.282-25.185
		c0.552-1.035,1.794-1.794,3.243-1.794c2.139,0,3.52,1.656,3.52,3.174v43.539c0,1.794-1.588,3.243-3.52,3.243
		C470.04,103.759,468.453,102.31,468.453,100.516z"/>
	<path display="inline" fill="#D1774A" d="M528.068,99.688c0.414,1.863-1.104,4.071-3.588,4.071c-1.519,0-2.829-0.897-3.312-2.277
		l-2.897-9.246h-13.938c-0.966,3.174-1.794,6.141-2.76,9.246c-0.414,1.311-1.863,2.277-3.45,2.277c-2.07,0-4.14-2.001-3.381-4.14
		v0.069l13.11-43.608c0.482-1.311,1.932-2.277,3.519-2.277c1.518,0,2.898,0.966,3.381,2.277l13.248,43.608H528.068z M516.407,85.888
		l-5.037-19.044l-5.175,19.044H516.407z"/>
	<path display="inline" fill="#D1774A" d="M592.996,103.345c-2.001,0-3.657-1.38-3.657-3.174V57.322
		c0-1.725,1.656-3.105,3.657-3.105h9.937c8.004,0,14.489,6.279,14.489,14.076V89.2c0,7.797-6.485,14.145-14.489,14.145H592.996z
		 M596.515,96.928h6.417c4.07,0,7.313-3.45,7.313-7.728V68.292c0-4.278-3.243-7.728-7.313-7.728h-6.417V96.928z"/>
	<path display="inline" fill="#D1774A" d="M665.375,100.171c0,1.794-1.587,3.174-3.588,3.174h-19.251c-1.933,0-3.52-1.38-3.52-3.174
		V57.322c0-1.725,1.587-3.105,3.52-3.105h19.044c2.001,0,3.588,1.38,3.588,3.105c0,1.794-1.587,3.243-3.588,3.243h-15.387v13.179
		h13.455c2.001,0,3.588,1.449,3.588,3.243c0,1.725-1.587,3.105-3.588,3.105h-13.455v16.836h15.594
		C663.789,96.928,665.375,98.308,665.375,100.171z"/>
	<path display="inline" fill="#D1774A" d="M706.638,101.965l-15.87-31.878l0.621,30.429c0,1.794-1.588,3.243-3.589,3.243
		c-1.932,0-3.588-1.449-3.588-3.243V56.977c0-1.794,1.794-3.174,3.588-3.174c1.312,0,2.622,0.828,3.175,1.794l15.87,31.74
		l-0.621-30.36c0-1.794,1.587-3.174,3.588-3.174s3.588,1.38,3.588,3.174v43.539c0,1.518-1.173,2.76-2.76,3.174l0.138-0.069
		c-0.414,0.138-0.621,0.138-0.966,0.138C708.57,103.759,707.19,103,706.638,101.965z"/>
</g>
<g id="Cyan">
	<g>
		<path fill="#4CB5BC" d="M4.337,13.169v57.364v6.435v5.302c0,38.844,9.58,48.412,32.685,56.974
			c13.713,5.08,21.374,9.742,24.026,11.508c0.209,0.137,1.667,0.268,1.907,0.314v-27.177L19.262,98.51V47.649l43.693-25.011V5.932
			c-26.234,5.067-50.194,5.586-56.817,5.628C5.144,11.56,4.337,12.28,4.337,13.169"/>
		<path fill="#C5EAF4" d="M120.701,13.169v57.364v6.435v5.302c0,38.844-9.438,48.412-32.197,56.974
			c-13.509,5.08-21.056,9.742-23.668,11.508c-0.206,0.137-1.642,0.268-1.88,0.314v-27.177l45.013-25.379V47.649L62.956,22.638V5.932
			c25.845,5.067,49.447,5.586,55.972,5.628C119.907,11.56,120.701,12.28,120.701,13.169"/>
		<path fill="#FFFFFF" d="M62.956,153.598c-0.816,0-1.632-0.23-2.328-0.695c-2.604-1.73-10.116-6.299-23.651-11.312
			c-11.559-4.283-20.442-9.001-26.223-18.104c-5.574-8.774-8.059-21.482-8.059-41.204V12.921c0-2.137,1.824-3.876,4.067-3.876
			c6.693-0.042,30.509-0.57,55.354-5.604c0.55-0.111,1.132-0.112,1.684,0c24.836,5.033,48.645,5.562,55.36,5.604
			c2.24,0.004,4.061,1.742,4.061,3.876v69.361c0,40.128-10.108,50.349-34.284,59.308c-13.534,5.014-21.047,9.582-23.649,11.312
			C64.589,153.365,63.772,153.596,62.956,153.598 M8.76,13.544c-0.857,0.014-1.545,0.711-1.545,1.569v67.169
			c0,39.171,10.034,47.176,31.332,55.067c12.093,4.482,19.613,8.67,23.192,10.896c0.746,0.465,1.686,0.465,2.433,0
			c3.578-2.227,11.098-6.414,23.192-10.896c21.299-7.892,31.333-15.897,31.333-55.067V15.113c0-0.858-0.688-1.555-1.545-1.569
			c-8.698-0.136-30.818-0.962-53.893-5.599c-0.2-0.04-0.408-0.04-0.608,0C39.578,12.582,17.459,13.408,8.76,13.544 M6.778,13.566
			H6.775H6.778z"/>
		<path fill="#3FA3AD" d="M62.956,156.955c-0.853,0-1.705-0.242-2.433-0.727c-2.719-1.809-10.568-6.58-24.708-11.818
			c-12.076-4.475-21.356-9.402-27.395-18.911C2.597,116.332,0,103.056,0,82.452V9.991c0-2.232,1.906-4.049,4.249-4.049
			c6.993-0.044,31.873-0.595,57.828-5.855c0.575-0.115,1.183-0.116,1.759,0.001c25.946,5.257,50.819,5.81,57.836,5.854
			c2.34,0.005,4.241,1.82,4.241,4.049v72.461c0,41.922-10.559,52.601-35.816,61.958c-14.14,5.238-21.988,10.01-24.706,11.818
			C64.662,156.713,63.809,156.953,62.956,156.955 M6.223,10.052c-1.113,0.019-2.001,0.927-2.001,2.041v70.393
			c0,41.275,10.573,49.709,33.015,58.026c12.255,4.541,20.053,8.797,23.987,11.201c1.064,0.65,2.399,0.65,3.464,0
			c3.933-2.404,11.73-6.66,23.987-11.201c22.442-8.317,33.016-16.752,33.016-58.026v-70.05c0-1.302-1.041-2.366-2.343-2.39
			c-9.66-0.178-32.571-1.131-56.393-5.952C38.851,8.972,15.679,9.89,6.223,10.052 M3.762,10.082H3.759H3.762z"/>
		<path d="M62.96,123.819c-0.823,0-1.637-0.218-2.349-0.63l-39.562-22.877c-1.446-0.836-2.344-2.392-2.344-4.062V50.497
			c0-1.67,0.898-3.226,2.344-4.062l39.562-22.877c0.712-0.412,1.525-0.63,2.349-0.63c0.824,0,1.636,0.218,2.35,0.63l39.554,22.877
			c1.446,0.837,2.345,2.396,2.343,4.067l-0.051,45.754c-0.001,1.666-0.897,3.22-2.34,4.055l-39.504,22.877
			C64.599,123.602,63.786,123.819,62.96,123.819 M66.017,115.646l25.102-14.537l-25.102,3.843V115.646z M59.844,115.615v-10.721
			l-25.123-3.806L59.844,115.615z M68.591,98.313l29.755-4.554l-10.567-30.8L68.591,98.313z M57.24,98.257L38.083,62.959
			L27.517,93.753L57.24,98.257z M62.931,95.8L83.23,58.398H42.632L62.931,95.8z M100.999,82.47l0.031-28.202l-8.687,2.978
			L100.999,82.47z M24.878,82.425l8.651-25.21l-8.651-2.966V82.425z M81.388,52.227L62.958,32.177L44.485,52.227H81.388z
			 M89.336,51.751l7.778-2.667L75.27,36.449L89.336,51.751z M36.552,51.727l14.053-15.252l-21.79,12.6L36.552,51.727z"/>
		<path fill="#FFFFFF" d="M62.96,24.408c0.556,0,1.11,0.144,1.608,0.431l39.554,22.878c0.993,0.574,1.604,1.635,1.603,2.782
			l-0.05,45.755c-0.001,1.144-0.611,2.201-1.602,2.775L64.57,121.906c-0.498,0.288-1.053,0.432-1.609,0.432
			c-0.555,0-1.109-0.143-1.606-0.431L21.791,99.03c-0.993-0.574-1.604-1.633-1.604-2.78V50.497c0-1.147,0.611-2.206,1.604-2.78
			l39.563-22.877C61.851,24.552,62.406,24.408,62.96,24.408 M41.106,53.708H84.76L62.959,29.99L41.106,53.708 M88.901,53.466
			l11.771-4.036L67.617,30.312L88.901,53.466 M36.986,53.441L58.289,30.32l-33.03,19.099L36.986,53.441 M23.397,91.304
			l12.013-35.009l-12.013-4.119V91.304 M102.47,91.32l0.043-39.126l-12.052,4.132L102.47,91.32 M62.931,98.905l22.788-41.988H40.144
			L62.931,98.905 M59.962,100.167L37.777,59.291L25.541,94.953L59.962,100.167 M65.866,100.229l34.457-5.274L88.084,59.291
			L65.866,100.229 M61.326,118.183v-14.561l-34.123-5.17L61.326,118.183 M64.537,118.215l34.115-19.757l-34.115,5.222V118.215
			 M62.96,21.446c-1.083,0-2.151,0.287-3.09,0.829L20.308,45.152c-1.901,1.1-3.083,3.147-3.083,5.344V96.25
			c0,2.197,1.182,4.244,3.083,5.344l39.563,22.877c0.938,0.543,2.007,0.829,3.09,0.829c1.085,0,2.155-0.287,3.094-0.831
			l39.504-22.877c1.896-1.098,3.076-3.143,3.079-5.335l0.049-45.754c0.004-2.199-1.178-4.249-3.081-5.35L66.051,22.275
			C65.113,21.733,64.044,21.446,62.96,21.446 M47.864,50.746l15.093-16.382l15.059,16.382H47.864z M89.772,50.037l-6.85-7.45
			l10.637,6.152L89.772,50.037z M32.373,48.728l10.55-6.1l-6.804,7.385L32.373,48.728z M26.359,73.547V56.323l5.288,1.813
			L26.359,73.547z M94.225,58.167l5.321-1.824L99.528,73.62L94.225,58.167z M45.121,59.879h35.621L62.931,92.696L45.121,59.879z
			 M29.495,92.556l8.896-25.926L54.52,96.348L29.495,92.556z M71.315,96.398l16.156-29.769l8.899,25.934L71.315,96.398z
			 M58.364,113.048l-16.123-9.323l16.123,2.443V113.048z M67.499,106.224l16.088-2.462l-16.088,9.316V106.224z"/>
		<polygon fill="#6DCBD0" points="37.777,59.291 25.541,94.952 59.962,100.167 		"/>
		<polygon fill="#6DCBD0" points="58.289,30.32 25.259,49.42 36.987,53.441 		"/>
		<polygon fill="#C5EAF4" points="84.76,53.708 62.959,29.99 41.107,53.708 		"/>
		<polygon fill="#E0FBFB" points="100.672,49.431 67.617,30.312 88.901,53.466 		"/>
		<polygon fill="#4CB5BC" points="23.397,52.177 23.397,91.305 35.411,56.295 		"/>
		<polygon fill="#C5EAF4" points="65.866,100.229 100.322,94.955 88.084,59.291 		"/>
		<polygon fill="#4CB5BC" points="61.326,118.183 61.326,103.622 27.203,98.452 		"/>
		<polygon fill="#E0FBFB" points="90.462,56.326 102.469,91.321 102.513,52.194 		"/>
		<polygon fill="#6DCBD0" points="64.537,118.216 98.652,98.458 64.537,103.68 		"/>
		<polygon fill="#96DADF" points="40.143,56.918 62.931,98.906 85.719,56.918 		"/>
		<path fill="#3FA3AD" d="M104.123,47.717L64.569,24.84c-0.498-0.288-1.054-0.432-1.608-0.432s-1.109,0.144-1.606,0.432
			L21.79,47.717c-0.992,0.574-1.603,1.633-1.603,2.78V96.25c0,1.147,0.611,2.206,1.603,2.78l39.564,22.877
			c0.497,0.287,1.052,0.431,1.606,0.431c0.556,0,1.111-0.144,1.609-0.432l39.504-22.877c0.99-0.574,1.601-1.631,1.602-2.775
			l0.05-45.755C105.727,49.353,105.116,48.292,104.123,47.717 M23.397,52.177l12.013,4.119L23.397,91.305V52.177z M40.143,56.917
			h45.577L62.931,98.906L40.143,56.917z M59.962,100.167l-34.422-5.216l12.237-35.661L59.962,100.167z M41.106,53.708L62.959,29.99
			L84.76,53.708H41.106z M88.901,53.467L67.617,30.312l33.056,19.118L88.901,53.467z M36.987,53.441l-11.728-4.022l33.03-19.099
			L36.987,53.441z M61.326,103.622v14.561L27.203,98.451L61.326,103.622z M88.084,59.291l12.238,35.664l-34.457,5.274L88.084,59.291
			z M90.461,56.326l12.052-4.131l-0.043,39.126L90.461,56.326z M64.537,118.216v-14.535l34.115-5.222L64.537,118.216z"/>
	</g>
	<path fill="#3FA3AD" d="M154.505,91.477c0-1.794,1.587-3.174,3.519-3.174c2.001,0,3.657,1.38,3.657,3.174
		c0,3.036,2.415,5.934,7.038,5.934c4.416,0,7.245-2.484,7.245-6.21c0-2.967-0.69-5.52-4.899-8.28l-1.863-1.104
		c-4.554-2.553-5.796-3.381-7.107-4.209c-4.416-2.967-7.176-6.417-7.176-11.592c0-7.659,6.348-12.213,13.662-12.213
		c7.659,0,13.662,4.485,13.662,11.799c0,1.794-1.587,3.174-3.588,3.174s-3.588-1.38-3.588-3.174c0-3.174-2.07-5.451-6.486-5.451
		c-4.485,0-6.486,2.967-6.486,5.796c0,1.518,0,3.588,3.726,6.21c1.104,0.897,4.002,2.691,8.763,5.382
		c5.313,3.105,8.556,7.866,8.556,13.662c0,8.004-7.038,12.558-14.421,12.558C159.818,103.759,154.505,97.756,154.505,91.477z"/>
	<path fill="#3FA3AD" d="M231.854,56.977v43.539c0,1.794-1.587,3.243-3.588,3.243c-1.932,0-3.519-1.449-3.519-3.243V80.092h-14.559
		v20.424c0,1.794-1.587,3.243-3.519,3.243c-2.001,0-3.657-1.449-3.657-3.243V56.977c0-1.794,1.656-3.174,3.657-3.174
		c1.932,0,3.519,1.38,3.519,3.174v16.767h14.559V56.977c0-1.794,1.587-3.174,3.519-3.174
		C230.267,53.803,231.854,55.183,231.854,56.977z"/>
	<path fill="#3FA3AD" d="M323.485,100.171c0,1.794-1.587,3.174-3.588,3.174h-19.251c-1.933,0-3.52-1.38-3.52-3.174V57.322
		c0-1.725,1.587-3.105,3.52-3.105h19.044c2.001,0,3.588,1.38,3.588,3.105c0,1.794-1.587,3.243-3.588,3.243h-15.387v13.179h13.455
		c2.001,0,3.588,1.449,3.588,3.243c0,1.725-1.587,3.105-3.588,3.105h-13.455v16.836h15.594
		C321.898,96.928,323.485,98.308,323.485,100.171z"/>
	<path fill="#3FA3AD" d="M368.956,99.757c0,1.794-1.588,3.174-3.589,3.174h-19.458c-2.001,0-3.588-1.38-3.588-3.174v-42.78
		c0-1.794,1.587-3.174,3.588-3.174s3.589,1.38,3.589,3.174v39.537h15.869C367.368,96.514,368.956,97.963,368.956,99.757z"/>
	<path fill="#3FA3AD" d="M264.594,53.803c-2.001,0-3.588,1.38-3.588,3.174v4.071v35.466v4.071c0,1.794,1.588,3.174,3.589,3.174
		s3.588-1.38,3.588-3.174v-4.071V61.048v-4.071C268.183,55.183,266.595,53.803,264.594,53.803z"/>
	<path fill="#3FA3AD" d="M556.805,53.803c-2.001,0-3.588,1.38-3.588,3.174v4.071v35.466v4.071c0,1.794,1.588,3.174,3.589,3.174
		s3.588-1.38,3.588-3.174v-4.071V61.048v-4.071C560.394,55.183,558.806,53.803,556.805,53.803z"/>
	<path fill="#3FA3AD" d="M391.449,103.345c-2.001,0-3.657-1.38-3.657-3.174V57.322c0-1.725,1.656-3.105,3.657-3.105h9.937
		c8.004,0,14.489,6.279,14.489,14.076V89.2c0,7.797-6.485,14.145-14.489,14.145H391.449z M394.968,96.928h6.417
		c4.07,0,7.313-3.45,7.313-7.728V68.292c0-4.278-3.243-7.728-7.313-7.728h-6.417V96.928z"/>
	<path fill="#3FA3AD" d="M468.453,100.516V71.674l-8.694,17.664c-0.621,1.035-1.794,1.794-3.243,1.794
		c-1.38,0-2.553-0.621-3.174-1.725l-8.625-17.664v28.773c0,1.794-1.587,3.243-3.588,3.243c-1.932,0-3.519-1.449-3.519-3.243V56.977
		c0-1.794,1.587-3.174,3.519-3.174c1.38,0,2.691,0.759,3.174,1.794l12.213,25.185c4.071-8.142,8.28-17.043,12.282-25.185
		c0.552-1.035,1.794-1.794,3.243-1.794c2.139,0,3.52,1.656,3.52,3.174v43.539c0,1.794-1.588,3.243-3.52,3.243
		C470.04,103.759,468.453,102.31,468.453,100.516z"/>
	<path fill="#3FA3AD" d="M528.068,99.688c0.414,1.863-1.104,4.071-3.588,4.071c-1.519,0-2.829-0.897-3.312-2.277l-2.897-9.246
		h-13.938c-0.966,3.174-1.794,6.141-2.76,9.246c-0.414,1.311-1.863,2.277-3.45,2.277c-2.07,0-4.14-2.001-3.381-4.14v0.069
		l13.11-43.608c0.482-1.311,1.932-2.277,3.519-2.277c1.518,0,2.898,0.966,3.381,2.277l13.248,43.608H528.068z M516.407,85.888
		l-5.037-19.044l-5.175,19.044H516.407z"/>
	<path fill="#3FA3AD" d="M592.996,103.345c-2.001,0-3.657-1.38-3.657-3.174V57.322c0-1.725,1.656-3.105,3.657-3.105h9.937
		c8.004,0,14.489,6.279,14.489,14.076V89.2c0,7.797-6.485,14.145-14.489,14.145H592.996z M596.515,96.928h6.417
		c4.07,0,7.313-3.45,7.313-7.728V68.292c0-4.278-3.243-7.728-7.313-7.728h-6.417V96.928z"/>
	<path fill="#3FA3AD" d="M665.375,100.171c0,1.794-1.587,3.174-3.588,3.174h-19.251c-1.933,0-3.52-1.38-3.52-3.174V57.322
		c0-1.725,1.587-3.105,3.52-3.105h19.044c2.001,0,3.588,1.38,3.588,3.105c0,1.794-1.587,3.243-3.588,3.243h-15.387v13.179h13.455
		c2.001,0,3.588,1.449,3.588,3.243c0,1.725-1.587,3.105-3.588,3.105h-13.455v16.836h15.594
		C663.789,96.928,665.375,98.308,665.375,100.171z"/>
	<path fill="#3FA3AD" d="M706.638,101.965l-15.87-31.878l0.621,30.429c0,1.794-1.588,3.243-3.589,3.243
		c-1.932,0-3.588-1.449-3.588-3.243V56.977c0-1.794,1.794-3.174,3.588-3.174c1.312,0,2.622,0.828,3.175,1.794l15.87,31.74
		l-0.621-30.36c0-1.794,1.587-3.174,3.588-3.174s3.588,1.38,3.588,3.174v43.539c0,1.518-1.173,2.76-2.76,3.174l0.138-0.069
		c-0.414,0.138-0.621,0.138-0.966,0.138C708.57,103.759,707.19,103,706.638,101.965z"/>
</g>
<g id="Yellow" display="none">
	<g display="inline">
		<path fill="#DDA71A" d="M4.337,13.169v57.364v6.435v5.302c0,38.844,9.58,48.412,32.685,56.974
			c13.713,5.08,21.374,9.742,24.026,11.508c0.209,0.137,1.667,0.268,1.907,0.314v-27.177L19.262,98.51V47.649l43.693-25.011V5.932
			c-26.234,5.067-50.194,5.586-56.817,5.628C5.144,11.56,4.337,12.28,4.337,13.169"/>
		<path fill="#FFE7AD" d="M120.701,13.169v57.364v6.435v5.302c0,38.844-9.438,48.412-32.197,56.974
			c-13.509,5.08-21.056,9.742-23.668,11.508c-0.206,0.137-1.642,0.268-1.88,0.314v-27.177l45.013-25.379V47.649L62.956,22.638V5.932
			c25.845,5.067,49.447,5.586,55.972,5.628C119.907,11.56,120.701,12.28,120.701,13.169"/>
		<path fill="#FFFFFF" d="M62.956,153.598c-0.816,0-1.632-0.23-2.328-0.695c-2.604-1.73-10.116-6.299-23.651-11.312
			c-11.559-4.283-20.442-9.001-26.223-18.104c-5.574-8.774-8.059-21.482-8.059-41.204V12.921c0-2.137,1.824-3.876,4.067-3.876
			c6.693-0.042,30.509-0.57,55.354-5.604c0.55-0.111,1.132-0.112,1.684,0c24.836,5.033,48.645,5.562,55.36,5.604
			c2.24,0.004,4.061,1.742,4.061,3.876v69.361c0,40.128-10.108,50.349-34.284,59.308c-13.534,5.014-21.047,9.582-23.649,11.312
			C64.589,153.365,63.772,153.596,62.956,153.598 M8.76,13.544c-0.857,0.014-1.545,0.711-1.545,1.569v67.169
			c0,39.171,10.034,47.176,31.332,55.067c12.093,4.482,19.613,8.67,23.192,10.896c0.746,0.465,1.686,0.465,2.433,0
			c3.578-2.227,11.098-6.414,23.192-10.896c21.299-7.892,31.333-15.897,31.333-55.067V15.113c0-0.858-0.688-1.555-1.545-1.569
			c-8.698-0.136-30.818-0.962-53.893-5.599c-0.2-0.04-0.408-0.04-0.608,0C39.578,12.582,17.459,13.408,8.76,13.544 M6.778,13.566
			H6.775H6.778z"/>
		<path fill="#BD8B00" d="M62.956,156.955c-0.853,0-1.705-0.242-2.433-0.727c-2.719-1.809-10.568-6.58-24.708-11.818
			c-12.076-4.475-21.356-9.402-27.395-18.911C2.597,116.332,0,103.056,0,82.452V9.991c0-2.232,1.906-4.049,4.249-4.049
			c6.993-0.044,31.873-0.595,57.828-5.855c0.575-0.115,1.183-0.116,1.759,0.001c25.946,5.257,50.819,5.81,57.836,5.854
			c2.34,0.005,4.241,1.82,4.241,4.049v72.461c0,41.922-10.559,52.601-35.816,61.958c-14.14,5.238-21.988,10.01-24.706,11.818
			C64.662,156.713,63.809,156.953,62.956,156.955 M6.223,10.052c-1.113,0.019-2.001,0.927-2.001,2.041v70.393
			c0,41.275,10.573,49.709,33.015,58.026c12.255,4.541,20.053,8.797,23.987,11.201c1.064,0.65,2.399,0.65,3.464,0
			c3.933-2.404,11.73-6.66,23.987-11.201c22.442-8.317,33.016-16.752,33.016-58.026v-70.05c0-1.302-1.041-2.366-2.343-2.39
			c-9.66-0.178-32.571-1.131-56.393-5.952C38.851,8.972,15.679,9.89,6.223,10.052 M3.762,10.082H3.759H3.762z"/>
		<path d="M62.96,123.819c-0.823,0-1.637-0.218-2.349-0.63l-39.562-22.877c-1.446-0.836-2.344-2.392-2.344-4.062V50.497
			c0-1.67,0.898-3.226,2.344-4.062l39.562-22.877c0.712-0.412,1.525-0.63,2.349-0.63c0.824,0,1.636,0.218,2.35,0.63l39.554,22.877
			c1.446,0.837,2.345,2.396,2.343,4.067l-0.051,45.754c-0.001,1.666-0.897,3.22-2.34,4.055l-39.504,22.877
			C64.599,123.602,63.786,123.819,62.96,123.819 M66.017,115.646l25.102-14.537l-25.102,3.843V115.646z M59.844,115.615v-10.721
			l-25.123-3.806L59.844,115.615z M68.591,98.313l29.755-4.554l-10.567-30.8L68.591,98.313z M57.24,98.257L38.083,62.959
			L27.517,93.753L57.24,98.257z M62.931,95.8L83.23,58.398H42.632L62.931,95.8z M100.999,82.47l0.031-28.202l-8.687,2.978
			L100.999,82.47z M24.878,82.425l8.651-25.21l-8.651-2.966V82.425z M81.388,52.227L62.958,32.177L44.485,52.227H81.388z
			 M89.336,51.751l7.778-2.667L75.27,36.449L89.336,51.751z M36.552,51.727l14.053-15.252l-21.79,12.6L36.552,51.727z"/>
		<path fill="#FFFFFF" d="M62.96,24.408c0.556,0,1.11,0.144,1.608,0.431l39.554,22.878c0.993,0.574,1.604,1.635,1.603,2.782
			l-0.05,45.755c-0.001,1.144-0.611,2.201-1.602,2.775L64.57,121.906c-0.498,0.288-1.053,0.432-1.609,0.432
			c-0.555,0-1.109-0.143-1.606-0.431L21.791,99.03c-0.993-0.574-1.604-1.633-1.604-2.78V50.497c0-1.147,0.611-2.206,1.604-2.78
			l39.563-22.877C61.851,24.552,62.406,24.408,62.96,24.408 M41.106,53.708H84.76L62.959,29.99L41.106,53.708 M88.901,53.466
			l11.771-4.036L67.617,30.312L88.901,53.466 M36.986,53.441L58.289,30.32l-33.03,19.099L36.986,53.441 M23.397,91.304
			l12.013-35.009l-12.013-4.119V91.304 M102.47,91.32l0.043-39.126l-12.052,4.132L102.47,91.32 M62.931,98.905l22.788-41.988H40.144
			L62.931,98.905 M59.962,100.167L37.777,59.291L25.541,94.953L59.962,100.167 M65.866,100.229l34.457-5.274L88.084,59.291
			L65.866,100.229 M61.326,118.183v-14.561l-34.123-5.17L61.326,118.183 M64.537,118.215l34.115-19.757l-34.115,5.222V118.215
			 M62.96,21.446c-1.083,0-2.151,0.287-3.09,0.829L20.308,45.152c-1.901,1.1-3.083,3.147-3.083,5.344V96.25
			c0,2.197,1.182,4.244,3.083,5.344l39.563,22.877c0.938,0.543,2.007,0.829,3.09,0.829c1.085,0,2.155-0.287,3.094-0.831
			l39.504-22.877c1.896-1.098,3.076-3.143,3.079-5.335l0.049-45.754c0.004-2.199-1.178-4.249-3.081-5.35L66.051,22.275
			C65.113,21.733,64.044,21.446,62.96,21.446 M47.864,50.746l15.093-16.382l15.059,16.382H47.864z M89.772,50.037l-6.85-7.45
			l10.637,6.152L89.772,50.037z M32.373,48.728l10.55-6.1l-6.804,7.385L32.373,48.728z M26.359,73.547V56.323l5.288,1.813
			L26.359,73.547z M94.225,58.167l5.321-1.824L99.528,73.62L94.225,58.167z M45.121,59.879h35.621L62.931,92.696L45.121,59.879z
			 M29.495,92.556l8.896-25.926L54.52,96.348L29.495,92.556z M71.315,96.398l16.156-29.769l8.899,25.934L71.315,96.398z
			 M58.364,113.048l-16.123-9.323l16.123,2.443V113.048z M67.499,106.224l16.088-2.462l-16.088,9.316V106.224z"/>
		<polygon fill="#FFC44A" points="37.777,59.291 25.541,94.952 59.962,100.167 		"/>
		<polygon fill="#FFC44A" points="58.289,30.32 25.259,49.42 36.987,53.441 		"/>
		<polygon fill="#FFE7AD" points="84.76,53.708 62.959,29.99 41.107,53.708 		"/>
		<polygon fill="#FFF4E0" points="100.672,49.431 67.617,30.312 88.901,53.466 		"/>
		<polygon fill="#DDA71A" points="23.397,52.177 23.397,91.305 35.411,56.295 		"/>
		<polygon fill="#FFE7AD" points="65.866,100.229 100.322,94.955 88.084,59.291 		"/>
		<polygon fill="#DDA71A" points="61.326,118.183 61.326,103.622 27.203,98.452 		"/>
		<polygon fill="#FFF4E0" points="90.462,56.326 102.469,91.321 102.513,52.194 		"/>
		<polygon fill="#FFC44A" points="64.537,118.216 98.652,98.458 64.537,103.68 		"/>
		<polygon fill="#FFDB65" points="40.143,56.918 62.931,98.906 85.719,56.918 		"/>
		<path fill="#BD8B00" d="M104.123,47.717L64.569,24.84c-0.498-0.288-1.054-0.432-1.608-0.432s-1.109,0.144-1.606,0.432
			L21.79,47.717c-0.992,0.574-1.603,1.633-1.603,2.78V96.25c0,1.147,0.611,2.206,1.603,2.78l39.564,22.877
			c0.497,0.287,1.052,0.431,1.606,0.431c0.556,0,1.111-0.144,1.609-0.432l39.504-22.877c0.99-0.574,1.601-1.631,1.602-2.775
			l0.05-45.755C105.727,49.353,105.116,48.292,104.123,47.717 M23.397,52.177l12.013,4.119L23.397,91.305V52.177z M40.143,56.917
			h45.577L62.931,98.906L40.143,56.917z M59.962,100.167l-34.422-5.216l12.237-35.661L59.962,100.167z M41.106,53.708L62.959,29.99
			L84.76,53.708H41.106z M88.901,53.467L67.617,30.312l33.056,19.118L88.901,53.467z M36.987,53.441l-11.728-4.022l33.03-19.099
			L36.987,53.441z M61.326,103.622v14.561L27.203,98.451L61.326,103.622z M88.084,59.291l12.238,35.664l-34.457,5.274L88.084,59.291
			z M90.461,56.326l12.052-4.131l-0.043,39.126L90.461,56.326z M64.537,118.216v-14.535l34.115-5.222L64.537,118.216z"/>
	</g>
	<path display="inline" fill="#BD8B00" d="M154.505,91.477c0-1.794,1.587-3.174,3.519-3.174c2.001,0,3.657,1.38,3.657,3.174
		c0,3.036,2.415,5.934,7.038,5.934c4.416,0,7.245-2.484,7.245-6.21c0-2.967-0.69-5.52-4.899-8.28l-1.863-1.104
		c-4.554-2.553-5.796-3.381-7.107-4.209c-4.416-2.967-7.176-6.417-7.176-11.592c0-7.659,6.348-12.213,13.662-12.213
		c7.659,0,13.662,4.485,13.662,11.799c0,1.794-1.587,3.174-3.588,3.174s-3.588-1.38-3.588-3.174c0-3.174-2.07-5.451-6.486-5.451
		c-4.485,0-6.486,2.967-6.486,5.796c0,1.518,0,3.588,3.726,6.21c1.104,0.897,4.002,2.691,8.763,5.382
		c5.313,3.105,8.556,7.866,8.556,13.662c0,8.004-7.038,12.558-14.421,12.558C159.818,103.759,154.505,97.756,154.505,91.477z"/>
	<path display="inline" fill="#BD8B00" d="M231.854,56.977v43.539c0,1.794-1.587,3.243-3.588,3.243
		c-1.932,0-3.519-1.449-3.519-3.243V80.092h-14.559v20.424c0,1.794-1.587,3.243-3.519,3.243c-2.001,0-3.657-1.449-3.657-3.243
		V56.977c0-1.794,1.656-3.174,3.657-3.174c1.932,0,3.519,1.38,3.519,3.174v16.767h14.559V56.977c0-1.794,1.587-3.174,3.519-3.174
		C230.267,53.803,231.854,55.183,231.854,56.977z"/>
	<path display="inline" fill="#BD8B00" d="M323.485,100.171c0,1.794-1.587,3.174-3.588,3.174h-19.251c-1.933,0-3.52-1.38-3.52-3.174
		V57.322c0-1.725,1.587-3.105,3.52-3.105h19.044c2.001,0,3.588,1.38,3.588,3.105c0,1.794-1.587,3.243-3.588,3.243h-15.387v13.179
		h13.455c2.001,0,3.588,1.449,3.588,3.243c0,1.725-1.587,3.105-3.588,3.105h-13.455v16.836h15.594
		C321.898,96.928,323.485,98.308,323.485,100.171z"/>
	<path display="inline" fill="#BD8B00" d="M368.956,99.757c0,1.794-1.588,3.174-3.589,3.174h-19.458
		c-2.001,0-3.588-1.38-3.588-3.174v-42.78c0-1.794,1.587-3.174,3.588-3.174s3.589,1.38,3.589,3.174v39.537h15.869
		C367.368,96.514,368.956,97.963,368.956,99.757z"/>
	<path display="inline" fill="#BD8B00" d="M264.594,53.803c-2.001,0-3.588,1.38-3.588,3.174v4.071v35.466v4.071
		c0,1.794,1.588,3.174,3.589,3.174s3.588-1.38,3.588-3.174v-4.071V61.048v-4.071C268.183,55.183,266.595,53.803,264.594,53.803z"/>
	<path display="inline" fill="#BD8B00" d="M556.805,53.803c-2.001,0-3.588,1.38-3.588,3.174v4.071v35.466v4.071
		c0,1.794,1.588,3.174,3.589,3.174s3.588-1.38,3.588-3.174v-4.071V61.048v-4.071C560.394,55.183,558.806,53.803,556.805,53.803z"/>
	<path display="inline" fill="#BD8B00" d="M391.449,103.345c-2.001,0-3.657-1.38-3.657-3.174V57.322
		c0-1.725,1.656-3.105,3.657-3.105h9.937c8.004,0,14.489,6.279,14.489,14.076V89.2c0,7.797-6.485,14.145-14.489,14.145H391.449z
		 M394.968,96.928h6.417c4.07,0,7.313-3.45,7.313-7.728V68.292c0-4.278-3.243-7.728-7.313-7.728h-6.417V96.928z"/>
	<path display="inline" fill="#BD8B00" d="M468.453,100.516V71.674l-8.694,17.664c-0.621,1.035-1.794,1.794-3.243,1.794
		c-1.38,0-2.553-0.621-3.174-1.725l-8.625-17.664v28.773c0,1.794-1.587,3.243-3.588,3.243c-1.932,0-3.519-1.449-3.519-3.243V56.977
		c0-1.794,1.587-3.174,3.519-3.174c1.38,0,2.691,0.759,3.174,1.794l12.213,25.185c4.071-8.142,8.28-17.043,12.282-25.185
		c0.552-1.035,1.794-1.794,3.243-1.794c2.139,0,3.52,1.656,3.52,3.174v43.539c0,1.794-1.588,3.243-3.52,3.243
		C470.04,103.759,468.453,102.31,468.453,100.516z"/>
	<path display="inline" fill="#BD8B00" d="M528.068,99.688c0.414,1.863-1.104,4.071-3.588,4.071c-1.519,0-2.829-0.897-3.312-2.277
		l-2.897-9.246h-13.938c-0.966,3.174-1.794,6.141-2.76,9.246c-0.414,1.311-1.863,2.277-3.45,2.277c-2.07,0-4.14-2.001-3.381-4.14
		v0.069l13.11-43.608c0.482-1.311,1.932-2.277,3.519-2.277c1.518,0,2.898,0.966,3.381,2.277l13.248,43.608H528.068z M516.407,85.888
		l-5.037-19.044l-5.175,19.044H516.407z"/>
	<path display="inline" fill="#BD8B00" d="M592.996,103.345c-2.001,0-3.657-1.38-3.657-3.174V57.322
		c0-1.725,1.656-3.105,3.657-3.105h9.937c8.004,0,14.489,6.279,14.489,14.076V89.2c0,7.797-6.485,14.145-14.489,14.145H592.996z
		 M596.515,96.928h6.417c4.07,0,7.313-3.45,7.313-7.728V68.292c0-4.278-3.243-7.728-7.313-7.728h-6.417V96.928z"/>
	<path display="inline" fill="#BD8B00" d="M665.375,100.171c0,1.794-1.587,3.174-3.588,3.174h-19.251c-1.933,0-3.52-1.38-3.52-3.174
		V57.322c0-1.725,1.587-3.105,3.52-3.105h19.044c2.001,0,3.588,1.38,3.588,3.105c0,1.794-1.587,3.243-3.588,3.243h-15.387v13.179
		h13.455c2.001,0,3.588,1.449,3.588,3.243c0,1.725-1.587,3.105-3.588,3.105h-13.455v16.836h15.594
		C663.789,96.928,665.375,98.308,665.375,100.171z"/>
	<path display="inline" fill="#BD8B00" d="M706.638,101.965l-15.87-31.878l0.621,30.429c0,1.794-1.588,3.243-3.589,3.243
		c-1.932,0-3.588-1.449-3.588-3.243V56.977c0-1.794,1.794-3.174,3.588-3.174c1.312,0,2.622,0.828,3.175,1.794l15.87,31.74
		l-0.621-30.36c0-1.794,1.587-3.174,3.588-3.174s3.588,1.38,3.588,3.174v43.539c0,1.518-1.173,2.76-2.76,3.174l0.138-0.069
		c-0.414,0.138-0.621,0.138-0.966,0.138C708.57,103.759,707.19,103,706.638,101.965z"/>
</g>
</svg>
