<?xml version="1.0" encoding="utf-8"?>
<!-- Generator: Adobe Illustrator 16.0.0, SVG Export Plug-In . SVG Version: 6.00 Build 0)  -->
<!DOCTYPE svg PUBLIC "-//W3C//DTD SVG 1.1//EN" "http://www.w3.org/Graphics/SVG/1.1/DTD/svg11.dtd">
<svg version="1.1" xmlns="http://www.w3.org/2000/svg" xmlns:xlink="http://www.w3.org/1999/xlink" x="0px" y="0px"
	 width="713.416px" height="156.955px" viewBox="0 0 713.416 156.955" enable-background="new 0 0 713.416 156.955"
	 xml:space="preserve">
<g id="Green" display="none">
	<path display="inline" fill="#6B8A6B" d="M1.078,94.962c0-2.287,2.023-4.045,4.485-4.045c2.55,0,4.662,1.759,4.662,4.045
		c0,3.87,3.078,7.563,8.97,7.563c5.628,0,9.234-3.166,9.234-7.915c0-3.781-0.88-7.036-6.245-10.553L19.81,82.65
		c-5.804-3.253-7.387-4.309-9.058-5.365c-5.628-3.781-9.146-8.178-9.146-14.774c0-9.762,8.091-15.565,17.413-15.565
		c9.762,0,17.413,5.716,17.413,15.038c0,2.287-2.022,4.045-4.573,4.045s-4.573-1.759-4.573-4.045c0-4.045-2.639-6.947-8.267-6.947
		c-5.716,0-8.267,3.782-8.267,7.388c0,1.935,0,4.573,4.749,7.915c1.407,1.143,5.101,3.43,11.168,6.859
		c6.771,3.957,10.905,10.025,10.905,17.413c0,10.201-8.97,16.005-18.379,16.005C7.85,110.616,1.078,102.965,1.078,94.962z"/>
	<path display="inline" fill="#6B8A6B" d="M99.66,50.991v55.492c0,2.286-2.022,4.133-4.573,4.133c-2.462,0-4.485-1.847-4.485-4.133
		V80.452H72.046v26.031c0,2.286-2.022,4.133-4.485,4.133c-2.55,0-4.661-1.847-4.661-4.133V50.991c0-2.286,2.11-4.045,4.661-4.045
		c2.462,0,4.485,1.759,4.485,4.045v21.37h18.556v-21.37c0-2.286,2.022-4.045,4.485-4.045C97.637,46.946,99.66,48.705,99.66,50.991z"
		/>
	<path display="inline" fill="#6B8A6B" d="M216.446,106.043c0,2.286-2.022,4.045-4.573,4.045h-24.536
		c-2.463,0-4.485-1.759-4.485-4.045V51.431c0-2.198,2.022-3.957,4.485-3.957h24.272c2.55,0,4.573,1.759,4.573,3.957
		c0,2.287-2.022,4.133-4.573,4.133h-19.61v16.797h17.148c2.55,0,4.573,1.847,4.573,4.133c0,2.198-2.022,3.958-4.573,3.958h-17.148
		v21.458h19.875C214.423,101.909,216.446,103.668,216.446,106.043z"/>
	<path display="inline" fill="#6B8A6B" d="M274.399,105.515c0,2.287-2.024,4.045-4.574,4.045h-24.799
		c-2.55,0-4.573-1.758-4.573-4.045V50.991c0-2.286,2.022-4.045,4.573-4.045s4.574,1.759,4.574,4.045v50.391h20.225
		C272.375,101.382,274.399,103.229,274.399,105.515z"/>
	<path display="inline" fill="#6B8A6B" d="M141.388,46.946c-2.55,0-4.573,1.759-4.573,4.045v5.189v45.202v5.189
		c0,2.286,2.024,4.045,4.574,4.045s4.573-1.759,4.573-4.045v-5.189V56.18v-5.189C145.962,48.705,143.938,46.946,141.388,46.946z"/>
	<path display="inline" fill="#6B8A6B" d="M513.817,46.946c-2.551,0-4.573,1.759-4.573,4.045v5.189v45.202v5.189
		c0,2.286,2.024,4.045,4.574,4.045c2.551,0,4.573-1.759,4.573-4.045v-5.189V56.18v-5.189
		C518.391,48.705,516.368,46.946,513.817,46.946z"/>
	<path display="inline" fill="#6B8A6B" d="M303.067,110.088c-2.55,0-4.661-1.759-4.661-4.045V51.431
		c0-2.198,2.111-3.957,4.661-3.957h12.664c10.201,0,18.467,8.002,18.467,17.939V92.06c0,9.937-8.266,18.028-18.467,18.028H303.067z
		 M307.552,101.909h8.179c5.188,0,9.321-4.397,9.321-9.849V65.413c0-5.452-4.134-9.85-9.321-9.85h-8.179V101.909z"/>
	<path display="inline" fill="#6B8A6B" d="M401.209,106.482v-36.76l-11.081,22.513c-0.791,1.319-2.286,2.287-4.133,2.287
		c-1.759,0-3.254-0.792-4.045-2.199l-10.993-22.513v36.672c0,2.286-2.022,4.133-4.573,4.133c-2.462,0-4.484-1.847-4.484-4.133
		V50.991c0-2.286,2.022-4.045,4.484-4.045c1.759,0,3.431,0.967,4.046,2.287l15.565,32.099c5.188-10.377,10.553-21.722,15.653-32.099
		c0.703-1.319,2.287-2.287,4.134-2.287c2.726,0,4.485,2.11,4.485,4.045v55.492c0,2.286-2.023,4.133-4.485,4.133
		C403.233,110.616,401.209,108.769,401.209,106.482z"/>
	<path display="inline" fill="#6B8A6B" d="M477.191,105.427c0.527,2.375-1.408,5.189-4.573,5.189c-1.936,0-3.605-1.143-4.222-2.902
		l-3.692-11.784h-17.766c-1.23,4.045-2.286,7.827-3.518,11.784c-0.527,1.671-2.374,2.902-4.396,2.902
		c-2.639,0-5.276-2.55-4.31-5.277v0.088l16.71-55.579c0.614-1.671,2.462-2.902,4.484-2.902c1.934,0,3.693,1.231,4.309,2.902
		l16.885,55.579H477.191z M462.329,87.839l-6.42-24.272l-6.596,24.272H462.329z"/>
	<path display="inline" fill="#6B8A6B" d="M559.942,110.088c-2.55,0-4.661-1.759-4.661-4.045V51.431
		c0-2.198,2.111-3.957,4.661-3.957h12.665c10.201,0,18.467,8.002,18.467,17.939V92.06c0,9.937-8.266,18.028-18.467,18.028H559.942z
		 M564.428,101.909h8.179c5.188,0,9.321-4.397,9.321-9.849V65.413c0-5.452-4.134-9.85-9.321-9.85h-8.179V101.909z"/>
	<path display="inline" fill="#6B8A6B" d="M652.192,106.043c0,2.286-2.022,4.045-4.573,4.045h-24.535
		c-2.464,0-4.486-1.759-4.486-4.045V51.431c0-2.198,2.022-3.957,4.486-3.957h24.271c2.551,0,4.573,1.759,4.573,3.957
		c0,2.287-2.022,4.133-4.573,4.133h-19.61v16.797h17.148c2.551,0,4.573,1.847,4.573,4.133c0,2.198-2.022,3.958-4.573,3.958h-17.148
		v21.458h19.874C650.169,101.909,652.192,103.668,652.192,106.043z"/>
	<path display="inline" fill="#6B8A6B" d="M704.782,108.329L684.555,67.7l0.792,38.783c0,2.286-2.024,4.133-4.574,4.133
		c-2.462,0-4.573-1.847-4.573-4.133V50.991c0-2.286,2.286-4.045,4.573-4.045c1.671,0,3.342,1.055,4.046,2.287l20.227,40.453
		l-0.791-38.695c0-2.286,2.022-4.045,4.572-4.045c2.551,0,4.573,1.759,4.573,4.045v55.492c0,1.935-1.495,3.518-3.518,4.045
		l0.176-0.088c-0.528,0.176-0.792,0.176-1.231,0.176C707.244,110.616,705.485,109.648,704.782,108.329z"/>
</g>
<g id="Blue" display="none">
	<path display="inline" fill="#5C6CA7" d="M1.078,94.962c0-2.287,2.023-4.045,4.485-4.045c2.55,0,4.662,1.759,4.662,4.045
		c0,3.87,3.078,7.563,8.97,7.563c5.628,0,9.234-3.166,9.234-7.915c0-3.781-0.88-7.036-6.245-10.553L19.81,82.65
		c-5.804-3.253-7.387-4.309-9.058-5.365c-5.628-3.781-9.146-8.178-9.146-14.774c0-9.762,8.091-15.565,17.413-15.565
		c9.762,0,17.413,5.716,17.413,15.038c0,2.287-2.022,4.045-4.573,4.045s-4.573-1.759-4.573-4.045c0-4.045-2.639-6.947-8.267-6.947
		c-5.716,0-8.267,3.782-8.267,7.388c0,1.935,0,4.573,4.749,7.915c1.407,1.143,5.101,3.43,11.168,6.859
		c6.771,3.957,10.905,10.025,10.905,17.413c0,10.201-8.97,16.005-18.379,16.005C7.85,110.616,1.078,102.965,1.078,94.962z"/>
	<path display="inline" fill="#5C6CA7" d="M99.66,50.991v55.492c0,2.286-2.022,4.133-4.573,4.133c-2.462,0-4.485-1.847-4.485-4.133
		V80.452H72.046v26.031c0,2.286-2.022,4.133-4.485,4.133c-2.55,0-4.661-1.847-4.661-4.133V50.991c0-2.286,2.11-4.045,4.661-4.045
		c2.462,0,4.485,1.759,4.485,4.045v21.37h18.556v-21.37c0-2.286,2.022-4.045,4.485-4.045C97.637,46.946,99.66,48.705,99.66,50.991z"
		/>
	<path display="inline" fill="#5C6CA7" d="M216.446,106.043c0,2.286-2.022,4.045-4.573,4.045h-24.536
		c-2.463,0-4.485-1.759-4.485-4.045V51.431c0-2.198,2.022-3.957,4.485-3.957h24.272c2.55,0,4.573,1.759,4.573,3.957
		c0,2.287-2.022,4.133-4.573,4.133h-19.61v16.797h17.148c2.55,0,4.573,1.847,4.573,4.133c0,2.198-2.022,3.958-4.573,3.958h-17.148
		v21.458h19.875C214.423,101.909,216.446,103.668,216.446,106.043z"/>
	<path display="inline" fill="#5C6CA7" d="M274.399,105.515c0,2.287-2.024,4.045-4.574,4.045h-24.799
		c-2.55,0-4.573-1.758-4.573-4.045V50.991c0-2.286,2.022-4.045,4.573-4.045s4.574,1.759,4.574,4.045v50.391h20.225
		C272.375,101.382,274.399,103.229,274.399,105.515z"/>
	<path display="inline" fill="#5C6CA7" d="M141.388,46.946c-2.55,0-4.573,1.759-4.573,4.045v5.189v45.202v5.189
		c0,2.286,2.024,4.045,4.574,4.045s4.573-1.759,4.573-4.045v-5.189V56.18v-5.189C145.962,48.705,143.938,46.946,141.388,46.946z"/>
	<path display="inline" fill="#5C6CA7" d="M513.817,46.946c-2.551,0-4.573,1.759-4.573,4.045v5.189v45.202v5.189
		c0,2.286,2.024,4.045,4.574,4.045c2.551,0,4.573-1.759,4.573-4.045v-5.189V56.18v-5.189
		C518.391,48.705,516.368,46.946,513.817,46.946z"/>
	<path display="inline" fill="#5C6CA7" d="M303.067,110.088c-2.55,0-4.661-1.759-4.661-4.045V51.431
		c0-2.198,2.111-3.957,4.661-3.957h12.664c10.201,0,18.467,8.002,18.467,17.939V92.06c0,9.937-8.266,18.028-18.467,18.028H303.067z
		 M307.552,101.909h8.179c5.188,0,9.321-4.397,9.321-9.849V65.413c0-5.452-4.134-9.85-9.321-9.85h-8.179V101.909z"/>
	<path display="inline" fill="#5C6CA7" d="M401.209,106.482v-36.76l-11.081,22.513c-0.791,1.319-2.286,2.287-4.133,2.287
		c-1.759,0-3.254-0.792-4.045-2.199l-10.993-22.513v36.672c0,2.286-2.022,4.133-4.573,4.133c-2.462,0-4.484-1.847-4.484-4.133
		V50.991c0-2.286,2.022-4.045,4.484-4.045c1.759,0,3.431,0.967,4.046,2.287l15.565,32.099c5.188-10.377,10.553-21.722,15.653-32.099
		c0.703-1.319,2.287-2.287,4.134-2.287c2.726,0,4.485,2.11,4.485,4.045v55.492c0,2.286-2.023,4.133-4.485,4.133
		C403.233,110.616,401.209,108.769,401.209,106.482z"/>
	<path display="inline" fill="#5C6CA7" d="M477.191,105.427c0.527,2.375-1.408,5.189-4.573,5.189c-1.936,0-3.605-1.143-4.222-2.902
		l-3.692-11.784h-17.766c-1.23,4.045-2.286,7.827-3.518,11.784c-0.527,1.671-2.374,2.902-4.396,2.902
		c-2.639,0-5.276-2.55-4.31-5.277v0.088l16.71-55.579c0.614-1.671,2.462-2.902,4.484-2.902c1.934,0,3.693,1.231,4.309,2.902
		l16.885,55.579H477.191z M462.329,87.839l-6.42-24.272l-6.596,24.272H462.329z"/>
	<path display="inline" fill="#5C6CA7" d="M559.942,110.088c-2.55,0-4.661-1.759-4.661-4.045V51.431
		c0-2.198,2.111-3.957,4.661-3.957h12.665c10.201,0,18.467,8.002,18.467,17.939V92.06c0,9.937-8.266,18.028-18.467,18.028H559.942z
		 M564.428,101.909h8.179c5.188,0,9.321-4.397,9.321-9.849V65.413c0-5.452-4.134-9.85-9.321-9.85h-8.179V101.909z"/>
	<path display="inline" fill="#5C6CA7" d="M652.192,106.043c0,2.286-2.022,4.045-4.573,4.045h-24.535
		c-2.464,0-4.486-1.759-4.486-4.045V51.431c0-2.198,2.022-3.957,4.486-3.957h24.271c2.551,0,4.573,1.759,4.573,3.957
		c0,2.287-2.022,4.133-4.573,4.133h-19.61v16.797h17.148c2.551,0,4.573,1.847,4.573,4.133c0,2.198-2.022,3.958-4.573,3.958h-17.148
		v21.458h19.874C650.169,101.909,652.192,103.668,652.192,106.043z"/>
	<path display="inline" fill="#5C6CA7" d="M704.782,108.329L684.555,67.7l0.792,38.783c0,2.286-2.024,4.133-4.574,4.133
		c-2.462,0-4.573-1.847-4.573-4.133V50.991c0-2.286,2.286-4.045,4.573-4.045c1.671,0,3.342,1.055,4.046,2.287l20.227,40.453
		l-0.791-38.695c0-2.286,2.022-4.045,4.572-4.045c2.551,0,4.573,1.759,4.573,4.045v55.492c0,1.935-1.495,3.518-3.518,4.045
		l0.176-0.088c-0.528,0.176-0.792,0.176-1.231,0.176C707.244,110.616,705.485,109.648,704.782,108.329z"/>
</g>
<g id="Red" display="none">
	<path display="inline" fill="#D42758" d="M1.078,94.962c0-2.287,2.023-4.045,4.485-4.045c2.55,0,4.662,1.759,4.662,4.045
		c0,3.87,3.078,7.563,8.97,7.563c5.628,0,9.234-3.166,9.234-7.915c0-3.781-0.88-7.036-6.245-10.553L19.81,82.65
		c-5.804-3.253-7.387-4.309-9.058-5.365c-5.628-3.781-9.146-8.178-9.146-14.774c0-9.762,8.091-15.565,17.413-15.565
		c9.762,0,17.413,5.716,17.413,15.038c0,2.287-2.022,4.045-4.573,4.045s-4.573-1.759-4.573-4.045c0-4.045-2.639-6.947-8.267-6.947
		c-5.716,0-8.267,3.782-8.267,7.388c0,1.935,0,4.573,4.749,7.915c1.407,1.143,5.101,3.43,11.168,6.859
		c6.771,3.957,10.905,10.025,10.905,17.413c0,10.201-8.97,16.005-18.379,16.005C7.85,110.616,1.078,102.965,1.078,94.962z"/>
	<path display="inline" fill="#D42758" d="M99.66,50.991v55.492c0,2.286-2.022,4.133-4.573,4.133c-2.462,0-4.485-1.847-4.485-4.133
		V80.452H72.046v26.031c0,2.286-2.022,4.133-4.485,4.133c-2.55,0-4.661-1.847-4.661-4.133V50.991c0-2.286,2.11-4.045,4.661-4.045
		c2.462,0,4.485,1.759,4.485,4.045v21.37h18.556v-21.37c0-2.286,2.022-4.045,4.485-4.045C97.637,46.946,99.66,48.705,99.66,50.991z"
		/>
	<path display="inline" fill="#D42758" d="M216.446,106.043c0,2.286-2.022,4.045-4.573,4.045h-24.536
		c-2.463,0-4.485-1.759-4.485-4.045V51.431c0-2.198,2.022-3.957,4.485-3.957h24.272c2.55,0,4.573,1.759,4.573,3.957
		c0,2.287-2.022,4.133-4.573,4.133h-19.61v16.797h17.148c2.55,0,4.573,1.847,4.573,4.133c0,2.198-2.022,3.958-4.573,3.958h-17.148
		v21.458h19.875C214.423,101.909,216.446,103.668,216.446,106.043z"/>
	<path display="inline" fill="#D42758" d="M274.399,105.515c0,2.287-2.024,4.045-4.574,4.045h-24.799
		c-2.55,0-4.573-1.758-4.573-4.045V50.991c0-2.286,2.022-4.045,4.573-4.045s4.574,1.759,4.574,4.045v50.391h20.225
		C272.375,101.382,274.399,103.229,274.399,105.515z"/>
	<path display="inline" fill="#D42758" d="M141.388,46.946c-2.55,0-4.573,1.759-4.573,4.045v5.189v45.202v5.189
		c0,2.286,2.024,4.045,4.574,4.045s4.573-1.759,4.573-4.045v-5.189V56.18v-5.189C145.962,48.705,143.938,46.946,141.388,46.946z"/>
	<path display="inline" fill="#D42758" d="M513.817,46.946c-2.551,0-4.573,1.759-4.573,4.045v5.189v45.202v5.189
		c0,2.286,2.024,4.045,4.574,4.045c2.551,0,4.573-1.759,4.573-4.045v-5.189V56.18v-5.189
		C518.391,48.705,516.368,46.946,513.817,46.946z"/>
	<path display="inline" fill="#D42758" d="M303.067,110.088c-2.55,0-4.661-1.759-4.661-4.045V51.431
		c0-2.198,2.111-3.957,4.661-3.957h12.664c10.201,0,18.467,8.002,18.467,17.939V92.06c0,9.937-8.266,18.028-18.467,18.028H303.067z
		 M307.552,101.909h8.179c5.188,0,9.321-4.397,9.321-9.849V65.413c0-5.452-4.134-9.85-9.321-9.85h-8.179V101.909z"/>
	<path display="inline" fill="#D42758" d="M401.209,106.482v-36.76l-11.081,22.513c-0.791,1.319-2.286,2.287-4.133,2.287
		c-1.759,0-3.254-0.792-4.045-2.199l-10.993-22.513v36.672c0,2.286-2.022,4.133-4.573,4.133c-2.462,0-4.484-1.847-4.484-4.133
		V50.991c0-2.286,2.022-4.045,4.484-4.045c1.759,0,3.431,0.967,4.046,2.287l15.565,32.099c5.188-10.377,10.553-21.722,15.653-32.099
		c0.703-1.319,2.287-2.287,4.134-2.287c2.726,0,4.485,2.11,4.485,4.045v55.492c0,2.286-2.023,4.133-4.485,4.133
		C403.233,110.616,401.209,108.769,401.209,106.482z"/>
	<path display="inline" fill="#D42758" d="M477.191,105.427c0.527,2.375-1.408,5.189-4.573,5.189c-1.936,0-3.605-1.143-4.222-2.902
		l-3.692-11.784h-17.766c-1.23,4.045-2.286,7.827-3.518,11.784c-0.527,1.671-2.374,2.902-4.396,2.902
		c-2.639,0-5.276-2.55-4.31-5.277v0.088l16.71-55.579c0.614-1.671,2.462-2.902,4.484-2.902c1.934,0,3.693,1.231,4.309,2.902
		l16.885,55.579H477.191z M462.329,87.839l-6.42-24.272l-6.596,24.272H462.329z"/>
	<path display="inline" fill="#D42758" d="M559.942,110.088c-2.55,0-4.661-1.759-4.661-4.045V51.431
		c0-2.198,2.111-3.957,4.661-3.957h12.665c10.201,0,18.467,8.002,18.467,17.939V92.06c0,9.937-8.266,18.028-18.467,18.028H559.942z
		 M564.428,101.909h8.179c5.188,0,9.321-4.397,9.321-9.849V65.413c0-5.452-4.134-9.85-9.321-9.85h-8.179V101.909z"/>
	<path display="inline" fill="#D42758" d="M652.192,106.043c0,2.286-2.022,4.045-4.573,4.045h-24.535
		c-2.464,0-4.486-1.759-4.486-4.045V51.431c0-2.198,2.022-3.957,4.486-3.957h24.271c2.551,0,4.573,1.759,4.573,3.957
		c0,2.287-2.022,4.133-4.573,4.133h-19.61v16.797h17.148c2.551,0,4.573,1.847,4.573,4.133c0,2.198-2.022,3.958-4.573,3.958h-17.148
		v21.458h19.874C650.169,101.909,652.192,103.668,652.192,106.043z"/>
	<path display="inline" fill="#D42758" d="M704.782,108.329L684.555,67.7l0.792,38.783c0,2.286-2.024,4.133-4.574,4.133
		c-2.462,0-4.573-1.847-4.573-4.133V50.991c0-2.286,2.286-4.045,4.573-4.045c1.671,0,3.342,1.055,4.046,2.287l20.227,40.453
		l-0.791-38.695c0-2.286,2.022-4.045,4.572-4.045c2.551,0,4.573,1.759,4.573,4.045v55.492c0,1.935-1.495,3.518-3.518,4.045
		l0.176-0.088c-0.528,0.176-0.792,0.176-1.231,0.176C707.244,110.616,705.485,109.648,704.782,108.329z"/>
</g>
<g id="Orange" display="none">
	<path display="inline" fill="#D1774A" d="M1.078,94.962c0-2.287,2.023-4.045,4.485-4.045c2.55,0,4.662,1.759,4.662,4.045
		c0,3.87,3.078,7.563,8.97,7.563c5.628,0,9.234-3.166,9.234-7.915c0-3.781-0.88-7.036-6.245-10.553L19.81,82.65
		c-5.804-3.253-7.387-4.309-9.058-5.365c-5.628-3.781-9.146-8.178-9.146-14.774c0-9.762,8.091-15.565,17.413-15.565
		c9.762,0,17.413,5.716,17.413,15.038c0,2.287-2.022,4.045-4.573,4.045s-4.573-1.759-4.573-4.045c0-4.045-2.639-6.947-8.267-6.947
		c-5.716,0-8.267,3.782-8.267,7.388c0,1.935,0,4.573,4.749,7.915c1.407,1.143,5.101,3.43,11.168,6.859
		c6.771,3.957,10.905,10.025,10.905,17.413c0,10.201-8.97,16.005-18.379,16.005C7.85,110.616,1.078,102.965,1.078,94.962z"/>
	<path display="inline" fill="#D1774A" d="M99.66,50.991v55.492c0,2.286-2.022,4.133-4.573,4.133c-2.462,0-4.485-1.847-4.485-4.133
		V80.452H72.046v26.031c0,2.286-2.022,4.133-4.485,4.133c-2.55,0-4.661-1.847-4.661-4.133V50.991c0-2.286,2.11-4.045,4.661-4.045
		c2.462,0,4.485,1.759,4.485,4.045v21.37h18.556v-21.37c0-2.286,2.022-4.045,4.485-4.045C97.637,46.946,99.66,48.705,99.66,50.991z"
		/>
	<path display="inline" fill="#D1774A" d="M216.446,106.043c0,2.286-2.022,4.045-4.573,4.045h-24.536
		c-2.463,0-4.485-1.759-4.485-4.045V51.431c0-2.198,2.022-3.957,4.485-3.957h24.272c2.55,0,4.573,1.759,4.573,3.957
		c0,2.287-2.022,4.133-4.573,4.133h-19.61v16.797h17.148c2.55,0,4.573,1.847,4.573,4.133c0,2.198-2.022,3.958-4.573,3.958h-17.148
		v21.458h19.875C214.423,101.909,216.446,103.668,216.446,106.043z"/>
	<path display="inline" fill="#D1774A" d="M274.399,105.515c0,2.287-2.024,4.045-4.574,4.045h-24.799
		c-2.55,0-4.573-1.758-4.573-4.045V50.991c0-2.286,2.022-4.045,4.573-4.045s4.574,1.759,4.574,4.045v50.391h20.225
		C272.375,101.382,274.399,103.229,274.399,105.515z"/>
	<path display="inline" fill="#D1774A" d="M141.388,46.946c-2.55,0-4.573,1.759-4.573,4.045v5.189v45.202v5.189
		c0,2.286,2.024,4.045,4.574,4.045s4.573-1.759,4.573-4.045v-5.189V56.18v-5.189C145.962,48.705,143.938,46.946,141.388,46.946z"/>
	<path display="inline" fill="#D1774A" d="M513.817,46.946c-2.551,0-4.573,1.759-4.573,4.045v5.189v45.202v5.189
		c0,2.286,2.024,4.045,4.574,4.045c2.551,0,4.573-1.759,4.573-4.045v-5.189V56.18v-5.189
		C518.391,48.705,516.368,46.946,513.817,46.946z"/>
	<path display="inline" fill="#D1774A" d="M303.067,110.088c-2.55,0-4.661-1.759-4.661-4.045V51.431
		c0-2.198,2.111-3.957,4.661-3.957h12.664c10.201,0,18.467,8.002,18.467,17.939V92.06c0,9.937-8.266,18.028-18.467,18.028H303.067z
		 M307.552,101.909h8.179c5.188,0,9.321-4.397,9.321-9.849V65.413c0-5.452-4.134-9.85-9.321-9.85h-8.179V101.909z"/>
	<path display="inline" fill="#D1774A" d="M401.209,106.482v-36.76l-11.081,22.513c-0.791,1.319-2.286,2.287-4.133,2.287
		c-1.759,0-3.254-0.792-4.045-2.199l-10.993-22.513v36.672c0,2.286-2.022,4.133-4.573,4.133c-2.462,0-4.484-1.847-4.484-4.133
		V50.991c0-2.286,2.022-4.045,4.484-4.045c1.759,0,3.431,0.967,4.046,2.287l15.565,32.099c5.188-10.377,10.553-21.722,15.653-32.099
		c0.703-1.319,2.287-2.287,4.134-2.287c2.726,0,4.485,2.11,4.485,4.045v55.492c0,2.286-2.023,4.133-4.485,4.133
		C403.233,110.616,401.209,108.769,401.209,106.482z"/>
	<path display="inline" fill="#D1774A" d="M477.191,105.427c0.527,2.375-1.408,5.189-4.573,5.189c-1.936,0-3.605-1.143-4.222-2.902
		l-3.692-11.784h-17.766c-1.23,4.045-2.286,7.827-3.518,11.784c-0.527,1.671-2.374,2.902-4.396,2.902
		c-2.639,0-5.276-2.55-4.31-5.277v0.088l16.71-55.579c0.614-1.671,2.462-2.902,4.484-2.902c1.934,0,3.693,1.231,4.309,2.902
		l16.885,55.579H477.191z M462.329,87.839l-6.42-24.272l-6.596,24.272H462.329z"/>
	<path display="inline" fill="#D1774A" d="M559.942,110.088c-2.55,0-4.661-1.759-4.661-4.045V51.431
		c0-2.198,2.111-3.957,4.661-3.957h12.665c10.201,0,18.467,8.002,18.467,17.939V92.06c0,9.937-8.266,18.028-18.467,18.028H559.942z
		 M564.428,101.909h8.179c5.188,0,9.321-4.397,9.321-9.849V65.413c0-5.452-4.134-9.85-9.321-9.85h-8.179V101.909z"/>
	<path display="inline" fill="#D1774A" d="M652.192,106.043c0,2.286-2.022,4.045-4.573,4.045h-24.535
		c-2.464,0-4.486-1.759-4.486-4.045V51.431c0-2.198,2.022-3.957,4.486-3.957h24.271c2.551,0,4.573,1.759,4.573,3.957
		c0,2.287-2.022,4.133-4.573,4.133h-19.61v16.797h17.148c2.551,0,4.573,1.847,4.573,4.133c0,2.198-2.022,3.958-4.573,3.958h-17.148
		v21.458h19.874C650.169,101.909,652.192,103.668,652.192,106.043z"/>
	<path display="inline" fill="#D1774A" d="M704.782,108.329L684.555,67.7l0.792,38.783c0,2.286-2.024,4.133-4.574,4.133
		c-2.462,0-4.573-1.847-4.573-4.133V50.991c0-2.286,2.286-4.045,4.573-4.045c1.671,0,3.342,1.055,4.046,2.287l20.227,40.453
		l-0.791-38.695c0-2.286,2.022-4.045,4.572-4.045c2.551,0,4.573,1.759,4.573,4.045v55.492c0,1.935-1.495,3.518-3.518,4.045
		l0.176-0.088c-0.528,0.176-0.792,0.176-1.231,0.176C707.244,110.616,705.485,109.648,704.782,108.329z"/>
</g>
<g id="Cyan">
	<path fill="#3FA3AD" d="M1.078,94.962c0-2.287,2.023-4.045,4.485-4.045c2.55,0,4.662,1.759,4.662,4.045
		c0,3.87,3.078,7.563,8.97,7.563c5.628,0,9.234-3.166,9.234-7.915c0-3.781-0.88-7.036-6.245-10.553L19.81,82.65
		c-5.804-3.253-7.387-4.309-9.058-5.365c-5.628-3.781-9.146-8.178-9.146-14.774c0-9.762,8.091-15.565,17.413-15.565
		c9.762,0,17.413,5.716,17.413,15.038c0,2.287-2.022,4.045-4.573,4.045s-4.573-1.759-4.573-4.045c0-4.045-2.639-6.947-8.267-6.947
		c-5.716,0-8.267,3.782-8.267,7.388c0,1.935,0,4.573,4.749,7.915c1.407,1.143,5.101,3.43,11.168,6.859
		c6.771,3.957,10.905,10.025,10.905,17.413c0,10.201-8.97,16.005-18.379,16.005C7.85,110.616,1.078,102.965,1.078,94.962z"/>
	<path fill="#3FA3AD" d="M99.66,50.991v55.492c0,2.286-2.022,4.133-4.573,4.133c-2.462,0-4.485-1.847-4.485-4.133V80.452H72.046
		v26.031c0,2.286-2.022,4.133-4.485,4.133c-2.55,0-4.661-1.847-4.661-4.133V50.991c0-2.286,2.11-4.045,4.661-4.045
		c2.462,0,4.485,1.759,4.485,4.045v21.37h18.556v-21.37c0-2.286,2.022-4.045,4.485-4.045C97.637,46.946,99.66,48.705,99.66,50.991z"
		/>
	<path fill="#3FA3AD" d="M216.446,106.043c0,2.286-2.022,4.045-4.573,4.045h-24.536c-2.463,0-4.485-1.759-4.485-4.045V51.431
		c0-2.198,2.022-3.957,4.485-3.957h24.272c2.55,0,4.573,1.759,4.573,3.957c0,2.287-2.022,4.133-4.573,4.133h-19.61v16.797h17.148
		c2.55,0,4.573,1.847,4.573,4.133c0,2.198-2.022,3.958-4.573,3.958h-17.148v21.458h19.875
		C214.423,101.909,216.446,103.668,216.446,106.043z"/>
	<path fill="#3FA3AD" d="M274.399,105.515c0,2.287-2.024,4.045-4.574,4.045h-24.799c-2.55,0-4.573-1.758-4.573-4.045V50.991
		c0-2.286,2.022-4.045,4.573-4.045s4.574,1.759,4.574,4.045v50.391h20.225C272.375,101.382,274.399,103.229,274.399,105.515z"/>
	<path fill="#3FA3AD" d="M141.388,46.946c-2.55,0-4.573,1.759-4.573,4.045v5.189v45.202v5.189c0,2.286,2.024,4.045,4.574,4.045
		s4.573-1.759,4.573-4.045v-5.189V56.18v-5.189C145.962,48.705,143.938,46.946,141.388,46.946z"/>
	<path fill="#3FA3AD" d="M513.817,46.946c-2.551,0-4.573,1.759-4.573,4.045v5.189v45.202v5.189c0,2.286,2.024,4.045,4.574,4.045
		c2.551,0,4.573-1.759,4.573-4.045v-5.189V56.18v-5.189C518.391,48.705,516.368,46.946,513.817,46.946z"/>
	<path fill="#3FA3AD" d="M303.067,110.088c-2.55,0-4.661-1.759-4.661-4.045V51.431c0-2.198,2.111-3.957,4.661-3.957h12.664
		c10.201,0,18.467,8.002,18.467,17.939V92.06c0,9.937-8.266,18.028-18.467,18.028H303.067z M307.552,101.909h8.179
		c5.188,0,9.321-4.397,9.321-9.849V65.413c0-5.452-4.134-9.85-9.321-9.85h-8.179V101.909z"/>
	<path fill="#3FA3AD" d="M401.209,106.482v-36.76l-11.081,22.513c-0.791,1.319-2.286,2.287-4.133,2.287
		c-1.759,0-3.254-0.792-4.045-2.199l-10.993-22.513v36.672c0,2.286-2.022,4.133-4.573,4.133c-2.462,0-4.484-1.847-4.484-4.133
		V50.991c0-2.286,2.022-4.045,4.484-4.045c1.759,0,3.431,0.967,4.046,2.287l15.565,32.099c5.188-10.377,10.553-21.722,15.653-32.099
		c0.703-1.319,2.287-2.287,4.134-2.287c2.726,0,4.485,2.11,4.485,4.045v55.492c0,2.286-2.023,4.133-4.485,4.133
		C403.233,110.616,401.209,108.769,401.209,106.482z"/>
	<path fill="#3FA3AD" d="M477.191,105.427c0.527,2.375-1.408,5.189-4.573,5.189c-1.936,0-3.605-1.143-4.222-2.902l-3.692-11.784
		h-17.766c-1.23,4.045-2.286,7.827-3.518,11.784c-0.527,1.671-2.374,2.902-4.396,2.902c-2.639,0-5.276-2.55-4.31-5.277v0.088
		l16.71-55.579c0.614-1.671,2.462-2.902,4.484-2.902c1.934,0,3.693,1.231,4.309,2.902l16.885,55.579H477.191z M462.329,87.839
		l-6.42-24.272l-6.596,24.272H462.329z"/>
	<path fill="#3FA3AD" d="M559.942,110.088c-2.55,0-4.661-1.759-4.661-4.045V51.431c0-2.198,2.111-3.957,4.661-3.957h12.665
		c10.201,0,18.467,8.002,18.467,17.939V92.06c0,9.937-8.266,18.028-18.467,18.028H559.942z M564.428,101.909h8.179
		c5.188,0,9.321-4.397,9.321-9.849V65.413c0-5.452-4.134-9.85-9.321-9.85h-8.179V101.909z"/>
	<path fill="#3FA3AD" d="M652.192,106.043c0,2.286-2.022,4.045-4.573,4.045h-24.535c-2.464,0-4.486-1.759-4.486-4.045V51.431
		c0-2.198,2.022-3.957,4.486-3.957h24.271c2.551,0,4.573,1.759,4.573,3.957c0,2.287-2.022,4.133-4.573,4.133h-19.61v16.797h17.148
		c2.551,0,4.573,1.847,4.573,4.133c0,2.198-2.022,3.958-4.573,3.958h-17.148v21.458h19.874
		C650.169,101.909,652.192,103.668,652.192,106.043z"/>
	<path fill="#3FA3AD" d="M704.782,108.329L684.555,67.7l0.792,38.783c0,2.286-2.024,4.133-4.574,4.133
		c-2.462,0-4.573-1.847-4.573-4.133V50.991c0-2.286,2.286-4.045,4.573-4.045c1.671,0,3.342,1.055,4.046,2.287l20.227,40.453
		l-0.791-38.695c0-2.286,2.022-4.045,4.572-4.045c2.551,0,4.573,1.759,4.573,4.045v55.492c0,1.935-1.495,3.518-3.518,4.045
		l0.176-0.088c-0.528,0.176-0.792,0.176-1.231,0.176C707.244,110.616,705.485,109.648,704.782,108.329z"/>
</g>
<g id="Yellow" display="none">
	<path display="inline" fill="#BD8B00" d="M1.078,94.962c0-2.287,2.023-4.045,4.485-4.045c2.55,0,4.662,1.759,4.662,4.045
		c0,3.87,3.078,7.563,8.97,7.563c5.628,0,9.234-3.166,9.234-7.915c0-3.781-0.88-7.036-6.245-10.553L19.81,82.65
		c-5.804-3.253-7.387-4.309-9.058-5.365c-5.628-3.781-9.146-8.178-9.146-14.774c0-9.762,8.091-15.565,17.413-15.565
		c9.762,0,17.413,5.716,17.413,15.038c0,2.287-2.022,4.045-4.573,4.045s-4.573-1.759-4.573-4.045c0-4.045-2.639-6.947-8.267-6.947
		c-5.716,0-8.267,3.782-8.267,7.388c0,1.935,0,4.573,4.749,7.915c1.407,1.143,5.101,3.43,11.168,6.859
		c6.771,3.957,10.905,10.025,10.905,17.413c0,10.201-8.97,16.005-18.379,16.005C7.85,110.616,1.078,102.965,1.078,94.962z"/>
	<path display="inline" fill="#BD8B00" d="M99.66,50.991v55.492c0,2.286-2.022,4.133-4.573,4.133c-2.462,0-4.485-1.847-4.485-4.133
		V80.452H72.046v26.031c0,2.286-2.022,4.133-4.485,4.133c-2.55,0-4.661-1.847-4.661-4.133V50.991c0-2.286,2.11-4.045,4.661-4.045
		c2.462,0,4.485,1.759,4.485,4.045v21.37h18.556v-21.37c0-2.286,2.022-4.045,4.485-4.045C97.637,46.946,99.66,48.705,99.66,50.991z"
		/>
	<path display="inline" fill="#BD8B00" d="M216.446,106.043c0,2.286-2.022,4.045-4.573,4.045h-24.536
		c-2.463,0-4.485-1.759-4.485-4.045V51.431c0-2.198,2.022-3.957,4.485-3.957h24.272c2.55,0,4.573,1.759,4.573,3.957
		c0,2.287-2.022,4.133-4.573,4.133h-19.61v16.797h17.148c2.55,0,4.573,1.847,4.573,4.133c0,2.198-2.022,3.958-4.573,3.958h-17.148
		v21.458h19.875C214.423,101.909,216.446,103.668,216.446,106.043z"/>
	<path display="inline" fill="#BD8B00" d="M274.399,105.515c0,2.287-2.024,4.045-4.574,4.045h-24.799
		c-2.55,0-4.573-1.758-4.573-4.045V50.991c0-2.286,2.022-4.045,4.573-4.045s4.574,1.759,4.574,4.045v50.391h20.225
		C272.375,101.382,274.399,103.229,274.399,105.515z"/>
	<path display="inline" fill="#BD8B00" d="M141.388,46.946c-2.55,0-4.573,1.759-4.573,4.045v5.189v45.202v5.189
		c0,2.286,2.024,4.045,4.574,4.045s4.573-1.759,4.573-4.045v-5.189V56.18v-5.189C145.962,48.705,143.938,46.946,141.388,46.946z"/>
	<path display="inline" fill="#BD8B00" d="M513.817,46.946c-2.551,0-4.573,1.759-4.573,4.045v5.189v45.202v5.189
		c0,2.286,2.024,4.045,4.574,4.045c2.551,0,4.573-1.759,4.573-4.045v-5.189V56.18v-5.189
		C518.391,48.705,516.368,46.946,513.817,46.946z"/>
	<path display="inline" fill="#BD8B00" d="M303.067,110.088c-2.55,0-4.661-1.759-4.661-4.045V51.431
		c0-2.198,2.111-3.957,4.661-3.957h12.664c10.201,0,18.467,8.002,18.467,17.939V92.06c0,9.937-8.266,18.028-18.467,18.028H303.067z
		 M307.552,101.909h8.179c5.188,0,9.321-4.397,9.321-9.849V65.413c0-5.452-4.134-9.85-9.321-9.85h-8.179V101.909z"/>
	<path display="inline" fill="#BD8B00" d="M401.209,106.482v-36.76l-11.081,22.513c-0.791,1.319-2.286,2.287-4.133,2.287
		c-1.759,0-3.254-0.792-4.045-2.199l-10.993-22.513v36.672c0,2.286-2.022,4.133-4.573,4.133c-2.462,0-4.484-1.847-4.484-4.133
		V50.991c0-2.286,2.022-4.045,4.484-4.045c1.759,0,3.431,0.967,4.046,2.287l15.565,32.099c5.188-10.377,10.553-21.722,15.653-32.099
		c0.703-1.319,2.287-2.287,4.134-2.287c2.726,0,4.485,2.11,4.485,4.045v55.492c0,2.286-2.023,4.133-4.485,4.133
		C403.233,110.616,401.209,108.769,401.209,106.482z"/>
	<path display="inline" fill="#BD8B00" d="M477.191,105.427c0.527,2.375-1.408,5.189-4.573,5.189c-1.936,0-3.605-1.143-4.222-2.902
		l-3.692-11.784h-17.766c-1.23,4.045-2.286,7.827-3.518,11.784c-0.527,1.671-2.374,2.902-4.396,2.902
		c-2.639,0-5.276-2.55-4.31-5.277v0.088l16.71-55.579c0.614-1.671,2.462-2.902,4.484-2.902c1.934,0,3.693,1.231,4.309,2.902
		l16.885,55.579H477.191z M462.329,87.839l-6.42-24.272l-6.596,24.272H462.329z"/>
	<path display="inline" fill="#BD8B00" d="M559.942,110.088c-2.55,0-4.661-1.759-4.661-4.045V51.431
		c0-2.198,2.111-3.957,4.661-3.957h12.665c10.201,0,18.467,8.002,18.467,17.939V92.06c0,9.937-8.266,18.028-18.467,18.028H559.942z
		 M564.428,101.909h8.179c5.188,0,9.321-4.397,9.321-9.849V65.413c0-5.452-4.134-9.85-9.321-9.85h-8.179V101.909z"/>
	<path display="inline" fill="#BD8B00" d="M652.192,106.043c0,2.286-2.022,4.045-4.573,4.045h-24.535
		c-2.464,0-4.486-1.759-4.486-4.045V51.431c0-2.198,2.022-3.957,4.486-3.957h24.271c2.551,0,4.573,1.759,4.573,3.957
		c0,2.287-2.022,4.133-4.573,4.133h-19.61v16.797h17.148c2.551,0,4.573,1.847,4.573,4.133c0,2.198-2.022,3.958-4.573,3.958h-17.148
		v21.458h19.874C650.169,101.909,652.192,103.668,652.192,106.043z"/>
	<path display="inline" fill="#BD8B00" d="M704.782,108.329L684.555,67.7l0.792,38.783c0,2.286-2.024,4.133-4.574,4.133
		c-2.462,0-4.573-1.847-4.573-4.133V50.991c0-2.286,2.286-4.045,4.573-4.045c1.671,0,3.342,1.055,4.046,2.287l20.227,40.453
		l-0.791-38.695c0-2.286,2.022-4.045,4.572-4.045c2.551,0,4.573,1.759,4.573,4.045v55.492c0,1.935-1.495,3.518-3.518,4.045
		l0.176-0.088c-0.528,0.176-0.792,0.176-1.231,0.176C707.244,110.616,705.485,109.648,704.782,108.329z"/>
</g>
</svg>
