<?xml version="1.0" encoding="utf-8"?>
<!-- Generator: Adobe Illustrator 16.0.0, SVG Export Plug-In . SVG Version: 6.00 Build 0)  -->
<!DOCTYPE svg PUBLIC "-//W3C//DTD SVG 1.1//EN" "http://www.w3.org/Graphics/SVG/1.1/DTD/svg11.dtd">
<svg version="1.1" xmlns="http://www.w3.org/2000/svg" xmlns:xlink="http://www.w3.org/1999/xlink" x="0px" y="0px"
	 width="595.276px" height="283.465px" viewBox="0 0 595.276 283.465" enable-background="new 0 0 595.276 283.465"
	 xml:space="preserve">
<g id="Green" display="none">
	<g display="inline">
		<path fill="#6AB082" d="M248.847,21.215v57.364v6.435v5.302c0,38.844,9.58,48.412,32.685,56.974
			c13.713,5.08,21.374,9.742,24.026,11.508c0.209,0.138,1.667,0.268,1.907,0.315v-27.178l-43.693-25.379V55.695l43.693-25.011
			V13.978c-26.234,5.067-50.194,5.586-56.817,5.628C249.653,19.605,248.847,20.326,248.847,21.215"/>
		<path fill="#DCFFDE" d="M365.21,21.215v57.364v6.435v5.302c0,38.844-9.438,48.412-32.197,56.974
			c-13.509,5.08-21.056,9.742-23.668,11.508c-0.206,0.138-1.642,0.268-1.88,0.315v-27.178l45.013-25.379V55.695l-45.013-25.011
			V13.978c25.845,5.067,49.447,5.586,55.972,5.628C364.416,19.605,365.21,20.326,365.21,21.215"/>
		<path fill="#FFFFFF" d="M307.465,161.643c-0.816,0-1.632-0.23-2.328-0.694c-2.604-1.731-10.116-6.299-23.651-11.313
			c-11.559-4.283-20.442-9.001-26.223-18.103c-5.574-8.774-8.059-21.482-8.059-41.204V20.967c0-2.137,1.824-3.876,4.067-3.876
			c6.693-0.042,30.509-0.57,55.354-5.604c0.55-0.111,1.132-0.112,1.684,0c24.836,5.033,48.645,5.562,55.36,5.604
			c2.24,0.004,4.061,1.742,4.061,3.876v69.361c0,40.128-10.108,50.349-34.284,59.307c-13.534,5.015-21.047,9.582-23.649,11.312
			C309.099,161.41,308.281,161.642,307.465,161.643 M253.27,21.59c-0.857,0.014-1.545,0.711-1.545,1.569v67.169
			c0,39.171,10.034,47.176,31.332,55.067c12.093,4.482,19.613,8.67,23.192,10.896c0.746,0.465,1.686,0.465,2.433,0
			c3.578-2.226,11.098-6.414,23.192-10.896c21.299-7.891,31.333-15.897,31.333-55.067V23.159c0-0.858-0.688-1.555-1.545-1.569
			c-8.698-0.136-30.818-0.962-53.893-5.599c-0.2-0.04-0.408-0.04-0.608,0C284.087,20.627,261.969,21.454,253.27,21.59
			 M251.288,21.612h-0.003H251.288z"/>
		<path fill="#6B8A6B" d="M307.465,165c-0.853,0-1.705-0.242-2.433-0.726c-2.719-1.809-10.568-6.58-24.708-11.819
			c-12.076-4.474-21.356-9.401-27.395-18.911c-5.823-9.167-8.42-22.443-8.42-43.047V18.036c0-2.232,1.906-4.049,4.249-4.049
			c6.993-0.044,31.873-0.595,57.828-5.855c0.575-0.115,1.183-0.116,1.759,0.001c25.946,5.257,50.819,5.81,57.836,5.854
			c2.34,0.005,4.241,1.82,4.241,4.049v72.461c0,41.922-10.559,52.601-35.816,61.958c-14.14,5.239-21.988,10.011-24.706,11.818
			C309.171,164.758,308.318,164.999,307.465,165 M250.732,18.097c-1.113,0.019-2.001,0.927-2.001,2.041v70.393
			c0,41.275,10.573,49.709,33.015,58.025c12.255,4.541,20.053,8.797,23.987,11.201c1.064,0.651,2.399,0.651,3.464,0
			c3.933-2.403,11.73-6.66,23.987-11.201c22.442-8.316,33.016-16.751,33.016-58.025v-70.05c0-1.302-1.041-2.366-2.343-2.39
			c-9.66-0.178-32.571-1.131-56.393-5.952C283.36,17.017,260.188,17.935,250.732,18.097 M248.271,18.127h-0.003H248.271z"/>
		<path d="M307.47,131.865c-0.823,0-1.637-0.218-2.349-0.63l-39.562-22.877c-1.446-0.836-2.344-2.392-2.344-4.062V58.542
			c0-1.67,0.898-3.226,2.344-4.062l39.562-22.877c0.712-0.412,1.525-0.63,2.349-0.63c0.824,0,1.636,0.218,2.35,0.63l39.554,22.877
			c1.446,0.837,2.345,2.396,2.343,4.067l-0.051,45.754c-0.001,1.666-0.897,3.22-2.34,4.055l-39.504,22.877
			C309.108,131.647,308.295,131.865,307.47,131.865 M310.526,123.692l25.102-14.537l-25.102,3.843V123.692z M304.354,123.661V112.94
			l-25.123-3.806L304.354,123.661z M313.101,106.359l29.755-4.554l-10.567-30.8L313.101,106.359z M301.749,106.303l-19.157-35.298
			l-10.566,30.794L301.749,106.303z M307.44,103.846l20.299-37.402h-40.598L307.44,103.846z M345.508,90.516l0.031-28.202
			l-8.687,2.978L345.508,90.516z M269.388,90.471l8.651-25.21l-8.651-2.966V90.471z M325.897,60.272l-18.431-20.049l-18.472,20.049
			H325.897z M333.846,59.797l7.778-2.667l-21.845-12.635L333.846,59.797z M281.062,59.772l14.053-15.252l-21.79,12.6L281.062,59.772
			z"/>
		<path fill="#FFFFFF" d="M307.47,32.454c0.556,0,1.11,0.144,1.608,0.431l39.554,22.878c0.993,0.574,1.604,1.635,1.603,2.782
			l-0.05,45.755c-0.001,1.144-0.611,2.201-1.602,2.775l-39.504,22.877c-0.498,0.288-1.053,0.432-1.609,0.432
			c-0.555,0-1.109-0.143-1.606-0.431L266.3,107.076c-0.993-0.574-1.604-1.633-1.604-2.78V58.542c0-1.147,0.611-2.206,1.604-2.78
			l39.563-22.877C306.36,32.598,306.915,32.454,307.47,32.454 M285.616,61.753h43.654l-21.801-23.717L285.616,61.753 M333.41,61.512
			l11.771-4.036l-33.056-19.118L333.41,61.512 M281.496,61.487l21.302-23.121l-33.03,19.099L281.496,61.487 M267.907,99.35
			l12.013-35.009l-12.013-4.119V99.35 M346.979,99.366l0.043-39.126l-12.052,4.132L346.979,99.366 M307.44,106.951l22.788-41.988
			h-45.576L307.44,106.951 M304.472,108.213l-22.185-40.877l-12.237,35.662L304.472,108.213 M310.375,108.274L344.832,103
			l-12.238-35.664L310.375,108.274 M305.835,126.228v-14.561l-34.123-5.17L305.835,126.228 M309.046,126.261l34.115-19.757
			l-34.115,5.222V126.261 M307.47,29.492c-1.083,0-2.151,0.287-3.09,0.829l-39.563,22.877c-1.901,1.1-3.083,3.147-3.083,5.344
			v45.754c0,2.197,1.182,4.244,3.083,5.344l39.563,22.877c0.938,0.543,2.007,0.829,3.09,0.829c1.085,0,2.155-0.287,3.094-0.831
			l39.504-22.877c1.896-1.098,3.076-3.143,3.079-5.335l0.049-45.754c0.004-2.199-1.178-4.249-3.081-5.35l-39.554-22.878
			C309.622,29.779,308.554,29.492,307.47,29.492 M292.373,58.791l15.093-16.382l15.059,16.382H292.373z M334.281,58.082l-6.85-7.45
			l10.637,6.152L334.281,58.082z M276.882,56.773l10.55-6.1l-6.804,7.385L276.882,56.773z M270.869,81.593V64.369l5.288,1.813
			L270.869,81.593z M338.734,66.212l5.321-1.824l-0.019,17.277L338.734,66.212z M289.63,67.925h35.621l-17.811,32.817L289.63,67.925
			z M274.004,100.601l8.896-25.926l16.129,29.718L274.004,100.601z M315.824,104.444l16.156-29.769l8.899,25.934L315.824,104.444z
			 M302.873,121.094l-16.123-9.323l16.123,2.443V121.094z M312.008,114.269l16.088-2.462l-16.088,9.316V114.269z"/>
		<polygon fill="#8DD294" points="282.287,67.336 270.05,102.998 304.472,108.213 		"/>
		<polygon fill="#8DD294" points="302.798,38.366 269.768,57.465 281.496,61.486 		"/>
		<polygon fill="#DCFFDE" points="329.27,61.753 307.469,38.036 285.617,61.753 		"/>
		<polygon fill="#EFFFEC" points="345.182,57.476 312.126,38.358 333.41,61.512 		"/>
		<polygon fill="#6AB082" points="267.907,60.222 267.907,99.35 279.92,64.341 		"/>
		<polygon fill="#DCFFDE" points="310.375,108.274 344.831,103 332.594,67.336 		"/>
		<polygon fill="#6AB082" points="305.835,126.228 305.835,111.667 271.712,106.497 		"/>
		<polygon fill="#EFFFEC" points="334.972,64.371 346.979,99.366 347.022,60.239 		"/>
		<polygon fill="#8DD294" points="309.046,126.261 343.161,106.504 309.046,111.725 		"/>
		<polygon fill="#A2FF9E" points="284.652,64.963 307.44,106.951 330.229,64.963 		"/>
		<path fill="#6B8A6B" d="M348.632,55.762l-39.554-22.877c-0.498-0.288-1.054-0.432-1.608-0.432s-1.109,0.144-1.606,0.432
			l-39.564,22.877c-0.992,0.574-1.603,1.633-1.603,2.78v45.754c0,1.147,0.611,2.206,1.603,2.78l39.564,22.877
			c0.497,0.287,1.052,0.431,1.606,0.431c0.556,0,1.111-0.144,1.609-0.432l39.504-22.877c0.99-0.574,1.601-1.631,1.602-2.775
			l0.05-45.755C350.236,57.398,349.625,56.337,348.632,55.762 M267.907,60.222l12.013,4.119L267.907,99.35V60.222z M284.652,64.963
			h45.577l-22.788,41.988L284.652,64.963z M304.472,108.213l-34.422-5.216l12.237-35.661L304.472,108.213z M285.616,61.753
			l21.853-23.718l21.801,23.718H285.616z M333.41,61.512l-21.284-23.154l33.056,19.118L333.41,61.512z M281.496,61.487
			l-11.728-4.022l33.03-19.099L281.496,61.487z M305.835,111.667v14.561l-34.123-19.732L305.835,111.667z M332.594,67.336
			L344.832,103l-34.457,5.274L332.594,67.336z M334.971,64.371l12.052-4.131l-0.043,39.126L334.971,64.371z M309.046,126.261
			v-14.535l34.115-5.222L309.046,126.261z"/>
	</g>
	<g display="inline">
		<path fill="#6B8A6B" d="M19.506,245.352c0-1.795,1.587-3.174,3.519-3.174c2.001,0,3.657,1.379,3.657,3.174
			c0,3.035,2.415,5.934,7.038,5.934c4.416,0,7.245-2.484,7.245-6.21c0-2.967-0.69-5.521-4.899-8.28l-1.863-1.104
			c-4.554-2.553-5.796-3.381-7.107-4.209c-4.416-2.967-7.176-6.418-7.176-11.592c0-7.66,6.348-12.213,13.662-12.213
			c7.659,0,13.662,4.484,13.662,11.799c0,1.793-1.587,3.174-3.588,3.174s-3.588-1.381-3.588-3.174c0-3.174-2.07-5.451-6.486-5.451
			c-4.485,0-6.486,2.967-6.486,5.796c0,1.519,0,3.588,3.726,6.21c1.104,0.896,4.002,2.691,8.763,5.382
			c5.313,3.104,8.556,7.866,8.556,13.662c0,8.004-7.038,12.558-14.421,12.558C24.819,257.633,19.506,251.631,19.506,245.352z"/>
		<path fill="#6B8A6B" d="M96.854,210.852v43.539c0,1.793-1.587,3.242-3.588,3.242c-1.932,0-3.519-1.449-3.519-3.242v-20.424H75.188
			v20.424c0,1.793-1.587,3.242-3.519,3.242c-2.001,0-3.657-1.449-3.657-3.242v-43.539c0-1.795,1.656-3.174,3.657-3.174
			c1.932,0,3.519,1.379,3.519,3.174v16.767h14.559v-16.767c0-1.795,1.587-3.174,3.519-3.174
			C95.267,207.678,96.854,209.057,96.854,210.852z"/>
		<path fill="#6B8A6B" d="M188.485,254.045c0,1.795-1.587,3.174-3.588,3.174h-19.251c-1.933,0-3.52-1.379-3.52-3.174v-42.849
			c0-1.726,1.587-3.104,3.52-3.104h19.044c2.001,0,3.588,1.379,3.588,3.104c0,1.794-1.587,3.243-3.588,3.243h-15.387v13.179h13.455
			c2.001,0,3.588,1.448,3.588,3.243c0,1.725-1.587,3.105-3.588,3.105h-13.455v16.836h15.594
			C186.898,250.803,188.485,252.182,188.485,254.045z"/>
		<path fill="#6B8A6B" d="M233.956,253.631c0,1.795-1.588,3.174-3.589,3.174h-19.458c-2.001,0-3.588-1.379-3.588-3.174v-42.779
			c0-1.795,1.587-3.174,3.588-3.174s3.589,1.379,3.589,3.174v39.537h15.869C232.368,250.389,233.956,251.838,233.956,253.631z"/>
		<path fill="#6B8A6B" d="M129.594,207.678c-2.001,0-3.588,1.379-3.588,3.174v4.07v35.467v4.07c0,1.795,1.588,3.174,3.589,3.174
			s3.588-1.379,3.588-3.174v-4.07v-35.467v-4.07C133.183,209.057,131.595,207.678,129.594,207.678z"/>
		<path fill="#6B8A6B" d="M421.806,207.678c-2.001,0-3.588,1.379-3.588,3.174v4.07v35.467v4.07c0,1.795,1.588,3.174,3.589,3.174
			s3.588-1.379,3.588-3.174v-4.07v-35.467v-4.07C425.395,209.057,423.807,207.678,421.806,207.678z"/>
		<path fill="#6B8A6B" d="M256.449,257.219c-2.001,0-3.657-1.379-3.657-3.174v-42.849c0-1.726,1.656-3.104,3.657-3.104h9.937
			c8.004,0,14.489,6.278,14.489,14.075v20.907c0,7.797-6.485,14.145-14.489,14.145H256.449z M259.969,250.803h6.417
			c4.07,0,7.313-3.451,7.313-7.729v-20.907c0-4.278-3.243-7.728-7.313-7.728h-6.417V250.803z"/>
		<path fill="#6B8A6B" d="M333.453,254.391v-28.842l-8.694,17.664c-0.621,1.034-1.794,1.793-3.243,1.793
			c-1.38,0-2.553-0.621-3.174-1.725l-8.625-17.664v28.773c0,1.793-1.587,3.242-3.588,3.242c-1.932,0-3.519-1.449-3.519-3.242
			v-43.539c0-1.795,1.587-3.174,3.519-3.174c1.38,0,2.691,0.758,3.174,1.793l12.213,25.186c4.071-8.143,8.28-17.043,12.282-25.186
			c0.552-1.035,1.794-1.793,3.243-1.793c2.139,0,3.52,1.655,3.52,3.174v43.539c0,1.793-1.588,3.242-3.52,3.242
			C335.04,257.633,333.453,256.184,333.453,254.391z"/>
		<path fill="#6B8A6B" d="M393.068,253.562c0.414,1.863-1.104,4.07-3.588,4.07c-1.519,0-2.829-0.896-3.312-2.276l-2.897-9.246
			h-13.938c-0.966,3.174-1.794,6.142-2.76,9.246c-0.414,1.312-1.863,2.276-3.45,2.276c-2.07,0-4.14-2-3.381-4.14v0.069l13.11-43.608
			c0.482-1.312,1.932-2.276,3.519-2.276c1.518,0,2.898,0.965,3.381,2.276l13.248,43.608H393.068z M381.407,239.762l-5.037-19.043
			l-5.175,19.043H381.407z"/>
		<path fill="#6B8A6B" d="M457.996,257.219c-2.001,0-3.657-1.379-3.657-3.174v-42.849c0-1.726,1.656-3.104,3.657-3.104h9.937
			c8.004,0,14.489,6.278,14.489,14.075v20.907c0,7.797-6.485,14.145-14.489,14.145H457.996z M461.516,250.803h6.417
			c4.07,0,7.313-3.451,7.313-7.729v-20.907c0-4.278-3.243-7.728-7.313-7.728h-6.417V250.803z"/>
		<path fill="#6B8A6B" d="M530.376,254.045c0,1.795-1.587,3.174-3.588,3.174h-19.251c-1.933,0-3.52-1.379-3.52-3.174v-42.849
			c0-1.726,1.587-3.104,3.52-3.104h19.044c2.001,0,3.588,1.379,3.588,3.104c0,1.794-1.587,3.243-3.588,3.243h-15.387v13.179h13.455
			c2.001,0,3.588,1.448,3.588,3.243c0,1.725-1.587,3.105-3.588,3.105h-13.455v16.836h15.594
			C528.789,250.803,530.376,252.182,530.376,254.045z"/>
		<path fill="#6B8A6B" d="M571.639,255.84l-15.87-31.879l0.621,30.43c0,1.793-1.588,3.242-3.589,3.242
			c-1.932,0-3.588-1.449-3.588-3.242v-43.539c0-1.795,1.794-3.174,3.588-3.174c1.312,0,2.622,0.827,3.175,1.793l15.87,31.74
			l-0.621-30.359c0-1.795,1.587-3.174,3.588-3.174s3.588,1.379,3.588,3.174v43.539c0,1.518-1.173,2.76-2.76,3.174l0.138-0.069
			c-0.414,0.138-0.621,0.138-0.966,0.138C573.57,257.633,572.19,256.874,571.639,255.84z"/>
	</g>
</g>
<g id="Blue" display="none">
	<g display="inline">
		<path fill="#7388CE" d="M248.847,21.215v57.364v6.435v5.302c0,38.844,9.58,48.412,32.685,56.974
			c13.713,5.08,21.374,9.742,24.026,11.508c0.209,0.138,1.667,0.268,1.907,0.315v-27.178l-43.693-25.379V55.695l43.693-25.011
			V13.978c-26.234,5.067-50.194,5.586-56.817,5.628C249.653,19.605,248.847,20.326,248.847,21.215"/>
		<path fill="#DBDEFF" d="M365.21,21.215v57.364v6.435v5.302c0,38.844-9.438,48.412-32.197,56.974
			c-13.509,5.08-21.056,9.742-23.668,11.508c-0.206,0.138-1.642,0.268-1.88,0.315v-27.178l45.013-25.379V55.695l-45.013-25.011
			V13.978c25.845,5.067,49.447,5.586,55.972,5.628C364.416,19.605,365.21,20.326,365.21,21.215"/>
		<path fill="#FFFFFF" d="M307.465,161.643c-0.816,0-1.632-0.23-2.328-0.694c-2.604-1.731-10.116-6.299-23.651-11.313
			c-11.559-4.283-20.442-9.001-26.223-18.103c-5.574-8.774-8.059-21.482-8.059-41.204V20.967c0-2.137,1.824-3.876,4.067-3.876
			c6.693-0.042,30.509-0.57,55.354-5.604c0.55-0.111,1.132-0.112,1.684,0c24.836,5.033,48.645,5.562,55.36,5.604
			c2.24,0.004,4.061,1.742,4.061,3.876v69.361c0,40.128-10.108,50.349-34.284,59.307c-13.534,5.015-21.047,9.582-23.649,11.312
			C309.099,161.41,308.281,161.642,307.465,161.643 M253.27,21.59c-0.857,0.014-1.545,0.711-1.545,1.569v67.169
			c0,39.171,10.034,47.176,31.332,55.067c12.093,4.482,19.613,8.67,23.192,10.896c0.746,0.465,1.686,0.465,2.433,0
			c3.578-2.226,11.098-6.414,23.192-10.896c21.299-7.891,31.333-15.897,31.333-55.067V23.159c0-0.858-0.688-1.555-1.545-1.569
			c-8.698-0.136-30.818-0.962-53.893-5.599c-0.2-0.04-0.408-0.04-0.608,0C284.087,20.627,261.969,21.454,253.27,21.59
			 M251.288,21.612h-0.003H251.288z"/>
		<path fill="#5C6CA7" d="M307.465,165c-0.853,0-1.705-0.242-2.433-0.726c-2.719-1.809-10.568-6.58-24.708-11.819
			c-12.076-4.474-21.356-9.401-27.395-18.911c-5.823-9.167-8.42-22.443-8.42-43.047V18.036c0-2.232,1.906-4.049,4.249-4.049
			c6.993-0.044,31.873-0.595,57.828-5.855c0.575-0.115,1.183-0.116,1.759,0.001c25.946,5.257,50.819,5.81,57.836,5.854
			c2.34,0.005,4.241,1.82,4.241,4.049v72.461c0,41.922-10.559,52.601-35.816,61.958c-14.14,5.239-21.988,10.011-24.706,11.818
			C309.171,164.758,308.318,164.999,307.465,165 M250.732,18.097c-1.113,0.019-2.001,0.927-2.001,2.041v70.393
			c0,41.275,10.573,49.709,33.015,58.025c12.255,4.541,20.053,8.797,23.987,11.201c1.064,0.651,2.399,0.651,3.464,0
			c3.933-2.403,11.73-6.66,23.987-11.201c22.442-8.316,33.016-16.751,33.016-58.025v-70.05c0-1.302-1.041-2.366-2.343-2.39
			c-9.66-0.178-32.571-1.131-56.393-5.952C283.36,17.017,260.188,17.935,250.732,18.097 M248.271,18.127h-0.003H248.271z"/>
		<path d="M307.47,131.865c-0.823,0-1.637-0.218-2.349-0.63l-39.562-22.877c-1.446-0.836-2.344-2.392-2.344-4.062V58.542
			c0-1.67,0.898-3.226,2.344-4.062l39.562-22.877c0.712-0.412,1.525-0.63,2.349-0.63c0.824,0,1.636,0.218,2.35,0.63l39.554,22.877
			c1.446,0.837,2.345,2.396,2.343,4.067l-0.051,45.754c-0.001,1.666-0.897,3.22-2.34,4.055l-39.504,22.877
			C309.108,131.647,308.295,131.865,307.47,131.865 M310.526,123.692l25.102-14.537l-25.102,3.843V123.692z M304.354,123.661V112.94
			l-25.123-3.806L304.354,123.661z M313.101,106.359l29.755-4.554l-10.567-30.8L313.101,106.359z M301.749,106.303l-19.157-35.298
			l-10.566,30.794L301.749,106.303z M307.44,103.846l20.299-37.402h-40.598L307.44,103.846z M345.508,90.516l0.031-28.202
			l-8.687,2.978L345.508,90.516z M269.388,90.471l8.651-25.21l-8.651-2.966V90.471z M325.897,60.272l-18.431-20.049l-18.472,20.049
			H325.897z M333.846,59.797l7.778-2.667l-21.845-12.635L333.846,59.797z M281.062,59.772l14.053-15.252l-21.79,12.6L281.062,59.772
			z"/>
		<path fill="#FFFFFF" d="M307.47,32.454c0.556,0,1.11,0.144,1.608,0.431l39.554,22.878c0.993,0.574,1.604,1.635,1.603,2.782
			l-0.05,45.755c-0.001,1.144-0.611,2.201-1.602,2.775l-39.504,22.877c-0.498,0.288-1.053,0.432-1.609,0.432
			c-0.555,0-1.109-0.143-1.606-0.431L266.3,107.076c-0.993-0.574-1.604-1.633-1.604-2.78V58.542c0-1.147,0.611-2.206,1.604-2.78
			l39.563-22.877C306.36,32.598,306.915,32.454,307.47,32.454 M285.616,61.753h43.654l-21.801-23.717L285.616,61.753 M333.41,61.512
			l11.771-4.036l-33.056-19.118L333.41,61.512 M281.496,61.487l21.302-23.121l-33.03,19.099L281.496,61.487 M267.907,99.35
			l12.013-35.009l-12.013-4.119V99.35 M346.979,99.366l0.043-39.126l-12.052,4.132L346.979,99.366 M307.44,106.951l22.788-41.988
			h-45.576L307.44,106.951 M304.472,108.213l-22.185-40.877l-12.237,35.662L304.472,108.213 M310.375,108.274L344.832,103
			l-12.238-35.664L310.375,108.274 M305.835,126.228v-14.561l-34.123-5.17L305.835,126.228 M309.046,126.261l34.115-19.757
			l-34.115,5.222V126.261 M307.47,29.492c-1.083,0-2.151,0.287-3.09,0.829l-39.563,22.877c-1.901,1.1-3.083,3.147-3.083,5.344
			v45.754c0,2.197,1.182,4.244,3.083,5.344l39.563,22.877c0.938,0.543,2.007,0.829,3.09,0.829c1.085,0,2.155-0.287,3.094-0.831
			l39.504-22.877c1.896-1.098,3.076-3.143,3.079-5.335l0.049-45.754c0.004-2.199-1.178-4.249-3.081-5.35l-39.554-22.878
			C309.622,29.779,308.554,29.492,307.47,29.492 M292.373,58.791l15.093-16.382l15.059,16.382H292.373z M334.281,58.082l-6.85-7.45
			l10.637,6.152L334.281,58.082z M276.882,56.773l10.55-6.1l-6.804,7.385L276.882,56.773z M270.869,81.593V64.369l5.288,1.813
			L270.869,81.593z M338.734,66.212l5.321-1.824l-0.019,17.277L338.734,66.212z M289.63,67.925h35.621l-17.811,32.817L289.63,67.925
			z M274.004,100.601l8.896-25.926l16.129,29.718L274.004,100.601z M315.824,104.444l16.156-29.769l8.899,25.934L315.824,104.444z
			 M302.873,121.094l-16.123-9.323l16.123,2.443V121.094z M312.008,114.269l16.088-2.462l-16.088,9.316V114.269z"/>
		<polygon fill="#A2ADFF" points="282.287,67.336 270.05,102.998 304.472,108.213 		"/>
		<polygon fill="#A2ADFF" points="302.798,38.366 269.768,57.465 281.496,61.486 		"/>
		<polygon fill="#DBDEFF" points="329.27,61.753 307.469,38.036 285.617,61.753 		"/>
		<polygon fill="#ECEFFF" points="345.182,57.476 312.126,38.358 333.41,61.512 		"/>
		<polygon fill="#7388CE" points="267.907,60.222 267.907,99.35 279.92,64.341 		"/>
		<polygon fill="#DBDEFF" points="310.375,108.274 344.831,103 332.594,67.336 		"/>
		<polygon fill="#7388CE" points="305.835,126.228 305.835,111.667 271.712,106.497 		"/>
		<polygon fill="#ECEFFF" points="334.972,64.371 346.979,99.366 347.022,60.239 		"/>
		<polygon fill="#A2ADFF" points="309.046,126.261 343.161,106.504 309.046,111.725 		"/>
		<polygon fill="#C0C9FF" points="284.652,64.963 307.44,106.951 330.229,64.963 		"/>
		<path fill="#5C6CA7" d="M348.632,55.762l-39.554-22.877c-0.498-0.288-1.054-0.432-1.608-0.432s-1.109,0.144-1.606,0.432
			l-39.564,22.877c-0.992,0.574-1.603,1.633-1.603,2.78v45.754c0,1.147,0.611,2.206,1.603,2.78l39.564,22.877
			c0.497,0.287,1.052,0.431,1.606,0.431c0.556,0,1.111-0.144,1.609-0.432l39.504-22.877c0.99-0.574,1.601-1.631,1.602-2.775
			l0.05-45.755C350.236,57.398,349.625,56.337,348.632,55.762 M267.907,60.222l12.013,4.119L267.907,99.35V60.222z M284.652,64.963
			h45.577l-22.788,41.988L284.652,64.963z M304.472,108.213l-34.422-5.216l12.237-35.661L304.472,108.213z M285.616,61.753
			l21.853-23.718l21.801,23.718H285.616z M333.41,61.512l-21.284-23.154l33.056,19.118L333.41,61.512z M281.496,61.487
			l-11.728-4.022l33.03-19.099L281.496,61.487z M305.835,111.667v14.561l-34.123-19.732L305.835,111.667z M332.594,67.336
			L344.832,103l-34.457,5.274L332.594,67.336z M334.971,64.371l12.052-4.131l-0.043,39.126L334.971,64.371z M309.046,126.261
			v-14.535l34.115-5.222L309.046,126.261z"/>
	</g>
	<g display="inline">
		<path fill="#5C6CA7" d="M19.506,245.352c0-1.795,1.587-3.174,3.519-3.174c2.001,0,3.657,1.379,3.657,3.174
			c0,3.035,2.415,5.934,7.038,5.934c4.416,0,7.245-2.484,7.245-6.21c0-2.967-0.69-5.521-4.899-8.28l-1.863-1.104
			c-4.554-2.553-5.796-3.381-7.107-4.209c-4.416-2.967-7.176-6.418-7.176-11.592c0-7.66,6.348-12.213,13.662-12.213
			c7.659,0,13.662,4.484,13.662,11.799c0,1.793-1.587,3.174-3.588,3.174s-3.588-1.381-3.588-3.174c0-3.174-2.07-5.451-6.486-5.451
			c-4.485,0-6.486,2.967-6.486,5.796c0,1.519,0,3.588,3.726,6.21c1.104,0.896,4.002,2.691,8.763,5.382
			c5.313,3.104,8.556,7.866,8.556,13.662c0,8.004-7.038,12.558-14.421,12.558C24.819,257.633,19.506,251.631,19.506,245.352z"/>
		<path fill="#5C6CA7" d="M96.854,210.852v43.539c0,1.793-1.587,3.242-3.588,3.242c-1.932,0-3.519-1.449-3.519-3.242v-20.424H75.188
			v20.424c0,1.793-1.587,3.242-3.519,3.242c-2.001,0-3.657-1.449-3.657-3.242v-43.539c0-1.795,1.656-3.174,3.657-3.174
			c1.932,0,3.519,1.379,3.519,3.174v16.767h14.559v-16.767c0-1.795,1.587-3.174,3.519-3.174
			C95.267,207.678,96.854,209.057,96.854,210.852z"/>
		<path fill="#5C6CA7" d="M188.485,254.045c0,1.795-1.587,3.174-3.588,3.174h-19.251c-1.933,0-3.52-1.379-3.52-3.174v-42.849
			c0-1.726,1.587-3.104,3.52-3.104h19.044c2.001,0,3.588,1.379,3.588,3.104c0,1.794-1.587,3.243-3.588,3.243h-15.387v13.179h13.455
			c2.001,0,3.588,1.448,3.588,3.243c0,1.725-1.587,3.105-3.588,3.105h-13.455v16.836h15.594
			C186.898,250.803,188.485,252.182,188.485,254.045z"/>
		<path fill="#5C6CA7" d="M233.956,253.631c0,1.795-1.588,3.174-3.589,3.174h-19.458c-2.001,0-3.588-1.379-3.588-3.174v-42.779
			c0-1.795,1.587-3.174,3.588-3.174s3.589,1.379,3.589,3.174v39.537h15.869C232.368,250.389,233.956,251.838,233.956,253.631z"/>
		<path fill="#5C6CA7" d="M129.594,207.678c-2.001,0-3.588,1.379-3.588,3.174v4.07v35.467v4.07c0,1.795,1.588,3.174,3.589,3.174
			s3.588-1.379,3.588-3.174v-4.07v-35.467v-4.07C133.183,209.057,131.595,207.678,129.594,207.678z"/>
		<path fill="#5C6CA7" d="M421.806,207.678c-2.001,0-3.588,1.379-3.588,3.174v4.07v35.467v4.07c0,1.795,1.588,3.174,3.589,3.174
			s3.588-1.379,3.588-3.174v-4.07v-35.467v-4.07C425.395,209.057,423.807,207.678,421.806,207.678z"/>
		<path fill="#5C6CA7" d="M256.449,257.219c-2.001,0-3.657-1.379-3.657-3.174v-42.849c0-1.726,1.656-3.104,3.657-3.104h9.937
			c8.004,0,14.489,6.278,14.489,14.075v20.907c0,7.797-6.485,14.145-14.489,14.145H256.449z M259.969,250.803h6.417
			c4.07,0,7.313-3.451,7.313-7.729v-20.907c0-4.278-3.243-7.728-7.313-7.728h-6.417V250.803z"/>
		<path fill="#5C6CA7" d="M333.453,254.391v-28.842l-8.694,17.664c-0.621,1.034-1.794,1.793-3.243,1.793
			c-1.38,0-2.553-0.621-3.174-1.725l-8.625-17.664v28.773c0,1.793-1.587,3.242-3.588,3.242c-1.932,0-3.519-1.449-3.519-3.242
			v-43.539c0-1.795,1.587-3.174,3.519-3.174c1.38,0,2.691,0.758,3.174,1.793l12.213,25.186c4.071-8.143,8.28-17.043,12.282-25.186
			c0.552-1.035,1.794-1.793,3.243-1.793c2.139,0,3.52,1.655,3.52,3.174v43.539c0,1.793-1.588,3.242-3.52,3.242
			C335.04,257.633,333.453,256.184,333.453,254.391z"/>
		<path fill="#5C6CA7" d="M393.068,253.562c0.414,1.863-1.104,4.07-3.588,4.07c-1.519,0-2.829-0.896-3.312-2.276l-2.897-9.246
			h-13.938c-0.966,3.174-1.794,6.142-2.76,9.246c-0.414,1.312-1.863,2.276-3.45,2.276c-2.07,0-4.14-2-3.381-4.14v0.069l13.11-43.608
			c0.482-1.312,1.932-2.276,3.519-2.276c1.518,0,2.898,0.965,3.381,2.276l13.248,43.608H393.068z M381.407,239.762l-5.037-19.043
			l-5.175,19.043H381.407z"/>
		<path fill="#5C6CA7" d="M457.996,257.219c-2.001,0-3.657-1.379-3.657-3.174v-42.849c0-1.726,1.656-3.104,3.657-3.104h9.937
			c8.004,0,14.489,6.278,14.489,14.075v20.907c0,7.797-6.485,14.145-14.489,14.145H457.996z M461.516,250.803h6.417
			c4.07,0,7.313-3.451,7.313-7.729v-20.907c0-4.278-3.243-7.728-7.313-7.728h-6.417V250.803z"/>
		<path fill="#5C6CA7" d="M530.376,254.045c0,1.795-1.587,3.174-3.588,3.174h-19.251c-1.933,0-3.52-1.379-3.52-3.174v-42.849
			c0-1.726,1.587-3.104,3.52-3.104h19.044c2.001,0,3.588,1.379,3.588,3.104c0,1.794-1.587,3.243-3.588,3.243h-15.387v13.179h13.455
			c2.001,0,3.588,1.448,3.588,3.243c0,1.725-1.587,3.105-3.588,3.105h-13.455v16.836h15.594
			C528.789,250.803,530.376,252.182,530.376,254.045z"/>
		<path fill="#5C6CA7" d="M571.639,255.84l-15.87-31.879l0.621,30.43c0,1.793-1.588,3.242-3.589,3.242
			c-1.932,0-3.588-1.449-3.588-3.242v-43.539c0-1.795,1.794-3.174,3.588-3.174c1.312,0,2.622,0.827,3.175,1.793l15.87,31.74
			l-0.621-30.359c0-1.795,1.587-3.174,3.588-3.174s3.588,1.379,3.588,3.174v43.539c0,1.518-1.173,2.76-2.76,3.174l0.138-0.069
			c-0.414,0.138-0.621,0.138-0.966,0.138C573.57,257.633,572.19,256.874,571.639,255.84z"/>
	</g>
</g>
<g id="Red" display="none">
	<g display="inline">
		<path fill="#E2456B" d="M248.847,21.215v57.364v6.435v5.302c0,38.844,9.58,48.412,32.685,56.974
			c13.713,5.08,21.374,9.742,24.026,11.508c0.209,0.138,1.667,0.268,1.907,0.315v-27.178l-43.693-25.379V55.695l43.693-25.011
			V13.978c-26.234,5.067-50.194,5.586-56.817,5.628C249.653,19.605,248.847,20.326,248.847,21.215"/>
		<path fill="#FFCFE3" d="M365.21,21.215v57.364v6.435v5.302c0,38.844-9.438,48.412-32.197,56.974
			c-13.509,5.08-21.056,9.742-23.668,11.508c-0.206,0.138-1.642,0.268-1.88,0.315v-27.178l45.013-25.379V55.695l-45.013-25.011
			V13.978c25.845,5.067,49.447,5.586,55.972,5.628C364.416,19.605,365.21,20.326,365.21,21.215"/>
		<path fill="#FFFFFF" d="M307.465,161.643c-0.816,0-1.632-0.23-2.328-0.694c-2.604-1.731-10.116-6.299-23.651-11.313
			c-11.559-4.283-20.442-9.001-26.223-18.103c-5.574-8.774-8.059-21.482-8.059-41.204V20.967c0-2.137,1.824-3.876,4.067-3.876
			c6.693-0.042,30.509-0.57,55.354-5.604c0.55-0.111,1.132-0.112,1.684,0c24.836,5.033,48.645,5.562,55.36,5.604
			c2.24,0.004,4.061,1.742,4.061,3.876v69.361c0,40.128-10.108,50.349-34.284,59.307c-13.534,5.015-21.047,9.582-23.649,11.312
			C309.099,161.41,308.281,161.642,307.465,161.643 M253.27,21.59c-0.857,0.014-1.545,0.711-1.545,1.569v67.169
			c0,39.171,10.034,47.176,31.332,55.067c12.093,4.482,19.613,8.67,23.192,10.896c0.746,0.465,1.686,0.465,2.433,0
			c3.578-2.226,11.098-6.414,23.192-10.896c21.299-7.891,31.333-15.897,31.333-55.067V23.159c0-0.858-0.688-1.555-1.545-1.569
			c-8.698-0.136-30.818-0.962-53.893-5.599c-0.2-0.04-0.408-0.04-0.608,0C284.087,20.627,261.969,21.454,253.27,21.59
			 M251.288,21.612h-0.003H251.288z"/>
		<path fill="#D42758" d="M307.465,165c-0.853,0-1.705-0.242-2.433-0.726c-2.719-1.809-10.568-6.58-24.708-11.819
			c-12.076-4.474-21.356-9.401-27.395-18.911c-5.823-9.167-8.42-22.443-8.42-43.047V18.036c0-2.232,1.906-4.049,4.249-4.049
			c6.993-0.044,31.873-0.595,57.828-5.855c0.575-0.115,1.183-0.116,1.759,0.001c25.946,5.257,50.819,5.81,57.836,5.854
			c2.34,0.005,4.241,1.82,4.241,4.049v72.461c0,41.922-10.559,52.601-35.816,61.958c-14.14,5.239-21.988,10.011-24.706,11.818
			C309.171,164.758,308.318,164.999,307.465,165 M250.732,18.097c-1.113,0.019-2.001,0.927-2.001,2.041v70.393
			c0,41.275,10.573,49.709,33.015,58.025c12.255,4.541,20.053,8.797,23.987,11.201c1.064,0.651,2.399,0.651,3.464,0
			c3.933-2.403,11.73-6.66,23.987-11.201c22.442-8.316,33.016-16.751,33.016-58.025v-70.05c0-1.302-1.041-2.366-2.343-2.39
			c-9.66-0.178-32.571-1.131-56.393-5.952C283.36,17.017,260.188,17.935,250.732,18.097 M248.271,18.127h-0.003H248.271z"/>
		<path d="M307.47,131.865c-0.823,0-1.637-0.218-2.349-0.63l-39.562-22.877c-1.446-0.836-2.344-2.392-2.344-4.062V58.542
			c0-1.67,0.898-3.226,2.344-4.062l39.562-22.877c0.712-0.412,1.525-0.63,2.349-0.63c0.824,0,1.636,0.218,2.35,0.63l39.554,22.877
			c1.446,0.837,2.345,2.396,2.343,4.067l-0.051,45.754c-0.001,1.666-0.897,3.22-2.34,4.055l-39.504,22.877
			C309.108,131.647,308.295,131.865,307.47,131.865 M310.526,123.692l25.102-14.537l-25.102,3.843V123.692z M304.354,123.661V112.94
			l-25.123-3.806L304.354,123.661z M313.101,106.359l29.755-4.554l-10.567-30.8L313.101,106.359z M301.749,106.303l-19.157-35.298
			l-10.566,30.794L301.749,106.303z M307.44,103.846l20.299-37.402h-40.598L307.44,103.846z M345.508,90.516l0.031-28.202
			l-8.687,2.978L345.508,90.516z M269.388,90.471l8.651-25.21l-8.651-2.966V90.471z M325.897,60.272l-18.431-20.049l-18.472,20.049
			H325.897z M333.846,59.797l7.778-2.667l-21.845-12.635L333.846,59.797z M281.062,59.772l14.053-15.252l-21.79,12.6L281.062,59.772
			z"/>
		<path fill="#FFFFFF" d="M307.47,32.454c0.556,0,1.11,0.144,1.608,0.431l39.554,22.878c0.993,0.574,1.604,1.635,1.603,2.782
			l-0.05,45.755c-0.001,1.144-0.611,2.201-1.602,2.775l-39.504,22.877c-0.498,0.288-1.053,0.432-1.609,0.432
			c-0.555,0-1.109-0.143-1.606-0.431L266.3,107.076c-0.993-0.574-1.604-1.633-1.604-2.78V58.542c0-1.147,0.611-2.206,1.604-2.78
			l39.563-22.877C306.36,32.598,306.915,32.454,307.47,32.454 M285.616,61.753h43.654l-21.801-23.717L285.616,61.753 M333.41,61.512
			l11.771-4.036l-33.056-19.118L333.41,61.512 M281.496,61.487l21.302-23.121l-33.03,19.099L281.496,61.487 M267.907,99.35
			l12.013-35.009l-12.013-4.119V99.35 M346.979,99.366l0.043-39.126l-12.052,4.132L346.979,99.366 M307.44,106.951l22.788-41.988
			h-45.576L307.44,106.951 M304.472,108.213l-22.185-40.877l-12.237,35.662L304.472,108.213 M310.375,108.274L344.832,103
			l-12.238-35.664L310.375,108.274 M305.835,126.228v-14.561l-34.123-5.17L305.835,126.228 M309.046,126.261l34.115-19.757
			l-34.115,5.222V126.261 M307.47,29.492c-1.083,0-2.151,0.287-3.09,0.829l-39.563,22.877c-1.901,1.1-3.083,3.147-3.083,5.344
			v45.754c0,2.197,1.182,4.244,3.083,5.344l39.563,22.877c0.938,0.543,2.007,0.829,3.09,0.829c1.085,0,2.155-0.287,3.094-0.831
			l39.504-22.877c1.896-1.098,3.076-3.143,3.079-5.335l0.049-45.754c0.004-2.199-1.178-4.249-3.081-5.35l-39.554-22.878
			C309.622,29.779,308.554,29.492,307.47,29.492 M292.373,58.791l15.093-16.382l15.059,16.382H292.373z M334.281,58.082l-6.85-7.45
			l10.637,6.152L334.281,58.082z M276.882,56.773l10.55-6.1l-6.804,7.385L276.882,56.773z M270.869,81.593V64.369l5.288,1.813
			L270.869,81.593z M338.734,66.212l5.321-1.824l-0.019,17.277L338.734,66.212z M289.63,67.925h35.621l-17.811,32.817L289.63,67.925
			z M274.004,100.601l8.896-25.926l16.129,29.718L274.004,100.601z M315.824,104.444l16.156-29.769l8.899,25.934L315.824,104.444z
			 M302.873,121.094l-16.123-9.323l16.123,2.443V121.094z M312.008,114.269l16.088-2.462l-16.088,9.316V114.269z"/>
		<polygon fill="#FF517B" points="282.287,67.336 270.05,102.998 304.472,108.213 		"/>
		<polygon fill="#FF517B" points="302.798,38.366 269.768,57.465 281.496,61.486 		"/>
		<polygon fill="#FFCFE3" points="329.27,61.753 307.469,38.036 285.617,61.753 		"/>
		<polygon fill="#FFE2EF" points="345.182,57.476 312.126,38.358 333.41,61.512 		"/>
		<polygon fill="#E2456B" points="267.907,60.222 267.907,99.35 279.92,64.341 		"/>
		<polygon fill="#FFCFE3" points="310.375,108.274 344.831,103 332.594,67.336 		"/>
		<polygon fill="#E2456B" points="305.835,126.228 305.835,111.667 271.712,106.497 		"/>
		<polygon fill="#FFE2EF" points="334.972,64.371 346.979,99.366 347.022,60.239 		"/>
		<polygon fill="#FF517B" points="309.046,126.261 343.161,106.504 309.046,111.725 		"/>
		<polygon fill="#FF819B" points="284.652,64.963 307.44,106.951 330.229,64.963 		"/>
		<path fill="#D42758" d="M348.632,55.762l-39.554-22.877c-0.498-0.288-1.054-0.432-1.608-0.432s-1.109,0.144-1.606,0.432
			l-39.564,22.877c-0.992,0.574-1.603,1.633-1.603,2.78v45.754c0,1.147,0.611,2.206,1.603,2.78l39.564,22.877
			c0.497,0.287,1.052,0.431,1.606,0.431c0.556,0,1.111-0.144,1.609-0.432l39.504-22.877c0.99-0.574,1.601-1.631,1.602-2.775
			l0.05-45.755C350.236,57.398,349.625,56.337,348.632,55.762 M267.907,60.222l12.013,4.119L267.907,99.35V60.222z M284.652,64.963
			h45.577l-22.788,41.988L284.652,64.963z M304.472,108.213l-34.422-5.216l12.237-35.661L304.472,108.213z M285.616,61.753
			l21.853-23.718l21.801,23.718H285.616z M333.41,61.512l-21.284-23.154l33.056,19.118L333.41,61.512z M281.496,61.487
			l-11.728-4.022l33.03-19.099L281.496,61.487z M305.835,111.667v14.561l-34.123-19.732L305.835,111.667z M332.594,67.336
			L344.832,103l-34.457,5.274L332.594,67.336z M334.971,64.371l12.052-4.131l-0.043,39.126L334.971,64.371z M309.046,126.261
			v-14.535l34.115-5.222L309.046,126.261z"/>
	</g>
	<g display="inline">
		<path fill="#D42758" d="M19.506,245.352c0-1.795,1.587-3.174,3.519-3.174c2.001,0,3.657,1.379,3.657,3.174
			c0,3.035,2.415,5.934,7.038,5.934c4.416,0,7.245-2.484,7.245-6.21c0-2.967-0.69-5.521-4.899-8.28l-1.863-1.104
			c-4.554-2.553-5.796-3.381-7.107-4.209c-4.416-2.967-7.176-6.418-7.176-11.592c0-7.66,6.348-12.213,13.662-12.213
			c7.659,0,13.662,4.484,13.662,11.799c0,1.793-1.587,3.174-3.588,3.174s-3.588-1.381-3.588-3.174c0-3.174-2.07-5.451-6.486-5.451
			c-4.485,0-6.486,2.967-6.486,5.796c0,1.519,0,3.588,3.726,6.21c1.104,0.896,4.002,2.691,8.763,5.382
			c5.313,3.104,8.556,7.866,8.556,13.662c0,8.004-7.038,12.558-14.421,12.558C24.819,257.633,19.506,251.631,19.506,245.352z"/>
		<path fill="#D42758" d="M96.854,210.852v43.539c0,1.793-1.587,3.242-3.588,3.242c-1.932,0-3.519-1.449-3.519-3.242v-20.424H75.188
			v20.424c0,1.793-1.587,3.242-3.519,3.242c-2.001,0-3.657-1.449-3.657-3.242v-43.539c0-1.795,1.656-3.174,3.657-3.174
			c1.932,0,3.519,1.379,3.519,3.174v16.767h14.559v-16.767c0-1.795,1.587-3.174,3.519-3.174
			C95.267,207.678,96.854,209.057,96.854,210.852z"/>
		<path fill="#D42758" d="M188.485,254.045c0,1.795-1.587,3.174-3.588,3.174h-19.251c-1.933,0-3.52-1.379-3.52-3.174v-42.849
			c0-1.726,1.587-3.104,3.52-3.104h19.044c2.001,0,3.588,1.379,3.588,3.104c0,1.794-1.587,3.243-3.588,3.243h-15.387v13.179h13.455
			c2.001,0,3.588,1.448,3.588,3.243c0,1.725-1.587,3.105-3.588,3.105h-13.455v16.836h15.594
			C186.898,250.803,188.485,252.182,188.485,254.045z"/>
		<path fill="#D42758" d="M233.956,253.631c0,1.795-1.588,3.174-3.589,3.174h-19.458c-2.001,0-3.588-1.379-3.588-3.174v-42.779
			c0-1.795,1.587-3.174,3.588-3.174s3.589,1.379,3.589,3.174v39.537h15.869C232.368,250.389,233.956,251.838,233.956,253.631z"/>
		<path fill="#D42758" d="M129.594,207.678c-2.001,0-3.588,1.379-3.588,3.174v4.07v35.467v4.07c0,1.795,1.588,3.174,3.589,3.174
			s3.588-1.379,3.588-3.174v-4.07v-35.467v-4.07C133.183,209.057,131.595,207.678,129.594,207.678z"/>
		<path fill="#D42758" d="M421.806,207.678c-2.001,0-3.588,1.379-3.588,3.174v4.07v35.467v4.07c0,1.795,1.588,3.174,3.589,3.174
			s3.588-1.379,3.588-3.174v-4.07v-35.467v-4.07C425.395,209.057,423.807,207.678,421.806,207.678z"/>
		<path fill="#D42758" d="M256.449,257.219c-2.001,0-3.657-1.379-3.657-3.174v-42.849c0-1.726,1.656-3.104,3.657-3.104h9.937
			c8.004,0,14.489,6.278,14.489,14.075v20.907c0,7.797-6.485,14.145-14.489,14.145H256.449z M259.969,250.803h6.417
			c4.07,0,7.313-3.451,7.313-7.729v-20.907c0-4.278-3.243-7.728-7.313-7.728h-6.417V250.803z"/>
		<path fill="#D42758" d="M333.453,254.391v-28.842l-8.694,17.664c-0.621,1.034-1.794,1.793-3.243,1.793
			c-1.38,0-2.553-0.621-3.174-1.725l-8.625-17.664v28.773c0,1.793-1.587,3.242-3.588,3.242c-1.932,0-3.519-1.449-3.519-3.242
			v-43.539c0-1.795,1.587-3.174,3.519-3.174c1.38,0,2.691,0.758,3.174,1.793l12.213,25.186c4.071-8.143,8.28-17.043,12.282-25.186
			c0.552-1.035,1.794-1.793,3.243-1.793c2.139,0,3.52,1.655,3.52,3.174v43.539c0,1.793-1.588,3.242-3.52,3.242
			C335.04,257.633,333.453,256.184,333.453,254.391z"/>
		<path fill="#D42758" d="M393.068,253.562c0.414,1.863-1.104,4.07-3.588,4.07c-1.519,0-2.829-0.896-3.312-2.276l-2.897-9.246
			h-13.938c-0.966,3.174-1.794,6.142-2.76,9.246c-0.414,1.312-1.863,2.276-3.45,2.276c-2.07,0-4.14-2-3.381-4.14v0.069l13.11-43.608
			c0.482-1.312,1.932-2.276,3.519-2.276c1.518,0,2.898,0.965,3.381,2.276l13.248,43.608H393.068z M381.407,239.762l-5.037-19.043
			l-5.175,19.043H381.407z"/>
		<path fill="#D42758" d="M457.996,257.219c-2.001,0-3.657-1.379-3.657-3.174v-42.849c0-1.726,1.656-3.104,3.657-3.104h9.937
			c8.004,0,14.489,6.278,14.489,14.075v20.907c0,7.797-6.485,14.145-14.489,14.145H457.996z M461.516,250.803h6.417
			c4.07,0,7.313-3.451,7.313-7.729v-20.907c0-4.278-3.243-7.728-7.313-7.728h-6.417V250.803z"/>
		<path fill="#D42758" d="M530.376,254.045c0,1.795-1.587,3.174-3.588,3.174h-19.251c-1.933,0-3.52-1.379-3.52-3.174v-42.849
			c0-1.726,1.587-3.104,3.52-3.104h19.044c2.001,0,3.588,1.379,3.588,3.104c0,1.794-1.587,3.243-3.588,3.243h-15.387v13.179h13.455
			c2.001,0,3.588,1.448,3.588,3.243c0,1.725-1.587,3.105-3.588,3.105h-13.455v16.836h15.594
			C528.789,250.803,530.376,252.182,530.376,254.045z"/>
		<path fill="#D42758" d="M571.639,255.84l-15.87-31.879l0.621,30.43c0,1.793-1.588,3.242-3.589,3.242
			c-1.932,0-3.588-1.449-3.588-3.242v-43.539c0-1.795,1.794-3.174,3.588-3.174c1.312,0,2.622,0.827,3.175,1.793l15.87,31.74
			l-0.621-30.359c0-1.795,1.587-3.174,3.588-3.174s3.588,1.379,3.588,3.174v43.539c0,1.518-1.173,2.76-2.76,3.174l0.138-0.069
			c-0.414,0.138-0.621,0.138-0.966,0.138C573.57,257.633,572.19,256.874,571.639,255.84z"/>
	</g>
</g>
<g id="Orange" display="none">
	<g display="inline">
		<path fill="#E2845C" d="M248.847,21.215v57.364v6.435v5.302c0,38.844,9.58,48.412,32.685,56.974
			c13.713,5.08,21.374,9.742,24.026,11.508c0.209,0.138,1.667,0.268,1.907,0.315v-27.178l-43.693-25.379V55.695l43.693-25.011
			V13.978c-26.234,5.067-50.194,5.586-56.817,5.628C249.653,19.605,248.847,20.326,248.847,21.215"/>
		<path fill="#FFEADD" d="M365.21,21.215v57.364v6.435v5.302c0,38.844-9.438,48.412-32.197,56.974
			c-13.509,5.08-21.056,9.742-23.668,11.508c-0.206,0.138-1.642,0.268-1.88,0.315v-27.178l45.013-25.379V55.695l-45.013-25.011
			V13.978c25.845,5.067,49.447,5.586,55.972,5.628C364.416,19.605,365.21,20.326,365.21,21.215"/>
		<path fill="#FFFFFF" d="M307.465,161.643c-0.816,0-1.632-0.23-2.328-0.694c-2.604-1.731-10.116-6.299-23.651-11.313
			c-11.559-4.283-20.442-9.001-26.223-18.103c-5.574-8.774-8.059-21.482-8.059-41.204V20.967c0-2.137,1.824-3.876,4.067-3.876
			c6.693-0.042,30.509-0.57,55.354-5.604c0.55-0.111,1.132-0.112,1.684,0c24.836,5.033,48.645,5.562,55.36,5.604
			c2.24,0.004,4.061,1.742,4.061,3.876v69.361c0,40.128-10.108,50.349-34.284,59.307c-13.534,5.015-21.047,9.582-23.649,11.312
			C309.099,161.41,308.281,161.642,307.465,161.643 M253.27,21.59c-0.857,0.014-1.545,0.711-1.545,1.569v67.169
			c0,39.171,10.034,47.176,31.332,55.067c12.093,4.482,19.613,8.67,23.192,10.896c0.746,0.465,1.686,0.465,2.433,0
			c3.578-2.226,11.098-6.414,23.192-10.896c21.299-7.891,31.333-15.897,31.333-55.067V23.159c0-0.858-0.688-1.555-1.545-1.569
			c-8.698-0.136-30.818-0.962-53.893-5.599c-0.2-0.04-0.408-0.04-0.608,0C284.087,20.627,261.969,21.454,253.27,21.59
			 M251.288,21.612h-0.003H251.288z"/>
		<path fill="#D1774A" d="M307.465,165c-0.853,0-1.705-0.242-2.433-0.726c-2.719-1.809-10.568-6.58-24.708-11.819
			c-12.076-4.474-21.356-9.401-27.395-18.911c-5.823-9.167-8.42-22.443-8.42-43.047V18.036c0-2.232,1.906-4.049,4.249-4.049
			c6.993-0.044,31.873-0.595,57.828-5.855c0.575-0.115,1.183-0.116,1.759,0.001c25.946,5.257,50.819,5.81,57.836,5.854
			c2.34,0.005,4.241,1.82,4.241,4.049v72.461c0,41.922-10.559,52.601-35.816,61.958c-14.14,5.239-21.988,10.011-24.706,11.818
			C309.171,164.758,308.318,164.999,307.465,165 M250.732,18.097c-1.113,0.019-2.001,0.927-2.001,2.041v70.393
			c0,41.275,10.573,49.709,33.015,58.025c12.255,4.541,20.053,8.797,23.987,11.201c1.064,0.651,2.399,0.651,3.464,0
			c3.933-2.403,11.73-6.66,23.987-11.201c22.442-8.316,33.016-16.751,33.016-58.025v-70.05c0-1.302-1.041-2.366-2.343-2.39
			c-9.66-0.178-32.571-1.131-56.393-5.952C283.36,17.017,260.188,17.935,250.732,18.097 M248.271,18.127h-0.003H248.271z"/>
		<path d="M307.47,131.865c-0.823,0-1.637-0.218-2.349-0.63l-39.562-22.877c-1.446-0.836-2.344-2.392-2.344-4.062V58.542
			c0-1.67,0.898-3.226,2.344-4.062l39.562-22.877c0.712-0.412,1.525-0.63,2.349-0.63c0.824,0,1.636,0.218,2.35,0.63l39.554,22.877
			c1.446,0.837,2.345,2.396,2.343,4.067l-0.051,45.754c-0.001,1.666-0.897,3.22-2.34,4.055l-39.504,22.877
			C309.108,131.647,308.295,131.865,307.47,131.865 M310.526,123.692l25.102-14.537l-25.102,3.843V123.692z M304.354,123.661V112.94
			l-25.123-3.806L304.354,123.661z M313.101,106.359l29.755-4.554l-10.567-30.8L313.101,106.359z M301.749,106.303l-19.157-35.298
			l-10.566,30.794L301.749,106.303z M307.44,103.846l20.299-37.402h-40.598L307.44,103.846z M345.508,90.516l0.031-28.202
			l-8.687,2.978L345.508,90.516z M269.388,90.471l8.651-25.21l-8.651-2.966V90.471z M325.897,60.272l-18.431-20.049l-18.472,20.049
			H325.897z M333.846,59.797l7.778-2.667l-21.845-12.635L333.846,59.797z M281.062,59.772l14.053-15.252l-21.79,12.6L281.062,59.772
			z"/>
		<path fill="#FFFFFF" d="M307.47,32.454c0.556,0,1.11,0.144,1.608,0.431l39.554,22.878c0.993,0.574,1.604,1.635,1.603,2.782
			l-0.05,45.755c-0.001,1.144-0.611,2.201-1.602,2.775l-39.504,22.877c-0.498,0.288-1.053,0.432-1.609,0.432
			c-0.555,0-1.109-0.143-1.606-0.431L266.3,107.076c-0.993-0.574-1.604-1.633-1.604-2.78V58.542c0-1.147,0.611-2.206,1.604-2.78
			l39.563-22.877C306.36,32.598,306.915,32.454,307.47,32.454 M285.616,61.753h43.654l-21.801-23.717L285.616,61.753 M333.41,61.512
			l11.771-4.036l-33.056-19.118L333.41,61.512 M281.496,61.487l21.302-23.121l-33.03,19.099L281.496,61.487 M267.907,99.35
			l12.013-35.009l-12.013-4.119V99.35 M346.979,99.366l0.043-39.126l-12.052,4.132L346.979,99.366 M307.44,106.951l22.788-41.988
			h-45.576L307.44,106.951 M304.472,108.213l-22.185-40.877l-12.237,35.662L304.472,108.213 M310.375,108.274L344.832,103
			l-12.238-35.664L310.375,108.274 M305.835,126.228v-14.561l-34.123-5.17L305.835,126.228 M309.046,126.261l34.115-19.757
			l-34.115,5.222V126.261 M307.47,29.492c-1.083,0-2.151,0.287-3.09,0.829l-39.563,22.877c-1.901,1.1-3.083,3.147-3.083,5.344
			v45.754c0,2.197,1.182,4.244,3.083,5.344l39.563,22.877c0.938,0.543,2.007,0.829,3.09,0.829c1.085,0,2.155-0.287,3.094-0.831
			l39.504-22.877c1.896-1.098,3.076-3.143,3.079-5.335l0.049-45.754c0.004-2.199-1.178-4.249-3.081-5.35l-39.554-22.878
			C309.622,29.779,308.554,29.492,307.47,29.492 M292.373,58.791l15.093-16.382l15.059,16.382H292.373z M334.281,58.082l-6.85-7.45
			l10.637,6.152L334.281,58.082z M276.882,56.773l10.55-6.1l-6.804,7.385L276.882,56.773z M270.869,81.593V64.369l5.288,1.813
			L270.869,81.593z M338.734,66.212l5.321-1.824l-0.019,17.277L338.734,66.212z M289.63,67.925h35.621l-17.811,32.817L289.63,67.925
			z M274.004,100.601l8.896-25.926l16.129,29.718L274.004,100.601z M315.824,104.444l16.156-29.769l8.899,25.934L315.824,104.444z
			 M302.873,121.094l-16.123-9.323l16.123,2.443V121.094z M312.008,114.269l16.088-2.462l-16.088,9.316V114.269z"/>
		<polygon fill="#FFAD84" points="282.287,67.336 270.05,102.998 304.472,108.213 		"/>
		<polygon fill="#FFAD84" points="302.798,38.366 269.768,57.465 281.496,61.486 		"/>
		<polygon fill="#FFEADD" points="329.27,61.753 307.469,38.036 285.617,61.753 		"/>
		<polygon fill="#FFF4ED" points="345.182,57.476 312.126,38.358 333.41,61.512 		"/>
		<polygon fill="#E2845C" points="267.907,60.222 267.907,99.35 279.92,64.341 		"/>
		<polygon fill="#FFEADD" points="310.375,108.274 344.831,103 332.594,67.336 		"/>
		<polygon fill="#E2845C" points="305.835,126.228 305.835,111.667 271.712,106.497 		"/>
		<polygon fill="#FFF4ED" points="334.972,64.371 346.979,99.366 347.022,60.239 		"/>
		<polygon fill="#FFAD84" points="309.046,126.261 343.161,106.504 309.046,111.725 		"/>
		<polygon fill="#FFCCAF" points="284.652,64.963 307.44,106.951 330.229,64.963 		"/>
		<path fill="#D1774A" d="M348.632,55.762l-39.554-22.877c-0.498-0.288-1.054-0.432-1.608-0.432s-1.109,0.144-1.606,0.432
			l-39.564,22.877c-0.992,0.574-1.603,1.633-1.603,2.78v45.754c0,1.147,0.611,2.206,1.603,2.78l39.564,22.877
			c0.497,0.287,1.052,0.431,1.606,0.431c0.556,0,1.111-0.144,1.609-0.432l39.504-22.877c0.99-0.574,1.601-1.631,1.602-2.775
			l0.05-45.755C350.236,57.398,349.625,56.337,348.632,55.762 M267.907,60.222l12.013,4.119L267.907,99.35V60.222z M284.652,64.963
			h45.577l-22.788,41.988L284.652,64.963z M304.472,108.213l-34.422-5.216l12.237-35.661L304.472,108.213z M285.616,61.753
			l21.853-23.718l21.801,23.718H285.616z M333.41,61.512l-21.284-23.154l33.056,19.118L333.41,61.512z M281.496,61.487
			l-11.728-4.022l33.03-19.099L281.496,61.487z M305.835,111.667v14.561l-34.123-19.732L305.835,111.667z M332.594,67.336
			L344.832,103l-34.457,5.274L332.594,67.336z M334.971,64.371l12.052-4.131l-0.043,39.126L334.971,64.371z M309.046,126.261
			v-14.535l34.115-5.222L309.046,126.261z"/>
	</g>
	<g display="inline">
		<path fill="#D1774A" d="M19.506,245.352c0-1.795,1.587-3.174,3.519-3.174c2.001,0,3.657,1.379,3.657,3.174
			c0,3.035,2.415,5.934,7.038,5.934c4.416,0,7.245-2.484,7.245-6.21c0-2.967-0.69-5.521-4.899-8.28l-1.863-1.104
			c-4.554-2.553-5.796-3.381-7.107-4.209c-4.416-2.967-7.176-6.418-7.176-11.592c0-7.66,6.348-12.213,13.662-12.213
			c7.659,0,13.662,4.484,13.662,11.799c0,1.793-1.587,3.174-3.588,3.174s-3.588-1.381-3.588-3.174c0-3.174-2.07-5.451-6.486-5.451
			c-4.485,0-6.486,2.967-6.486,5.796c0,1.519,0,3.588,3.726,6.21c1.104,0.896,4.002,2.691,8.763,5.382
			c5.313,3.104,8.556,7.866,8.556,13.662c0,8.004-7.038,12.558-14.421,12.558C24.819,257.633,19.506,251.631,19.506,245.352z"/>
		<path fill="#D1774A" d="M96.854,210.852v43.539c0,1.793-1.587,3.242-3.588,3.242c-1.932,0-3.519-1.449-3.519-3.242v-20.424H75.188
			v20.424c0,1.793-1.587,3.242-3.519,3.242c-2.001,0-3.657-1.449-3.657-3.242v-43.539c0-1.795,1.656-3.174,3.657-3.174
			c1.932,0,3.519,1.379,3.519,3.174v16.767h14.559v-16.767c0-1.795,1.587-3.174,3.519-3.174
			C95.267,207.678,96.854,209.057,96.854,210.852z"/>
		<path fill="#D1774A" d="M188.485,254.045c0,1.795-1.587,3.174-3.588,3.174h-19.251c-1.933,0-3.52-1.379-3.52-3.174v-42.849
			c0-1.726,1.587-3.104,3.52-3.104h19.044c2.001,0,3.588,1.379,3.588,3.104c0,1.794-1.587,3.243-3.588,3.243h-15.387v13.179h13.455
			c2.001,0,3.588,1.448,3.588,3.243c0,1.725-1.587,3.105-3.588,3.105h-13.455v16.836h15.594
			C186.898,250.803,188.485,252.182,188.485,254.045z"/>
		<path fill="#D1774A" d="M233.956,253.631c0,1.795-1.588,3.174-3.589,3.174h-19.458c-2.001,0-3.588-1.379-3.588-3.174v-42.779
			c0-1.795,1.587-3.174,3.588-3.174s3.589,1.379,3.589,3.174v39.537h15.869C232.368,250.389,233.956,251.838,233.956,253.631z"/>
		<path fill="#D1774A" d="M129.594,207.678c-2.001,0-3.588,1.379-3.588,3.174v4.07v35.467v4.07c0,1.795,1.588,3.174,3.589,3.174
			s3.588-1.379,3.588-3.174v-4.07v-35.467v-4.07C133.183,209.057,131.595,207.678,129.594,207.678z"/>
		<path fill="#D1774A" d="M421.806,207.678c-2.001,0-3.588,1.379-3.588,3.174v4.07v35.467v4.07c0,1.795,1.588,3.174,3.589,3.174
			s3.588-1.379,3.588-3.174v-4.07v-35.467v-4.07C425.395,209.057,423.807,207.678,421.806,207.678z"/>
		<path fill="#D1774A" d="M256.449,257.219c-2.001,0-3.657-1.379-3.657-3.174v-42.849c0-1.726,1.656-3.104,3.657-3.104h9.937
			c8.004,0,14.489,6.278,14.489,14.075v20.907c0,7.797-6.485,14.145-14.489,14.145H256.449z M259.969,250.803h6.417
			c4.07,0,7.313-3.451,7.313-7.729v-20.907c0-4.278-3.243-7.728-7.313-7.728h-6.417V250.803z"/>
		<path fill="#D1774A" d="M333.453,254.391v-28.842l-8.694,17.664c-0.621,1.034-1.794,1.793-3.243,1.793
			c-1.38,0-2.553-0.621-3.174-1.725l-8.625-17.664v28.773c0,1.793-1.587,3.242-3.588,3.242c-1.932,0-3.519-1.449-3.519-3.242
			v-43.539c0-1.795,1.587-3.174,3.519-3.174c1.38,0,2.691,0.758,3.174,1.793l12.213,25.186c4.071-8.143,8.28-17.043,12.282-25.186
			c0.552-1.035,1.794-1.793,3.243-1.793c2.139,0,3.52,1.655,3.52,3.174v43.539c0,1.793-1.588,3.242-3.52,3.242
			C335.04,257.633,333.453,256.184,333.453,254.391z"/>
		<path fill="#D1774A" d="M393.068,253.562c0.414,1.863-1.104,4.07-3.588,4.07c-1.519,0-2.829-0.896-3.312-2.276l-2.897-9.246
			h-13.938c-0.966,3.174-1.794,6.142-2.76,9.246c-0.414,1.312-1.863,2.276-3.45,2.276c-2.07,0-4.14-2-3.381-4.14v0.069l13.11-43.608
			c0.482-1.312,1.932-2.276,3.519-2.276c1.518,0,2.898,0.965,3.381,2.276l13.248,43.608H393.068z M381.407,239.762l-5.037-19.043
			l-5.175,19.043H381.407z"/>
		<path fill="#D1774A" d="M457.996,257.219c-2.001,0-3.657-1.379-3.657-3.174v-42.849c0-1.726,1.656-3.104,3.657-3.104h9.937
			c8.004,0,14.489,6.278,14.489,14.075v20.907c0,7.797-6.485,14.145-14.489,14.145H457.996z M461.516,250.803h6.417
			c4.07,0,7.313-3.451,7.313-7.729v-20.907c0-4.278-3.243-7.728-7.313-7.728h-6.417V250.803z"/>
		<path fill="#D1774A" d="M530.376,254.045c0,1.795-1.587,3.174-3.588,3.174h-19.251c-1.933,0-3.52-1.379-3.52-3.174v-42.849
			c0-1.726,1.587-3.104,3.52-3.104h19.044c2.001,0,3.588,1.379,3.588,3.104c0,1.794-1.587,3.243-3.588,3.243h-15.387v13.179h13.455
			c2.001,0,3.588,1.448,3.588,3.243c0,1.725-1.587,3.105-3.588,3.105h-13.455v16.836h15.594
			C528.789,250.803,530.376,252.182,530.376,254.045z"/>
		<path fill="#D1774A" d="M571.639,255.84l-15.87-31.879l0.621,30.43c0,1.793-1.588,3.242-3.589,3.242
			c-1.932,0-3.588-1.449-3.588-3.242v-43.539c0-1.795,1.794-3.174,3.588-3.174c1.312,0,2.622,0.827,3.175,1.793l15.87,31.74
			l-0.621-30.359c0-1.795,1.587-3.174,3.588-3.174s3.588,1.379,3.588,3.174v43.539c0,1.518-1.173,2.76-2.76,3.174l0.138-0.069
			c-0.414,0.138-0.621,0.138-0.966,0.138C573.57,257.633,572.19,256.874,571.639,255.84z"/>
	</g>
</g>
<g id="Cyan">
	<g>
		<path fill="#4CB5BC" d="M248.847,21.215v57.364v6.435v5.302c0,38.844,9.58,48.412,32.685,56.974
			c13.713,5.08,21.374,9.742,24.026,11.508c0.209,0.138,1.667,0.268,1.907,0.315v-27.178l-43.693-25.379V55.695l43.693-25.011
			V13.978c-26.234,5.067-50.194,5.586-56.817,5.628C249.653,19.605,248.847,20.326,248.847,21.215"/>
		<path fill="#C5EAF4" d="M365.21,21.215v57.364v6.435v5.302c0,38.844-9.438,48.412-32.197,56.974
			c-13.509,5.08-21.056,9.742-23.668,11.508c-0.206,0.138-1.642,0.268-1.88,0.315v-27.178l45.013-25.379V55.695l-45.013-25.011
			V13.978c25.845,5.067,49.447,5.586,55.972,5.628C364.416,19.605,365.21,20.326,365.21,21.215"/>
		<path fill="#FFFFFF" d="M307.465,161.643c-0.816,0-1.632-0.23-2.328-0.694c-2.604-1.731-10.116-6.299-23.651-11.313
			c-11.559-4.283-20.442-9.001-26.223-18.103c-5.574-8.774-8.059-21.482-8.059-41.204V20.967c0-2.137,1.824-3.876,4.067-3.876
			c6.693-0.042,30.509-0.57,55.354-5.604c0.55-0.111,1.132-0.112,1.684,0c24.836,5.033,48.645,5.562,55.36,5.604
			c2.24,0.004,4.061,1.742,4.061,3.876v69.361c0,40.128-10.108,50.349-34.284,59.307c-13.534,5.015-21.047,9.582-23.649,11.312
			C309.099,161.41,308.281,161.642,307.465,161.643 M253.27,21.59c-0.857,0.014-1.545,0.711-1.545,1.569v67.169
			c0,39.171,10.034,47.176,31.332,55.067c12.093,4.482,19.613,8.67,23.192,10.896c0.746,0.465,1.686,0.465,2.433,0
			c3.578-2.226,11.098-6.414,23.192-10.896c21.299-7.891,31.333-15.897,31.333-55.067V23.159c0-0.858-0.688-1.555-1.545-1.569
			c-8.698-0.136-30.818-0.962-53.893-5.599c-0.2-0.04-0.408-0.04-0.608,0C284.087,20.627,261.969,21.454,253.27,21.59
			 M251.288,21.612h-0.003H251.288z"/>
		<path fill="#3FA3AD" d="M307.465,165c-0.853,0-1.705-0.242-2.433-0.726c-2.719-1.809-10.568-6.58-24.708-11.819
			c-12.076-4.474-21.356-9.401-27.395-18.911c-5.823-9.167-8.42-22.443-8.42-43.047V18.036c0-2.232,1.906-4.049,4.249-4.049
			c6.993-0.044,31.873-0.595,57.828-5.855c0.575-0.115,1.183-0.116,1.759,0.001c25.946,5.257,50.819,5.81,57.836,5.854
			c2.34,0.005,4.241,1.82,4.241,4.049v72.461c0,41.922-10.559,52.601-35.816,61.958c-14.14,5.239-21.988,10.011-24.706,11.818
			C309.171,164.758,308.318,164.999,307.465,165 M250.732,18.097c-1.113,0.019-2.001,0.927-2.001,2.041v70.393
			c0,41.275,10.573,49.709,33.015,58.025c12.255,4.541,20.053,8.797,23.987,11.201c1.064,0.651,2.399,0.651,3.464,0
			c3.933-2.403,11.73-6.66,23.987-11.201c22.442-8.316,33.016-16.751,33.016-58.025v-70.05c0-1.302-1.041-2.366-2.343-2.39
			c-9.66-0.178-32.571-1.131-56.393-5.952C283.36,17.017,260.188,17.935,250.732,18.097 M248.271,18.127h-0.003H248.271z"/>
		<path d="M307.47,131.865c-0.823,0-1.637-0.218-2.349-0.63l-39.562-22.877c-1.446-0.836-2.344-2.392-2.344-4.062V58.542
			c0-1.67,0.898-3.226,2.344-4.062l39.562-22.877c0.712-0.412,1.525-0.63,2.349-0.63c0.824,0,1.636,0.218,2.35,0.63l39.554,22.877
			c1.446,0.837,2.345,2.396,2.343,4.067l-0.051,45.754c-0.001,1.666-0.897,3.22-2.34,4.055l-39.504,22.877
			C309.108,131.647,308.295,131.865,307.47,131.865 M310.526,123.692l25.102-14.537l-25.102,3.843V123.692z M304.354,123.661V112.94
			l-25.123-3.806L304.354,123.661z M313.101,106.359l29.755-4.554l-10.567-30.8L313.101,106.359z M301.749,106.303l-19.157-35.298
			l-10.566,30.794L301.749,106.303z M307.44,103.846l20.299-37.402h-40.598L307.44,103.846z M345.508,90.516l0.031-28.202
			l-8.687,2.978L345.508,90.516z M269.388,90.471l8.651-25.21l-8.651-2.966V90.471z M325.897,60.272l-18.431-20.049l-18.472,20.049
			H325.897z M333.846,59.797l7.778-2.667l-21.845-12.635L333.846,59.797z M281.062,59.772l14.053-15.252l-21.79,12.6L281.062,59.772
			z"/>
		<path fill="#FFFFFF" d="M307.47,32.454c0.556,0,1.11,0.144,1.608,0.431l39.554,22.878c0.993,0.574,1.604,1.635,1.603,2.782
			l-0.05,45.755c-0.001,1.144-0.611,2.201-1.602,2.775l-39.504,22.877c-0.498,0.288-1.053,0.432-1.609,0.432
			c-0.555,0-1.109-0.143-1.606-0.431L266.3,107.076c-0.993-0.574-1.604-1.633-1.604-2.78V58.542c0-1.147,0.611-2.206,1.604-2.78
			l39.563-22.877C306.36,32.598,306.915,32.454,307.47,32.454 M285.616,61.753h43.654l-21.801-23.717L285.616,61.753 M333.41,61.512
			l11.771-4.036l-33.056-19.118L333.41,61.512 M281.496,61.487l21.302-23.121l-33.03,19.099L281.496,61.487 M267.907,99.35
			l12.013-35.009l-12.013-4.119V99.35 M346.979,99.366l0.043-39.126l-12.052,4.132L346.979,99.366 M307.44,106.951l22.788-41.988
			h-45.576L307.44,106.951 M304.472,108.213l-22.185-40.877l-12.237,35.662L304.472,108.213 M310.375,108.274L344.832,103
			l-12.238-35.664L310.375,108.274 M305.835,126.228v-14.561l-34.123-5.17L305.835,126.228 M309.046,126.261l34.115-19.757
			l-34.115,5.222V126.261 M307.47,29.492c-1.083,0-2.151,0.287-3.09,0.829l-39.563,22.877c-1.901,1.1-3.083,3.147-3.083,5.344
			v45.754c0,2.197,1.182,4.244,3.083,5.344l39.563,22.877c0.938,0.543,2.007,0.829,3.09,0.829c1.085,0,2.155-0.287,3.094-0.831
			l39.504-22.877c1.896-1.098,3.076-3.143,3.079-5.335l0.049-45.754c0.004-2.199-1.178-4.249-3.081-5.35l-39.554-22.878
			C309.622,29.779,308.554,29.492,307.47,29.492 M292.373,58.791l15.093-16.382l15.059,16.382H292.373z M334.281,58.082l-6.85-7.45
			l10.637,6.152L334.281,58.082z M276.882,56.773l10.55-6.1l-6.804,7.385L276.882,56.773z M270.869,81.593V64.369l5.288,1.813
			L270.869,81.593z M338.734,66.212l5.321-1.824l-0.019,17.277L338.734,66.212z M289.63,67.925h35.621l-17.811,32.817L289.63,67.925
			z M274.004,100.601l8.896-25.926l16.129,29.718L274.004,100.601z M315.824,104.444l16.156-29.769l8.899,25.934L315.824,104.444z
			 M302.873,121.094l-16.123-9.323l16.123,2.443V121.094z M312.008,114.269l16.088-2.462l-16.088,9.316V114.269z"/>
		<polygon fill="#6DCBD0" points="282.287,67.336 270.05,102.998 304.472,108.213 		"/>
		<polygon fill="#6DCBD0" points="302.798,38.366 269.768,57.465 281.496,61.486 		"/>
		<polygon fill="#C5EAF4" points="329.27,61.753 307.469,38.036 285.617,61.753 		"/>
		<polygon fill="#E0FBFB" points="345.182,57.476 312.126,38.358 333.41,61.512 		"/>
		<polygon fill="#4CB5BC" points="267.907,60.222 267.907,99.35 279.92,64.341 		"/>
		<polygon fill="#C5EAF4" points="310.375,108.274 344.831,103 332.594,67.336 		"/>
		<polygon fill="#4CB5BC" points="305.835,126.228 305.835,111.667 271.712,106.497 		"/>
		<polygon fill="#E0FBFB" points="334.972,64.371 346.979,99.366 347.022,60.239 		"/>
		<polygon fill="#6DCBD0" points="309.046,126.261 343.161,106.504 309.046,111.725 		"/>
		<polygon fill="#96DADF" points="284.652,64.963 307.44,106.951 330.229,64.963 		"/>
		<path fill="#3FA3AD" d="M348.632,55.762l-39.554-22.877c-0.498-0.288-1.054-0.432-1.608-0.432s-1.109,0.144-1.606,0.432
			l-39.564,22.877c-0.992,0.574-1.603,1.633-1.603,2.78v45.754c0,1.147,0.611,2.206,1.603,2.78l39.564,22.877
			c0.497,0.287,1.052,0.431,1.606,0.431c0.556,0,1.111-0.144,1.609-0.432l39.504-22.877c0.99-0.574,1.601-1.631,1.602-2.775
			l0.05-45.755C350.236,57.398,349.625,56.337,348.632,55.762 M267.907,60.222l12.013,4.119L267.907,99.35V60.222z M284.652,64.963
			h45.577l-22.788,41.988L284.652,64.963z M304.472,108.213l-34.422-5.216l12.237-35.661L304.472,108.213z M285.616,61.753
			l21.853-23.718l21.801,23.718H285.616z M333.41,61.512l-21.284-23.154l33.056,19.118L333.41,61.512z M281.496,61.487
			l-11.728-4.022l33.03-19.099L281.496,61.487z M305.835,111.667v14.561l-34.123-19.732L305.835,111.667z M332.594,67.336
			L344.832,103l-34.457,5.274L332.594,67.336z M334.971,64.371l12.052-4.131l-0.043,39.126L334.971,64.371z M309.046,126.261
			v-14.535l34.115-5.222L309.046,126.261z"/>
	</g>
	<g>
		<path fill="#3FA3AD" d="M19.506,245.352c0-1.795,1.587-3.174,3.519-3.174c2.001,0,3.657,1.379,3.657,3.174
			c0,3.035,2.415,5.934,7.038,5.934c4.416,0,7.245-2.484,7.245-6.21c0-2.967-0.69-5.521-4.899-8.28l-1.863-1.104
			c-4.554-2.553-5.796-3.381-7.107-4.209c-4.416-2.967-7.176-6.418-7.176-11.592c0-7.66,6.348-12.213,13.662-12.213
			c7.659,0,13.662,4.484,13.662,11.799c0,1.793-1.587,3.174-3.588,3.174s-3.588-1.381-3.588-3.174c0-3.174-2.07-5.451-6.486-5.451
			c-4.485,0-6.486,2.967-6.486,5.796c0,1.519,0,3.588,3.726,6.21c1.104,0.896,4.002,2.691,8.763,5.382
			c5.313,3.104,8.556,7.866,8.556,13.662c0,8.004-7.038,12.558-14.421,12.558C24.819,257.633,19.506,251.631,19.506,245.352z"/>
		<path fill="#3FA3AD" d="M96.854,210.852v43.539c0,1.793-1.587,3.242-3.588,3.242c-1.932,0-3.519-1.449-3.519-3.242v-20.424H75.188
			v20.424c0,1.793-1.587,3.242-3.519,3.242c-2.001,0-3.657-1.449-3.657-3.242v-43.539c0-1.795,1.656-3.174,3.657-3.174
			c1.932,0,3.519,1.379,3.519,3.174v16.767h14.559v-16.767c0-1.795,1.587-3.174,3.519-3.174
			C95.267,207.678,96.854,209.057,96.854,210.852z"/>
		<path fill="#3FA3AD" d="M188.485,254.045c0,1.795-1.587,3.174-3.588,3.174h-19.251c-1.933,0-3.52-1.379-3.52-3.174v-42.849
			c0-1.726,1.587-3.104,3.52-3.104h19.044c2.001,0,3.588,1.379,3.588,3.104c0,1.794-1.587,3.243-3.588,3.243h-15.387v13.179h13.455
			c2.001,0,3.588,1.448,3.588,3.243c0,1.725-1.587,3.105-3.588,3.105h-13.455v16.836h15.594
			C186.898,250.803,188.485,252.182,188.485,254.045z"/>
		<path fill="#3FA3AD" d="M233.956,253.631c0,1.795-1.588,3.174-3.589,3.174h-19.458c-2.001,0-3.588-1.379-3.588-3.174v-42.779
			c0-1.795,1.587-3.174,3.588-3.174s3.589,1.379,3.589,3.174v39.537h15.869C232.368,250.389,233.956,251.838,233.956,253.631z"/>
		<path fill="#3FA3AD" d="M129.594,207.678c-2.001,0-3.588,1.379-3.588,3.174v4.07v35.467v4.07c0,1.795,1.588,3.174,3.589,3.174
			s3.588-1.379,3.588-3.174v-4.07v-35.467v-4.07C133.183,209.057,131.595,207.678,129.594,207.678z"/>
		<path fill="#3FA3AD" d="M421.806,207.678c-2.001,0-3.588,1.379-3.588,3.174v4.07v35.467v4.07c0,1.795,1.588,3.174,3.589,3.174
			s3.588-1.379,3.588-3.174v-4.07v-35.467v-4.07C425.395,209.057,423.807,207.678,421.806,207.678z"/>
		<path fill="#3FA3AD" d="M256.449,257.219c-2.001,0-3.657-1.379-3.657-3.174v-42.849c0-1.726,1.656-3.104,3.657-3.104h9.937
			c8.004,0,14.489,6.278,14.489,14.075v20.907c0,7.797-6.485,14.145-14.489,14.145H256.449z M259.969,250.803h6.417
			c4.07,0,7.313-3.451,7.313-7.729v-20.907c0-4.278-3.243-7.728-7.313-7.728h-6.417V250.803z"/>
		<path fill="#3FA3AD" d="M333.453,254.391v-28.842l-8.694,17.664c-0.621,1.034-1.794,1.793-3.243,1.793
			c-1.38,0-2.553-0.621-3.174-1.725l-8.625-17.664v28.773c0,1.793-1.587,3.242-3.588,3.242c-1.932,0-3.519-1.449-3.519-3.242
			v-43.539c0-1.795,1.587-3.174,3.519-3.174c1.38,0,2.691,0.758,3.174,1.793l12.213,25.186c4.071-8.143,8.28-17.043,12.282-25.186
			c0.552-1.035,1.794-1.793,3.243-1.793c2.139,0,3.52,1.655,3.52,3.174v43.539c0,1.793-1.588,3.242-3.52,3.242
			C335.04,257.633,333.453,256.184,333.453,254.391z"/>
		<path fill="#3FA3AD" d="M393.068,253.562c0.414,1.863-1.104,4.07-3.588,4.07c-1.519,0-2.829-0.896-3.312-2.276l-2.897-9.246
			h-13.938c-0.966,3.174-1.794,6.142-2.76,9.246c-0.414,1.312-1.863,2.276-3.45,2.276c-2.07,0-4.14-2-3.381-4.14v0.069l13.11-43.608
			c0.482-1.312,1.932-2.276,3.519-2.276c1.518,0,2.898,0.965,3.381,2.276l13.248,43.608H393.068z M381.407,239.762l-5.037-19.043
			l-5.175,19.043H381.407z"/>
		<path fill="#3FA3AD" d="M457.996,257.219c-2.001,0-3.657-1.379-3.657-3.174v-42.849c0-1.726,1.656-3.104,3.657-3.104h9.937
			c8.004,0,14.489,6.278,14.489,14.075v20.907c0,7.797-6.485,14.145-14.489,14.145H457.996z M461.516,250.803h6.417
			c4.07,0,7.313-3.451,7.313-7.729v-20.907c0-4.278-3.243-7.728-7.313-7.728h-6.417V250.803z"/>
		<path fill="#3FA3AD" d="M530.376,254.045c0,1.795-1.587,3.174-3.588,3.174h-19.251c-1.933,0-3.52-1.379-3.52-3.174v-42.849
			c0-1.726,1.587-3.104,3.52-3.104h19.044c2.001,0,3.588,1.379,3.588,3.104c0,1.794-1.587,3.243-3.588,3.243h-15.387v13.179h13.455
			c2.001,0,3.588,1.448,3.588,3.243c0,1.725-1.587,3.105-3.588,3.105h-13.455v16.836h15.594
			C528.789,250.803,530.376,252.182,530.376,254.045z"/>
		<path fill="#3FA3AD" d="M571.639,255.84l-15.87-31.879l0.621,30.43c0,1.793-1.588,3.242-3.589,3.242
			c-1.932,0-3.588-1.449-3.588-3.242v-43.539c0-1.795,1.794-3.174,3.588-3.174c1.312,0,2.622,0.827,3.175,1.793l15.87,31.74
			l-0.621-30.359c0-1.795,1.587-3.174,3.588-3.174s3.588,1.379,3.588,3.174v43.539c0,1.518-1.173,2.76-2.76,3.174l0.138-0.069
			c-0.414,0.138-0.621,0.138-0.966,0.138C573.57,257.633,572.19,256.874,571.639,255.84z"/>
	</g>
</g>
<g id="Yellow" display="none">
	<g display="inline">
		<path fill="#DDA71A" d="M248.847,21.215v57.364v6.435v5.302c0,38.844,9.58,48.412,32.685,56.974
			c13.713,5.08,21.374,9.742,24.026,11.508c0.209,0.138,1.667,0.268,1.907,0.315v-27.178l-43.693-25.379V55.695l43.693-25.011
			V13.978c-26.234,5.067-50.194,5.586-56.817,5.628C249.653,19.605,248.847,20.326,248.847,21.215"/>
		<path fill="#FFE7AD" d="M365.21,21.215v57.364v6.435v5.302c0,38.844-9.438,48.412-32.197,56.974
			c-13.509,5.08-21.056,9.742-23.668,11.508c-0.206,0.138-1.642,0.268-1.88,0.315v-27.178l45.013-25.379V55.695l-45.013-25.011
			V13.978c25.845,5.067,49.447,5.586,55.972,5.628C364.416,19.605,365.21,20.326,365.21,21.215"/>
		<path fill="#FFFFFF" d="M307.465,161.643c-0.816,0-1.632-0.23-2.328-0.694c-2.604-1.731-10.116-6.299-23.651-11.313
			c-11.559-4.283-20.442-9.001-26.223-18.103c-5.574-8.774-8.059-21.482-8.059-41.204V20.967c0-2.137,1.824-3.876,4.067-3.876
			c6.693-0.042,30.509-0.57,55.354-5.604c0.55-0.111,1.132-0.112,1.684,0c24.836,5.033,48.645,5.562,55.36,5.604
			c2.24,0.004,4.061,1.742,4.061,3.876v69.361c0,40.128-10.108,50.349-34.284,59.307c-13.534,5.015-21.047,9.582-23.649,11.312
			C309.099,161.41,308.281,161.642,307.465,161.643 M253.27,21.59c-0.857,0.014-1.545,0.711-1.545,1.569v67.169
			c0,39.171,10.034,47.176,31.332,55.067c12.093,4.482,19.613,8.67,23.192,10.896c0.746,0.465,1.686,0.465,2.433,0
			c3.578-2.226,11.098-6.414,23.192-10.896c21.299-7.891,31.333-15.897,31.333-55.067V23.159c0-0.858-0.688-1.555-1.545-1.569
			c-8.698-0.136-30.818-0.962-53.893-5.599c-0.2-0.04-0.408-0.04-0.608,0C284.087,20.627,261.969,21.454,253.27,21.59
			 M251.288,21.612h-0.003H251.288z"/>
		<path fill="#BD8B00" d="M307.465,165c-0.853,0-1.705-0.242-2.433-0.726c-2.719-1.809-10.568-6.58-24.708-11.819
			c-12.076-4.474-21.356-9.401-27.395-18.911c-5.823-9.167-8.42-22.443-8.42-43.047V18.036c0-2.232,1.906-4.049,4.249-4.049
			c6.993-0.044,31.873-0.595,57.828-5.855c0.575-0.115,1.183-0.116,1.759,0.001c25.946,5.257,50.819,5.81,57.836,5.854
			c2.34,0.005,4.241,1.82,4.241,4.049v72.461c0,41.922-10.559,52.601-35.816,61.958c-14.14,5.239-21.988,10.011-24.706,11.818
			C309.171,164.758,308.318,164.999,307.465,165 M250.732,18.097c-1.113,0.019-2.001,0.927-2.001,2.041v70.393
			c0,41.275,10.573,49.709,33.015,58.025c12.255,4.541,20.053,8.797,23.987,11.201c1.064,0.651,2.399,0.651,3.464,0
			c3.933-2.403,11.73-6.66,23.987-11.201c22.442-8.316,33.016-16.751,33.016-58.025v-70.05c0-1.302-1.041-2.366-2.343-2.39
			c-9.66-0.178-32.571-1.131-56.393-5.952C283.36,17.017,260.188,17.935,250.732,18.097 M248.271,18.127h-0.003H248.271z"/>
		<path d="M307.47,131.865c-0.823,0-1.637-0.218-2.349-0.63l-39.562-22.877c-1.446-0.836-2.344-2.392-2.344-4.062V58.542
			c0-1.67,0.898-3.226,2.344-4.062l39.562-22.877c0.712-0.412,1.525-0.63,2.349-0.63c0.824,0,1.636,0.218,2.35,0.63l39.554,22.877
			c1.446,0.837,2.345,2.396,2.343,4.067l-0.051,45.754c-0.001,1.666-0.897,3.22-2.34,4.055l-39.504,22.877
			C309.108,131.647,308.295,131.865,307.47,131.865 M310.526,123.692l25.102-14.537l-25.102,3.843V123.692z M304.354,123.661V112.94
			l-25.123-3.806L304.354,123.661z M313.101,106.359l29.755-4.554l-10.567-30.8L313.101,106.359z M301.749,106.303l-19.157-35.298
			l-10.566,30.794L301.749,106.303z M307.44,103.846l20.299-37.402h-40.598L307.44,103.846z M345.508,90.516l0.031-28.202
			l-8.687,2.978L345.508,90.516z M269.388,90.471l8.651-25.21l-8.651-2.966V90.471z M325.897,60.272l-18.431-20.049l-18.472,20.049
			H325.897z M333.846,59.797l7.778-2.667l-21.845-12.635L333.846,59.797z M281.062,59.772l14.053-15.252l-21.79,12.6L281.062,59.772
			z"/>
		<path fill="#FFFFFF" d="M307.47,32.454c0.556,0,1.11,0.144,1.608,0.431l39.554,22.878c0.993,0.574,1.604,1.635,1.603,2.782
			l-0.05,45.755c-0.001,1.144-0.611,2.201-1.602,2.775l-39.504,22.877c-0.498,0.288-1.053,0.432-1.609,0.432
			c-0.555,0-1.109-0.143-1.606-0.431L266.3,107.076c-0.993-0.574-1.604-1.633-1.604-2.78V58.542c0-1.147,0.611-2.206,1.604-2.78
			l39.563-22.877C306.36,32.598,306.915,32.454,307.47,32.454 M285.616,61.753h43.654l-21.801-23.717L285.616,61.753 M333.41,61.512
			l11.771-4.036l-33.056-19.118L333.41,61.512 M281.496,61.487l21.302-23.121l-33.03,19.099L281.496,61.487 M267.907,99.35
			l12.013-35.009l-12.013-4.119V99.35 M346.979,99.366l0.043-39.126l-12.052,4.132L346.979,99.366 M307.44,106.951l22.788-41.988
			h-45.576L307.44,106.951 M304.472,108.213l-22.185-40.877l-12.237,35.662L304.472,108.213 M310.375,108.274L344.832,103
			l-12.238-35.664L310.375,108.274 M305.835,126.228v-14.561l-34.123-5.17L305.835,126.228 M309.046,126.261l34.115-19.757
			l-34.115,5.222V126.261 M307.47,29.492c-1.083,0-2.151,0.287-3.09,0.829l-39.563,22.877c-1.901,1.1-3.083,3.147-3.083,5.344
			v45.754c0,2.197,1.182,4.244,3.083,5.344l39.563,22.877c0.938,0.543,2.007,0.829,3.09,0.829c1.085,0,2.155-0.287,3.094-0.831
			l39.504-22.877c1.896-1.098,3.076-3.143,3.079-5.335l0.049-45.754c0.004-2.199-1.178-4.249-3.081-5.35l-39.554-22.878
			C309.622,29.779,308.554,29.492,307.47,29.492 M292.373,58.791l15.093-16.382l15.059,16.382H292.373z M334.281,58.082l-6.85-7.45
			l10.637,6.152L334.281,58.082z M276.882,56.773l10.55-6.1l-6.804,7.385L276.882,56.773z M270.869,81.593V64.369l5.288,1.813
			L270.869,81.593z M338.734,66.212l5.321-1.824l-0.019,17.277L338.734,66.212z M289.63,67.925h35.621l-17.811,32.817L289.63,67.925
			z M274.004,100.601l8.896-25.926l16.129,29.718L274.004,100.601z M315.824,104.444l16.156-29.769l8.899,25.934L315.824,104.444z
			 M302.873,121.094l-16.123-9.323l16.123,2.443V121.094z M312.008,114.269l16.088-2.462l-16.088,9.316V114.269z"/>
		<polygon fill="#FFC44A" points="282.287,67.336 270.05,102.998 304.472,108.213 		"/>
		<polygon fill="#FFC44A" points="302.798,38.366 269.768,57.465 281.496,61.486 		"/>
		<polygon fill="#FFE7AD" points="329.27,61.753 307.469,38.036 285.617,61.753 		"/>
		<polygon fill="#FFF4E0" points="345.182,57.476 312.126,38.358 333.41,61.512 		"/>
		<polygon fill="#DDA71A" points="267.907,60.222 267.907,99.35 279.92,64.341 		"/>
		<polygon fill="#FFE7AD" points="310.375,108.274 344.831,103 332.594,67.336 		"/>
		<polygon fill="#DDA71A" points="305.835,126.228 305.835,111.667 271.712,106.497 		"/>
		<polygon fill="#FFF4E0" points="334.972,64.371 346.979,99.366 347.022,60.239 		"/>
		<polygon fill="#FFC44A" points="309.046,126.261 343.161,106.504 309.046,111.725 		"/>
		<polygon fill="#FFDB65" points="284.652,64.963 307.44,106.951 330.229,64.963 		"/>
		<path fill="#BD8B00" d="M348.632,55.762l-39.554-22.877c-0.498-0.288-1.054-0.432-1.608-0.432s-1.109,0.144-1.606,0.432
			l-39.564,22.877c-0.992,0.574-1.603,1.633-1.603,2.78v45.754c0,1.147,0.611,2.206,1.603,2.78l39.564,22.877
			c0.497,0.287,1.052,0.431,1.606,0.431c0.556,0,1.111-0.144,1.609-0.432l39.504-22.877c0.99-0.574,1.601-1.631,1.602-2.775
			l0.05-45.755C350.236,57.398,349.625,56.337,348.632,55.762 M267.907,60.222l12.013,4.119L267.907,99.35V60.222z M284.652,64.963
			h45.577l-22.788,41.988L284.652,64.963z M304.472,108.213l-34.422-5.216l12.237-35.661L304.472,108.213z M285.616,61.753
			l21.853-23.718l21.801,23.718H285.616z M333.41,61.512l-21.284-23.154l33.056,19.118L333.41,61.512z M281.496,61.487
			l-11.728-4.022l33.03-19.099L281.496,61.487z M305.835,111.667v14.561l-34.123-19.732L305.835,111.667z M332.594,67.336
			L344.832,103l-34.457,5.274L332.594,67.336z M334.971,64.371l12.052-4.131l-0.043,39.126L334.971,64.371z M309.046,126.261
			v-14.535l34.115-5.222L309.046,126.261z"/>
	</g>
	<g display="inline">
		<path fill="#BD8B00" d="M19.506,245.352c0-1.795,1.587-3.174,3.519-3.174c2.001,0,3.657,1.379,3.657,3.174
			c0,3.035,2.415,5.934,7.038,5.934c4.416,0,7.245-2.484,7.245-6.21c0-2.967-0.69-5.521-4.899-8.28l-1.863-1.104
			c-4.554-2.553-5.796-3.381-7.107-4.209c-4.416-2.967-7.176-6.418-7.176-11.592c0-7.66,6.348-12.213,13.662-12.213
			c7.659,0,13.662,4.484,13.662,11.799c0,1.793-1.587,3.174-3.588,3.174s-3.588-1.381-3.588-3.174c0-3.174-2.07-5.451-6.486-5.451
			c-4.485,0-6.486,2.967-6.486,5.796c0,1.519,0,3.588,3.726,6.21c1.104,0.896,4.002,2.691,8.763,5.382
			c5.313,3.104,8.556,7.866,8.556,13.662c0,8.004-7.038,12.558-14.421,12.558C24.819,257.633,19.506,251.631,19.506,245.352z"/>
		<path fill="#BD8B00" d="M96.854,210.852v43.539c0,1.793-1.587,3.242-3.588,3.242c-1.932,0-3.519-1.449-3.519-3.242v-20.424H75.188
			v20.424c0,1.793-1.587,3.242-3.519,3.242c-2.001,0-3.657-1.449-3.657-3.242v-43.539c0-1.795,1.656-3.174,3.657-3.174
			c1.932,0,3.519,1.379,3.519,3.174v16.767h14.559v-16.767c0-1.795,1.587-3.174,3.519-3.174
			C95.267,207.678,96.854,209.057,96.854,210.852z"/>
		<path fill="#BD8B00" d="M188.485,254.045c0,1.795-1.587,3.174-3.588,3.174h-19.251c-1.933,0-3.52-1.379-3.52-3.174v-42.849
			c0-1.726,1.587-3.104,3.52-3.104h19.044c2.001,0,3.588,1.379,3.588,3.104c0,1.794-1.587,3.243-3.588,3.243h-15.387v13.179h13.455
			c2.001,0,3.588,1.448,3.588,3.243c0,1.725-1.587,3.105-3.588,3.105h-13.455v16.836h15.594
			C186.898,250.803,188.485,252.182,188.485,254.045z"/>
		<path fill="#BD8B00" d="M233.956,253.631c0,1.795-1.588,3.174-3.589,3.174h-19.458c-2.001,0-3.588-1.379-3.588-3.174v-42.779
			c0-1.795,1.587-3.174,3.588-3.174s3.589,1.379,3.589,3.174v39.537h15.869C232.368,250.389,233.956,251.838,233.956,253.631z"/>
		<path fill="#BD8B00" d="M129.594,207.678c-2.001,0-3.588,1.379-3.588,3.174v4.07v35.467v4.07c0,1.795,1.588,3.174,3.589,3.174
			s3.588-1.379,3.588-3.174v-4.07v-35.467v-4.07C133.183,209.057,131.595,207.678,129.594,207.678z"/>
		<path fill="#BD8B00" d="M421.806,207.678c-2.001,0-3.588,1.379-3.588,3.174v4.07v35.467v4.07c0,1.795,1.588,3.174,3.589,3.174
			s3.588-1.379,3.588-3.174v-4.07v-35.467v-4.07C425.395,209.057,423.807,207.678,421.806,207.678z"/>
		<path fill="#BD8B00" d="M256.449,257.219c-2.001,0-3.657-1.379-3.657-3.174v-42.849c0-1.726,1.656-3.104,3.657-3.104h9.937
			c8.004,0,14.489,6.278,14.489,14.075v20.907c0,7.797-6.485,14.145-14.489,14.145H256.449z M259.969,250.803h6.417
			c4.07,0,7.313-3.451,7.313-7.729v-20.907c0-4.278-3.243-7.728-7.313-7.728h-6.417V250.803z"/>
		<path fill="#BD8B00" d="M333.453,254.391v-28.842l-8.694,17.664c-0.621,1.034-1.794,1.793-3.243,1.793
			c-1.38,0-2.553-0.621-3.174-1.725l-8.625-17.664v28.773c0,1.793-1.587,3.242-3.588,3.242c-1.932,0-3.519-1.449-3.519-3.242
			v-43.539c0-1.795,1.587-3.174,3.519-3.174c1.38,0,2.691,0.758,3.174,1.793l12.213,25.186c4.071-8.143,8.28-17.043,12.282-25.186
			c0.552-1.035,1.794-1.793,3.243-1.793c2.139,0,3.52,1.655,3.52,3.174v43.539c0,1.793-1.588,3.242-3.52,3.242
			C335.04,257.633,333.453,256.184,333.453,254.391z"/>
		<path fill="#BD8B00" d="M393.068,253.562c0.414,1.863-1.104,4.07-3.588,4.07c-1.519,0-2.829-0.896-3.312-2.276l-2.897-9.246
			h-13.938c-0.966,3.174-1.794,6.142-2.76,9.246c-0.414,1.312-1.863,2.276-3.45,2.276c-2.07,0-4.14-2-3.381-4.14v0.069l13.11-43.608
			c0.482-1.312,1.932-2.276,3.519-2.276c1.518,0,2.898,0.965,3.381,2.276l13.248,43.608H393.068z M381.407,239.762l-5.037-19.043
			l-5.175,19.043H381.407z"/>
		<path fill="#BD8B00" d="M457.996,257.219c-2.001,0-3.657-1.379-3.657-3.174v-42.849c0-1.726,1.656-3.104,3.657-3.104h9.937
			c8.004,0,14.489,6.278,14.489,14.075v20.907c0,7.797-6.485,14.145-14.489,14.145H457.996z M461.516,250.803h6.417
			c4.07,0,7.313-3.451,7.313-7.729v-20.907c0-4.278-3.243-7.728-7.313-7.728h-6.417V250.803z"/>
		<path fill="#BD8B00" d="M530.376,254.045c0,1.795-1.587,3.174-3.588,3.174h-19.251c-1.933,0-3.52-1.379-3.52-3.174v-42.849
			c0-1.726,1.587-3.104,3.52-3.104h19.044c2.001,0,3.588,1.379,3.588,3.104c0,1.794-1.587,3.243-3.588,3.243h-15.387v13.179h13.455
			c2.001,0,3.588,1.448,3.588,3.243c0,1.725-1.587,3.105-3.588,3.105h-13.455v16.836h15.594
			C528.789,250.803,530.376,252.182,530.376,254.045z"/>
		<path fill="#BD8B00" d="M571.639,255.84l-15.87-31.879l0.621,30.43c0,1.793-1.588,3.242-3.589,3.242
			c-1.932,0-3.588-1.449-3.588-3.242v-43.539c0-1.795,1.794-3.174,3.588-3.174c1.312,0,2.622,0.827,3.175,1.793l15.87,31.74
			l-0.621-30.359c0-1.795,1.587-3.174,3.588-3.174s3.588,1.379,3.588,3.174v43.539c0,1.518-1.173,2.76-2.76,3.174l0.138-0.069
			c-0.414,0.138-0.621,0.138-0.966,0.138C573.57,257.633,572.19,256.874,571.639,255.84z"/>
	</g>
</g>
</svg>
