<?xml version="1.0" encoding="utf-8"?>
<!-- Generator: Adobe Illustrator 16.0.0, SVG Export Plug-In . SVG Version: 6.00 Build 0)  -->
<!DOCTYPE svg PUBLIC "-//W3C//DTD SVG 1.1//EN" "http://www.w3.org/Graphics/SVG/1.1/DTD/svg11.dtd">
<svg version="1.1" id="Layer_1" xmlns="http://www.w3.org/2000/svg" xmlns:xlink="http://www.w3.org/1999/xlink" x="0px" y="0px"
	 width="562.531px" height="58px" viewBox="0 49.978 562.531 58" enable-background="new 0 49.978 562.531 58" xml:space="preserve"
	>
<g>
	<path fill="#3FA3AD" d="M31.852,56.855v43.701c0,1.801-1.593,3.254-3.602,3.254c-1.938,0-3.531-1.453-3.531-3.254V80.058H10.105
		v20.498c0,1.801-1.593,3.256-3.532,3.256c-2.009,0-3.671-1.455-3.671-3.256v-43.7c0-1.801,1.662-3.186,3.671-3.186
		c1.939,0,3.532,1.385,3.532,3.186v16.829h14.613v-16.83c0-1.801,1.593-3.186,3.531-3.186C30.259,53.67,31.852,55.055,31.852,56.855
		"/>
	<path fill="#3FA3AD" d="M86.007,99.726c0.415,1.871-1.109,4.086-3.602,4.086c-1.523,0-2.839-0.899-3.324-2.285l-2.908-9.28h-13.99
		c-0.969,3.188-1.801,6.164-2.77,9.28c-0.416,1.314-1.87,2.285-3.464,2.285c-2.077,0-4.154-2.009-3.393-4.155v0.069l13.159-43.771
		c0.484-1.314,1.939-2.285,3.532-2.285c1.523,0,2.909,0.971,3.393,2.285l13.297,43.771H86.007z M74.302,85.874l-5.055-19.113
		l-5.195,19.113H74.302z"/>
	<path fill="#3FA3AD" d="M135.105,99.655c0.416,1.869-0.971,4.156-3.463,4.156c-1.455,0-2.909-0.832-3.462-2.147l-6.51-21.331
		c-0.07,0.068-0.971,0.208-8.035,0.208v20.084c0,1.731-1.592,3.187-3.6,3.187c-1.94,0-3.601-1.453-3.601-3.187V57.202
		c0-1.731,1.661-3.116,3.601-3.116h11.427c7.548,0,13.711,5.888,13.711,13.229c0,4.917-2.77,9.21-6.924,11.564l6.786,20.707
		L135.105,99.655z M121.462,74.17c3.601,0,6.509-3.047,6.509-6.855c0-3.81-2.908-6.857-6.509-6.857h-7.827V74.17H121.462z"/>
	<path fill="#3FA3AD" d="M188.013,100.556V71.608l-8.728,17.729c-0.623,1.039-1.799,1.801-3.254,1.801
		c-1.386,0-2.562-0.623-3.186-1.73l-8.657-17.729v28.879c0,1.801-1.593,3.254-3.601,3.254c-1.939,0-3.532-1.453-3.532-3.254V56.856
		c0-1.802,1.593-3.187,3.532-3.187c1.385,0,2.701,0.762,3.186,1.801l12.258,25.278c4.086-8.172,8.312-17.105,12.328-25.278
		c0.553-1.039,1.801-1.801,3.256-1.801c2.146,0,3.53,1.662,3.53,3.187v43.7c0,1.801-1.592,3.254-3.53,3.254
		C189.605,103.812,188.013,102.356,188.013,100.556"/>
	<path fill="#3FA3AD" d="M246.529,99.794c0,1.803-1.594,3.188-3.602,3.188h-19.529c-2.009,0-3.602-1.385-3.602-3.188V56.856
		c0-1.801,1.593-3.187,3.602-3.187c2.008,0,3.602,1.386,3.602,3.187v39.683h15.928C244.936,96.539,246.529,97.993,246.529,99.794"/>
	<path fill="#3FA3AD" d="M293.55,100.21c0,1.803-1.592,3.188-3.602,3.188h-19.322c-1.938,0-3.531-1.385-3.531-3.188V57.202
		c0-1.73,1.594-3.116,3.531-3.116h19.115c2.008,0,3.602,1.386,3.602,3.116c0,1.801-1.594,3.255-3.602,3.255h-15.444v13.229h13.505
		c2.008,0,3.602,1.455,3.602,3.255c0,1.73-1.594,3.117-3.602,3.117h-13.505v16.897h15.651
		C291.958,96.955,293.55,98.34,293.55,100.21"/>
	<path fill="#3FA3AD" d="M311.416,91.483c0-1.801,1.594-3.187,3.533-3.187c2.008,0,3.67,1.386,3.67,3.187
		c0,3.048,2.424,5.955,7.062,5.955c4.434,0,7.273-2.492,7.273-6.231c0-2.979-0.693-5.54-4.918-8.312l-1.871-1.107
		c-4.57-2.562-5.816-3.394-7.133-4.225c-4.434-2.978-7.203-6.439-7.203-11.635c0-7.688,6.373-12.258,13.713-12.258
		c7.688,0,13.713,4.501,13.713,11.842c0,1.801-1.594,3.186-3.602,3.186c-2.01,0-3.602-1.385-3.602-3.186
		c0-3.185-2.078-5.47-6.51-5.47c-4.502,0-6.51,2.977-6.51,5.816c0,1.523,0,3.603,3.74,6.232c1.105,0.9,4.016,2.702,8.795,5.403
		c5.332,3.115,8.588,7.895,8.588,13.712c0,8.032-7.064,12.604-14.477,12.604C316.748,103.812,311.416,97.786,311.416,91.483"/>
	<path fill="#3FA3AD" d="M359.06,91.483c0-1.801,1.594-3.187,3.533-3.187c2.008,0,3.67,1.386,3.67,3.187
		c0,3.048,2.426,5.955,7.064,5.955c4.432,0,7.27-2.492,7.27-6.231c0-2.979-0.691-5.54-4.916-8.312l-1.871-1.107
		c-4.568-2.562-5.816-3.394-7.133-4.225c-4.432-2.978-7.203-6.439-7.203-11.635c0-7.688,6.373-12.258,13.715-12.258
		c7.686,0,13.713,4.501,13.713,11.842c0,1.801-1.596,3.186-3.604,3.186c-2.01,0-3.602-1.385-3.602-3.186
		c0-3.185-2.076-5.47-6.51-5.47c-4.5,0-6.512,2.977-6.512,5.816c0,1.523,0,3.603,3.74,6.232c1.109,0.9,4.018,2.702,8.795,5.403
		c5.334,3.115,8.59,7.895,8.59,13.712c0,8.032-7.064,12.604-14.475,12.604C364.392,103.812,359.06,97.786,359.06,91.483"/>
	<path fill="#3FA3AD" d="M464.599,103.812c-1.314,0-2.631-0.832-3.393-2.078l-10.805-22.991l-4.293,4.847v16.969
		c0,1.801-1.594,3.254-3.604,3.254c-2.008,0-3.67-1.453-3.67-3.254V56.857c0-1.801,1.662-3.186,3.67-3.186
		c2.01,0,3.604,1.385,3.604,3.186v17.037c5.193-6.371,10.387-12.812,15.582-19.113c0.623-0.693,1.801-1.109,2.84-1.109
		c2.631,0,4.432,3.118,2.77,5.195l-11.703,14.266l12.188,26.11C468.617,101.11,467.232,103.812,464.599,103.812"/>
	<path fill="#3FA3AD" d="M514.529,100.21c0,1.803-1.594,3.188-3.602,3.188h-19.32c-1.939,0-3.533-1.385-3.533-3.188V57.202
		c0-1.73,1.594-3.116,3.533-3.116h19.113c2.008,0,3.602,1.386,3.602,3.116c0,1.801-1.594,3.255-3.602,3.255h-15.443v13.229h13.506
		c2.008,0,3.6,1.455,3.6,3.255c0,1.73-1.592,3.117-3.6,3.117h-13.506v16.897h15.65C512.937,96.955,514.529,98.34,514.529,100.21"/>
	<path fill="#3FA3AD" d="M561.275,58.172l-11.221,24.726v17.66c0,1.801-1.523,3.254-3.531,3.254c-2.01,0-3.602-1.453-3.602-3.254
		V82.965l-11.148-24.793c-0.693-1.938,0.76-4.502,3.254-4.502c1.455,0,2.699,0.763,3.256,1.87l8.24,19.253l8.24-19.253
		c0.555-1.107,1.732-1.87,3.256-1.87C560.304,53.67,562.244,55.955,561.275,58.172"/>
</g>
</svg>
